<?xml version="1.0" standalone="no"?>
<!DOCTYPE svg PUBLIC "-//W3C//DTD SVG 1.1//EN" "http://www.w3.org/Graphics/SVG/1.1/DTD/svg11.dtd" >
<svg>
<metadata>
Created by FontForge 20090914 at Fri Jun 14 19:22:13 2019
 By www-data
Copyright (c) 2015 by Roland Huse. All rights reserved.
</metadata>
<defs>
<font id="BiloxiThin" horiz-adv-x="578" >
  <font-face 
    font-family="Biloxi Thin"
    font-weight="400"
    font-stretch="normal"
    units-per-em="1000"
    panose-1="2 0 0 0 0 0 0 0 0 0"
    ascent="800"
    descent="-200"
    x-height="170"
    cap-height="642.006"
    bbox="-579.996 -422.999 1336 877.997"
    underline-thickness="50"
    underline-position="-50"
    unicode-range="U+0020-U+2122"
  />
<missing-glyph horiz-adv-x="301" 
 />
    <glyph glyph-name="tt" unicode="tt" horiz-adv-x="554" 
d="M447 416c-27.333 -72 -46.167 -122.999 -56.5 -152.999s-20.166 -62 -29.499 -96s-14 -64.333 -14 -91c0 -18 3.66699 -32.833 11 -44.5s18.666 -17.5 33.999 -17.5c14.667 0 31.5 4 50.5 12s39 19.167 60 33.5s42.5 31.666 64.5 51.999l62 58.5l8 -6
c-19.333 -19.333 -40.5 -39.333 -63.5 -60s-45.333 -38.334 -67 -53.001s-42.167 -26.167 -61.5 -34.5s-37 -12.5 -53 -12.5c-18 0 -31.667 6.66699 -41 20s-14 30.666 -14 51.999c0 26.667 4.83301 57.834 14.5 93.501s19.5 68.334 29.5 98.001s28.667 80.5 56 152.5z
M154.999 370.001c-16 -41.333 -29.167 -76.999 -39.5 -106.999s-20.166 -62 -29.499 -96s-14 -64.333 -14 -91c0 -18 3.66699 -32.833 11 -44.5s18.666 -17.5 33.999 -17.5c14.667 0 31.5 4 50.5 12s39 19.167 60 33.5s42.5 31.666 64.5 51.999l62 58.5l8 -6
c-19.333 -19.333 -40.5 -39.333 -63.5 -60s-45.333 -38.334 -67 -53.001s-42.167 -26.167 -61.5 -34.5s-37 -12.5 -53 -12.5c-18 0 -31.667 6.66699 -41 20s-14 30.666 -14 51.999c0 26.667 4.83301 57.834 14.5 93.501s19.5 68.334 29.5 98.001s23 65.167 39 106.5z
M-146.001 283.002c5.33301 -0.666992 11.833 -0.998047 19.5 -0.998047h25.5c22 0 49.167 0.666992 81.5 2s68.333 3.16602 108 5.49902s82.334 5.5 128.001 9.5s93.167 9 142.5 15c66 8 129.833 15 191.5 21s118.167 11.167 169.5 15.5s95.833 7.66602 133.5 9.99902
s65.167 3.16602 82.5 2.49902v-10c-18 0.666992 -45.167 0 -81.5 -2s-79.833 -5.16699 -130.5 -9.5s-106.834 -9.66602 -168.501 -15.999s-126.5 -13.5 -194.5 -21.5c-50 -6 -98 -11 -144 -15s-88.833 -7.33301 -128.5 -10s-75.667 -4.5 -108 -5.5s-59.5 -1.5 -81.5 -1.5
h-25.5c-7.66699 0 -14.167 0.333008 -19.5 1v10z" />
    <glyph glyph-name="ll" unicode="ll" horiz-adv-x="916" 
d="M1000 162c-104.667 -74.667 -212.67 -112.002 -324.003 -112.002c-35.333 0 -64.333 4.16699 -87 12.5s-40.667 19.333 -54 33s-22.666 29 -27.999 46s-8 34.167 -8 51.5c0 32.667 9.16699 68.5 27.5 107.5s45.666 76.333 81.999 112s69.5 61.667 99.5 78
s60.333 24.833 91 25.5c8.66699 0 15.334 -2.5 20.001 -7.5s7 -11.5 7 -19.5c0 -14.667 -4.66699 -31.667 -14 -51s-21.666 -38 -36.999 -56s-34.166 -37.667 -56.499 -59s-46.166 -42 -71.499 -62l-6 8c26 20.667 49.833 41.834 71.5 63.501s40 41.334 55 59.001
s26.667 35.334 35 53.001s12.5 32.5 12.5 44.5c0 11.333 -5.33301 17 -16 17c-30 -0.666992 -59.333 -9.16699 -88 -25.5s-60.834 -42 -96.501 -77s-62.167 -71.167 -79.5 -108.5s-26 -71.333 -26 -102c0 -16 2.5 -31.833 7.5 -47.5s13.667 -29.834 26 -42.501
s29.333 -23 51 -31s49.167 -12 82.5 -12c107.333 0 213.333 36.667 318 110zM646.997 260.998c-156.667 -132.667 -289.333 -202.997 -398 -210.997c-35.333 0 -64.333 4.16699 -87 12.5s-40.667 19.333 -54 33s-22.666 29 -27.999 46s-8 34.167 -8 51.5
c0 32.667 7.33301 65.667 22 99s33.667 63.666 57 90.999s50 49.666 80 66.999s60.333 26 91 26c8.66699 0 15.334 -2.5 20.001 -7.5s7 -11.5 7 -19.5c0 -14.667 -4.66699 -31.667 -14 -51s-22 -39.333 -38 -60s-34.833 -41.167 -56.5 -61.5s-45.167 -38.833 -70.5 -55.5
l-6 8c26 18 49.667 37.333 71 58s39.666 41 54.999 61s27.166 38.833 35.499 56.5s12.5 32.5 12.5 44.5c0 11.333 -5.33301 17 -16 17c-30 0 -59.333 -8.5 -88 -25.5s-54.167 -38.833 -76.5 -65.5s-40.5 -56 -54.5 -88s-21 -63.333 -21 -94c0 -16 2.5 -31.833 7.5 -47.5
s13.667 -29.834 26 -42.501s29.333 -23 51 -31s49.167 -12 82.5 -12c103.333 8 234 77.667 392 209z" />
    <glyph glyph-name=".notdef" horiz-adv-x="301" 
 />
    <glyph glyph-name="space" unicode=" " horiz-adv-x="454" 
 />
    <glyph glyph-name="space" unicode="&#xa0;" horiz-adv-x="454" 
 />
    <glyph glyph-name="exclam" unicode="!" horiz-adv-x="326" 
d="M200 641c10 -57.333 15 -117.333 15 -180c0 -58 -3.16699 -113.5 -9.5 -166.5s-13.166 -99.5 -20.499 -139.5l-10 2c7.33301 40 14.166 86.5 20.499 139.5s9.5 107.833 9.5 164.5c0 60.667 -5 120 -15 178zM140 32c7.33301 6 14.333 9.50098 21 10.501
s13 0.166992 19 -2.5l-1 -11c-4.66699 1.33301 -9.66699 2.16602 -15 2.49902s-11.333 -2.16699 -18 -7.5z" />
    <glyph glyph-name="quotedbl" unicode="&#x22;" horiz-adv-x="366" 
d="M195 704c-4 -31.333 -9.83203 -59.498 -17.499 -84.498s-17.167 -50.833 -28.5 -77.5l-10 4c11.333 25.333 20.666 50.166 27.999 74.499s13.333 52.166 18 83.499h10zM279.001 701.002c-3.33301 -11.333 -7.50098 -24.499 -12.501 -39.499l-15.5 -46
c-5.33301 -15.667 -11 -30.834 -17 -45.501s-12 -27 -18 -37l-8 6c5.33301 9.33301 10.833 21 16.5 35l17 44c5.66699 15.333 10.834 30.5 15.501 45.5l12 39.5z" />
    <glyph glyph-name="numbersign" unicode="#" horiz-adv-x="590" 
d="M168 232c7.33301 0.666992 19.499 1.50195 36.499 2.50195s36.333 2.33301 58 4l68 5l68 5l58 4.5c17 1.33301 29.5 2.66602 37.5 3.99902l2 -10c-8 -1.33301 -20.5 -2.66602 -37.5 -3.99902l-58 -4.5c-21.667 -1.66699 -44.5 -3.33398 -68.5 -5.00098
s-46.833 -3.33398 -68.5 -5.00098s-41.167 -3 -58.5 -4s-29.666 -1.83301 -36.999 -2.5v10zM81.999 160.002c14 0 34 0.5 60 1.5s54.667 2.16699 86 3.5s63.833 3 97.5 5s65.167 4.33301 94.5 7v-10c-29.333 -2.66699 -60.833 -5 -94.5 -7s-66.167 -3.66699 -97.5 -5
s-60 -2.5 -86 -3.5s-46 -1.5 -60 -1.5v10zM288.999 353.002l-37.5 -84.5l-31.5 -74l-29.5 -75l-32.5 -86.5l-10 4l32.5 86.5l29.5 75l31.5 74l37.5 84.5zM394.999 353.002c-12 -25.333 -23.167 -50.333 -33.5 -75s-20.666 -50.667 -30.999 -78l-31.5 -87.5l-35 -102.5l-10 4
l35 102.5l31.5 87.5c10.333 27.333 20.666 53.333 30.999 78s21.5 49.667 33.5 75z" />
    <glyph glyph-name="dollar" unicode="$" horiz-adv-x="539" 
d="M495 217c0 20.667 -3.50098 42.1689 -10.501 64.502s-16.833 42.833 -29.5 61.5s-27.834 34 -45.501 46s-37.167 18 -58.5 18c-11.333 0 -21 -2 -29 -6s-14.667 -9 -20 -15s-9.16602 -12.5 -11.499 -19.5s-3.5 -13.5 -3.5 -19.5c0 -24 4.16699 -46 12.5 -66
s18.833 -38 31.5 -54s26.334 -30.167 41.001 -42.5s28.334 -23.166 41.001 -32.499c15.333 -10.667 28.333 -20.834 39 -30.501s16 -19.5 16 -29.5c0 -13.333 -8 -24 -24 -32s-34.833 -14.167 -56.5 -18.5s-43.834 -7.16602 -66.501 -8.49902s-41 -2 -55 -2
c-18 0 -38 0.833008 -60 2.5s-42.5 4.5 -61.5 8.5s-35 9.66699 -48 17s-19.5 16.666 -19.5 27.999c0 8.66699 3 16.5 9 23.5s13 12.667 21 17s16.5 7.5 25.5 9.5s16.5 2.66699 22.5 2l-2 -10c-5.33301 0.666992 -11.666 0.333984 -18.999 -0.999023
s-14.5 -3.83301 -21.5 -7.5s-13 -8.33398 -18 -14.001s-7.5 -12.167 -7.5 -19.5c0 -9.33301 6.83301 -17 20.5 -23s30 -10.667 49 -14s38.667 -5.66602 59 -6.99902s37.166 -2 50.499 -2s30.833 0.5 52.5 1.5s42.834 3.16699 63.501 6.5s38.5 8.5 53.5 15.5
s22.5 16.167 22.5 27.5c0 7.33301 -4.83301 15.333 -14.5 24s-21.834 18 -36.501 28c-13.333 9.33301 -27.666 20.666 -42.999 33.999s-29.5 28.5 -42.5 45.5s-23.667 35.833 -32 56.5s-12.5 43 -12.5 67c0 7.33301 1.33301 15 4 23s7 15.5 13 22.5s13.667 12.833 23 17.5
s20.666 7 33.999 7c22.667 0 43.5 -6.33301 62.5 -19s35.333 -28.834 49 -48.501s24.167 -41.334 31.5 -65.001s11 -46.167 11 -67.5h-10zM429.999 567.002c-10.667 -28.667 -20.667 -63.6738 -30 -105.007s-17.5 -85.666 -24.5 -132.999s-12.5 -95.666 -16.5 -144.999
s-6 -96 -6 -140c0 -18.667 0.333008 -36.667 1 -54s2 -33.666 4 -48.999l-10 -2c-2 15.333 -3.33301 31.833 -4 49.5s-1 36.167 -1 55.5c0 44.667 2 91.834 6 141.501s9.5 98.334 16.5 146.001s15.167 92.334 24.5 134.001s19.333 76.834 30 105.501z" />
    <glyph glyph-name="uni0025" unicode="%" horiz-adv-x="392" 
d="M327 444c-4 -6.66699 -8.33301 -13.501 -13 -20.501l-15 -22.5l-52.5 -82.5c-19 -30.333 -37.833 -62 -56.5 -95s-36.167 -66.5 -52.5 -100.5s-29.5 -67.333 -39.5 -100l-10 4c10 31.333 23 64 39 98s33.5 67.833 52.5 101.5s38.333 65.834 58 96.501l53.5 84l15 22.5
c4.66699 7 9 13.833 13 20.5zM158 318.999c-7.33301 0 -12 -3.33301 -14 -10l-10 4c2.66699 10.667 10.667 16 24 16v-10zM324 242.999c-3.33301 0 -7.5 -0.666992 -12.5 -2s-8.5 -4.66602 -10.5 -9.99902l-10 4c3.33301 7.33301 8.33301 12.166 15 14.499
s12.667 3.5 18 3.5v-10z" />
    <glyph glyph-name="ampersand" unicode="&#x26;" horiz-adv-x="438" 
d="M454 -51c-33.333 13.333 -65.6699 33 -97.0029 59s-59.5 55.5 -84.5 88.5s-45 68.167 -60 105.5s-22.5 73.666 -22.5 108.999c0 39.333 4.16699 74 12.5 104s19 55.333 32 76s27.5 36.167 43.5 46.5s31.667 15.5 47 15.5c17.333 0 29.5 -5.16699 36.5 -15.5
s10.5 -22.166 10.5 -35.499c0 -10.667 -5 -23.834 -15 -39.501s-22.833 -32.5 -38.5 -50.5s-33.167 -36.833 -52.5 -56.5l-57 -56.5l-59 -60.5c-19.333 -20.333 -36.833 -39.833 -52.5 -58.5s-28.167 -36 -37.5 -52s-14 -29.333 -14 -40
c0 -11.333 2.16699 -20.833 6.5 -28.5s10.333 -13.667 18 -18s16.334 -7.33301 26.001 -9s20.167 -2.5 31.5 -2.5c17.333 0 35 1.5 53 4.5s33.667 6.16699 47 9.5l2 -10c-13.333 -3.33301 -29.166 -6.5 -47.499 -9.5s-36.5 -4.5 -54.5 -4.5c-12.667 0 -24.5 1 -35.5 3
s-20.667 5.5 -29 10.5s-15 12 -20 21s-7.5 20.167 -7.5 33.5c0 12.667 4.83301 27.334 14.5 44.001s22.5 34.5 38.5 53.5s34.167 38.833 54.5 59.5l61.5 62l58 57.5c18.667 19 35.334 37 50.001 54s26.5 32.667 35.5 47s13.5 26.5 13.5 36.5
c0 10.667 -2.83301 20.167 -8.5 28.5s-15.167 12.5 -28.5 12.5c-14 0 -28.5 -5 -43.5 -15s-28.5 -24.833 -40.5 -44.5s-21.833 -43.834 -29.5 -72.501s-11.5 -62 -11.5 -100c0 -34.667 7.33301 -70 22 -106s34.167 -70.167 58.5 -102.5s52 -61.166 83 -86.499
s62.5 -44.333 94.5 -57z" />
    <glyph glyph-name="quotesingle" unicode="'" horiz-adv-x="322" 
d="M183 709c0 -24 -2.66699 -50.5 -8 -79.5s-13.666 -57.833 -24.999 -86.5l-10 4c11.333 28.667 19.666 57 24.999 85s8 53.667 8 77h10z" />
    <glyph glyph-name="parenleft" unicode="(" horiz-adv-x="298" 
d="M277 682c-20.667 -21.333 -42.668 -47.168 -66.001 -77.501s-44.666 -65.166 -63.999 -104.499s-35.5 -83.166 -48.5 -131.499s-19.5 -101.5 -19.5 -159.5c0 -46 5 -94.833 15 -146.5s26.667 -107.167 50 -166.5l-10 -4c-23.333 59.333 -40 115.166 -50 167.499
s-15 102.166 -15 149.499c0 58.667 6.5 112.667 19.5 162s29.5 93.833 49.5 133.5s41.667 74.834 65 105.501s45.333 56.667 66 78z" />
    <glyph glyph-name="parenright" unicode=")" horiz-adv-x="381" 
d="M67 726c32.667 -35.333 62.332 -73.833 88.999 -115.5s49.334 -85 68.001 -130s33.167 -90.667 43.5 -137s15.5 -91.5 15.5 -135.5c0 -64.667 -12 -124.834 -36 -180.501s-61.667 -101.5 -113 -137.5l-6 8c50.667 35.333 87.5 80 110.5 134s34.5 112.667 34.5 176
c0 44 -5.16699 88.833 -15.5 134.5s-24.833 90.834 -43.5 135.501s-41.167 87.5 -67.5 128.5s-55.5 78.833 -87.5 113.5z" />
    <glyph glyph-name="asterisk" unicode="*" horiz-adv-x="562" 
d="M74 550c11.333 -3.33301 29.166 -8 53.499 -14s53.5 -12.167 87.5 -18.5s72 -11.833 114 -16.5s86 -7 132 -7h27c8.66699 0 17.667 0.333008 27 1v-10c-9.33301 -0.666992 -18.333 -1 -27 -1h-27c-46.667 0 -91.167 2.33301 -133.5 7s-80.5 10.167 -114.5 16.5
s-63.167 12.5 -87.5 18.5s-42.166 10.667 -53.499 14zM207 575c10.667 -14.667 21.833 -34.167 33.5 -58.5s22.167 -47.5 31.5 -69.5l-10 -4c-9.33301 22.667 -19.833 46 -31.5 70s-22.167 42.667 -31.5 56zM306.999 642c-15.333 -38 -30.667 -78.5 -46 -121.5
s-27.333 -85.5 -36 -127.5l-10 2c9.33301 44 21.5 87.333 36.5 130s30.167 83 45.5 121zM139.998 440c8.66699 5.33301 16.334 10.333 23.001 15l19 13l32 20.5c10 6.33301 21.667 14.5 35 24.5l6 -8c-13.333 -10 -25 -18.167 -35 -24.5l-32 -20.5l-19 -13
c-6.66699 -4.66699 -14.334 -9.66699 -23.001 -15z" />
    <glyph glyph-name="plus" unicode="+" horiz-adv-x="500" 
d="M254 411l-2.5 -41c-1 -16.667 -2.16699 -34.667 -3.5 -54c-1.33301 -17.333 -2.5 -35.166 -3.5 -53.499l-3 -53.5c-1 -17.333 -2 -33.333 -3 -48l-2.5 -37h-10l2.5 37c1 14.667 2 30.667 3 48l3 53.5c1 18.333 2.16699 36.166 3.5 53.499
c1.33301 18.667 2.5 36.667 3.5 54s1.83301 31 2.5 41h10zM134 290c12.667 1.33301 27 2.5 43 3.5l50 3c17.333 1 35 1.83301 53 2.5s35.333 1 52 1h21.5c7 0 14.167 -0.333008 21.5 -1v-10c-7.33301 0.666992 -14.5 1 -21.5 1h-21.5c-16.667 0 -34 -0.333008 -52 -1
s-35.667 -1.5 -53 -2.5l-50 -3c-16 -1 -30.333 -2.16699 -43 -3.5v10z" />
    <glyph glyph-name="comma" unicode="," horiz-adv-x="322" 
d="M180 73c-0.666992 -10 -1.66895 -21.499 -3.00195 -34.499s-3.33301 -26.5 -6 -40.5s-6.5 -28 -11.5 -42s-11.167 -27.333 -18.5 -40l-8 6c6.66699 12 12.334 24.667 17.001 38s8.33398 26.666 11.001 39.999s4.66699 26.333 6 39s2.33301 24 3 34h10z" />
    <glyph glyph-name="hyphen" unicode="-" horiz-adv-x="500" 
d="M134 290c12.667 1.33301 27 2.5 43 3.5l50 3c17.333 1 35 1.83301 53 2.5s35.333 1 52 1h21.5c7 0 14.167 -0.333008 21.5 -1v-10c-7.33301 0.666992 -14.5 1 -21.5 1h-21.5c-16.667 0 -34 -0.333008 -52 -1s-35.667 -1.5 -53 -2.5l-50 -3
c-16 -1 -30.333 -2.16699 -43 -3.5v10z" />
    <glyph glyph-name="period" unicode="." horiz-adv-x="346" 
d="M148 53c-1.33301 -6.66699 -0.166992 -13 3.5 -19s10.167 -9.66699 19.5 -11l-2 -10c-12 1.33301 -20.5 6.33301 -25.5 15s-6.83301 17.667 -5.5 27z" />
    <glyph glyph-name="slash" unicode="/" horiz-adv-x="463" 
d="M452 736c-5.33301 -13.333 -14.5 -32.833 -27.5 -58.5l-46 -89l-58.5 -109.5l-65 -121l-75.5 -140.5l-67.5 -128c-20 -39 -36.833 -73 -50.5 -102s-22.167 -49.5 -25.5 -61.5l-10 2c2.66699 11.333 11 31.5 25 60.5l51.5 102.5l68.5 129.5l76 141.5l61.5 114l57 107
l46.5 91c13.333 27.333 23.333 49.333 30 66z" />
    <glyph glyph-name="zero" unicode="0" horiz-adv-x="269" 
d="M238 429c-14.667 -14 -33.168 -34.1641 -55.501 -60.4971s-43.833 -55.833 -64.5 -88.5s-38.5 -66.834 -53.5 -102.501s-22.5 -69.834 -22.5 -102.501s10.667 -49 32 -49c10.667 0 24 7 40 21s31.5 32.167 46.5 54.5s27.667 47.5 38 75.5s15.5 56 15.5 84
c0 15.333 -1.5 28 -4.5 38s-6.5 18.167 -10.5 24.5s-8 11 -12 14s-6.66699 4.83301 -8 5.5l4 10c2 -0.666992 5.33301 -2.66699 10 -6s9.16699 -8.5 13.5 -15.5s8.33301 -16.333 12 -28s5.5 -25.834 5.5 -42.501c0 -29.333 -5.5 -58.5 -16.5 -87.5
s-24.333 -55.167 -40 -78.5s-32 -42.333 -49 -57s-31.833 -22 -44.5 -22c-13.333 0 -23.666 4.5 -30.999 13.5s-11 24.167 -11 45.5c0 34 7.5 69.167 22.5 105.5s33.167 71 54.5 104s43.333 63 66 90s41.667 47.833 57 62.5z" />
    <glyph glyph-name="one" unicode="1" horiz-adv-x="284" 
d="M33 397c7.33301 10 16.832 22 28.499 36l35 41.5l32.5 37.5c10 11.333 17.333 19 22 23l6 -8c-4.66699 -4 -12 -11.5 -22 -22.5l-32 -37l-34 -41c-11.333 -13.667 -20.666 -25.5 -27.999 -35.5zM156.999 527c5.33301 -36 8.66602 -79.832 9.99902 -131.499
s2 -104.834 2 -159.501c0 -42 -0.166992 -82.5 -0.5 -121.5s-1.16602 -73.5 -2.49902 -103.5h-10c1.33301 30 2.16602 64.5 2.49902 103.5s0.5 79.5 0.5 121.5c0 54 -0.666992 106.667 -2 158s-4.66602 95 -9.99902 131z" />
    <glyph glyph-name="two" unicode="2" horiz-adv-x="312" 
d="M31 464c7.33301 11.333 16.167 22.1689 26.5 32.502s24.5 15.5 42.5 15.5c10 0 19.5 -2.33301 28.5 -7s16.833 -13.334 23.5 -26.001s11.834 -29.834 15.501 -51.501s5.5 -49.834 5.5 -84.501c0 -34 -4.33301 -69.333 -13 -106s-18.667 -70.834 -30 -102.501
s-22.166 -59 -32.499 -82s-17.166 -37.833 -20.499 -44.5l-10 4c3.33301 6.66699 10.166 21.5 20.499 44.5s21.166 50.167 32.499 81.5s21.333 65 30 101s13 70.667 13 104c0 32.667 -1.66699 59.334 -5 80.001s-7.83301 36.834 -13.5 48.501s-12.334 19.667 -20.001 24
s-15.834 6.5 -24.501 6.5c-15.333 0 -27.666 -4.83301 -36.999 -14.5s-17.333 -19.5 -24 -29.5zM73.001 18.0029l39.501 16.998c18.333 8 38.666 17.833 60.999 29.5s45.166 24.334 68.499 38.001s44.333 28.167 63 43.5l6 -8
c-19.333 -15.333 -40.833 -30.166 -64.5 -44.499s-46.667 -27.333 -69 -39s-42.666 -21.5 -60.999 -29.5l-39.5 -17z" />
    <glyph glyph-name="three" unicode="3" horiz-adv-x="395" 
d="M14 443c15.333 4 35.334 8.83301 60.001 14.5s51 11.334 79 17.001s56.667 10.834 86 15.501s56.666 8.33398 81.999 11.001v-10c-24.667 -2.66699 -51.5 -6.33398 -80.5 -11.001s-57.5 -9.83398 -85.5 -15.501s-54.333 -11.334 -79 -17.001s-44.667 -10.5 -60 -14.5z
M322.001 491c-4 -4 -9.5 -9.16699 -16.5 -15.5l-24 -21.5l-28.5 -24.5l-29 -24.5l-27.5 -23.5l-21.5 -18.5l-6 8l21 18l28 24l29 24.5l28.5 24l23.5 20.5c6.66699 6 11.667 11 15 15zM183.001 369c4.66699 -5.33301 14.001 -11.1699 28.001 -17.5029s30 -12.833 48 -19.5
l42 -16c14 -5.33301 26.667 -11.333 38 -18s20.666 -14 27.999 -22s11 -17 11 -27c0 -24.667 -9.33301 -46.5 -28 -65.5s-40.667 -35.5 -66 -49.5s-50.833 -25.5 -76.5 -34.5s-45.834 -15.5 -60.501 -19.5l-2 10c14 4 33.5 10.333 58.5 19s49.667 19.5 74 32.5
s45.5 28.5 63.5 46.5s27 38.333 27 61c0 6.66699 -3.66699 13.334 -11 20.001s-16.666 13.167 -27.999 19.5s-23.5 12.333 -36.5 18s-25.5 10.834 -37.5 15.501c-18 6.66699 -34.5 13.334 -49.5 20.001s-25.167 13.667 -30.5 21z" />
    <glyph glyph-name="four" unicode="4" horiz-adv-x="231" 
d="M130 27c2 4.66699 3.83301 11.333 5.5 20s3.16699 17.667 4.5 27s2.5 18.333 3.5 27s1.5 15 1.5 19h10c0 -4.66699 -0.5 -11.5 -1.5 -20.5s-2.16699 -18.333 -3.5 -28s-2.83301 -19 -4.5 -28s-3.5 -15.833 -5.5 -20.5zM165 546.999
c-12 -21.333 -23.835 -47.668 -35.502 -79.001s-22 -64 -31 -98s-16.333 -67.167 -22 -99.5s-8.5 -59.833 -8.5 -82.5c0 -30 5.16699 -49.5 15.5 -58.5s21.5 -13.5 33.5 -13.5c5.33301 0 10.5 0.333008 15.5 1s9.16699 1.66699 12.5 3l2 -10
c-3.33301 -1.33301 -7.66602 -2.33301 -12.999 -3s-11 -1 -17 -1c-7.33301 0 -14.5 1 -21.5 3s-13.167 6 -18.5 12s-9.83301 14.333 -13.5 25s-5.5 24.667 -5.5 42c0 22.667 2.83301 50.334 8.5 83.001s13.167 66.167 22.5 100.5s19.833 67.333 31.5 99
s23.834 58.5 36.501 80.5z" />
    <glyph glyph-name="five" unicode="5" horiz-adv-x="286" 
d="M359 534c-12.667 2.66699 -30.835 5.33398 -54.502 8.00098s-48 5 -73 7s-48.5 3.33301 -70.5 4s-37.667 1 -47 1v10c9.33301 0 25 -0.333008 47 -1s45.833 -2 71.5 -4s50.334 -4.33301 74.001 -7s41.834 -5.33398 54.501 -8.00098zM123.999 558l27.501 -70.499
c10.333 -27 20.166 -54.833 29.499 -83.5s17.333 -57 24 -85s10 -52.333 10 -73c0 -27.333 -5 -51.166 -15 -71.499s-23.667 -37.833 -41 -52.5s-37.666 -26.5 -60.999 -35.5s-48 -15.833 -74 -20.5l-2 10c25.333 4 49.166 10.333 71.499 19s41.666 20 57.999 34
s29.333 30.667 39 50s14.5 41.666 14.5 66.999c0 20 -3.33301 43.667 -10 71s-14.667 55.166 -24 83.499s-19.166 56 -29.499 83l-27.5 70.5z" />
    <glyph glyph-name="six" unicode="6" horiz-adv-x="350" 
d="M324 588c-28 -18.667 -57.668 -43.3301 -89.001 -73.9971s-60.5 -64.5 -87.5 -101.5s-49.333 -75.5 -67 -115.5s-26.5 -78.667 -26.5 -116c0 -19.333 2.33301 -36 7 -50s10.834 -25.5 18.501 -34.5s16 -15.5 25 -19.5s18.167 -6 27.5 -6
c11.333 0 21.833 2.16699 31.5 6.5s14.5 10.166 14.5 17.499c0 5.33301 -5.33301 10 -16 14s-23.667 6 -39 6c-7.33301 0 -15 -0.833008 -23 -2.5s-16 -4.16699 -24 -7.5l-4 10c8 3.33301 16.5 5.83301 25.5 7.5s17.5 2.5 25.5 2.5c18.667 0 34.167 -3.16699 46.5 -9.5
s18.5 -13.166 18.5 -20.499c0 -10 -5.66699 -18.167 -17 -24.5s-24.333 -9.5 -39 -9.5c-10 0 -20.167 2.16699 -30.5 6.5s-19.833 11.333 -28.5 21s-15.667 22.167 -21 37.5s-8 33.666 -8 54.999c0 38 9 77.5 27 118.5s40.5 80.167 67.5 117.5s56.667 71.666 89 102.999
s62.5 56.666 90.5 75.999z" />
    <glyph glyph-name="seven" unicode="7" horiz-adv-x="312" 
d="M9 449l51.501 20.5c19.667 7.66699 41.167 14.5 64.5 20.5s48.666 10.833 75.999 14.5s56.333 4.5 87 2.5v-10c-30 2 -58.333 1.16699 -85 -2.5s-51.5 -8.5 -74.5 -14.5s-44.333 -12.833 -64 -20.5l-51.5 -20.5zM288.001 497c-58.667 -68.667 -106 -144.667 -142 -228
s-55 -169 -57 -257h-10c2 89.333 21 176 57 260s84 161 144 231z" />
    <glyph glyph-name="eight" unicode="8" horiz-adv-x="290" 
d="M105 9c-15.333 0 -29.3311 6.49902 -41.998 19.499s-19 31.167 -19 54.5c0 26 6.66699 54.667 20 86s28 63.333 44 96c17.333 34.667 33 68.667 47 102s21 64 21 92c0 14.667 -2.16699 27.167 -6.5 37.5s-9.66602 18.666 -15.999 24.999s-13.5 10.833 -21.5 13.5
s-15.333 4 -22 4c-22 0 -33 -11.667 -33 -35c0 -11.333 5.16699 -24.666 15.5 -39.999s23.166 -33 38.499 -53l39.5 -52.5c13.667 -19 26.167 -39.333 37.5 -61s20.666 -44.167 27.999 -67.5s11 -47.666 11 -72.999c0 -28.667 -4.66699 -52.5 -14 -71.5
s-21 -34.167 -35 -45.5s-29.333 -19.333 -46 -24s-32.334 -7 -47.001 -7zM105.002 -1.00098c15.333 0 32.001 2.50195 50.001 7.50195s34.5 13.5 49.5 25.5s27.5 28.167 37.5 48.5s15 45.833 15 76.5c0 25.333 -3.83301 50.166 -11.5 74.499s-17.334 47.5 -29.001 69.5
s-24.5 42.833 -38.5 62.5l-39 53.5c-13.333 17.333 -25.333 33.833 -36 49.5s-16 28.167 -16 37.5c0 16.667 7.66699 25 23 25c12 0 24.333 -5.33301 37 -16s19 -28.667 19 -54c0 -28 -7 -58.5 -21 -91.5s-29 -65.833 -45 -98.5l-25 -50c-8 -16.667 -15 -33 -21 -49
s-10.833 -31.333 -14.5 -46s-5.5 -28.334 -5.5 -41.001c0 -26 7.33301 -46.5 22 -61.5s31 -22.5 49 -22.5z" />
    <glyph glyph-name="nine" unicode="9" horiz-adv-x="220" 
d="M171 408c-6 7.33301 -13.167 14.9971 -21.5 22.9971s-17.333 15.5 -27 22.5s-19.667 12.833 -30 17.5s-20.166 7 -29.499 7c-11.333 0 -17 -7.33301 -17 -22c0 -11.333 5.16699 -23.666 15.5 -36.999s24.833 -23 43.5 -29c14.667 -3.33301 29.5 -3.66602 44.5 -0.999023
s29.167 6.66699 42.5 12l4 -10c-14 -5.33301 -29 -9.66602 -45 -12.999s-32 -2.66602 -48 2.00098c-23.333 6.66699 -40.333 17.667 -51 33s-16 29.666 -16 42.999c0 9.33301 2 17 6 23s11 9 21 9s20.5 -2.33301 31.5 -7s21.667 -10.667 32 -18s20.166 -15.333 29.499 -24
s17 -17 23 -25zM196 390.997l-22.499 -67.5l-35 -100l-40.5 -111c-14 -37.667 -27.333 -71.167 -40 -100.5l-10 4c8.66699 20 17.667 42 27 66l28 73l27 73.5l24 68.5l19 57c5.33301 16.667 9.66602 29.667 12.999 39z" />
    <glyph glyph-name="colon" unicode=":" horiz-adv-x="346" 
d="M163 329c1.33301 -5.33301 5.50098 -8.33301 12.501 -9s13.167 1 18.5 5l6 -8c-7.33301 -6.66699 -16.333 -9 -27 -7s-17.334 7.66699 -20.001 17zM148.001 53c-1.33301 -6.66699 -0.166992 -13 3.5 -19s10.167 -9.66699 19.5 -11l-2 -10
c-12 1.33301 -20.5 6.33301 -25.5 15s-6.83301 17.667 -5.5 27z" />
    <glyph glyph-name="semicolon" unicode=";" horiz-adv-x="322" 
d="M163 329c1.33301 -5.33301 5.50098 -8.33301 12.501 -9s13.167 1 18.5 5l6 -8c-7.33301 -6.66699 -16.333 -9 -27 -7s-17.334 7.66699 -20.001 17zM180.001 73c-0.666992 -10 -1.66895 -21.499 -3.00195 -34.499s-3.33301 -26.5 -6 -40.5s-6.5 -28 -11.5 -42
s-11.167 -27.333 -18.5 -40l-8 6c6.66699 12 12.334 24.667 17.001 38s8.33398 26.666 11.001 39.999s4.66699 26.333 6 39s2.33301 24 3 34h10z" />
    <glyph glyph-name="less" unicode="&#x3c;" horiz-adv-x="305" 
d="M253 273c-9.33301 -5.33301 -21.667 -13.168 -37 -23.501l-47 -33l-46 -35c-14.667 -11.667 -26 -21.5 -34 -29.5l-8 8c7.33301 7.33301 18.333 16.833 33 28.5s30.167 23.334 46.5 35.001l48 33.5c15.667 10.667 28.5 18.667 38.5 24zM196.999 101.998
c-6 1.33301 -14.667 4.16797 -26 8.50098l-36 14c-12.667 5 -24.5 10.167 -35.5 15.5s-19.167 9.66602 -24.5 12.999l6 8c5.33301 -3.33301 13.333 -7.5 24 -12.5s22 -10 34 -15s23.5 -9.5 34.5 -13.5s19.5 -6.66699 25.5 -8z" />
    <glyph glyph-name="equal" unicode="=" horiz-adv-x="443" 
d="M121 265c10 -3.33301 22.8301 -6.16602 38.4971 -8.49902s32.334 -4.33301 50.001 -6s35.834 -2.83398 54.501 -3.50098s36.334 -0.666992 53.001 0v-10c-17.333 -0.666992 -35.333 -0.666992 -54 0s-37 1.83398 -55 3.50098s-34.833 3.66699 -50.5 6
s-28.5 5.16602 -38.5 8.49902zM109.997 170c10 -1.33301 23.832 -2.33301 41.499 -3s36.834 -1 57.501 -1c19.333 0 38.5 0.166992 57.5 0.5s36.833 1.16602 53.5 2.49902v-10c-16.667 -1.33301 -34.5 -2.16602 -53.5 -2.49902s-38.167 -0.5 -57.5 -0.5
c-21.333 0 -41 0.333008 -59 1s-32 1.66699 -42 3z" />
    <glyph glyph-name="greater" unicode="&#x3e;" horiz-adv-x="371" 
d="M85 287c14 -2.66699 30.833 -6.33398 50.5 -11.001s39 -9.83398 58 -15.501l52.5 -16c16 -5 27.333 -8.83301 34 -11.5l-4 -10c-6.66699 2.66699 -18 6.5 -34 11.5l-52.5 16c-19 5.66699 -38 10.834 -57 15.501s-35.5 8.33398 -49.5 11.001zM112 135
c10 4 23.166 10.667 39.499 20l50 29.5l47.5 29c14.667 9 25 15.5 31 19.5l6 -8l-32.5 -20l-48.5 -30l-50.5 -30c-16.333 -9.33301 -29.166 -16 -38.499 -20z" />
    <glyph glyph-name="question" unicode="?" horiz-adv-x="372" 
d="M98 402c-6 16.667 -8.99707 35.001 -8.99707 55.001c0 24.667 4.5 49.667 13.5 75s20.667 48.166 35 68.499s31 37 50 50s38.5 19.5 58.5 19.5c14.667 0 26.334 -2.16699 35.001 -6.5s15.5 -9.83301 20.5 -16.5s8.33301 -14.167 10 -22.5s2.5 -16.5 2.5 -24.5
c0 -20.667 -6.5 -44.667 -19.5 -72s-28.833 -55 -47.5 -83s-38.334 -55 -59.001 -81l-54 -67c-7.33301 -8 -13.333 -15.333 -18 -22s-8.33398 -11.667 -11.001 -15l-8 6c2.66699 3.33301 6.33398 8.16602 11.001 14.499s10.667 13.833 18 22.5l52.5 65
c20.333 25.333 39.833 51.666 58.5 78.999s34.5 54.5 47.5 81.5s19.5 50.833 19.5 71.5c0 6.66699 -0.666992 13.667 -2 21s-4 13.833 -8 19.5s-9.83301 10.334 -17.5 14.001s-17.834 5.5 -30.501 5.5c-18.667 0 -36.834 -6.16699 -54.501 -18.5
s-33.334 -28.166 -47.001 -47.499s-24.667 -41 -33 -65s-12.5 -48 -12.5 -72c0 -18 3 -35 9 -51zM105.003 270.001c4 0 11.002 0.166992 21.002 0.5s21.667 0.833008 35 1.5s27.666 1.5 42.999 2.5s31 2.5 47 4.5l2 -10c-16 -2 -31.833 -3.5 -47.5 -4.5
s-30.334 -1.83301 -44.001 -2.5s-25.5 -1.16699 -35.5 -1.5s-17 -0.5 -21 -0.5v10zM148.005 53.001c-1.33301 -6.66699 -0.166992 -13 3.5 -19s10.167 -9.66699 19.5 -11l-2 -10c-12 1.33301 -20.5 6.33301 -25.5 15s-6.83301 17.667 -5.5 27z" />
    <glyph glyph-name="at" unicode="@" horiz-adv-x="619" 
d="M393 188c-9.33301 7.33301 -18.666 12.998 -27.999 16.998s-21.666 6 -36.999 6c-19.333 0 -36.666 -5.83301 -51.999 -17.5s-23 -25.167 -23 -40.5c0 -5.33301 1.66699 -8 5 -8c2 0 8.33301 2.33301 19 7c7.33301 3.33301 15.333 6.5 24 9.5s18 4.5 28 4.5
c7.33301 0 15.5 -1.5 24.5 -4.5s19.167 -6.16699 30.5 -9.5c16 -5.33301 33 -10.5 51 -15.5s35.333 -7.5 52 -7.5c6.66699 0 14 1.66699 22 5s15.333 7.66602 22 12.999s12.167 11.333 16.5 18s6.5 13.667 6.5 21c0 14.667 -4.66699 31 -14 49s-22.5 34.833 -39.5 50.5
s-37 28.834 -60 39.501s-48.5 16 -76.5 16c-33.333 0 -66.333 -7.33301 -99 -22s-62.334 -34.5 -89.001 -59.5s-48.167 -53.667 -64.5 -86s-24.5 -66.166 -24.5 -101.499c0 -23.333 4.16699 -43 12.5 -59s18.833 -29 31.5 -39s26.667 -17.167 42 -21.5s30.333 -6.5 45 -6.5
c30 0 57.167 1.66699 81.5 5s45.166 8.33301 62.499 15l4 -10c-17.333 -6.66699 -38.666 -11.667 -63.999 -15s-53.333 -5 -84 -5c-15.333 0 -31.333 2.33301 -48 7s-31.834 12.5 -45.501 23.5s-25 25 -34 42s-13.5 38.167 -13.5 63.5c0 36.667 8.5 71.834 25.5 105.501
s39.333 63.334 67 89.001s58.5 46.167 92.5 61.5s68 23 102 23c29.333 0 56.166 -5.66699 80.499 -17s45.333 -25.333 63 -42s31.5 -34.5 41.5 -53.5s15 -36.5 15 -52.5c0 -8.66699 -2.5 -17 -7.5 -25s-11.333 -15.167 -19 -21.5s-16 -11.333 -25 -15s-17.5 -5.5 -25.5 -5.5
c-18.667 0 -37.167 2.5 -55.5 7.5s-35.5 10.167 -51.5 15.5c-9.33301 3.33301 -19.166 6.5 -29.499 9.5s-17.5 4.5 -21.5 4.5c-8 0 -16.167 -1.5 -24.5 -4.5s-16.166 -6.16699 -23.499 -9.5c-4.66699 -2 -8.83398 -3.66699 -12.501 -5s-7.16699 -2 -10.5 -2
c-4.66699 0 -8.33398 1.66699 -11.001 5s-4 7.66602 -4 12.999c0 18.667 8.5 34.667 25.5 48s36.833 20 59.5 20c16.667 0 30.167 -2.16699 40.5 -6.5s20.5 -10.5 30.5 -18.5z" />
    <glyph glyph-name="A" unicode="A" 
d="M-161 217c-5.33301 3.33301 -11.335 7.33301 -18.002 12s-13 10 -19 16s-11.167 12.5 -15.5 19.5s-6.5 14.5 -6.5 22.5c0 15.333 9 27.5 27 36.5s39.333 13.5 64 13.5c36 -0.666992 78.833 -9.5 128.5 -26.5s103 -41.833 160 -74.5s115.5 -72 175.5 -118
s118 -97.667 174 -155l-8 -8c-56 56.667 -113.667 108 -173 154s-117.166 85.333 -173.499 118s-109 57.5 -158 74.5s-90.833 25.5 -125.5 25.5c-21.333 0 -40.166 -3.5 -56.499 -10.5s-24.5 -16.833 -24.5 -29.5c0 -6 2 -12 6 -18s8.83301 -11.833 14.5 -17.5
s11.667 -10.667 18 -15l16.5 -11.5zM17.998 -7l48.5 77.501c20.333 31.667 43.833 66.334 70.5 104.001s56 77 88 118s65.5 81.5 100.5 121.5s71 78 108 114s73.833 67.333 110.5 94l6 -8c-36.667 -26.667 -73.5 -57.834 -110.5 -93.501s-72.833 -73.334 -107.5 -113.001
s-68 -80.167 -100 -121.5s-61.167 -80.833 -87.5 -118.5l-70 -103.5l-48.5 -77zM549.998 614.001c-11.333 -60 -19.333 -114.166 -24 -162.499s-8.33398 -97.166 -11.001 -146.499s-4.5 -100.833 -5.5 -154.5s-0.833008 -118.167 0.5 -193.5l-9 -2
c-2.66699 76.667 -3.5 142.167 -2.5 196.5s3 106.166 6 155.499s6.83301 98.166 11.5 146.499s13.334 102.833 26.001 163.5z" />
    <glyph glyph-name="B" unicode="B" horiz-adv-x="589" 
d="M-120 610c27.333 0 57.1738 -2.33887 89.5068 -7.00586s64.666 -11.167 96.999 -19.5s63.5 -18.333 93.5 -30s56.5 -24.334 79.5 -38.001s41.5 -28 55.5 -43s21 -30.5 21 -46.5c0 -14.667 -6.66699 -26.667 -20 -36s-27.666 -16.666 -42.999 -21.999
c-18 -6.66699 -38.667 -12 -62 -16c16 -2 36.167 -4.83301 60.5 -8.5s50.166 -8.66699 77.499 -15s54.833 -13.666 82.5 -21.999s52.5 -18.166 74.5 -29.499s39.833 -23.833 53.5 -37.5s20.5 -28.834 20.5 -45.501c0 -24 -8.66699 -45.333 -26 -64s-40 -35 -68 -49
s-59.667 -25.833 -95 -35.5s-70.833 -17.5 -106.5 -23.5s-70.167 -10.333 -103.5 -13s-61.666 -4 -84.999 -4c-40 0 -78.333 1.66699 -115 5s-70.334 7.83301 -101.001 13.5s-58 12.334 -82 20.001s-43.333 15.834 -58 24.501l6 8c29.333 -17.333 75 -31.833 137 -43.5
s133 -17.5 213 -17.5c23.333 0 51.166 1.33301 83.499 4s66.166 6.83398 101.499 12.501s70.166 13.167 104.499 22.5s65.166 20.5 92.499 33.5s49.5 28.333 66.5 46s25.5 37.834 25.5 60.501c0 16.667 -8.5 31.834 -25.5 45.501s-38.667 26 -65 37s-55.333 20.667 -87 29
s-61.834 15.333 -90.501 21s-54.167 10 -76.5 13s-37.5 4.5 -45.5 4.5l-1 10c26.667 4 51 9.66699 73 17c18.667 6 35.667 13.333 51 22s23 19.667 23 33c0 14.667 -6.83301 29.167 -20.5 43.5s-31.834 28 -54.501 41s-48.667 25 -78 36s-59.666 20.5 -90.999 28.5
s-62.833 14.167 -94.5 18.5s-60.834 6.5 -87.501 6.5v10zM282.008 537.994c0.666992 -44.667 -1.33008 -88.5 -5.99707 -131.5s-12.667 -83.833 -24 -122.5s-26.833 -74.334 -46.5 -107.001s-44.5 -60.667 -74.5 -84l-6 8c28.667 22.667 52.667 49.834 72 81.501
s34.666 66.5 45.999 104.5s19.166 78.333 23.499 121s6.16602 86 5.49902 130h10z" />
    <glyph glyph-name="C" unicode="C" horiz-adv-x="834" 
d="M745 446c0 6 -0.998047 16.6729 -2.99805 32.0059s-6.83301 30.666 -14.5 45.999s-18.834 29 -33.501 41s-34.667 18 -60 18c-22.667 0 -52.167 -7.33301 -88.5 -22s-74.833 -34 -115.5 -58s-81.667 -51.333 -123 -82s-78.5 -62.334 -111.5 -95.001
s-60 -64.834 -81 -96.501s-31.5 -60.167 -31.5 -85.5c0 -20 5.66699 -36.833 17 -50.5s25.5 -24.667 42.5 -33s35.833 -14.333 56.5 -18s40 -5.5 58 -5.5c7.33301 0 21.833 0.5 43.5 1.5s48.834 3 81.501 6s69.667 7.5 111 13.5s85.166 13.833 131.499 23.5
s94 21.667 143 36s97.5 31.833 145.5 52.5l5 -9c-78.667 -32 -155.334 -57 -230.001 -75s-142.167 -31.333 -202.5 -40s-110.833 -14 -151.5 -16s-66.334 -3 -77.001 -3c-19.333 0 -39.833 2 -61.5 6s-41.5 10.5 -59.5 19.5s-33 21 -45 36s-18 33.5 -18 55.5
c0 26 10.667 55.333 32 88s48.833 65.667 82.5 99s71.5 65.666 113.5 96.999s83.833 59.166 125.5 83.499s80.834 44 117.501 59s66.667 22.5 90 22.5c28 0 50 -6.33301 66 -19s28 -27.334 36 -44.001s13.167 -33.167 15.5 -49.5s3.5 -27.833 3.5 -34.5h-10z" />
    <glyph glyph-name="D" unicode="D" horiz-adv-x="523" 
d="M245 612c0 -88.667 -7.32617 -171.002 -21.9932 -247.002s-36 -142 -64 -198s-62.5 -99.833 -103.5 -131.5s-87.5 -47.5 -139.5 -47.5c-20 0 -37.667 2.5 -53 7.5s-28.333 11.333 -39 19s-18.834 16.167 -24.501 25.5s-8.5 18 -8.5 26c0 14.667 7 24.834 21 30.501
s35 8.5 63 8.5c22.667 0 46.5 -3.83301 71.5 -11.5l80.5 -25.5c38 -12.667 78.167 -24.834 120.5 -36.501s86.833 -17.5 133.5 -17.5c22 0 44.667 1.66699 68 5s44.833 10 64.5 20s35.667 23.667 48 41s18.5 40 18.5 68c0 34 -7.16699 69.333 -21.5 106
s-33.666 72.5 -57.999 107.5s-52.833 68.333 -85.5 100s-67.334 59.334 -104.001 83.001s-74.334 42.5 -113.001 56.5s-76.334 21 -113.001 21c-37.333 0 -66.833 -4.16699 -88.5 -12.5s-39.167 -17.5 -52.5 -27.5l-6 8c14.667 10.667 33 20.334 55 29.001s52.667 13 92 13
c37.333 0 75.666 -7.16699 114.999 -21.5s77.833 -33.666 115.5 -57.999s73 -52.5 106 -84.5s62 -66 87 -102s44.833 -72.667 59.5 -110s22 -73.333 22 -108c0 -30 -6.5 -54.333 -19.5 -73s-29.833 -33.334 -50.5 -44.001s-43.334 -17.834 -68.001 -21.501
s-48.334 -5.5 -71.001 -5.5c-48.667 0 -94.334 5.83301 -137.001 17.5s-83 23.834 -121 36.501l-80 25.5c-24.667 7.66699 -47.334 11.5 -68.001 11.5c-49.333 0 -74 -9.66699 -74 -29c0 -7.33301 2.5 -15 7.5 -23s12.5 -15.333 22.5 -22s22.167 -12.167 36.5 -16.5
s30.5 -6.5 48.5 -6.5c50.667 0 95.834 15.667 135.501 47s73 74.5 100 129.5s47.667 119.833 62 194.5s21.5 155.667 21.5 243h10z" />
    <glyph glyph-name="E" unicode="E" horiz-adv-x="960" 
d="M720 495c-5.33301 -0.666992 -11.999 -1 -19.999 -1h-26c-25.333 0 -55.5 0.666992 -90.5 2s-70.833 3.16602 -107.5 5.49902s-71.667 5 -105 8s-60.666 6.16699 -81.999 9.5l2 10c21.333 -3.33301 48.666 -6.5 81.999 -9.5s68.166 -5.66699 104.499 -8
s71.833 -4.16602 106.5 -5.49902s64.667 -2 90 -2h26c8 0 14.667 0.333008 20 1v-10zM303.001 527c2.66699 -1.33301 4.83105 -2 6.49805 -2s3.16699 -0.333008 4.5 -1l58 -17c24.667 -7.33301 51.334 -17 80.001 -29s57.5 -26.667 86.5 -44s54.833 -37.333 77.5 -60l-8 -8
c-22 22 -47 41.333 -75 58s-56 31 -84 43s-54.167 21.833 -78.5 29.5s-43.833 13.5 -58.5 17.5c-2.66699 0.666992 -5.16699 1.16699 -7.5 1.5s-4.16602 0.833008 -5.49902 1.5zM608.998 366l-19.001 -5.00195c-6 -1.33301 -12.833 -3 -20.5 -5s-15.834 -4 -24.501 -6
l-84 -20c-32.667 -8 -66.5 -16.833 -101.5 -26.5s-69.667 -20 -104 -31s-65.166 -22.333 -92.499 -34s-49.333 -23.667 -66 -36s-25 -24.166 -25 -35.499c0 -14 6 -26.5 18 -37.5s28.167 -20.833 48.5 -29.5s43.666 -16 69.999 -22s53.833 -11 82.5 -15
s57.334 -6.83301 86.001 -8.5s55.667 -2.5 81 -2.5c42 0 87.5 2.33301 136.5 7s99.167 11.834 150.5 21.501s102 21.834 152 36.501s97 32.334 141 53.001l6 -9c-44 -20.667 -91.333 -38.5 -142 -53.5s-101.834 -27.333 -153.501 -37s-102.5 -16.834 -152.5 -21.501
s-96 -7 -138 -7c-42.667 0 -87.334 2.16699 -134.001 6.5s-89.5 11.333 -128.5 21s-71.167 22.5 -96.5 38.5s-38 35.667 -38 59c0 12 7 24 21 36s32.833 23.833 56.5 35.5s51.334 23 83.001 34s65.334 21.667 101.001 32s72.334 20.166 110.001 29.499s74.5 18 110.5 26
c14 3.33301 26 6.33301 36 9l26 7z" />
    <glyph glyph-name="F" unicode="F" horiz-adv-x="283" 
d="M-146 549c22.667 0 55.3311 -0.166992 97.998 -0.5s91.334 -0.833008 146.001 -1.5s113.5 -1.83398 176.5 -3.50098s126.333 -3.83398 190 -6.50098s125.667 -6 186 -10s115.5 -8.66699 165.5 -14l-2 -10c-50 5.33301 -105.167 10 -165.5 14
s-122.166 7.33301 -185.499 10s-126.5 4.83398 -189.5 6.50098s-121.833 2.83398 -176.5 3.50098s-103.167 1.16699 -145.5 1.5s-74.833 0.5 -97.5 0.5v10zM208.997 540c-4 -14 -8.66699 -32.667 -14 -56s-11 -49.666 -17 -78.999s-12 -60.833 -18 -94.5l-17.5 -103
c-5.66699 -35 -10.834 -69.5 -15.501 -103.5s-8.66699 -66 -12 -96l-10 2c3.33301 30 7.33301 62 12 96s9.83398 68.5 15.501 103.5l17.5 103c6 33.667 12 65.167 18 94.5s11.667 55.666 17 78.999s10 42 14 56zM-24.0029 409c26 -3.33301 63.668 -6.83301 113.001 -10.5
s110.666 -5.5 183.999 -5.5c45.333 0 94.666 1.16699 147.999 3.5s111.333 6.16602 174 11.499v-10c-62.667 -5.33301 -120.667 -9.16602 -174 -11.499s-102.666 -3.5 -147.999 -3.5c-74.667 0 -136.667 1.83301 -186 5.5s-87 7.16699 -113 10.5z" />
    <glyph glyph-name="G" unicode="G" horiz-adv-x="1121" 
d="M892 397c-31.333 40.667 -66.3311 69.001 -104.998 85.001s-85 24 -139 24c-44 0 -89 -6.83301 -135 -20.5s-90.5 -32.334 -133.5 -56.001s-83.5 -51.667 -121.5 -84s-71.167 -67.333 -99.5 -105s-50.833 -77 -67.5 -118s-25 -81.833 -25 -122.5
c0 -14.667 1.66699 -28.5 5 -41.5s8.83301 -24.5 16.5 -34.5s18.167 -17.833 31.5 -23.5s30 -8.5 50 -8.5c23.333 0 48 4 74 12s52.667 18.5 80 31.5s54.666 27.667 81.999 44l81 48.5l66 40c21.333 12.667 41.666 23.834 60.999 33.501s37.666 17.334 54.999 23.001
s33 8.5 47 8.5c25.333 0 46.166 -8.33301 62.499 -25s29.333 -37.167 39 -61.5s16.5 -50 20.5 -77s6 -50.833 6 -71.5c0 -31.333 -5.33301 -65.5 -16 -102.5s-26.5 -71.833 -47.5 -104.5s-47.333 -59.834 -79 -81.501s-68.5 -32.5 -110.5 -32.5
c-16.667 0 -28.334 3.66699 -35.001 11s-10 20.333 -10 39c0 20 8.16699 45.5 24.5 76.5s39.333 64.667 69 101s64.834 73.666 105.501 111.999s85.334 74.333 134.001 108s100.334 63.667 155.001 90s110.667 45.5 168 57.5l2 -10c-56.667 -12 -112 -30.833 -166 -56.5
s-105 -55 -153 -88s-92.167 -68.333 -132.5 -106s-75 -74.334 -104 -110.001s-51.667 -68.834 -68 -99.501s-24.5 -55.667 -24.5 -75c0 -14.667 2.66699 -25 8 -31s14.333 -9 27 -9c40.667 0 76.167 10.5 106.5 31.5s55.666 47.333 75.999 79s35.5 65.5 45.5 101.5
s15 69 15 99c0 19.333 -1.83301 42 -5.5 68s-10 50.667 -19 74s-21 43 -36 59s-34.167 24 -57.5 24c-12 0 -26.667 -3 -44 -9s-36 -14 -56 -24s-40.5 -21.167 -61.5 -33.5l-61.5 -36.5l-81.5 -48.5c-28.333 -16.333 -56.5 -31.166 -84.5 -44.499
s-55.333 -24.166 -82 -32.499s-51.667 -12.5 -75 -12.5c-22 0 -40.333 3.16699 -55 9.5s-26.167 14.833 -34.5 25.5s-14.333 23.167 -18 37.5s-5.5 29.5 -5.5 45.5c0 41.333 8.33301 83 25 125s39.5 82 68.5 120s63 73.5 102 106.5s80.333 61.667 124 86
s88.834 43.5 135.501 57.5s92.334 21 137.001 21c55.333 0 103.166 -8.16699 143.499 -24.5s76.5 -45.833 108.5 -88.5z" />
    <glyph glyph-name="H" unicode="H" horiz-adv-x="734" 
d="M253 551l-17.5 -56.5l-20.5 -66.5l-42.5 -135.5l-44.5 -141.5l-42 -128c-13.333 -39.333 -25 -71 -35 -95l-10 4c10.667 26 23 58.833 37 98.5s28.167 82.167 42.5 127.5l43.5 139l41 133l20.5 67.5l17.5 57.5zM569 684c-7.33301 -48 -16.666 -101 -27.999 -159
s-24.833 -118 -40.5 -180s-33.167 -124.167 -52.5 -186.5s-40.666 -121.833 -63.999 -178.5l-10 4c23.333 56.667 44.666 116.167 63.999 178.5s36.833 124.333 52.5 186s29.167 121.5 40.5 179.5s20.666 110.667 27.999 158zM-145 120
c40 -1.33301 78.999 -2.5 116.999 -3.5s75.667 -1.5 113 -1.5c128 0 251.5 4.66699 370.5 14s238.5 23 358.5 41l3 -10c-119.333 -18 -239.166 -31.667 -359.499 -41s-244.5 -14 -372.5 -14c-37.333 0 -75 0.5 -113 1.5s-77 2.16699 -117 3.5v10z" />
    <glyph glyph-name="I" unicode="I" horiz-adv-x="417" 
d="M238 640c4.66699 0.666992 9.49805 1.17285 14.498 1.50586s10.167 0.5 15.5 0.5c10.667 0 22 -0.833008 34 -2.5s23.5 -4.33398 34.5 -8.00098s21.333 -8.33398 31 -14.001s17.834 -12.5 24.501 -20.5s11.5 -20.167 14.5 -36.5s4.5 -34.833 4.5 -55.5
c0 -28.667 -2.66699 -61 -8 -97s-13 -72.667 -23 -110s-22.167 -73.833 -36.5 -109.5s-30.666 -67.334 -48.999 -95.001s-38.5 -50 -60.5 -67s-45.333 -25.5 -70 -25.5c-16.667 0 -32 5.5 -46 16.5s-26.167 25 -36.5 42s-18.666 35.667 -24.999 56
s-10.5 40.166 -12.5 59.499h10c2 -18 5.83301 -36.667 11.5 -56s13.334 -37 23.001 -53s20.834 -29.167 33.501 -39.5s26.667 -15.5 42 -15.5c24 0 46.5 8.33301 67.5 25s40.167 38.667 57.5 66s33 58.333 47 93s25.833 70.334 35.5 107.001s17 72.667 22 108s7.5 67 7.5 95
c0 20 -1.5 37.5 -4.5 52.5s-7.16699 26.167 -12.5 33.5c-6 7.33301 -13.333 13.666 -22 18.999s-18.334 9.66602 -29.001 12.999s-21.5 5.66602 -32.5 6.99902s-21.833 2 -32.5 2c-4.66699 0 -9.33398 -0.166992 -14.001 -0.5s-9.33398 -0.833008 -14.001 -1.5z" />
    <glyph glyph-name="J" unicode="J" horiz-adv-x="512" 
d="M37 590c52.667 -1.33301 106.503 -0.834961 161.503 1.49805s116.167 6.16602 183.5 11.499c10.667 -22 21.167 -45 31.5 -69s19.666 -49.5 27.999 -76.5s15 -55.5 20 -85.5s7.5 -62 7.5 -96c0 -44.667 -8.16699 -89.167 -24.5 -133.5s-38.833 -86.666 -67.5 -126.999
s-62.5 -77.833 -101.5 -112.5s-81.167 -64.667 -126.5 -90s-92.666 -45.166 -141.999 -59.499s-99 -21.5 -149 -21.5c-56 0 -106.5 7.16699 -151.5 21.5s-85.167 32.166 -120.5 53.499s-66.666 44.833 -93.999 70.5s-51.333 50.167 -72 73.5l8 6
c20 -22.667 43.5 -46.5 70.5 -71.5s58 -48.167 93 -69.5s74.5 -39 118.5 -53s93.333 -21 148 -21c49.333 0 98.333 7.33301 147 22s95.167 34.667 139.5 60s85.666 55.166 123.999 89.499s71.333 71.333 99 111s49.5 80.834 65.5 123.501s24 85.334 24 128.001
c0 32 -2.33301 62.333 -7 91s-10.834 55.834 -18.501 81.501s-16.334 50.167 -26.001 73.5s-19.834 46 -30.501 68c-28 -2 -57.5 -4 -88.5 -6s-61.5 -3.5 -91.5 -4.5s-58.667 -1.5 -86 -1.5s-51.333 0.666992 -72 2v10z" />
    <glyph glyph-name="K" unicode="K" horiz-adv-x="464" 
d="M512 -29c-36 4 -73.001 10.1699 -111.001 18.5029s-74.833 19.666 -110.5 33.999s-69 31.5 -100 51.5s-57.833 43.667 -80.5 71l57 44l83 61l103 72l116.5 77l123.5 77l124 72l4 -8c-59.333 -32 -119.166 -67.333 -179.499 -106l-171.5 -113.5l-145.5 -102.5l-99.5 -74
c19.333 -23.333 43.833 -44.333 73.5 -63s62 -34.834 97 -48.501s71.333 -24.834 109 -33.501s74.167 -15 109.5 -19zM336.999 647.003c-60.667 -82.667 -115.002 -172.167 -163.002 -268.5s-88 -201.833 -120 -316.5c4.66699 2.66699 9.33398 5.5 14.001 8.5
s9.33398 5.83301 14.001 8.5l6 -8l-51 -31c34 122.667 75.833 234.5 125.5 335.5s105.167 193.5 166.5 277.5z" />
    <glyph glyph-name="L" unicode="L" horiz-adv-x="895" 
d="M976 158c-54 -21.333 -106.497 -39.333 -157.497 -54s-102 -26.667 -153 -36s-102.5 -16.166 -154.5 -20.499s-106 -6.5 -162 -6.5c-22 0 -47.5 0.333008 -76.5 1s-59 1.83398 -90 3.50098s-62.333 3.5 -94 5.5s-61.167 4.33301 -88.5 7l-5 12l91 126
c28 40.667 54.667 82.834 80 126.501s50.166 90.5 74.499 140.5s49.5 106.333 75.5 169l10 -4c-24 -57.333 -47 -109.5 -69 -156.5s-45.167 -92.333 -69.5 -136s-50.833 -86.834 -79.5 -129.501s-61.334 -88.334 -98.001 -137.001c124 -12 237 -18 339 -18
c56 0 109.667 2.16699 161 6.5s102.166 11.166 152.499 20.499s101 21.333 152 36s103.5 32.667 157.5 54z" />
    <glyph glyph-name="M" unicode="M" horiz-adv-x="1019" 
d="M7 26c76.667 144.667 160.332 274.667 250.999 390s190.667 220.666 300 315.999l6 -8c-109.333 -95.333 -209.166 -200.166 -299.499 -314.499s-173.5 -243.5 -249.5 -387.5zM1103 162l-58.999 -50c-23.333 -19.333 -47.5 -37.833 -72.5 -55.5
s-49.833 -32.5 -74.5 -44.5s-46.334 -18 -65.001 -18c-25.333 0 -44.833 6.83301 -58.5 20.5s-23.5 30.667 -29.5 51s-9.33301 42 -10 65s-1 44.167 -1 63.5c0 15.333 -0.166992 27.833 -0.5 37.5s-1.16602 14.5 -2.49902 14.5c-3.33301 0 -11 -6.83301 -23 -20.5
s-25.667 -30.167 -41 -49.5l-46 -55.5c-16.667 -19.667 -33.167 -37.667 -49.5 -54s-32.5 -29.833 -48.5 -40.5s-30.333 -16 -43 -16c-18.667 0 -34.334 7.5 -47.001 22.5s-19 37.5 -19 67.5c0 32 2.66699 70.167 8 114.5s13.833 93.5 25.5 147.5s26.667 112.167 45 174.5
s40.5 127.5 66.5 195.5l10 -4c-26 -68 -48.167 -133 -66.5 -195s-33.333 -119.833 -45 -173.5s-20.167 -102.5 -25.5 -146.5s-8 -81.667 -8 -113c0 -27.333 5.5 -47.5 16.5 -60.5s24.167 -19.5 39.5 -19.5c12 0 25.5 5.16699 40.5 15.5s30.5 23.5 46.5 39.5
s31.833 33.5 47.5 52.5l44.5 54.5l44.5 52.5c12.333 14.333 21.5 21.5 27.5 21.5c8 0 12.167 -5.83301 12.5 -17.5s0.5 -26.5 0.5 -44.5s0.333008 -38 1 -60s3.66699 -42.667 9 -62s14.166 -35.5 26.499 -48.5s29.833 -19.5 52.5 -19.5c18 0 38.833 6 62.5 18
s47.834 26.5 72.501 43.5s48.5 35.167 71.5 54.5l58.5 50z" />
    <glyph glyph-name="N" unicode="N" horiz-adv-x="803" 
d="M49 14c4.66699 26.667 11.668 57.168 21.001 91.501s20.666 70.666 33.999 108.999s28 77.166 44 116.499s33.167 77.333 51.5 114s37 70.667 56 102s38.167 58 57.5 80l8 -6c-18.667 -21.333 -37.667 -47.5 -57 -78.5s-37.833 -64.667 -55.5 -101
s-34.667 -74.166 -51 -113.499s-31 -78 -44 -116s-24.167 -74.167 -33.5 -108.5s-16.333 -64.833 -21 -91.5zM705.001 560.001c10 -48 18.334 -100.002 25.001 -156.002s10 -110.333 10 -163c0 -35.333 -1.83301 -68.666 -5.5 -99.999s-9.83398 -58.666 -18.501 -81.999
s-20.167 -41.833 -34.5 -55.5s-31.833 -20.5 -52.5 -20.5c-28.667 0 -56.334 9.33301 -83.001 28s-51.834 43.834 -75.501 75.501s-45.167 68.667 -64.5 111s-36.166 87.166 -50.499 134.499s-25.333 95.666 -33 144.999s-11.5 97.333 -11.5 144h10
c0 -46 3.83301 -93.333 11.5 -142s18.334 -96.167 32.001 -142.5s30 -90.333 49 -132s39.833 -78.167 62.5 -109.5s47 -56.166 73 -74.499s52.667 -27.5 80 -27.5c18.667 0 34.5 6.5 47.5 19.5s23.5 30.833 31.5 53.5s13.667 49 17 79s5 62 5 96
c0 52 -3.33301 105.833 -10 161.5s-15 107.5 -25 155.5z" />
    <glyph glyph-name="O" unicode="O" horiz-adv-x="858" 
d="M741 479c-20.667 11.333 -43.8311 20.1689 -69.498 26.502s-56.5 9.5 -92.5 9.5c-34 0 -69.833 -4.83301 -107.5 -14.5s-74.667 -23 -111 -40s-71 -37 -104 -60s-62.167 -47.5 -87.5 -73.5s-45.333 -52.833 -60 -80.5s-22 -55.167 -22 -82.5c0 -28 7.16699 -51 21.5 -69
s33.333 -32.333 57 -43s50.667 -18 81 -22s61.166 -6 92.499 -6c36.667 0 74.5 2.66699 113.5 8s76.833 13.166 113.5 23.499s71.167 23.166 103.5 38.499s60.666 33.166 84.999 53.499s43.666 43.166 57.999 68.499s21.5 53.333 21.5 84c0 34.667 -8.5 63 -25.5 85
s-37.833 39.333 -62.5 52s-50.834 21.334 -78.501 26.001s-52.167 7 -73.5 7v10c22.667 0 48.334 -2.5 77.001 -7.5s55.834 -14.167 81.501 -27.5s47.334 -31.666 65.001 -54.999s26.5 -53.333 26.5 -90c0 -31.333 -7.33301 -60.166 -22 -86.499s-34.334 -50 -59.001 -71
s-53.667 -39.667 -87 -56s-68.666 -29.833 -105.999 -40.5s-75.833 -18.667 -115.5 -24s-78.167 -8 -115.5 -8c-32.667 0 -64.667 2.16699 -96 6.5s-59.333 12.166 -84 23.499s-44.5 26.666 -59.5 45.999s-22.5 44 -22.5 74c0 28 7.5 56.333 22.5 85
s35.333 56.334 61 83.001s55.334 51.667 89.001 75s69.167 43.833 106.5 61.5s75.166 31.5 113.499 41.5s74.833 15 109.5 15c36.667 0 68.167 -3.33301 94.5 -10s50.166 -16 71.499 -28z" />
    <glyph glyph-name="P" unicode="P" horiz-adv-x="663" 
d="M-214 519l-66 19.999c43.333 31.333 94 60.166 152 86.499s119 49 183 68s129 33.667 195 44s129 15.5 189 15.5c48.667 0 93.167 -6.66699 133.5 -20s75 -32.166 104 -56.499s51.333 -54 67 -89s23.5 -74.167 23.5 -117.5c0 -40 -9.16699 -75.833 -27.5 -107.5
s-42.333 -59.5 -72 -83.5s-63.167 -44.5 -100.5 -61.5s-74.666 -31 -111.999 -42s-72.833 -19 -106.5 -24s-61.834 -7.5 -84.501 -7.5c-36 0 -69.333 0.333008 -100 1s-59.667 3.66699 -87 9l2 10c27.333 -5.33301 56.333 -8.33301 87 -9s63.334 -1 98.001 -1
c22.667 0 50.5 2.5 83.5 7.5s67.833 12.667 104.5 23s73.167 23.833 109.5 40.5s69 36.834 98 60.501s52.5 50.667 70.5 81s27 64.833 27 103.5c0 42 -7.66699 79.833 -23 113.5s-37 62.334 -65 86.001s-61.5 41.834 -100.5 54.501s-82.167 19 -129.5 19
c-58.667 0 -120 -4.83301 -184 -14.5s-126.833 -23.334 -188.5 -41.001s-120.5 -38.834 -176.5 -63.501s-105 -51.667 -147 -81l23 -7.5c7.33301 -2.33301 14.666 -4.5 21.999 -6.5zM466 405.999c-12 -27.333 -25.8301 -56.668 -41.4971 -88.001
s-34.334 -65.166 -56.001 -101.499s-46.834 -75 -75.501 -116s-62.334 -84.5 -101.001 -130.5l-8 6c38 44.667 71.333 87.5 100 128.5s53.667 79.5 75 115.5s39.833 69.833 55.5 101.5s29.5 61.167 41.5 88.5z" />
    <glyph glyph-name="Q" unicode="Q" horiz-adv-x="829" 
d="M813 465c-4.66699 17.333 -12.834 33.8359 -24.501 49.5029s-26.667 29.5 -45 41.5s-39.666 21.5 -63.999 28.5s-50.833 10.5 -79.5 10.5c-33.333 0 -69.166 -3.66699 -107.499 -11s-76.666 -18 -114.999 -32s-75.333 -31.833 -111 -53.5s-67.334 -46.5 -95.001 -74.5
s-49.667 -59.667 -66 -95s-24.5 -74 -24.5 -116c0 -36 6 -67 18 -93s28 -47.333 48 -64s43.167 -29 69.5 -37s53.5 -12 81.5 -12c38.667 0 77.334 3.83301 116.001 11.5s75.5 18.5 110.5 32.5s67.667 30.5 98 49.5s56.5 39.667 78.5 62s39.333 45.833 52 70.5s19 50 19 76
c0 39.333 -9.33301 68.166 -28 86.499s-41.334 27.5 -68.001 27.5c-13.333 0 -27 -3.16699 -41 -9.5s-26.5 -14.833 -37.5 -25.5s-20.167 -23.5 -27.5 -38.5s-11.333 -30.833 -12 -47.5h-10c0.666992 18.667 5 36 13 52s18 29.833 30 41.5s25.5 20.834 40.5 27.501
s29.833 10 44.5 10c30 0 55.167 -10.167 75.5 -30.5s30.5 -51.5 30.5 -93.5c0 -26.667 -6.5 -52.834 -19.5 -78.501s-30.833 -50.167 -53.5 -73.5s-49.334 -44.666 -80.001 -63.999s-64 -36.166 -100 -50.499s-73.667 -25.5 -113 -33.5s-78.666 -12 -117.999 -12
c-30 0 -58.667 4.16699 -86 12.5s-51.5 21.166 -72.5 38.499s-37.667 39.666 -50 66.999s-18.5 60 -18.5 98c0 42.667 8.33301 82.167 25 118.5s39 69 67 98s60.167 54.5 96.5 76.5s74.166 40.333 113.499 55s78.5 25.667 117.5 33s75.5 11 109.5 11
c30.667 0 58.667 -3.66699 84 -11s47.5 -17.333 66.5 -30s34.667 -27.334 47 -44.001s20.833 -34.334 25.5 -53.001zM555 161.003c12 -22.667 25.165 -46.3311 39.498 -70.998s29.833 -49.167 46.5 -73.5s34 -47.833 52 -70.5s36.667 -43 56 -61l-6 -8
c-19.333 18 -38.166 38.5 -56.499 61.5s-35.666 46.667 -51.999 71s-32 49.166 -47 74.499s-28.5 49.666 -40.5 72.999z" />
    <glyph glyph-name="R" unicode="R" horiz-adv-x="692" 
d="M12 585c56.667 16.667 114.832 29.6641 174.499 38.9971s114.834 14 165.501 14c26 0 49.667 -3.33301 71 -10s39.666 -15.834 54.999 -27.501s27.333 -25.334 36 -41.001s13 -32.167 13 -49.5c0 -40 -10.333 -77 -31 -111s-49.667 -65.167 -87 -93.5
s-82.5 -54.666 -135.5 -78.999s-111.5 -47.166 -175.5 -68.499c18 -29.333 37.167 -55.666 57.5 -78.999s42.5 -43.5 66.5 -60.5s50.333 -30 79 -39s60.334 -13.5 95.001 -13.5c35.333 0 70.833 6.5 106.5 19.5s70 29.5 103 49.5s63.5 42 91.5 66s52 47 72 69l7 -7
c-20.667 -22 -45.167 -45.167 -73.5 -69.5s-59.166 -46.666 -92.499 -66.999s-68.333 -37.166 -105 -50.499s-73 -20 -109 -20s-69 5 -99 15s-57.667 24 -83 42s-48.833 39.833 -70.5 65.5s-42.167 54.167 -61.5 85.5c65.333 21.333 124.666 44 177.999 68s99 50 137 78
s67.5 58.5 88.5 91.5s31.5 69.167 31.5 108.5c0 16 -4 31.167 -12 45.5s-19.333 26.833 -34 37.5s-32.167 19.167 -52.5 25.5s-42.5 9.5 -66.5 9.5c-50 0 -104.667 -4.66699 -164 -14s-117.333 -22.333 -174 -39zM257.998 548.997
c-10 -28.667 -22.3311 -61.334 -36.998 -98.001s-30.667 -74.667 -48 -114s-35.833 -78.666 -55.5 -117.999s-39.834 -76 -60.501 -110l-8 6c20 32.667 39.667 68.5 59 107.5s37.666 78.167 54.999 117.5s33.333 77.5 48 114.5s27 69.833 37 98.5z" />
    <glyph glyph-name="S" unicode="S" horiz-adv-x="691" 
d="M420 157l47 4.99902c-11.333 12 -26.166 22.667 -44.499 32s-38 17.5 -59 24.5s-41.833 12.333 -62.5 16s-39 5.5 -55 5.5c-19.333 0 -38.5 -1.66699 -57.5 -5s-36 -8.66602 -51 -15.999s-27.333 -16.833 -37 -28.5s-14.5 -25.5 -14.5 -41.5c0 -29.333 10.333 -55 31 -77
s46.5 -40.667 77.5 -56s64.833 -26.833 101.5 -34.5s71 -11.5 103 -11.5c24.667 0 51.167 3.16699 79.5 9.5s54.5 15.833 78.5 28.5s44 28 60 46s24 38.667 24 62c0 26.667 -6.16699 53.667 -18.5 81s-28 54.5 -47 81.5s-40 53 -63 78l-65.5 69.5
c-24.667 25.333 -45.334 48 -62.001 68s-25 35.667 -25 47c0 21.333 14 32 42 32c24.667 0 48.834 -5.5 72.501 -16.5s46.167 -24.833 67.5 -41.5s40.833 -34.334 58.5 -53.001s32.5 -36 44.5 -52l-8 -6c-12 15.333 -26.5 32.166 -43.5 50.499s-35.833 35.5 -56.5 51.5
s-42.5 29.5 -65.5 40.5s-46.167 16.5 -69.5 16.5c-21.333 0 -32 -7.33301 -32 -22c0 -9.33301 8.16699 -23.5 24.5 -42.5s36.5 -41.167 60.5 -66.5l66 -71c23.333 -25.333 44.5 -51.5 63.5 -78.5s34.833 -54.667 47.5 -83s19 -56.166 19 -83.499
c0 -24.667 -8.33301 -46.667 -25 -66s-37.5 -35.666 -62.5 -48.999s-52.167 -23.5 -81.5 -30.5s-57 -10.5 -83 -10.5c-33.333 0 -68.833 4.16699 -106.5 12.5s-72.5 20.5 -104.5 36.5s-58.667 35.667 -80 59s-32 50.333 -32 81c0 18 5.16699 33.333 15.5 46
s23.666 23 39.999 31s34.5 13.667 54.5 17s40 5 60 5c19.333 0 40.5 -2 63.5 -6s45.5 -10 67.5 -18s42.5 -17.667 61.5 -29s34.167 -24.333 45.5 -39l-62 -8z" />
    <glyph glyph-name="T" unicode="T" horiz-adv-x="235" 
d="M-415 527c61.333 10.667 129.667 21.334 205 32.001s155.166 20.334 239.499 29.001s171.666 15.667 261.999 21s181.5 8 273.5 8c49.333 0 98 -1 146 -3v-10c-48 2 -96.667 3 -146 3c-91.333 0 -182.166 -2.66699 -272.499 -8s-177.5 -12.333 -261.5 -21
s-163.667 -18.334 -239 -29.001s-143.666 -21.334 -204.999 -32.001zM126.001 482c-3.33301 -38.667 -7.5 -79.5 -12.5 -122.5s-10.667 -85.833 -17 -128.5s-13.166 -83.834 -20.499 -123.501s-15 -75.167 -23 -106.5l-10 2c8 32 15.667 67.667 23 107
s14.166 80.333 20.499 123s12 85.334 17 128.001s9.16699 83 12.5 121h10z" />
    <glyph glyph-name="U" unicode="U" horiz-adv-x="817" 
d="M308 588c-24.667 -26.667 -50.165 -59.167 -76.498 -97.5s-50.333 -78.666 -72 -120.999s-39.5 -84.833 -53.5 -127.5s-21 -82 -21 -118c0 -23.333 3.33301 -42.166 10 -56.499s14.667 -25.333 24 -33s19 -12.834 29 -15.501s18.333 -4 25 -4
c37.333 0 75.666 9.16699 114.999 27.5s78.5 42.666 117.5 72.999s77 65.5 114 105.5s71.833 81.667 104.5 125s62.667 86.833 90 130.5s50.333 84.834 69 123.501l8 -4c-18.667 -38.667 -41.834 -80.167 -69.501 -124.5s-58.167 -88.333 -91.5 -132
s-68.833 -85.667 -106.5 -126s-76.167 -76 -115.5 -107s-79 -55.667 -119 -74s-78.667 -27.5 -116 -27.5c-8 0 -17.5 1.5 -28.5 4.5s-21.667 8.66699 -32 17s-19.166 20.333 -26.499 36s-11 36.167 -11 61.5c0 36.667 7 76.667 21 120s32 86.5 54 129.5
s46.167 83.667 72.5 122s52.166 71.166 77.499 98.499zM785.002 584c-50 -92.667 -88.6699 -175.002 -116.003 -247.002s-41 -127.333 -41 -166c0 -20.667 7 -38.834 21 -54.501s32.667 -23.5 56 -23.5c14.667 0 30.334 2.33301 47.001 7s33.334 10.5 50.001 17.5
s32.834 15 48.501 24s29.834 18.167 42.501 27.5l6 -8c-13.333 -9.33301 -28 -18.666 -44 -27.999s-32.667 -17.666 -50 -24.999s-34.666 -13.333 -51.999 -18s-33.333 -7 -48 -7c-26.667 0 -47.834 8.83301 -63.501 26.5s-23.5 38.167 -23.5 61.5
c0 38.667 13.667 94.334 41 167.001s66.666 156 117.999 250z" />
    <glyph glyph-name="V" unicode="V" horiz-adv-x="322" 
d="M-223 615c5.33301 11.333 10.998 22.5 16.998 33.5s12.833 20.667 20.5 29s16.334 15 26.001 20s20.834 7.5 33.501 7.5c37.333 0 71.166 -18.333 101.499 -55s56.333 -86.334 78 -149.001s38.334 -135.667 50.001 -219s17.5 -171.666 17.5 -264.999h-10
c0 92 -5.5 179 -16.5 261s-27 154 -48 216s-46 111 -75 147s-61.5 54 -97.5 54c-11.333 0 -21.166 -2.33301 -29.499 -7s-16 -11 -23 -19s-13.333 -17 -19 -27s-10.834 -20.333 -15.501 -31zM366.998 393c-46 -55.333 -89.667 -115.5 -131 -180.5
s-80.333 -131.5 -117 -199.5l-8 4c38 69.333 77.667 136.833 119 202.5s84.333 125.5 129 179.5z" />
    <glyph glyph-name="W" unicode="W" horiz-adv-x="810" 
d="M-6 654c0 -42.667 2.99805 -88.334 8.99805 -137.001s14.167 -97.334 24.5 -146.001s22.5 -95.5 36.5 -140.5s29 -84.833 45 -119.5s32.833 -62.334 50.5 -83.001s35.167 -31 52.5 -31c11.333 0 21.333 10 30 30s16.667 45.167 24 75.5s13.5 63.833 18.5 100.5
s9.16699 71.334 12.5 104.001s5.83301 61.167 7.5 85.5s2.5 39.833 2.5 46.5h10c0 -6.66699 -0.666992 -22.5 -2 -47.5s-3.66602 -54.167 -6.99902 -87.5s-7.66602 -68.666 -12.999 -105.999s-11.833 -71.666 -19.5 -102.999s-16.834 -57.166 -27.501 -77.499
s-22.667 -30.5 -36 -30.5c-19.333 0 -38.5 10.667 -57.5 32s-37 49.666 -54 84.999s-32.667 76 -47 122s-26.666 93.833 -36.999 143.5s-18.333 99 -24 148s-8.5 94.5 -8.5 136.5h10zM836.998 522c-4 -34 -9.83496 -69.498 -17.502 -106.498s-17.5 -73.333 -29.5 -109
s-25.667 -69.667 -41 -102s-32.333 -60.666 -51 -84.999s-38.667 -43.666 -60 -57.999s-44 -21.5 -68 -21.5c-28.667 0 -54.834 8.5 -78.501 25.5s-45 38.5 -64 64.5s-35.5 54.833 -49.5 86.5s-26 62.167 -36 91.5s-17.833 55.5 -23.5 78.5s-9.5 39.167 -11.5 48.5l10 2
c2 -8.66699 5.83301 -24.334 11.5 -47.001s13.334 -48.334 23.001 -77.001s21.334 -58.5 35.001 -89.5s29.5 -59.333 47.5 -85s38.333 -46.834 61 -63.501s47.667 -25 75 -25c22.667 0 44.334 7 65.001 21s40 33 58 57s34.333 52 49 84s27.667 65.5 39 100.5
s20.833 70.667 28.5 107s13.5 71.166 17.5 104.499z" />
    <glyph glyph-name="X" unicode="X" horiz-adv-x="786" 
d="M1079 542c-65.333 -16.667 -138.167 -41.667 -218.5 -75s-164.166 -73 -251.499 -119s-176 -97 -266 -153s-177.833 -115 -263.5 -177s-166.834 -125.667 -243.501 -191s-145 -130 -205 -194l-8 6c45.333 48.667 95.5 97.5 150.5 146.5s113.167 97.5 174.5 145.5
s124.833 95 190.5 141s132.167 89.833 199.5 131.5s134.333 81 201 118s131.667 70.5 195 100.5s124 56 182 78s111.667 39.333 161 52zM181.999 571l70 -66.5l92.5 -89.5l106 -104l110.5 -110l105.5 -107.5l90.5 -96.5l-8 -6l-90.5 96.5l-105 107l-110 109.5l-105.5 103.5
l-92 89l-70 66.5z" />
    <glyph glyph-name="Y" unicode="Y" horiz-adv-x="630" 
d="M-77 718c-22 -41.333 -33.0029 -88.666 -33.0029 -141.999c0 -36.667 6.83301 -73 20.5 -109s33.5 -68.5 59.5 -97.5s58.167 -52.5 96.5 -70.5s82.5 -27 132.5 -27c46.667 0 89.334 6.16699 128.001 18.5s75 29.833 109 52.5s66.667 50.167 98 82.5s63 68.833 95 109.5
l8 -7c-39.333 -48 -76.5 -88.833 -111.5 -122.5s-69.667 -61.167 -104 -82.5s-69.666 -36.833 -105.999 -46.5s-75.166 -14.5 -116.499 -14.5c-51.333 0 -96.833 9.33301 -136.5 28s-73 43 -100 73s-47.5 63.667 -61.5 101s-21 74.666 -21 111.999
c0 26 2.83301 51.5 8.5 76.5s14.5 48.167 26.5 69.5zM636.997 527c-10 -35.333 -22.333 -74.1689 -37 -116.502s-30.334 -85.166 -47.001 -128.499s-33.834 -85.5 -51.501 -126.5s-34.5 -77.5 -50.5 -109.5l-8 4c15.333 30.667 31.5 66.334 48.5 107.001l50.5 125.5
c16.667 43 32.334 85.833 47.001 128.5s27.334 82 38.001 118z" />
    <glyph glyph-name="Z" unicode="Z" horiz-adv-x="1000" 
d="M189 558c4 0 7.99902 0.166992 11.999 0.5s8 0.5 12 0.5c28 0.666992 58.833 1.33398 92.5 2.00098s68.167 1 103.5 1c44 0 86.833 -0.833008 128.5 -2.5s77.5 -4.83398 107.5 -9.50098l-2 -10c-30 4.66699 -65.667 7.83398 -107 9.50098s-83.666 2.5 -126.999 2.5
c-35.333 0 -69.833 -0.333008 -103.5 -1s-64.5 -1.33398 -92.5 -2.00098c-4 0 -8 -0.166992 -12 -0.5s-8 -0.5 -12 -0.5v10zM642.999 540c-20.667 -8.66699 -49.1689 -21.501 -85.502 -38.501s-75.666 -37 -117.999 -60s-85.5 -48.5 -129.5 -76.5
s-83.667 -57.167 -119 -87.5s-64.333 -61.5 -87 -93.5s-34 -63.333 -34 -94c0 -21.333 4.5 -39.666 13.5 -54.999s21.167 -28 36.5 -38s33.333 -17.333 54 -22s43 -7 67 -7c21.333 0 48.5 0.666992 81.5 2s70.667 4.33301 113 9s88.5 11.5 138.5 20.5
s102.5 20.833 157.5 35.5s111.833 32.834 170.5 54.501s117.667 47.834 177 78.501l4 -8c-90 -46 -178.667 -82.5 -266 -109.5s-168.333 -47.333 -243 -61s-140.834 -22.334 -198.501 -26.001s-102.5 -5.5 -134.5 -5.5c-25.333 0 -49 2.5 -71 7.5s-41.167 12.833 -57.5 23.5
s-29.166 24.334 -38.499 41.001s-14 36.667 -14 60c0 32 11.333 64.333 34 97s52 64.5 88 95.5s76.167 60.667 120.5 89s87.833 54.166 130.5 77.499s82.334 43.666 119.001 60.999s65.667 30.333 87 39z" />
    <glyph glyph-name="bracketleft" unicode="[" horiz-adv-x="298" 
d="M148 677l-40 -331.002c-5.33301 -42 -10.333 -83.5 -15 -124.5s-8.66699 -78.333 -12 -112s-6 -61.667 -8 -84s-2.66699 -35.833 -2 -40.5h-10c-0.666992 4.66699 0 18.334 2 41.001s4.66699 50.834 8 84.501s7.33301 71 12 112s9.66699 82.5 15 124.5l40 332z
M253 664.998c-2.66699 -0.666992 -6.5 -1 -11.5 -1h-18.5c-14.667 0 -30.334 0.333008 -47.001 1s-27.667 1.33398 -33 2.00098v10c5.33301 -0.666992 16.333 -1.33398 33 -2.00098s32.334 -1 47.001 -1h16.5c5 0 8.83301 0.333008 11.5 1zM60 -16.002
c14 1.33301 26.5 3.99805 37.5 7.99805s23.833 10.333 38.5 19l6 -8c-15.333 -9.33301 -29 -16.166 -41 -20.499s-25.667 -7.16602 -41 -8.49902v10z" />
    <glyph glyph-name="backslash" unicode="\" horiz-adv-x="552" 
d="M8 700c10.667 -18.667 28.5 -46.832 53.5 -84.499l86.5 -127.5l105 -149.5l109.5 -149.5c35.667 -47.333 69.167 -89.833 100.5 -127.5s57.333 -65.834 78 -84.501l-6 -8c-16 14 -34.833 33.667 -56.5 59l-71 86.5l-80 104l-82.5 113l-80 113.5l-71.5 104.5l-57 86
c-16.333 25 -28.5 44.5 -36.5 58.5z" />
    <glyph glyph-name="bracketright" unicode="]" horiz-adv-x="298" 
d="M64 642c8.66699 2 18.667 4.00195 30 6.00195l62 12.5c22 4.33301 44.667 11.166 68 20.499l4 -10c-22 -8.66699 -44.5 -15.334 -67.5 -20.001l-64.5 -13c-11.333 -2 -21.333 -4 -30 -6zM229 671.002c-3.33301 -54 -6.16602 -109.669 -8.49902 -167.002
s-6.5 -115.166 -12.5 -173.499s-14.833 -116.666 -26.5 -174.999s-28.5 -115.5 -50.5 -171.5l-8 6c22 55.333 38.667 112 50 170s19.833 116.167 25.5 174.5s9.66699 116 12 173s5.16602 112.167 8.49902 165.5zM50 6c11.333 -4.66699 24.167 -7.83398 38.5 -9.50098
s28.5 -2.5 42.5 -2.5v-10c-15.333 0 -30.5 0.833008 -45.5 2.5s-28.167 4.83398 -39.5 9.50098z" />
    <glyph glyph-name="asciicircum" unicode="^" horiz-adv-x="529" 
d="M105 269l24.001 34.5l36 49l42 54.5l41 52.5l33.5 42c9.66699 11.667 16.167 19.167 19.5 22.5l8 -8c-3.33301 -3.33301 -9.83301 -10.833 -19.5 -22.5l-34 -42l-41 -52.5l-42 -54.5l-36.5 -48c-10.667 -14.333 -18.334 -25.5 -23.001 -33.5zM309.001 516
c4 -12.667 10.333 -28.1641 19 -46.4971s18.5 -36.833 29.5 -55.5s22.333 -36.5 34 -53.5s22.167 -30.5 31.5 -40.5l-8 -6c-10 10 -20.833 23.667 -32.5 41s-23 35.666 -34 54.999s-21 38.166 -30 56.499s-15.5 34.166 -19.5 47.499z" />
    <glyph glyph-name="underscore" unicode="_" horiz-adv-x="481" 
d="M6 -25c12 -0.666992 26.333 -1 43 -1h54c44.667 0 95.5 0.666992 152.5 2s114.833 4 173.5 8v-10c-58.667 -4 -116.5 -6.66699 -173.5 -8s-107.833 -2 -152.5 -2h-54c-16.667 0 -31 0.333008 -43 1v10z" />
    <glyph glyph-name="grave" unicode="`" horiz-adv-x="322" 
d="M14 401l83.501 -45.501c27.667 -14.333 57.5 -28.5 89.5 -42.5l-4 -10c-29.333 12.667 -57.833 26.334 -85.5 41.001s-56.834 31 -87.501 49z" />
    <glyph glyph-name="a" unicode="a" horiz-adv-x="265" 
d="M256 179c-4.66699 5.33301 -9.99902 10.333 -15.999 15c-5.33301 3.33301 -11.5 6.66602 -18.5 9.99902s-15.167 5 -24.5 5c-16.667 0 -34.5 -3.83301 -53.5 -11.5s-36.667 -17.5 -53 -29.5s-29.833 -25.167 -40.5 -39.5s-16 -28.166 -16 -41.499
c0 -8 8.66699 -12 26 -12c23.333 0 47.666 5 72.999 15s47.666 25 66.999 45l8 -4c-1.33301 -8 -1.16602 -17.333 0.500977 -28s4.16699 -20.334 7.5 -29.001l-10 -4c-2 5.33301 -3.83301 12.833 -5.5 22.5s-2.83398 17.834 -3.50098 24.501
c-19.333 -18 -42.166 -31.167 -68.499 -39.5s-49.166 -12.5 -68.499 -12.5c-11.333 0 -20.166 1.66699 -26.499 5s-9.5 9 -9.5 17c0 14 5.66699 28.833 17 44.5s25.666 30 42.999 43s36 23.667 56 32s39 12.5 57 12.5c10 0 19 -1.83301 27 -5.5s15 -7.5 21 -11.5
c7.33301 -5.33301 13.666 -11 18.999 -17z" />
    <glyph glyph-name="b" unicode="b" horiz-adv-x="460" 
d="M213 104c-1.33301 34.667 -4.66309 68.666 -9.99609 101.999s-12 63 -20 89s-17 47 -27 63s-20.333 24 -31 24c-10 0 -18.333 -4.33301 -25 -13s-12.334 -19.667 -17.001 -33s-8 -28.666 -10 -45.999s-3 -34.333 -3 -51c0 -31.333 5.16699 -59.666 15.5 -84.999
s25 -46.833 44 -64.5s41.833 -31.334 68.5 -41.001s56.667 -14.5 90 -14.5c21.333 0 36.166 4.33301 44.499 13s12.5 18.667 12.5 30c0 8.66699 -2 16.667 -6 24s-8.33301 12 -13 14l2 9c18.667 0 38.5 1.5 59.5 4.5s41.167 6.83301 60.5 11.5s36.833 9.5 52.5 14.5
s27.5 10.167 35.5 15.5l6 -8c-8 -4.66699 -19.333 -9.66699 -34 -15s-31.167 -10.166 -49.5 -14.499s-37.5 -8.33301 -57.5 -12s-39.333 -5.83398 -58 -6.50098c8 -10 12 -22.333 12 -37c0 -13.333 -4.83301 -25.5 -14.5 -36.5s-27.167 -16.5 -52.5 -16.5
c-72 0 -128 19.5 -168 58.5s-60 91.167 -60 156.5c0 18.667 1.16699 37.167 3.5 55.5s6.16602 34.833 11.499 49.5s12.166 26.334 20.499 35.001s18.166 13 29.499 13c14.667 0 28 -9.5 40 -28.5s22.333 -42.833 31 -71.5s15.334 -59.834 20.001 -93.501s7 -65.167 7 -94.5
h-10z" />
    <glyph glyph-name="c" unicode="c" horiz-adv-x="332" 
d="M410 162c-12.667 7.33301 -28 13.999 -46 19.999c-15.333 5.33301 -34.333 10.166 -57 14.499s-49 6.5 -79 6.5c-27.333 0 -53 -3.66699 -77 -11s-45 -16.833 -63 -28.5s-32.167 -25.167 -42.5 -40.5s-15.5 -31 -15.5 -47c0 -14.667 9.33301 -25.834 28 -33.501
s41.667 -11.5 69 -11.5c23.333 0 48 3 74 9s50.333 15.333 73 28l4 -8c-23.333 -13.333 -48.5 -23.166 -75.5 -29.499s-52.167 -9.5 -75.5 -9.5c-30 0 -55.333 4.83301 -76 14.5s-31 23.167 -31 40.5s5.33301 34.333 16 51s25.5 31.334 44.5 44.001s41 22.834 66 30.501
s52.167 11.5 81.5 11.5c30 0 56.667 -2.33301 80 -7s43 -9.66699 59 -15c18.667 -6.66699 35 -13.667 49 -21z" />
    <glyph glyph-name="d" unicode="d" horiz-adv-x="450" 
d="M410 39c-5.33301 13.333 -10 28.668 -14 46.001c-3.33301 14.667 -6.5 32 -9.5 52s-4.5 42.667 -4.5 68c0 32.667 1.66699 63.5 5 92.5s7 54.5 11 76.5c4.66699 26 10.334 49.667 17.001 71l10 -2c-6.66699 -22 -12.334 -45.667 -17.001 -71
c-4 -21.333 -7.66699 -46.5 -11 -75.5s-5 -59.5 -5 -91.5c0 -24 1.5 -45.833 4.5 -65.5s6.16699 -36.834 9.5 -51.501c4 -17.333 8.66699 -32.333 14 -45zM295 200.002c-4 2 -8.99902 4.33301 -14.999 7c-5.33301 1.33301 -11.833 2.83301 -19.5 4.5s-17.167 2.5 -28.5 2.5
c-55.333 0 -102 -15 -140 -45s-57 -57 -57 -81c0 -16.667 5.33301 -28.5 16 -35.5s24.334 -10.833 41.001 -11.5c18 -0.666992 35.167 1.83301 51.5 7.5s34.166 13.834 53.499 24.501s38.166 23.5 56.499 38.5s35.166 31.833 50.499 50.5c12.667 16.667 25 38.5 37 65.5
s23 54.333 33 82s18.5 53.834 25.5 78.501s12.167 43.334 15.5 56.001l10 -2c-3.33301 -13.333 -8.5 -32.5 -15.5 -57.5s-15.5 -51.5 -25.5 -79.5s-21.167 -55.667 -33.5 -83s-25.166 -49.333 -38.499 -66c-16 -20 -33.333 -37.833 -52 -53.5s-38 -28.834 -58 -39.501
s-38.5 -18.834 -55.5 -24.501s-35.167 -8.16699 -54.5 -7.5s-35.333 5.16699 -48 13.5s-19 22.833 -19 43.5c0 27.333 20.667 56.833 62 88.5s89.666 47.5 144.999 47.5c12 0 22.333 -0.833008 31 -2.5s15.667 -3.5 21 -5.5
c6.66699 -2.66699 12.334 -5.33398 17.001 -8.00098z" />
    <glyph glyph-name="e" unicode="e" horiz-adv-x="402" 
d="M83 169c2 -2 5.00391 -4.00098 9.00391 -6.00098c3.33301 -1.33301 7.83301 -2.5 13.5 -3.5s13.167 -1.5 22.5 -1.5c10 0 18.667 3.33301 26 10s11 13 11 19c0 6.66699 -2.66699 11.334 -8 14.001s-12.333 4 -21 4c-3.33301 0 -9 -1.66699 -17 -5s-16 -9 -24 -17
s-15 -18.833 -21 -32.5s-8.66699 -27.834 -8 -42.501c-0.666992 -46.667 29.666 -71.667 90.999 -75c94 0.666992 201.333 46 322 136l6 -8c-120.667 -92 -230 -138 -328 -138c-68 1.33301 -102 29.666 -102 84.999c0 16.667 3.5 32.5 10.5 47.5s15 26.833 24 35.5
s18 14.834 27 18.501s15.5 5.5 19.5 5.5c11.333 0 20.666 -2 27.999 -6s11 -11.333 11 -22c0 -8 -4.5 -16.5 -13.5 -25.5s-20.167 -13.5 -33.5 -13.5c-10.667 0 -19.334 0.666992 -26.001 2s-12 3 -16 5c-4.66699 2.66699 -8.33398 5.33398 -11.001 8.00098z" />
    <glyph glyph-name="f" unicode="f" horiz-adv-x="348" 
d="M419 327c0 16.667 -1.66504 35.3271 -4.99805 55.9941s-10 40.334 -20 59.001s-24.5 34.334 -43.5 47.001s-44.5 19 -76.5 19c-24 0 -45.167 -6.33301 -63.5 -19s-34.5 -29 -48.5 -49s-25.833 -42.667 -35.5 -68s-17.5 -50.666 -23.5 -75.999s-10.333 -49.333 -13 -72
s-4 -41.667 -4 -57c0 -30 2.33301 -58.667 7 -86s11.5 -51.5 20.5 -72.5s19.833 -37.667 32.5 -50s27 -18.5 43 -18.5c10 0 19.167 5.83301 27.5 17.5s12.5 31.834 12.5 60.501c0 18 -5.16699 38.167 -15.5 60.5s-24.833 43 -43.5 62s-39.834 34.833 -63.501 47.5
s-55.167 19.334 -94.5 20.001v10c48 -0.666992 112.833 -5 194.5 -13s155.834 -20 222.501 -36l-2 -10c-78 17.333 -154.667 29.666 -230 36.999s-137 11.333 -185 12v10c36.667 0 69.167 -6.83301 97.5 -20.5s52 -30.5 71 -50.5s33.5 -41.667 43.5 -65
s15 -44.666 15 -63.999c0 -32.667 -5 -55.5 -15 -68.5s-21.667 -19.5 -35 -19.5c-17.333 0 -33 6.5 -47 19.5s-25.833 30.333 -35.5 52s-17.167 46.834 -22.5 75.501s-8 58.667 -8 90c0 15.333 1.33301 34.833 4 58.5s7.16699 48.5 13.5 74.5s14.666 52 24.999 78
s22.833 49.333 37.5 70s31.667 37.5 51 50.5s41.666 19.5 66.999 19.5c34 0 61.167 -6.66699 81.5 -20s36 -29.833 47 -49.5s18.167 -40.5 21.5 -62.5s5 -41.667 5 -59h-10z" />
    <glyph glyph-name="g" unicode="g" horiz-adv-x="446" 
d="M191 183c-3.33301 0.666992 -9.16504 1.5 -17.498 2.5s-15.166 1.5 -20.499 1.5c-10.667 0 -21 -1.83301 -31 -5.5s-18.833 -8.16699 -26.5 -13.5s-13.667 -11.333 -18 -18s-6.5 -13.334 -6.5 -20.001c0.666992 -9.33301 3.66699 -15.666 9 -18.999s12 -5 20 -5
c14 0 28 3.16699 42 9.5s31.667 17.833 53 34.5c21.333 18.667 39 39 53 61l11 1c16 -44 24.667 -83 26 -117c0 -27.333 -3.33301 -56.333 -10 -87s-16.667 -61 -30 -91s-30 -58.667 -50 -86s-43.167 -51.333 -69.5 -72s-56 -37.167 -89 -49.5s-69.167 -18.5 -108.5 -18.5
c-25.333 0 -45 6.66699 -59 20s-21 31.333 -21 54c0 31.333 8.66699 63.333 26 96s40.5 64.334 69.5 95.001s62.333 59.5 100 86.5s77 50.667 118 71s82.167 36.333 123.5 48s80.333 17.5 117 17.5c41.333 0 83.333 -3.33301 126 -10l-2 -10
c-45.333 7.33301 -86.666 10.666 -123.999 9.99902c-35.333 0 -73.5 -5.66699 -114.5 -17s-81.667 -26.833 -122 -46.5s-79 -42.667 -116 -69s-69.667 -54.5 -98 -84.5s-51 -61 -68 -93s-25.5 -63.333 -25.5 -94c0 -19.333 6 -34.833 18 -46.5s29.333 -17.5 52 -17.5
c56.667 0 106.5 12.833 149.5 38.5s79.167 58.167 108.5 97.5s51.5 82.5 66.5 129.5s22.5 91.5 22.5 133.5c-2.66699 36 -10.334 69.667 -23.001 101c-12 -17.333 -23.333 -31.166 -34 -41.499s-22 -20 -34 -29s-25.833 -17 -41.5 -24s-29.834 -10.5 -42.501 -10.5
c-12 0 -21.667 2.5 -29 7.5s-11 13.833 -11 26.5c0 7.33301 2.5 15 7.5 23s11.667 15.167 20 21.5s18.166 11.666 29.499 15.999s23.333 6.5 36 6.5c5.33301 0 12.166 -0.333008 20.499 -1s15.5 -2 21.5 -4z" />
    <glyph glyph-name="h" unicode="h" horiz-adv-x="538" 
d="M137 518l-72.002 -485c14 16.667 30.333 33.5 49 50.5s39.167 32.333 61.5 46s46.333 24.667 72 33s52.834 12.5 81.501 12.5c27.333 0 52.5 -7 75.5 -21s43.167 -29.333 60.5 -46c20 -19.333 38.667 -41.333 56 -66l-8 -6c-16.667 24 -34.667 45.333 -54 64
c-16.667 16 -36.167 30.833 -58.5 44.5s-46.166 20.5 -71.499 20.5c-50.667 0 -98.167 -13.5 -142.5 -40.5s-85.833 -63.167 -124.5 -108.5l-10 3l75 501z" />
    <glyph glyph-name="i" unicode="i" horiz-adv-x="287" 
d="M80 170c16.667 -62 51.998 -93 105.998 -93c56.667 -0.666992 115.334 30 176.001 92l7 -5c-62.667 -66 -123.667 -98.333 -183 -97c-59.333 -0.666992 -97.666 32.333 -114.999 99zM177.998 370c1.33301 -5.33301 3.99902 -8.66602 7.99902 -9.99902
c4.66699 -2 10 -1 16 3l4 -10c-3.33301 -2 -7.16602 -3.33301 -11.499 -4s-8.5 -0.333984 -12.5 0.999023c-4 2 -6.83301 4.33301 -8.5 7s-3.16699 5.66699 -4.5 9z" />
    <glyph glyph-name="j" unicode="j" horiz-adv-x="377" 
d="M78 169c3.33301 -2.66699 11.166 -10.334 23.499 -23.001l48 -50.5c19.667 -21 39.667 -43.667 60 -68s39.333 -50 57 -77s32.167 -54.833 43.5 -83.5s17 -56.667 17 -84c0 -18.667 -4 -34.667 -12 -48s-18 -24.166 -30 -32.499s-25.333 -14.5 -40 -18.5
s-28.667 -6 -42 -6c-21.333 0 -43.166 3.5 -65.499 10.5s-42.5 17.333 -60.5 31s-32.833 30.667 -44.5 51s-17.5 43.833 -17.5 70.5c0 32 6 62.667 18 92s28.167 56.666 48.5 81.999s44 47.833 71 67.5s56.333 37.334 88 53.001s64.167 26.5 97.5 32.5s74 6.33301 122 1
l-3 -11c-53.333 8 -102.833 5.5 -148.5 -7.5s-88.5 -33.667 -128.5 -62s-70 -54.833 -90 -79.5s-35.833 -51.167 -47.5 -79.5s-17.5 -57.833 -17.5 -88.5c0 -25.333 5.5 -47.5 16.5 -66.5s25 -34.833 42 -47.5s36.167 -22.334 57.5 -29.001s42 -10 62 -10
c12 0 24.833 1.83301 38.5 5.5s26 9.33398 37 17.001s20.167 17.5 27.5 29.5s11 26.333 11 43c0 26.667 -5.66699 54 -17 82s-25.5 55.333 -42.5 82s-35.5 51.667 -55.5 75l-59.5 67c-19.667 21.333 -35.5 38 -47.5 50s-19.667 19.333 -23 22zM139 385
c7.33301 -4 18.668 -7.33301 34.001 -10s29.666 -3.66699 42.999 -3v-10c-14.667 -0.666992 -30.167 0.5 -46.5 3.5s-28.5 6.83301 -36.5 11.5z" />
    <glyph glyph-name="k" unicode="k" horiz-adv-x="363" 
d="M255 436c-20 -18.667 -39.832 -40.8301 -59.499 -66.4971s-38.334 -54.334 -56.001 -86.001s-33.667 -66.334 -48 -104.001s-26.166 -77.5 -35.499 -119.5c3.33301 2 6.66602 4.16699 9.99902 6.5s6.66602 4.16602 9.99902 5.49902l4 -8l-38 -22
c9.33301 46 21.5 89 36.5 129s31.667 77 50 111s37.833 64.5 58.5 91.5s41.334 50.5 62.001 70.5zM334.001 267.004l-78.998 -36c-22.667 -11.333 -47.334 -24.333 -74.001 -39s-51.334 -30.667 -74.001 -48c22 -20 48 -38.5 78 -55.5s62 -32 96 -45
s69.333 -23.833 106 -32.5s73 -15 109 -19l-2 -10c-37.333 4 -74.833 10.667 -112.5 20s-74.334 21 -110.001 35s-69 30 -100 48s-57.833 37.667 -80.5 59c24.667 18.667 50.834 36.167 78.501 52.5s53.5 30.5 77.5 42.5c27.333 14 55 26.667 83 38z" />
    <glyph glyph-name="l" unicode="l" horiz-adv-x="491" 
d="M573 162c-104.667 -74.667 -212.667 -111.997 -324 -111.997c-35.333 0 -64.333 4.16699 -87 12.5s-40.667 19.333 -54 33s-22.666 29 -27.999 46s-8 34.167 -8 51.5c0 32.667 7.33301 65.667 22 99s33.667 63.666 57 90.999s50 49.666 80 66.999s60.333 26 91 26
c8.66699 0 15.334 -2.5 20.001 -7.5s7 -11.5 7 -19.5c0 -14.667 -4.66699 -31.667 -14 -51s-22 -39.333 -38 -60s-34.833 -41.167 -56.5 -61.5s-45.167 -38.833 -70.5 -55.5l-6 8c26 18 49.667 37.333 71 58s39.666 41 54.999 61s27.166 38.833 35.499 56.5
s12.5 32.5 12.5 44.5c0 11.333 -5.33301 17 -16 17c-30 0 -59.333 -8.5 -88 -25.5s-54.167 -38.833 -76.5 -65.5s-40.5 -56 -54.5 -88s-21 -63.333 -21 -94c0 -16 2.5 -31.833 7.5 -47.5s13.667 -29.834 26 -42.501s29.333 -23 51 -31s49.167 -12 82.5 -12
c107.333 0 213.333 36.667 318 110z" />
    <glyph glyph-name="m" unicode="m" horiz-adv-x="572" 
d="M84 167l-17.002 -133.001c7.33301 8.66699 18.333 19.667 33 33s30.167 26 46.5 38s32 21.833 47 29.5s27.167 10.167 36.5 7.5c6.66699 -2 12.834 -7.5 18.501 -16.5s11.167 -18.667 16.5 -29s10.833 -19.833 16.5 -28.5s11.834 -13.667 18.501 -15
c10 -2 22.167 1.66699 36.5 11l46 31.5c16.333 11.667 32.833 22.334 49.5 32.001s32 13.5 46 11.5c13.333 -2 25.333 -6.66699 36 -14s19.667 -15.333 27 -24c8 -10 15.333 -20.667 22 -32l-10 -4c-6 11.333 -12.667 21.333 -20 30c-6.66699 7.33301 -14.667 14.5 -24 21.5
s-19.666 11.167 -30.999 12.5c-13.333 2 -27.833 -1.83301 -43.5 -11.5s-31.5 -20.167 -47.5 -31.5s-31.833 -21.833 -47.5 -31.5s-29.834 -13.5 -42.501 -11.5c-7.33301 0.666992 -14.333 5.5 -21 14.5s-12.667 18.667 -18 29l-15.5 29c-5 9 -9.5 14.5 -13.5 16.5
c-8 2.66699 -19.333 0.333984 -34 -6.99902s-30.334 -17.333 -47.001 -30s-32.667 -26.334 -48 -41.001s-27.666 -27.667 -36.999 -39l-9 2l20 152z" />
    <glyph glyph-name="n" unicode="n" horiz-adv-x="370" 
d="M324 68c-6 3.33301 -10.8311 9.33789 -14.498 18.0049s-6.66699 18.667 -9 30s-4.33301 23.166 -6 35.499s-3.33398 23.833 -5.00098 34.5s-4 19.667 -7 27s-6.83301 11.666 -11.5 12.999c-6.66699 1.33301 -14.834 -0.5 -24.501 -5.5s-20 -12.167 -31 -21.5
s-22.333 -20 -34 -32l-34.5 -37c-26.667 -30 -54.667 -64.667 -84 -104l-10 2l20 142l10 -2l-17 -121l24.5 32c10.333 13.333 21.833 27.333 34.5 42l40 44.5c14 15 27.667 28 41 39s25.833 19.667 37.5 26s21.5 8.16602 29.5 5.49902c10.667 -2.66699 18 -11.167 22 -25.5
s7.16699 -30.333 9.5 -48s5 -34.834 8 -51.501s8.83301 -28.334 17.5 -35.001z" />
    <glyph glyph-name="o" unicode="o" horiz-adv-x="356" 
d="M84 167c-4 -16.667 -3.99805 -37.332 0.00195312 -61.999c5.33301 -22.667 16.333 -40.5 33 -53.5s34.667 -19.5 54 -19.5c10.667 0 13.667 6.66699 9 20c-2 7.33301 -6 15.833 -12 25.5s-12.833 19 -20.5 28s-15.334 17.167 -23.001 24.5s-14.5 12.666 -20.5 15.999l4 8
c6.66699 -3.33301 14.5 -9.16602 23.5 -17.499s17.833 -17.833 26.5 -28.5s16.167 -21.5 22.5 -32.5s10.166 -20.833 11.499 -29.5c1.33301 -7.33301 0.5 -13.166 -2.5 -17.499s-9.16699 -6.5 -18.5 -6.5c-21.333 0 -41.333 7.16699 -60 21.5s-31 34.166 -37 59.499
c-4 25.333 -4 47.666 0 66.999zM439.002 162.002c-28.667 -9.33301 -61 -16.333 -97 -21s-72.333 -7 -109 -7c-21.333 0 -43.5 1 -66.5 3s-43.833 5 -62.5 9l4 8c18.667 -4 39 -6.66699 61 -8s43.333 -2 64 -2c36 0 71.5 2.33301 106.5 7s66.833 11.667 95.5 21z" />
    <glyph glyph-name="p" unicode="p" horiz-adv-x="414" 
d="M83 170c-0.666992 -19.333 -1.33398 -42.001 -2.00098 -68.001s-1.83398 -53 -3.50098 -81s-3.83398 -57.833 -6.50098 -89.5s-6.33398 -66.5 -11.001 -104.5l-10 2c4.66699 38 8.33398 72.833 11.001 104.5s4.83398 61.5 6.50098 89.5s2.83398 54.833 3.50098 80.5
s1.33398 47.834 2.00098 66.501h10zM213 142.999c0 -18 2.99805 -33.9951 8.99805 -47.9951c5.33301 -12 14 -22.833 26 -32.5s30.333 -14.5 55 -14.5c12.667 0 24.334 2.5 35.001 7.5s19.667 11.333 27 19s13.166 16.167 17.499 25.5s6.5 18.666 6.5 27.999
s-3.66699 17.666 -11 24.999s-18.666 11 -33.999 11c-17.333 0 -38.833 -4.66699 -64.5 -14s-52.334 -26.5 -80.001 -51.5s-54 -59.333 -79 -103s-45.167 -99.834 -60.5 -168.501l-10 2c16 70 37 127.5 63 172.5s53.167 80.167 81.5 105.5s56 42.833 83 52.5
s49.167 14.5 66.5 14.5c18 0 31.667 -4.5 41 -13.5s14 -19.833 14 -32.5c0 -10 -2.33301 -20.333 -7 -31s-11.167 -20.334 -19.5 -29.001s-18.5 -15.834 -30.5 -21.501s-25 -8.5 -39 -8.5c-27.333 0 -47.666 5.33301 -60.999 16s-23 22.667 -29 36
c-7.33301 15.333 -10.666 33 -9.99902 53h10z" />
    <glyph glyph-name="q" unicode="q" horiz-adv-x="681" 
d="M250 167c-5.33301 3.33301 -11.666 6.33203 -18.999 8.99902c-6.66699 2 -14.667 4 -24 6s-20 3 -32 3c-16 0 -32 -1.83301 -48 -5.5s-30.5 -8.83398 -43.5 -15.501s-23.5 -14.834 -31.5 -24.501s-12 -20.5 -12 -32.5c0 -13.333 4.5 -23.666 13.5 -30.999
s20.167 -11 33.5 -11c20.667 0 43.167 5 67.5 15s48.666 23 72.999 39s47.833 34 70.5 54s43 40 61 60l8 -6c-18.667 -20.667 -39.667 -41.167 -63 -61.5s-47.5 -38.666 -72.5 -54.999s-50 -29.666 -75 -39.999s-48.167 -15.5 -69.5 -15.5c-16 0 -29.5 4.66699 -40.5 14
s-16.5 22 -16.5 38c0 13.333 4.33301 25.5 13 36.5s20 20.333 34 28s29.5 13.5 46.5 17.5s34.167 6 51.5 6c13.333 0 24.833 -1 34.5 -3s18.167 -4.33301 25.5 -7c8 -2.66699 15 -6 21 -10zM367 226.999l-81 -401l-10 1l83 406zM762 159.999
c-12 1.33301 -26 2.16602 -42 2.49902s-38.667 -2.66699 -68 -9s-59.166 -16.666 -89.499 -30.999s-60.333 -31.666 -90 -51.999s-57 -43.166 -82 -68.499s-46.667 -52.833 -65 -82.5s-31.5 -60.834 -39.5 -93.501l-10 1c8 33.333 21.5 65.166 40.5 95.499
s41.333 58.5 67 84.5s53.667 49.5 84 70.5s61 38.833 92 53.5s60.333 25 88 31s50.667 9 69 9s34.166 -0.666992 47.499 -2z" />
    <glyph glyph-name="r" unicode="r" horiz-adv-x="296" 
d="M82 171c0.666992 -6.66699 1.33398 -19 2.00098 -37s1 -36 1 -54c0 -12 -0.166992 -23.667 -0.5 -35s-0.833008 -21.666 -1.5 -30.999h-10c0.666992 9.33301 1.16699 19.666 1.5 30.999s0.5 23 0.5 35c0 18 -0.333008 36 -1 54s-1.33398 30.333 -2.00098 37h10zM374 160
c-8.66699 5.33301 -18.0029 10.335 -28.0029 15.002c-8.66699 4 -18.5 7.66699 -29.5 11s-23.167 5.33301 -36.5 6c-16 0.666992 -33.167 -2.5 -51.5 -9.5s-36.166 -17.667 -53.499 -32s-34 -33 -50 -56s-30 -49.833 -42 -80.5h-10c12.667 34 27.334 63 44.001 87
s34.167 43.333 52.5 58s37 25.667 56 33s37.167 10.666 54.5 9.99902c14 -0.666992 27 -2.83398 39 -6.50098s22.667 -7.5 32 -11.5c10.667 -4.66699 20.334 -10 29.001 -16z" />
    <glyph glyph-name="s" unicode="s" horiz-adv-x="207" 
d="M119 232c-8 0 -14.999 -1.33594 -20.999 -4.00293c-5.33301 -2 -10.166 -5.5 -14.499 -10.5s-6.5 -11.833 -6.5 -20.5c0 -17.333 13.833 -47 41.5 -89s41.5 -73.667 41.5 -95c0 -7.33301 -2.83301 -13 -8.5 -17s-15.5 -5.33301 -29.5 -4
c-8 0.666992 -16.667 2.33398 -26 5.00098s-18.333 5.83398 -27 9.50098s-16.167 7.16699 -22.5 10.5s-13.833 8 -22.5 14l6 8c13.333 -8.66699 28.166 -16.667 44.499 -24s32.166 -11.666 47.499 -12.999c18.667 -0.666992 28 3 28 11c0 18 -13.833 48.333 -41.5 91
s-41.5 73.667 -41.5 93c0 11.333 2.66699 19.833 8 25.5s11.333 10.167 18 13.5c7.33301 3.33301 16 5.33301 26 6v-10z" />
    <glyph glyph-name="t" unicode="t" horiz-adv-x="279" 
d="M155 370l-29.998 -78.9971l91 8c46 4 93.667 9 143 15c66 8 129.833 15 191.5 21s118.167 11.167 169.5 15.5s95.833 7.66602 133.5 9.99902s65.167 3.16602 82.5 2.49902v-10c-18 0.666992 -45.167 0 -81.5 -2s-79.833 -5.16699 -130.5 -9.5
s-106.834 -9.66602 -168.501 -15.999s-126.5 -13.5 -194.5 -21.5c-50 -6 -98 -11 -144 -15c-34 -3.33301 -66 -6 -96 -8c-2 -6.66699 -4 -12.667 -6 -18c-10 -30 -19.667 -62 -29 -96s-14 -64.333 -14 -91c0 -18 3.66699 -32.833 11 -44.5s18.666 -17.5 33.999 -17.5
c14.667 0 31.5 4 50.5 12s39 19.167 60 33.5s42.5 31.666 64.5 51.999l62 58.5l8 -6c-19.333 -19.333 -40.5 -39.333 -63.5 -60s-45.333 -38.334 -67 -53.001s-42.167 -26.167 -61.5 -34.5s-37 -12.5 -53 -12.5c-18 0 -31.667 6.66699 -41 20s-14 30.666 -14 51.999
c0 26.667 4.83301 57.834 14.5 93.501s19.5 68.167 29.5 97.5c1.33301 4.66699 2.66602 9 3.99902 13c-7.33301 -0.666992 -14.666 -1 -21.999 -1c-39.333 -2.66699 -75.166 -4.5 -107.499 -5.5s-59.5 -1.5 -81.5 -1.5h-25c-8 0 -14.667 0.333008 -20 1v10
c5.33301 -0.666992 12 -1 20 -1h25c22 0 49.167 0.666992 81.5 2s68.166 3 107.499 5l26 2l31 83z" />
    <glyph glyph-name="u" unicode="u" horiz-adv-x="398" 
d="M84 168c-4.66699 -10.667 -8.83398 -22.333 -12.501 -35s-5.5 -25.667 -5.5 -39c0 -19.333 5.5 -33.666 16.5 -42.999s26.167 -14 45.5 -14c14 0 30 4.5 48 13.5s36.333 20.333 55 34s37 28.667 55 45s34 32.166 48 47.499l8 -6c-14.667 -16 -31.167 -32.5 -49.5 -49.5
s-37.166 -32.5 -56.499 -46.5s-38.333 -25.5 -57 -34.5s-35.667 -13.5 -51 -13.5c-22 0 -39.5 5.5 -52.5 16.5s-19.5 27.833 -19.5 50.5c0 14 2.16699 27.833 6.5 41.5s8.5 25.167 12.5 34.5zM342 171.001c-4 -10 -6.66504 -20.167 -7.99805 -30.5
s-1.5 -24.666 -0.5 -42.999s4.83301 -38.166 11.5 -59.499l-10 -3c-7.33301 24 -11.333 44.667 -12 62s-0.333984 31.666 0.999023 42.999s4.66602 23.666 9.99902 36.999z" />
    <glyph glyph-name="v" unicode="v" horiz-adv-x="377" 
d="M82 170c5.33301 -18 13.002 -37.666 23.002 -58.999c9.33301 -19.333 21 -39 35 -59c12 -16.667 27.333 -33.334 46 -50.001c-1.33301 30 -2.66602 56.5 -3.99902 79.5s-4 47.833 -8 74.5c39.333 10.667 84.166 17.834 134.499 21.501s101.166 0.5 152.499 -9.5l-2 -10
c-41.333 10.667 -85.666 14.667 -132.999 12c-44.667 -2.66699 -91.334 -10 -140.001 -22c3.33301 -22.667 5.33301 -45 6 -67c1.33301 -26 2.66602 -55 3.99902 -87l-6 -8c-24 20 -42.667 38.667 -56 56s-25.333 36.666 -36 57.999c-12 26 -20.667 48.667 -26 68z" />
    <glyph glyph-name="w" unicode="w" horiz-adv-x="581" 
d="M84 168c-2 -14.667 -3 -27 -3 -37c0 -11.333 0.666992 -22.5 2 -33.5s3.83301 -20.833 7.5 -29.5s8.33398 -15.834 14.001 -21.501s12.834 -8.5 21.501 -8.5c14.667 0 30 4.33301 46 13s31.333 19.5 46 32.5s27.5 26.167 38.5 39.5s20.167 25.333 27.5 36l11 3
c3.33301 -9.33301 8.66602 -20.166 15.999 -32.499s17.166 -25.5 29.499 -39.5s27.166 -26 44.499 -36s37.333 -15 60 -15c26 0 47.167 6.66699 63.5 20s24.5 35.666 24.5 66.999c0 8 -1.33301 16.333 -4 25s-6.16699 17.334 -10.5 26.001s-9.16602 16.667 -14.499 24
s-10.666 13.666 -15.999 18.999l6 8c12 -11.333 23.167 -27 33.5 -47s15.5 -38.333 15.5 -55c0 -18 -2.66699 -33.333 -8 -46s-12.5 -22.667 -21.5 -30s-19.5 -12.666 -31.5 -15.999s-24.333 -5 -37 -5c-22 0 -41.667 4.5 -59 13.5s-32.333 19.667 -45 32
s-23.334 25.333 -32.001 39s-15.667 25.5 -21 35.5c-8.66699 -13.333 -19.167 -27 -31.5 -41s-25.666 -27 -39.999 -39s-29.333 -21.833 -45 -29.5s-30.834 -11.5 -45.501 -11.5c-10.667 0 -19.5 3.16699 -26.5 9.5s-12.667 14.333 -17 24s-7.33301 20.667 -9 33
s-2.5 24.5 -2.5 36.5c0 11.333 1 24.333 3 39z" />
    <glyph glyph-name="x" unicode="x" horiz-adv-x="257" 
d="M80 170c13.333 -7.33301 27.833 -16.166 43.5 -26.499s31.5 -21.833 47.5 -34.5s31.667 -25.834 47 -39.501s29 -27.5 41 -41.5l-8 -6c-12 14 -25.5 27.833 -40.5 41.5s-30.333 26.667 -46 39s-31.167 23.5 -46.5 33.5s-29.333 18.667 -42 26zM250 144l-83 -62
l-58.5 -44.5l-62.5 -48l-62 -48l-55 -43.5c-16.667 -13.333 -30.667 -25 -42 -35l-6 8c11.333 10 25.333 21.667 42 35l55 43.5l62 48l62.5 48l58 44.5l83.5 62z" />
    <glyph glyph-name="y" unicode="y" horiz-adv-x="552" 
d="M84 168c-7.33301 -18 -12.8271 -33 -16.4941 -45s-6.33398 -23.667 -8.00098 -35s-1.5 -21 0.5 -29c2 -10 9.66699 -12.667 23 -8c11.333 4.66699 23.5 12.167 36.5 22.5l41.5 34.5c21.333 18.667 42.833 36 64.5 52s43.5 24 65.5 24c20.667 0 38 -6.66699 52 -20
s25 -29.333 33 -48s13.667 -38.167 17 -58.5s5 -37.5 5 -51.5c0 -9.33301 -0.833008 -22.166 -2.5 -38.499s-5.33398 -33.833 -11.001 -52.5s-13.667 -37.834 -24 -57.501s-24 -37.334 -41 -53.001s-38 -28.5 -63 -38.5s-54.5 -15 -88.5 -15s-58.5 9 -73.5 27
s-22.5 41 -22.5 69c0 30.667 14.333 62.834 43 96.501s68.167 65.834 118.5 96.501s109.666 58.167 177.999 82.5s142.5 40.166 222.5 47.499l2 -10c-78.667 -7.33301 -151.834 -22.833 -219.501 -46.5s-126.167 -50.334 -175.5 -80.001s-88.166 -60.834 -116.499 -93.501
s-42.5 -63.667 -42.5 -93c0 -23.333 6.83301 -43.5 20.5 -60.5s35.5 -25.5 65.5 -25.5c32.667 0 61 4.83301 85 14.5s44 22 60 37s29 31.833 39 50.5s17.667 37.167 23 55.5s8.83301 35.166 10.5 50.499s2.5 27.666 2.5 36.999c0 13.333 -1.5 29.5 -4.5 48.5
s-8.16699 37.333 -15.5 55s-17.333 32.834 -30 45.501s-28.334 19 -47.001 19c-20 0 -40.667 -7.83301 -62 -23.5s-42 -32.5 -62 -50.5c-14.667 -13.333 -28.834 -25.5 -42.501 -36.5s-27.167 -18.833 -40.5 -23.5c-7.33301 -2.66699 -14.333 -3 -21 -1s-11 7.66699 -13 17
c-2 8.66699 -2.33301 18.334 -1 29.001s3.66602 21.834 6.99902 33.501s9.33301 28.834 18 51.501z" />
    <glyph glyph-name="z" unicode="z" horiz-adv-x="380" 
d="M142 219c11.333 2 23.665 3.1709 36.998 3.50391s25.833 -0.333984 37.5 -2.00098s21.334 -4.33398 29.001 -8.00098s11.5 -8.83398 11.5 -15.501c0 -6 -4.33301 -13 -13 -21s-24 -19 -46 -33l-57 -36l-56 -36c-21.333 -14 -32 -23 -32 -27
c0 -3.33301 3.66699 -5.33301 11 -6s16 -1 26 -1c15.333 0 34.666 1.83301 57.999 5.5s50.333 10.5 81 20.5s65 23.667 103 41s80 39.666 126 66.999l6 -8c-46.667 -27.333 -89.5 -49.833 -128.5 -67.5s-74.167 -31.5 -105.5 -41.5s-58.666 -17 -81.999 -21
s-42.666 -6 -57.999 -6c-13.333 0 -24.833 1 -34.5 3s-14.5 6.66699 -14.5 14c0 4.66699 10.833 14.667 32.5 30s40.667 28 57 38l57.5 36c22 14 37.333 24.667 46 32s13 13.333 13 18c0 4 -3.83301 7.16699 -11.5 9.5s-17 3.83301 -28 4.5s-21 1 -30 1s-20.5 -1 -34.5 -3z
" />
    <glyph glyph-name="braceleft" unicode="{" horiz-adv-x="273" 
d="M48 252c6 2.66699 14.5 7.99609 25.5 15.9961s22.167 17.667 33.5 29s22 23.833 32 37.5s17 27.834 21 42.501s6 30.334 6 47.001c0 9.33301 -0.333008 18.666 -1 27.999s-1.66699 18.333 -3 27c-1.33301 13.333 -2.16602 25.5 -2.49902 36.5
s0.833984 20.167 3.50098 27.5s7.16699 10.333 13.5 9s13.5 -5.16602 21.5 -11.499s16.333 -14.166 25 -23.499s16 -18.333 22 -27l-8 -6l-18 22.5c-6.66699 8.33301 -13.167 15.5 -19.5 21.5s-12 10.333 -17 13s-8.16699 2 -9.5 -2
c-2.66699 -6.66699 -3.83398 -15 -3.50098 -25s1.16602 -21.333 2.49902 -34v1c1.33301 -8.66699 2.33301 -17.834 3 -27.501s1 -19.5 1 -29.5c0 -18 -2 -34.333 -6 -49c-4 -15.333 -11.333 -30.166 -22 -44.499s-22 -27.333 -34 -39s-23.667 -21.667 -35 -30
s-20.333 -14.166 -27 -17.499zM57 251.996c11.333 -10.667 22.165 -24.9971 32.498 -42.9971s15.5 -41 15.5 -69c0 -18 -2.5 -36 -7.5 -54s-10.167 -34.667 -15.5 -50l-9.5 -28.5c-3 -9 -4.5 -15.5 -4.5 -19.5c0 -8.66699 2.33301 -13.334 7 -14.001
s9 -0.333984 13 0.999023c1.33301 0 2.5 0.166992 3.5 0.5s2.16699 0.5 3.5 0.5v-10c-1.33301 0 -2.16602 -0.166992 -2.49902 -0.5s-1.16602 -0.5 -2.49902 -0.5c-7.33301 -1.33301 -14.5 -1.33301 -21.5 0s-10.5 9 -10.5 23c0 7.33301 1.5 15.166 4.5 23.499
s6.16699 17.833 9.5 28.5c5.33301 15.333 10.5 31.833 15.5 49.5s7.5 34.5 7.5 50.5c0 26 -4.66699 47.5 -14 64.5s-19.333 30.167 -30 39.5z" />
    <glyph glyph-name="bar" unicode="|" horiz-adv-x="302" 
d="M195 714c-1.33301 -16.667 -3.16602 -40.833 -5.49902 -72.5l-8 -110c-3 -41.667 -6 -86.667 -9 -135s-5.66699 -97.833 -8 -148.5s-4.33301 -101 -6 -151s-2.5 -97 -2.5 -141c0 -40 0.833008 -76.5 2.5 -109.5s4.16699 -61.167 7.5 -84.5l-10 -2
c-3.33301 23.333 -5.83301 51.666 -7.5 84.999s-2.5 70.333 -2.5 111c0 44 0.833008 91 2.5 141s3.66699 100.333 6 151s5 100.167 8 148.5s6 93.333 9 135l8 110c2.33301 31.667 4.16602 55.834 5.49902 72.501h10z" />
    <glyph glyph-name="braceright" unicode="}" horiz-adv-x="270" 
d="M60 606c4.66699 4 11.4971 8.66602 20.4971 13.999l28 16c9.66699 5.33301 19 9.83301 28 13.5s16.167 5.5 21.5 5.5c12.667 0 20 -3.16699 22 -9.5s3 -12.166 3 -17.499s-2.83301 -13.166 -8.5 -23.499s-13.167 -21.5 -22.5 -33.5l-19.5 -29.5
c-7 -10.333 -13.5 -21 -19.5 -32s-10.833 -21.833 -14.5 -32.5s-5.5 -20.334 -5.5 -29.001c0 -30 9 -53 27 -69s48 -29.667 90 -41l-2 -10c-45.333 12 -77.5 26.833 -96.5 44.5s-28.5 42.834 -28.5 75.501c0 10 2 20.5 6 31.5s9 22.167 15 33.5s12.5 22.5 19.5 33.5
s13.833 21.167 20.5 30.5c8.66699 11.333 15.667 21.666 21 30.999s8 16 8 20c0 3.33301 -0.666992 7 -2 11s-5.66602 6 -12.999 6c-4.66699 0 -11.167 -1.66699 -19.5 -5s-17.166 -7.5 -26.499 -12.5s-18.166 -10.167 -26.499 -15.5s-14.833 -10 -19.5 -14z
M207.997 327.999c-25.333 -19.333 -46.1689 -42.5029 -62.502 -69.5029s-24.5 -56.5 -24.5 -88.5c0 -22.667 2.33301 -44.834 7 -66.501s9.33398 -41.167 14.001 -58.5c3.33301 -11.333 6 -22 8 -32s3 -18.667 3 -26c0 -9.33301 -3.33301 -18.666 -10 -27.999
s-15.667 -17.833 -27 -25.5s-24.666 -14.167 -39.999 -19.5s-31.666 -8.33301 -48.999 -9v10c16 0.666992 31 3.33398 45 8.00098s26.333 10.334 37 17.001s19 14.167 25 22.5s9 16.5 9 24.5c0 6.66699 -1 14.834 -3 24.501s-4.66699 20.167 -8 31.5
c-4.66699 17.333 -9.33398 36.833 -14.001 58.5s-7 44.5 -7 68.5c0 33.333 8.66699 64.333 26 93s39 53 65 73z" />
    <glyph glyph-name="asciitilde" unicode="~" horiz-adv-x="588" 
d="M142 188c6.66699 10.667 15.333 22.001 26 34.001s22 23 34 33s24.333 18.167 37 24.5s24.667 9.5 36 9.5c12.667 0 23.834 -5.33301 33.501 -16s19.167 -22.334 28.5 -35.001c7.33301 -10.667 14.833 -20.334 22.5 -29.001s15.167 -13 22.5 -13
c8.66699 0 17 2.66699 25 8s15 11.666 21 18.999s11.167 14.833 15.5 22.5s7.5 14.167 9.5 19.5l10 -4c-2 -5.33301 -5.5 -12.333 -10.5 -21s-11 -17 -18 -25s-15 -14.833 -24 -20.5s-18.5 -8.5 -28.5 -8.5s-19.333 4.83301 -28 14.5s-17 20.167 -25 31.5
c-8.66699 11.333 -17.334 22 -26.001 32s-18 15 -28 15s-21 -3.16699 -33 -9.5s-23.667 -14.166 -35 -23.499s-22 -19.666 -32 -30.999s-18.333 -22.333 -25 -33z" />
    <glyph glyph-name="exclamdown" unicode="&#xa1;" horiz-adv-x="326" 
d="M125 -296c-10 56.667 -15 116.667 -15 180c0 58 3.16699 113.5 9.5 166.5s13.166 99.5 20.499 139.5l10 -2c-7.33301 -40 -14.166 -86.5 -20.499 -139.5s-9.5 -107.833 -9.5 -164.5c0 -60.667 5 -120 15 -178zM185 313c-7.33301 -6 -14.333 -9.50098 -21 -10.501
s-13 -0.166992 -19 2.5l1 11c4.66699 -1.33301 9.66699 -2.16602 15 -2.49902s11.333 2.16699 18 7.5z" />
    <glyph glyph-name="cent" unicode="&#xa2;" horiz-adv-x="332" 
d="M208 335l-12 -49l-17.5 -74.5l-19.5 -87.5l-19 -88c-6 -28 -11.167 -53.333 -15.5 -76s-7.16602 -39.667 -8.49902 -51l-10 2c1.33301 11.333 4.16602 28.333 8.49902 51s9.5 48 15.5 76l19 88l19.5 87.5l17.5 74.5l12 49zM410 162
c-12.667 7.33301 -28 13.999 -46 19.999c-15.333 5.33301 -34.333 10.166 -57 14.499s-49 6.5 -79 6.5c-27.333 0 -53 -3.66699 -77 -11s-45 -16.833 -63 -28.5s-32.167 -25.167 -42.5 -40.5s-15.5 -31 -15.5 -47c0 -14.667 9.33301 -25.834 28 -33.501
s41.667 -11.5 69 -11.5c23.333 0 48 3 74 9s50.333 15.333 73 28l4 -8c-23.333 -13.333 -48.5 -23.166 -75.5 -29.499s-52.167 -9.5 -75.5 -9.5c-30 0 -55.333 4.83301 -76 14.5s-31 23.167 -31 40.5s5.33301 34.333 16 51s25.5 31.334 44.5 44.001s41 22.834 66 30.501
s52.167 11.5 81.5 11.5c30 0 56.667 -2.33301 80 -7s43 -9.66699 59 -15c18.667 -6.66699 35 -13.667 49 -21z" />
    <glyph glyph-name="sterling" unicode="&#xa3;" horiz-adv-x="467" 
d="M425 325c2 8 3.66602 16.1641 4.99902 24.4971s2 16.833 2 25.5c0 24.667 -4.16699 49.667 -12.5 75s-20.166 48.166 -35.499 68.499s-34 36.833 -56 49.5s-46.667 19 -74 19c-25.333 0 -45.833 -9 -61.5 -27s-23.5 -40.667 -23.5 -68c0 -16 1.83301 -32.833 5.5 -50.5
s8.5 -35.667 14.5 -54s12.667 -36.333 20 -54l22 -50.5c11.333 -24.667 21 -47.667 29 -69s12 -39.666 12 -54.999c0 -18 -5.83301 -34.667 -17.5 -50s-26.834 -29.166 -45.501 -41.499s-39.167 -23 -61.5 -32s-44.166 -15.5 -65.499 -19.5l-2 10
c20 4 40.833 10.167 62.5 18.5s41.334 18.333 59.001 30s32.167 24.667 43.5 39s17 29.5 17 45.5c0 13.333 -4 30.333 -12 51s-17.667 43.667 -29 69c-14.667 33.333 -28.667 68.333 -42 105s-20 72.667 -20 108c0 30 8.66699 55 26 75s40.333 30 69 30
s54.667 -6.66699 78 -20s43.166 -30.666 59.499 -51.999s28.833 -45.166 37.5 -71.499s13 -52.5 13 -78.5c0 -9.33301 -0.666992 -18.333 -2 -27s-3 -17 -5 -25zM81.999 25.9971c7.33301 0 17.001 -0.165039 29.001 -0.498047s25.333 -0.5 40 -0.5
c15.333 0 31.166 -0.166992 47.499 -0.5s32.166 -0.5 47.499 -0.5c19.333 0 37.166 0.166992 53.499 0.5s27.5 0.833008 33.5 1.5c6.66699 1.33301 11.667 4.66602 15 9.99902s4.33301 9.66602 3 12.999l8 6c1.33301 -2.66699 1.83301 -6 1.5 -10s-1.5 -8 -3.5 -12
s-4.83301 -7.66699 -8.5 -11s-8.16699 -5.33301 -13.5 -6c-4 -0.666992 -14.167 -1.16699 -30.5 -1.5s-35.833 -0.5 -58.5 -0.5c-15.333 0 -31.166 0.166992 -47.499 0.5s-32.166 0.5 -47.499 0.5c-14.667 0 -28 0.166992 -40 0.5s-21.667 0.5 -29 0.5v10zM106 155.999
c7.33301 -0.666992 18.666 -0.833984 33.999 -0.500977s32.666 0.5 51.999 0.5c11.333 0 22.5 0.166992 33.5 0.5s22.167 0.5 33.5 0.5c15.333 0 30.166 -0.166992 44.499 -0.5s26.166 -0.833008 35.499 -1.5v-10c-9.33301 0.666992 -21.166 1.16699 -35.499 1.5
s-29.166 0.5 -44.499 0.5c-11.333 0 -22.5 -0.166992 -33.5 -0.5s-22.167 -0.5 -33.5 -0.5c-19.333 0 -36.666 -0.166992 -51.999 -0.5s-26.666 -0.166016 -33.999 0.500977v10z" />
    <glyph glyph-name="currency" unicode="&#xa4;" horiz-adv-x="498" 
 />
    <glyph glyph-name="yen" unicode="&#xa5;" horiz-adv-x="630" 
d="M-77 718c-22 -41.333 -33.0029 -88.666 -33.0029 -141.999c0 -36.667 6.83301 -73 20.5 -109s33.5 -68.5 59.5 -97.5s58.167 -52.5 96.5 -70.5s82.5 -27 132.5 -27c46.667 0 89.334 6.16699 128.001 18.5s75 29.833 109 52.5s66.667 50.167 98 82.5s63 68.833 95 109.5
l8 -7c-39.333 -48 -76.5 -88.833 -111.5 -122.5s-69.667 -61.167 -104 -82.5s-69.666 -36.833 -105.999 -46.5s-75.166 -14.5 -116.499 -14.5c-51.333 0 -96.833 9.33301 -136.5 28s-73 43 -100 73s-47.5 63.667 -61.5 101s-21 74.666 -21 111.999
c0 26 2.83301 51.5 8.5 76.5s14.5 48.167 26.5 69.5zM636.997 527c-10 -35.333 -22.333 -74.1689 -37 -116.502s-30.334 -85.166 -47.001 -128.499s-33.834 -85.5 -51.501 -126.5s-34.5 -77.5 -50.5 -109.5l-8 4c15.333 30.667 31.5 66.334 48.5 107.001l50.5 125.5
c16.667 43 32.334 85.833 47.001 128.5s27.334 82 38.001 118zM366.997 233.997c66.667 0.666992 129.169 3.66797 187.502 9.00098s109.5 10.666 153.5 15.999l2 -10l-76.5 -8.5c-27.667 -3 -56.334 -5.66699 -86.001 -8s-59.834 -4.33301 -90.501 -6
s-60.667 -2.5 -90 -2.5v10zM370.999 163.998c52 0 106 3 162 9s110.333 12.667 163 20l2 -10c-52.667 -7.33301 -106 -14 -160 -20s-110.333 -9 -169 -9z" />
    <glyph glyph-name="brokenbar" unicode="&#xa6;" horiz-adv-x="348" 
d="M233 774c-7.33301 -29.333 -14.3281 -66.834 -20.9951 -112.501s-12.5 -94 -17.5 -145s-9 -101.5 -12 -151.5s-4.5 -93.667 -4.5 -131c0 -11.333 0.166992 -21.666 0.5 -30.999s0.833008 -18 1.5 -26h-10c-0.666992 8 -1.16699 16.667 -1.5 26s-0.5 19.666 -0.5 30.999
c0 24.667 0.666992 52.667 2 84s3.16602 63.833 5.49902 97.5s5.16602 67.834 8.49902 102.501s7.16602 67.834 11.499 99.501s8.66602 61.167 12.999 88.5s9.16602 50.666 14.499 69.999zM177.005 51.999c0.666992 -14.667 1.66699 -33.668 3 -57.001l4.5 -77.5
c1.66699 -28.333 3.66699 -57.833 6 -88.5s4.83301 -60.5 7.5 -89.5l7.5 -81c2.33301 -25 4.83301 -45.833 7.5 -62.5l-10 -2c-2.66699 16.667 -5.16699 37.5 -7.5 62.5l-7.5 81c-2.66699 29 -5.16699 59 -7.5 90s-4.33301 60.667 -6 89l-4.5 78
c-1.33301 23.667 -2.33301 42.834 -3 57.501h10z" />
    <glyph glyph-name="dieresis" unicode="&#xa8;" horiz-adv-x="386" 
d="M77 371c1.33301 -6 5.5 -11 12.5 -15s13.167 -6 18.5 -6v-10c-7.33301 0 -15.5 2.83301 -24.5 8.5s-14.5 12.5 -16.5 20.5zM161 388c15.333 0 28.668 -6.66699 40.001 -20l-8 -6c-8.66699 10.667 -19.334 16 -32.001 16v10z" />
    <glyph glyph-name="copyright" unicode="&#xa9;" horiz-adv-x="589" 
d="M495 381c0.666992 22.667 -0.832031 46.001 -4.49902 70.001s-11.167 46 -22.5 66s-27.333 36.5 -48 49.5s-47.334 19.5 -80.001 19.5c-37.333 0 -70 -7 -98 -21s-51.667 -32.333 -71 -55s-33.833 -48.334 -43.5 -77.001s-14.5 -58 -14.5 -88
c0 -19.333 1.83301 -40.333 5.5 -63s10.5 -44 20.5 -64s24.167 -36.667 42.5 -50s42.166 -20 71.499 -20c36 0 68.833 6.83301 98.5 20.5s55 31.667 76 54s37.333 47.333 49 75s17.834 55.5 18.501 83.5zM505.001 381.001c-0.666992 -28 -7.16797 -56.332 -19.501 -84.999
s-29.5 -54.834 -51.5 -78.501s-48.333 -42.834 -79 -57.501s-64.667 -22 -102 -22c-31.333 0 -56.666 7 -75.999 21s-34.5 31.5 -45.5 52.5s-18.5 43.5 -22.5 67.5s-6 46 -6 66c0 30 5.16699 59.833 15.5 89.5s25.5 56.5 45.5 80.5s44.667 43.5 74 58.5
s63.333 22.5 102 22.5c35.333 0 63.833 -6.83301 85.5 -20.5s38.5 -31 50.5 -52s20 -44.167 24 -69.5s5.66699 -49.666 5 -72.999zM322 390.002c-1.33301 10 -6.00195 19.835 -14.002 29.502s-16.667 14.5 -26 14.5s-17.833 -7.83301 -25.5 -23.5s-11.5 -35.167 -11.5 -58.5
c0 -12 1.66699 -24.833 5 -38.5s8.33301 -26.167 15 -37.5s14.5 -20.833 23.5 -28.5s19.5 -11.5 31.5 -11.5c11.333 0 20.833 1.5 28.5 4.5s13.834 6.5 18.501 10.5c5.33301 4 9.66602 9 12.999 15l10 -4c-3.33301 -6.66699 -8.33301 -12.667 -15 -18
c-5.33301 -4.66699 -12.5 -8.83398 -21.5 -12.501s-20.167 -5.5 -33.5 -5.5s-25.166 4.16699 -35.499 12.5s-19.166 18.666 -26.499 30.999s-13 25.833 -17 40.5s-6 28.667 -6 42c0 26.667 4.66699 48.667 14 66s20.333 26 33 26c12 0 23 -6 33 -18s15.667 -24 17 -36h-10z
" />
    <glyph glyph-name="guillemotleft" unicode="&#xab;" horiz-adv-x="346" 
d="M64 165c4 4.66699 8.99902 11.168 14.999 19.501l18 25.5l17 24.5c5.33301 7.66699 9 13.167 11 16.5l8 -6c-2 -3.33301 -5.16699 -8.33301 -9.5 -15s-9.33301 -13.834 -15 -21.501l-17 -23c-5.66699 -7.66699 -10.5 -14.5 -14.5 -20.5l16.5 -16l21.5 -20.5l21.5 -20
c7 -6.33301 12.5 -10.833 16.5 -13.5l-6 -8c-4 3.33301 -9.66699 8.33301 -17 15l-23 21l-23 21.5c-7.33301 7 -12.666 12.5 -15.999 16.5zM167.999 161.001l10.999 20c4 7.33301 7.66699 14.666 11 21.999c4 7.33301 7.5 14.5 10.5 21.5s5.83301 12.5 8.5 16.5l8 -6
c-2.66699 -4 -5.66699 -9.16699 -9 -15.5s-6.66602 -13.166 -9.99902 -20.499l-9 -17.5l-9 -17.5c13.333 -10.667 26 -21.5 38 -32.5l28 -25.5l-8 -8l-30.5 29.5c-13 12.333 -24.833 22.5 -35.5 30.5z" />
    <glyph glyph-name="registered" unicode="&#xae;" horiz-adv-x="589" 
d="M495 381c0.666992 22.667 -0.832031 46 -4.49902 70s-11.167 46 -22.5 66s-27.333 36.5 -48 49.5s-47.334 19.5 -80.001 19.5c-37.333 0 -70 -7.83301 -98 -23.5s-51.667 -35.5 -71 -59.5s-33.833 -50.167 -43.5 -78.5s-14.5 -54.833 -14.5 -79.5
c0 -19.333 1.83301 -40.333 5.5 -63s10.5 -44 20.5 -64s24.167 -36.667 42.5 -50s42.166 -20 71.499 -20c36 0 68.833 6.83301 98.5 20.5s55 31.5 76 53.5s37.333 47 49 75s17.834 56 18.501 84zM505.001 381c-0.666992 -31.333 -7.16797 -61.668 -19.501 -91.001
s-29.5 -55.166 -51.5 -77.499s-48.333 -40.333 -79 -54s-64.667 -20.5 -102 -20.5c-31.333 0 -56.666 7 -75.999 21s-34.5 31.5 -45.5 52.5s-18.5 43.5 -22.5 67.5s-6 46 -6 66c0 25.333 5.16699 52.666 15.5 81.999s25.5 56.5 45.5 81.5s44.667 45.833 74 62.5
s63.333 25 102 25c35.333 0 63.833 -6.83301 85.5 -20.5s38.5 -31 50.5 -52s20 -44.167 24 -69.5s5.66699 -49.666 5 -72.999zM246 265.998c-3.33301 22 -5.66602 41.498 -6.99902 58.498s-2 36.5 -2 58.5c0 16.667 3 32.334 9 47.001s13.833 27.5 23.5 38.5
s20 19.833 31 26.5s21.5 10 31.5 10c12 0 20 -4.5 24 -13.5s6 -18.5 6 -28.5c0 -8 -2.66699 -16 -8 -24s-12.5 -15.167 -21.5 -21.5s-19.167 -11.166 -30.5 -14.499s-22.666 -4.33301 -33.999 -3l2 10c10 -1.33301 19.833 -0.5 29.5 2.5s18.5 7 26.5 12s14.333 11 19 18
s7 13.833 7 20.5c0 8 -1.33301 15.333 -4 22s-8 10 -16 10c-9.33301 0 -18.833 -3 -28.5 -9s-18.834 -14 -27.501 -24s-15.667 -21.833 -21 -35.5s-8 -28.167 -8 -43.5c0 -21.333 0.666992 -40.333 2 -57s3.66602 -36 6.99902 -58zM388 251.996l-20.999 -11.9961
c-15.333 9.33301 -29.166 21.666 -41.499 36.999s-23 31.166 -32 47.499s-16.333 32 -22 47s-9.5 27.167 -11.5 36.5l10 2c2 -8.66699 5.66699 -20.167 11 -34.5s12.166 -29.333 20.499 -45s18.166 -30.834 29.499 -45.501s24 -26.334 38 -35.001
c2.66699 1.33301 5.16699 3 7.5 5s4.83301 3.66699 7.5 5z" />
    <glyph glyph-name="acute" unicode="&#xb4;" horiz-adv-x="366" 
d="M119 311c10.667 6 23 13.5 37 22.5l43.5 29l45.5 31.5l44 31l6 -8l-86 -60c-31.333 -21.333 -60 -39.333 -86 -54z" />
    <glyph glyph-name="periodcentered" unicode="&#xb7;" horiz-adv-x="314" 
d="M136 228c0.666992 -4.66699 3.16895 -8.83301 7.50195 -12.5s10.166 -5.5 17.499 -5.5v-10c-9.33301 0 -17.333 3 -24 9s-10.334 12.333 -11.001 19h10z" />
    <glyph glyph-name="cedilla" unicode="&#xb8;" horiz-adv-x="341" 
d="M112 -27l9.49902 14l11.5 16c4 5.33301 7.66699 10.5 11 15.5s6 9.16699 8 12.5l8 -6c-3.33301 -5.33301 -8.5 -13 -15.5 -23l-18.5 -27c6 1.33301 13 2.16602 21 2.49902s16 0.5 24 0.5c11.333 0 21.5 -1 30.5 -3s14.5 -5.33301 16.5 -10s-0.166992 -10 -6.5 -16
s-15.166 -12 -26.499 -18s-24.333 -11.333 -39 -16s-29.334 -8 -44.001 -10l-2 10c14.667 2 28.667 5.16699 42 9.5s24.833 8.83301 34.5 13.5s17.334 9.16699 23.001 13.5s8.5 7.5 8.5 9.5c0 2.66699 -3.83301 4.5 -11.5 5.5s-16.167 1.5 -25.5 1.5
c-10.667 0 -21.5 -0.666992 -32.5 -2s-19.167 -2.66602 -24.5 -3.99902z" />
    <glyph glyph-name="guillemotright" unicode="&#xbb;" horiz-adv-x="346" 
d="M242 161c-3.33301 -4 -8.66699 -9.50098 -16 -16.501l-23 -21.5l-23 -21c-7.33301 -6.66699 -13 -11.667 -17 -15l-6 8c4 2.66699 9.5 7.16699 16.5 13.5l21.5 20l21.5 20.5l16.5 16c-4 6 -8.83301 12.833 -14.5 20.5l-17 23c-5.66699 7.66699 -10.667 14.834 -15 21.501
s-7.5 11.667 -9.5 15l8 6c2 -3.33301 5.66699 -8.83301 11 -16.5l17 -24.5l18 -25.5c6 -8.33301 11 -14.833 15 -19.5zM137.999 157.999c-5.33301 -4 -11.168 -8.66699 -17.501 -14s-12.5 -10.833 -18.5 -16.5l-16.5 -16l-13.5 -13.5l-8 8l28 25.5
c12 11 24.667 21.833 38 32.5l-9 17.5l-9 17.5c-3.33301 7.33301 -6.66602 14.166 -9.99902 20.499s-6.33301 11.5 -9 15.5l8 6c2.66699 -4 5.5 -9.5 8.5 -16.5s6.5 -14.167 10.5 -21.5c3.33301 -7.33301 7 -14.666 11 -21.999l11 -20z" />
    <glyph glyph-name="questiondown" unicode="&#xbf;" horiz-adv-x="372" 
d="M305 11c6 -17.333 8.99707 -35.668 8.99707 -55.001c0 -24.667 -4.5 -49.667 -13.5 -75s-20.667 -48.166 -35 -68.499s-31 -37 -50 -50s-38.5 -19.5 -58.5 -19.5c-14.667 0 -26.334 2.16699 -35.001 6.5s-15.5 9.83301 -20.5 16.5s-8.33301 14.167 -10 22.5
s-2.5 16.5 -2.5 24.5c0 20.667 6.5 44.667 19.5 72s28.833 55 47.5 83s38.334 55 59.001 81l54 67c7.33301 8 13.333 15.333 18 22s8.33398 11.667 11.001 15l8 -6c-2.66699 -3.33301 -6.33398 -8.16602 -11.001 -14.499s-10.667 -13.833 -18 -22.5l-52.5 -65
c-20.333 -25.333 -39.833 -51.666 -58.5 -78.999s-34.5 -54.5 -47.5 -81.5s-19.5 -50.833 -19.5 -71.5c0 -7.33301 0.666992 -14.5 2 -21.5s4 -13.333 8 -19s9.83301 -10.334 17.5 -14.001s17.834 -5.5 30.501 -5.5c18.667 0 36.834 6.16699 54.501 18.5
s33.334 28.166 47.001 47.499s24.667 41 33 65s12.5 48 12.5 72c0 18 -3 35 -9 51zM297.997 142.998c-4 0 -11 -0.166992 -21 -0.5s-21.667 -0.833008 -35 -1.5s-27.666 -1.5 -42.999 -2.5s-31 -2.5 -47 -4.5l-2 10c16 2 31.833 3.5 47.5 4.5s30.167 1.83301 43.5 2.5
s25.166 1.16699 35.499 1.5s17.5 0.5 21.5 0.5v-10zM254.997 359.998c1.33301 6.66699 0.166992 13 -3.5 19s-10.167 9.66699 -19.5 11l2 10c12 -1.33301 20.5 -6.33301 25.5 -15s6.83301 -17.667 5.5 -27z" />
    <glyph glyph-name="Agrave" unicode="&#xc0;" 
d="M-161 217c-5.33301 3.33301 -11.335 7.33301 -18.002 12s-13 10 -19 16s-11.167 12.5 -15.5 19.5s-6.5 14.5 -6.5 22.5c0 15.333 9 27.5 27 36.5s39.333 13.5 64 13.5c36 -0.666992 78.833 -9.5 128.5 -26.5s103 -41.833 160 -74.5s115.5 -72 175.5 -118
s118 -97.667 174 -155l-8 -8c-56 56.667 -113.667 108 -173 154s-117.166 85.333 -173.499 118s-109 57.5 -158 74.5s-90.833 25.5 -125.5 25.5c-21.333 0 -40.166 -3.5 -56.499 -10.5s-24.5 -16.833 -24.5 -29.5c0 -6 2 -12 6 -18s8.83301 -11.833 14.5 -17.5
s11.667 -10.667 18 -15l16.5 -11.5zM17.998 -7l48.5 77.501c20.333 31.667 43.833 66.334 70.5 104.001s56 77 88 118s65.5 81.5 100.5 121.5s71 78 108 114s73.833 67.333 110.5 94l6 -8c-36.667 -26.667 -73.5 -57.834 -110.5 -93.501s-72.833 -73.334 -107.5 -113.001
s-68 -80.167 -100 -121.5s-61.167 -80.833 -87.5 -118.5l-70 -103.5l-48.5 -77zM549.998 614.001c-11.333 -60 -19.333 -114.166 -24 -162.499s-8.33398 -97.166 -11.001 -146.499s-4.5 -100.833 -5.5 -154.5s-0.833008 -118.167 0.5 -193.5l-9 -2
c-2.66699 76.667 -3.5 142.167 -2.5 196.5s3 106.166 6 155.499s6.83301 98.166 11.5 146.499s13.334 102.833 26.001 163.5zM409.998 813.002l83.501 -45.501c27.667 -14.333 57.5 -28.5 89.5 -42.5l-4 -10c-29.333 12.667 -57.833 26.334 -85.5 41.001
s-56.834 31 -87.501 49z" />
    <glyph glyph-name="Aacute" unicode="&#xc1;" 
d="M-161 217c-5.33301 3.33301 -11.335 7.33301 -18.002 12s-13 10 -19 16s-11.167 12.5 -15.5 19.5s-6.5 14.5 -6.5 22.5c0 15.333 9 27.5 27 36.5s39.333 13.5 64 13.5c36 -0.666992 78.833 -9.5 128.5 -26.5s103 -41.833 160 -74.5s115.5 -72 175.5 -118
s118 -97.667 174 -155l-8 -8c-56 56.667 -113.667 108 -173 154s-117.166 85.333 -173.499 118s-109 57.5 -158 74.5s-90.833 25.5 -125.5 25.5c-21.333 0 -40.166 -3.5 -56.499 -10.5s-24.5 -16.833 -24.5 -29.5c0 -6 2 -12 6 -18s8.83301 -11.833 14.5 -17.5
s11.667 -10.667 18 -15l16.5 -11.5zM17.998 -7l48.5 77.501c20.333 31.667 43.833 66.334 70.5 104.001s56 77 88 118s65.5 81.5 100.5 121.5s71 78 108 114s73.833 67.333 110.5 94l6 -8c-36.667 -26.667 -73.5 -57.834 -110.5 -93.501s-72.833 -73.334 -107.5 -113.001
s-68 -80.167 -100 -121.5s-61.167 -80.833 -87.5 -118.5l-70 -103.5l-48.5 -77zM549.998 614.001c-11.333 -60 -19.333 -114.166 -24 -162.499s-8.33398 -97.166 -11.001 -146.499s-4.5 -100.833 -5.5 -154.5s-0.833008 -118.167 0.5 -193.5l-9 -2
c-2.66699 76.667 -3.5 142.167 -2.5 196.5s3 106.166 6 155.499s6.83301 98.166 11.5 146.499s13.334 102.833 26.001 163.5zM464.998 686.002c10.667 6 23 13.5 37 22.5l43.5 29l45.5 31.5l44 31l6 -8l-86 -60c-31.333 -21.333 -60 -39.333 -86 -54z" />
    <glyph glyph-name="Acircumflex" unicode="&#xc2;" 
d="M-161 217c-5.33301 3.33301 -11.335 7.33301 -18.002 12s-13 10 -19 16s-11.167 12.5 -15.5 19.5s-6.5 14.5 -6.5 22.5c0 15.333 9 27.5 27 36.5s39.333 13.5 64 13.5c36 -0.666992 78.833 -9.5 128.5 -26.5s103 -41.833 160 -74.5s115.5 -72 175.5 -118
s118 -97.667 174 -155l-8 -8c-56 56.667 -113.667 108 -173 154s-117.166 85.333 -173.499 118s-109 57.5 -158 74.5s-90.833 25.5 -125.5 25.5c-21.333 0 -40.166 -3.5 -56.499 -10.5s-24.5 -16.833 -24.5 -29.5c0 -6 2 -12 6 -18s8.83301 -11.833 14.5 -17.5
s11.667 -10.667 18 -15l16.5 -11.5zM17.998 -7l48.5 77.501c20.333 31.667 43.833 66.334 70.5 104.001s56 77 88 118s65.5 81.5 100.5 121.5s71 78 108 114s73.833 67.333 110.5 94l6 -8c-36.667 -26.667 -73.5 -57.834 -110.5 -93.501s-72.833 -73.334 -107.5 -113.001
s-68 -80.167 -100 -121.5s-61.167 -80.833 -87.5 -118.5l-70 -103.5l-48.5 -77zM549.998 614.001c-11.333 -60 -19.333 -114.166 -24 -162.499s-8.33398 -97.166 -11.001 -146.499s-4.5 -100.833 -5.5 -154.5s-0.833008 -118.167 0.5 -193.5l-9 -2
c-2.66699 76.667 -3.5 142.167 -2.5 196.5s3 106.166 6 155.499s6.83301 98.166 11.5 146.499s13.334 102.833 26.001 163.5zM449.998 728.002c13.333 4 29.3311 10.168 47.998 18.501s36.334 15.833 53.001 22.5c6 -7.33301 13.5 -16 22.5 -26s18.167 -18.667 27.5 -26
l-6 -8c-9.33301 6.66699 -18.166 14.167 -26.499 22.5s-15.5 16.166 -21.5 23.499c-14.667 -6.66699 -30.667 -13.5 -48 -20.5s-32.333 -12.5 -45 -16.5z" />
    <glyph glyph-name="Atilde" unicode="&#xc3;" 
d="M-161 217c-5.33301 3.33301 -11.335 7.33301 -18.002 12s-13 10 -19 16s-11.167 12.5 -15.5 19.5s-6.5 14.5 -6.5 22.5c0 15.333 9 27.5 27 36.5s39.333 13.5 64 13.5c36 -0.666992 78.833 -9.5 128.5 -26.5s103 -41.833 160 -74.5s115.5 -72 175.5 -118
s118 -97.667 174 -155l-8 -8c-56 56.667 -113.667 108 -173 154s-117.166 85.333 -173.499 118s-109 57.5 -158 74.5s-90.833 25.5 -125.5 25.5c-21.333 0 -40.166 -3.5 -56.499 -10.5s-24.5 -16.833 -24.5 -29.5c0 -6 2 -12 6 -18s8.83301 -11.833 14.5 -17.5
s11.667 -10.667 18 -15l16.5 -11.5zM17.998 -7l48.5 77.501c20.333 31.667 43.833 66.334 70.5 104.001s56 77 88 118s65.5 81.5 100.5 121.5s71 78 108 114s73.833 67.333 110.5 94l6 -8c-36.667 -26.667 -73.5 -57.834 -110.5 -93.501s-72.833 -73.334 -107.5 -113.001
s-68 -80.167 -100 -121.5s-61.167 -80.833 -87.5 -118.5l-70 -103.5l-48.5 -77zM549.998 614.001c-11.333 -60 -19.333 -114.166 -24 -162.499s-8.33398 -97.166 -11.001 -146.499s-4.5 -100.833 -5.5 -154.5s-0.833008 -118.167 0.5 -193.5l-9 -2
c-2.66699 76.667 -3.5 142.167 -2.5 196.5s3 106.166 6 155.499s6.83301 98.166 11.5 146.499s13.334 102.833 26.001 163.5zM407.998 734.002c6.66699 11.333 17.001 22.334 31.001 33.001s27.333 16 40 16c9.33301 0 17 -3 23 -9s11.667 -12.667 17 -20
c5.33301 -6.66699 10.666 -12.834 15.999 -18.501s12 -8.5 20 -8.5c16.667 0 30.5 4 41.5 12s21.167 18 30.5 30l8 -6c-10 -13.333 -21.167 -24.333 -33.5 -33s-27.833 -13 -46.5 -13c-10.667 0 -19.167 3.33301 -25.5 10s-12.5 13.667 -18.5 21
c-4.66699 6.66699 -9.5 12.5 -14.5 17.5s-10.833 7.5 -17.5 7.5c-11.333 0 -23.333 -4.66699 -36 -14s-21.667 -19 -27 -29z" />
    <glyph glyph-name="Adieresis" unicode="&#xc4;" 
d="M-161 217c-5.33301 3.33301 -11.335 7.33301 -18.002 12s-13 10 -19 16s-11.167 12.5 -15.5 19.5s-6.5 14.5 -6.5 22.5c0 15.333 9 27.5 27 36.5s39.333 13.5 64 13.5c36 -0.666992 78.833 -9.5 128.5 -26.5s103 -41.833 160 -74.5s115.5 -72 175.5 -118
s118 -97.667 174 -155l-8 -8c-56 56.667 -113.667 108 -173 154s-117.166 85.333 -173.499 118s-109 57.5 -158 74.5s-90.833 25.5 -125.5 25.5c-21.333 0 -40.166 -3.5 -56.499 -10.5s-24.5 -16.833 -24.5 -29.5c0 -6 2 -12 6 -18s8.83301 -11.833 14.5 -17.5
s11.667 -10.667 18 -15l16.5 -11.5zM17.998 -7l48.5 77.501c20.333 31.667 43.833 66.334 70.5 104.001s56 77 88 118s65.5 81.5 100.5 121.5s71 78 108 114s73.833 67.333 110.5 94l6 -8c-36.667 -26.667 -73.5 -57.834 -110.5 -93.501s-72.833 -73.334 -107.5 -113.001
s-68 -80.167 -100 -121.5s-61.167 -80.833 -87.5 -118.5l-70 -103.5l-48.5 -77zM549.998 614.001c-11.333 -60 -19.333 -114.166 -24 -162.499s-8.33398 -97.166 -11.001 -146.499s-4.5 -100.833 -5.5 -154.5s-0.833008 -118.167 0.5 -193.5l-9 -2
c-2.66699 76.667 -3.5 142.167 -2.5 196.5s3 106.166 6 155.499s6.83301 98.166 11.5 146.499s13.334 102.833 26.001 163.5zM455.998 732.002c1.33301 -6 5.5 -11 12.5 -15s13.167 -6 18.5 -6v-10c-7.33301 0 -15.5 2.83301 -24.5 8.5s-14.5 12.5 -16.5 20.5z
M539.998 749.002c15.333 0 28.668 -6.66699 40.001 -20l-8 -6c-8.66699 10.667 -19.334 16 -32.001 16v10z" />
    <glyph glyph-name="Aring" unicode="&#xc5;" 
d="M-161 217c-5.33301 3.33301 -11.335 7.33301 -18.002 12s-13 10 -19 16s-11.167 12.5 -15.5 19.5s-6.5 14.5 -6.5 22.5c0 15.333 9 27.5 27 36.5s39.333 13.5 64 13.5c36 -0.666992 78.833 -9.5 128.5 -26.5s103 -41.833 160 -74.5s115.5 -72 175.5 -118
s118 -97.667 174 -155l-8 -8c-56 56.667 -113.667 108 -173 154s-117.166 85.333 -173.499 118s-109 57.5 -158 74.5s-90.833 25.5 -125.5 25.5c-21.333 0 -40.166 -3.5 -56.499 -10.5s-24.5 -16.833 -24.5 -29.5c0 -6 2 -12 6 -18s8.83301 -11.833 14.5 -17.5
s11.667 -10.667 18 -15l16.5 -11.5zM17.998 -7l48.5 77.501c20.333 31.667 43.833 66.334 70.5 104.001s56 77 88 118s65.5 81.5 100.5 121.5s71 78 108 114s73.833 67.333 110.5 94l6 -8c-36.667 -26.667 -73.5 -57.834 -110.5 -93.501s-72.833 -73.334 -107.5 -113.001
s-68 -80.167 -100 -121.5s-61.167 -80.833 -87.5 -118.5l-70 -103.5l-48.5 -77zM549.998 614.001c-11.333 -60 -19.333 -114.166 -24 -162.499s-8.33398 -97.166 -11.001 -146.499s-4.5 -100.833 -5.5 -154.5s-0.833008 -118.167 0.5 -193.5l-9 -2
c-2.66699 76.667 -3.5 142.167 -2.5 196.5s3 106.166 6 155.499s6.83301 98.166 11.5 146.499s13.334 102.833 26.001 163.5zM576.998 724.002c0 8.66699 -2.66797 16.334 -8.00098 23.001s-12 10 -20 10c-11.333 0 -22.833 -4.16699 -34.5 -12.5s-17.5 -21.5 -17.5 -39.5
c0 -10.667 3.83301 -17.834 11.5 -21.501s14.834 -5.16699 21.501 -4.5c11.333 0.666992 22 4.66699 32 12s15 18.333 15 33zM586.997 724.002c0 -17.333 -6.16797 -30.668 -18.501 -40.001s-25.166 -14.333 -38.499 -15c-8.66699 -0.666992 -18 1.5 -28 6.5
s-15 14.833 -15 29.5c0 10.667 2 19.834 6 27.501s9 14 15 19s12.667 8.83301 20 11.5s14.333 4 21 4c11.333 0 20.5 -4.33301 27.5 -13s10.5 -18.667 10.5 -30z" />
    <glyph glyph-name="AE" unicode="&#xc6;" horiz-adv-x="1256" 
d="M26 4c48 58.667 102.167 117.999 162.5 177.999s123.5 117.333 189.5 172s133.167 105.334 201.5 152.001s134.5 85.667 198.5 117l4 -8c-63.333 -31.333 -129 -70 -197 -116s-134.833 -96.333 -200.5 -151s-128.5 -112 -188.5 -172s-114 -119.333 -162 -178z
M790 619.999c-1.33301 -5.33301 -3.49707 -12.999 -6.49707 -22.999s-6.66699 -21.333 -11 -34l-14 -41.5l-15.5 -44.5l-38 -108.5l-37.5 -113.5c-11.667 -36.667 -21.334 -69.834 -29.001 -99.501s-11.5 -52.167 -11.5 -67.5c0 -27.333 8.66699 -48 26 -62
s40.333 -21 69 -21c74.667 0 142.167 5 202.5 15s115.166 23 164.499 39s93.833 33.667 133.5 53s76.167 38.333 109.5 57l4 -8c-34 -18.667 -71 -37.834 -111 -57.501s-84.833 -37.5 -134.5 -53.5s-104.834 -29.167 -165.501 -39.5s-128.334 -15.5 -203.001 -15.5
c-32 0 -57.5 8 -76.5 24s-28.5 39 -28.5 69c0 16 3.83301 39.333 11.5 70s17.334 64.334 29.001 101.001l37.5 113.5l38 108.5l15.5 46l14 42.5l11 34c3 9.66699 5.16699 16.167 6.5 19.5zM766.003 574c6 0 16.1689 0.5 30.502 1.5s30.666 2 48.999 3s38 2.16699 59 3.5
l60.5 4c19.333 1.33301 37.166 2.83301 53.499 4.5s29.5 3.5 39.5 5.5l2 -10c-9.33301 -2 -22.333 -3.66699 -39 -5l-54.5 -4.5c-19.667 -1.66699 -40 -3.16699 -61 -4.5s-40.667 -2.5 -59 -3.5s-34.833 -2 -49.5 -3s-25 -1.5 -31 -1.5v10zM250.005 240
c6.66699 -0.666992 15.8359 -1 27.5029 -1h33.5c28 0 61.667 0.666992 101 2s81.666 3.33301 126.999 6s92.166 5.83398 140.499 9.50098s96 8 143 13s91.833 10.333 134.5 16s80.667 11.834 114 18.501l2 -10c-33.333 -6.66699 -71.5 -12.834 -114.5 -18.501
s-88 -11 -135 -16s-94.833 -9.33301 -143.5 -13s-95.5 -6.83398 -140.5 -9.50098s-87.333 -4.66699 -127 -6s-73.5 -2 -101.5 -2h-33.5c-11.667 0 -20.834 0.333008 -27.501 1v10z" />
    <glyph glyph-name="Ccedilla" unicode="&#xc7;" horiz-adv-x="834" 
d="M360 -11c4 5.33301 8.83105 12.3398 14.498 21.0068s11.167 16.667 16.5 24c-35.333 -3.33301 -64.666 -5.33301 -87.999 -6s-38.666 -1 -45.999 -1c-19.333 0 -39.833 2 -61.5 6s-41.5 10.5 -59.5 19.5s-33 21 -45 36s-18 33.5 -18 55.5c0 26 10.667 55.333 32 88
s48.833 65.667 82.5 99s71.5 65.666 113.5 96.999s83.833 59.166 125.5 83.499s80.834 44 117.501 59s66.667 22.5 90 22.5c28 0 50 -6.33301 66 -19s28 -27.334 36 -44.001s13.167 -33.167 15.5 -49.5s3.5 -27.833 3.5 -34.5h-10c0 6 -1 16.667 -3 32
s-6.83301 30.666 -14.5 45.999s-18.834 29 -33.501 41s-34.667 18 -60 18c-22.667 0 -52.167 -7.33301 -88.5 -22s-74.833 -34 -115.5 -58s-81.667 -51.333 -123 -82s-78.5 -62.334 -111.5 -95.001s-60 -64.834 -81 -96.501s-31.5 -60.167 -31.5 -85.5
c0 -20 5.66699 -36.833 17 -50.5s25.5 -24.667 42.5 -33s35.833 -14.333 56.5 -18s40 -5.5 58 -5.5c7.33301 0 23.5 0.5 48.5 1.5s56.167 3.5 93.5 7.5l1 1l1 -1c32.667 3.33301 69.167 8 109.5 14s82.666 13.833 126.999 23.5s89.833 21.667 136.5 36s93 31.166 139 50.499
l5 -9c-49.333 -20 -97.833 -37.167 -145.5 -51.5s-93.5 -26.333 -137.5 -36s-85.5 -17.5 -124.5 -23.5s-74.5 -10.667 -106.5 -14l-14.5 -21.5l-15.5 -23.5c6 1.33301 13 2.16602 21 2.49902s16 0.5 24 0.5c11.333 0 21.5 -1 30.5 -3s14.5 -5.33301 16.5 -10
s-0.166992 -10 -6.5 -16s-15.166 -12 -26.499 -18s-24.333 -11.333 -39 -16s-29.334 -8 -44.001 -10l-2 10c14.667 2 28.667 5.16699 42 9.5s24.833 8.83301 34.5 13.5s17.334 9.16699 23.001 13.5s8.5 7.5 8.5 9.5c0 2.66699 -3.83301 4.5 -11.5 5.5s-16.167 1.5 -25.5 1.5
c-10.667 0 -21.5 -0.666992 -32.5 -2s-19.167 -2.66602 -24.5 -3.99902z" />
    <glyph glyph-name="Egrave" unicode="&#xc8;" horiz-adv-x="960" 
d="M720 495c-5.33301 -0.666992 -11.999 -1 -19.999 -1h-26c-25.333 0 -55.5 0.666992 -90.5 2s-70.833 3.16602 -107.5 5.49902s-71.667 5 -105 8s-60.666 6.16699 -81.999 9.5l2 10c21.333 -3.33301 48.666 -6.5 81.999 -9.5s68.166 -5.66699 104.499 -8
s71.833 -4.16602 106.5 -5.49902s64.667 -2 90 -2h26c8 0 14.667 0.333008 20 1v-10zM303.001 527c2.66699 -1.33301 4.83105 -2 6.49805 -2s3.16699 -0.333008 4.5 -1l58 -17c24.667 -7.33301 51.334 -17 80.001 -29s57.5 -26.667 86.5 -44s54.833 -37.333 77.5 -60l-8 -8
c-22 22 -47 41.333 -75 58s-56 31 -84 43s-54.167 21.833 -78.5 29.5s-43.833 13.5 -58.5 17.5c-2.66699 0.666992 -5.16699 1.16699 -7.5 1.5s-4.16602 0.833008 -5.49902 1.5zM608.998 366l-19.001 -5.00195c-6 -1.33301 -12.833 -3 -20.5 -5s-15.834 -4 -24.501 -6
l-84 -20c-32.667 -8 -66.5 -16.833 -101.5 -26.5s-69.667 -20 -104 -31s-65.166 -22.333 -92.499 -34s-49.333 -23.667 -66 -36s-25 -24.166 -25 -35.499c0 -14 6 -26.5 18 -37.5s28.167 -20.833 48.5 -29.5s43.666 -16 69.999 -22s53.833 -11 82.5 -15
s57.334 -6.83301 86.001 -8.5s55.667 -2.5 81 -2.5c42 0 87.5 2.33301 136.5 7s99.167 11.834 150.5 21.501s102 21.834 152 36.501s97 32.334 141 53.001l6 -9c-44 -20.667 -91.333 -38.5 -142 -53.5s-101.834 -27.333 -153.501 -37s-102.5 -16.834 -152.5 -21.501
s-96 -7 -138 -7c-42.667 0 -87.334 2.16699 -134.001 6.5s-89.5 11.333 -128.5 21s-71.167 22.5 -96.5 38.5s-38 35.667 -38 59c0 12 7 24 21 36s32.833 23.833 56.5 35.5s51.334 23 83.001 34s65.334 21.667 101.001 32s72.334 20.166 110.001 29.499s74.5 18 110.5 26
c14 3.33301 26 6.33301 36 9l26 7zM367.997 729.998l83.501 -45.501c27.667 -14.333 57.5 -28.5 89.5 -42.5l-4 -10c-29.333 12.667 -57.833 26.334 -85.5 41.001s-56.834 31 -87.501 49z" />
    <glyph glyph-name="Eacute" unicode="&#xc9;" horiz-adv-x="960" 
d="M720 495c-5.33301 -0.666992 -11.999 -1 -19.999 -1h-26c-25.333 0 -55.5 0.666992 -90.5 2s-70.833 3.16602 -107.5 5.49902s-71.667 5 -105 8s-60.666 6.16699 -81.999 9.5l2 10c21.333 -3.33301 48.666 -6.5 81.999 -9.5s68.166 -5.66699 104.499 -8
s71.833 -4.16602 106.5 -5.49902s64.667 -2 90 -2h26c8 0 14.667 0.333008 20 1v-10zM303.001 527c2.66699 -1.33301 4.83105 -2 6.49805 -2s3.16699 -0.333008 4.5 -1l58 -17c24.667 -7.33301 51.334 -17 80.001 -29s57.5 -26.667 86.5 -44s54.833 -37.333 77.5 -60l-8 -8
c-22 22 -47 41.333 -75 58s-56 31 -84 43s-54.167 21.833 -78.5 29.5s-43.833 13.5 -58.5 17.5c-2.66699 0.666992 -5.16699 1.16699 -7.5 1.5s-4.16602 0.833008 -5.49902 1.5zM608.998 366l-19.001 -5.00195c-6 -1.33301 -12.833 -3 -20.5 -5s-15.834 -4 -24.501 -6
l-84 -20c-32.667 -8 -66.5 -16.833 -101.5 -26.5s-69.667 -20 -104 -31s-65.166 -22.333 -92.499 -34s-49.333 -23.667 -66 -36s-25 -24.166 -25 -35.499c0 -14 6 -26.5 18 -37.5s28.167 -20.833 48.5 -29.5s43.666 -16 69.999 -22s53.833 -11 82.5 -15
s57.334 -6.83301 86.001 -8.5s55.667 -2.5 81 -2.5c42 0 87.5 2.33301 136.5 7s99.167 11.834 150.5 21.501s102 21.834 152 36.501s97 32.334 141 53.001l6 -9c-44 -20.667 -91.333 -38.5 -142 -53.5s-101.834 -27.333 -153.501 -37s-102.5 -16.834 -152.5 -21.501
s-96 -7 -138 -7c-42.667 0 -87.334 2.16699 -134.001 6.5s-89.5 11.333 -128.5 21s-71.167 22.5 -96.5 38.5s-38 35.667 -38 59c0 12 7 24 21 36s32.833 23.833 56.5 35.5s51.334 23 83.001 34s65.334 21.667 101.001 32s72.334 20.166 110.001 29.499s74.5 18 110.5 26
c14 3.33301 26 6.33301 36 9l26 7zM407.997 660.998c10.667 6 23 13.5 37 22.5l43.5 29l45.5 31.5l44 31l6 -8l-86 -60c-31.333 -21.333 -60 -39.333 -86 -54z" />
    <glyph glyph-name="Ecircumflex" unicode="&#xca;" horiz-adv-x="960" 
d="M720 495c-5.33301 -0.666992 -11.999 -1 -19.999 -1h-26c-25.333 0 -55.5 0.666992 -90.5 2s-70.833 3.16602 -107.5 5.49902s-71.667 5 -105 8s-60.666 6.16699 -81.999 9.5l2 10c21.333 -3.33301 48.666 -6.5 81.999 -9.5s68.166 -5.66699 104.499 -8
s71.833 -4.16602 106.5 -5.49902s64.667 -2 90 -2h26c8 0 14.667 0.333008 20 1v-10zM303.001 527c2.66699 -1.33301 4.83105 -2 6.49805 -2s3.16699 -0.333008 4.5 -1l58 -17c24.667 -7.33301 51.334 -17 80.001 -29s57.5 -26.667 86.5 -44s54.833 -37.333 77.5 -60l-8 -8
c-22 22 -47 41.333 -75 58s-56 31 -84 43s-54.167 21.833 -78.5 29.5s-43.833 13.5 -58.5 17.5c-2.66699 0.666992 -5.16699 1.16699 -7.5 1.5s-4.16602 0.833008 -5.49902 1.5zM608.998 366l-19.001 -5.00195c-6 -1.33301 -12.833 -3 -20.5 -5s-15.834 -4 -24.501 -6
l-84 -20c-32.667 -8 -66.5 -16.833 -101.5 -26.5s-69.667 -20 -104 -31s-65.166 -22.333 -92.499 -34s-49.333 -23.667 -66 -36s-25 -24.166 -25 -35.499c0 -14 6 -26.5 18 -37.5s28.167 -20.833 48.5 -29.5s43.666 -16 69.999 -22s53.833 -11 82.5 -15
s57.334 -6.83301 86.001 -8.5s55.667 -2.5 81 -2.5c42 0 87.5 2.33301 136.5 7s99.167 11.834 150.5 21.501s102 21.834 152 36.501s97 32.334 141 53.001l6 -9c-44 -20.667 -91.333 -38.5 -142 -53.5s-101.834 -27.333 -153.501 -37s-102.5 -16.834 -152.5 -21.501
s-96 -7 -138 -7c-42.667 0 -87.334 2.16699 -134.001 6.5s-89.5 11.333 -128.5 21s-71.167 22.5 -96.5 38.5s-38 35.667 -38 59c0 12 7 24 21 36s32.833 23.833 56.5 35.5s51.334 23 83.001 34s65.334 21.667 101.001 32s72.334 20.166 110.001 29.499s74.5 18 110.5 26
c14 3.33301 26 6.33301 36 9l26 7zM394.997 667.998c13.333 4 29.3311 10.168 47.998 18.501s36.334 15.833 53.001 22.5c6 -7.33301 13.5 -16 22.5 -26s18.167 -18.667 27.5 -26l-6 -8c-9.33301 6.66699 -18.166 14.167 -26.499 22.5s-15.5 16.166 -21.5 23.499
c-14.667 -6.66699 -30.667 -13.5 -48 -20.5s-32.333 -12.5 -45 -16.5z" />
    <glyph glyph-name="Edieresis" unicode="&#xcb;" horiz-adv-x="960" 
d="M720 495c-5.33301 -0.666992 -11.999 -1 -19.999 -1h-26c-25.333 0 -55.5 0.666992 -90.5 2s-70.833 3.16602 -107.5 5.49902s-71.667 5 -105 8s-60.666 6.16699 -81.999 9.5l2 10c21.333 -3.33301 48.666 -6.5 81.999 -9.5s68.166 -5.66699 104.499 -8
s71.833 -4.16602 106.5 -5.49902s64.667 -2 90 -2h26c8 0 14.667 0.333008 20 1v-10zM303.001 527c2.66699 -1.33301 4.83105 -2 6.49805 -2s3.16699 -0.333008 4.5 -1l58 -17c24.667 -7.33301 51.334 -17 80.001 -29s57.5 -26.667 86.5 -44s54.833 -37.333 77.5 -60l-8 -8
c-22 22 -47 41.333 -75 58s-56 31 -84 43s-54.167 21.833 -78.5 29.5s-43.833 13.5 -58.5 17.5c-2.66699 0.666992 -5.16699 1.16699 -7.5 1.5s-4.16602 0.833008 -5.49902 1.5zM608.998 366l-19.001 -5.00195c-6 -1.33301 -12.833 -3 -20.5 -5s-15.834 -4 -24.501 -6
l-84 -20c-32.667 -8 -66.5 -16.833 -101.5 -26.5s-69.667 -20 -104 -31s-65.166 -22.333 -92.499 -34s-49.333 -23.667 -66 -36s-25 -24.166 -25 -35.499c0 -14 6 -26.5 18 -37.5s28.167 -20.833 48.5 -29.5s43.666 -16 69.999 -22s53.833 -11 82.5 -15
s57.334 -6.83301 86.001 -8.5s55.667 -2.5 81 -2.5c42 0 87.5 2.33301 136.5 7s99.167 11.834 150.5 21.501s102 21.834 152 36.501s97 32.334 141 53.001l6 -9c-44 -20.667 -91.333 -38.5 -142 -53.5s-101.834 -27.333 -153.501 -37s-102.5 -16.834 -152.5 -21.501
s-96 -7 -138 -7c-42.667 0 -87.334 2.16699 -134.001 6.5s-89.5 11.333 -128.5 21s-71.167 22.5 -96.5 38.5s-38 35.667 -38 59c0 12 7 24 21 36s32.833 23.833 56.5 35.5s51.334 23 83.001 34s65.334 21.667 101.001 32s72.334 20.166 110.001 29.499s74.5 18 110.5 26
c14 3.33301 26 6.33301 36 9l26 7zM428.997 717.998c1.33301 -6 5.5 -11 12.5 -15s13.167 -6 18.5 -6v-10c-7.33301 0 -15.5 2.83301 -24.5 8.5s-14.5 12.5 -16.5 20.5zM512.997 734.998c15.333 0 28.668 -6.66699 40.001 -20l-8 -6c-8.66699 10.667 -19.334 16 -32.001 16
v10z" />
    <glyph glyph-name="Igrave" unicode="&#xcc;" horiz-adv-x="417" 
d="M238 640c4.66699 0.666992 9.49805 1.17285 14.498 1.50586s10.167 0.5 15.5 0.5c10.667 0 22 -0.833008 34 -2.5s23.5 -4.33398 34.5 -8.00098s21.333 -8.33398 31 -14.001s17.834 -12.5 24.501 -20.5s11.5 -20.167 14.5 -36.5s4.5 -34.833 4.5 -55.5
c0 -28.667 -2.66699 -61 -8 -97s-13 -72.667 -23 -110s-22.167 -73.833 -36.5 -109.5s-30.666 -67.334 -48.999 -95.001s-38.5 -50 -60.5 -67s-45.333 -25.5 -70 -25.5c-16.667 0 -32 5.5 -46 16.5s-26.167 25 -36.5 42s-18.666 35.667 -24.999 56
s-10.5 40.166 -12.5 59.499h10c2 -18 5.83301 -36.667 11.5 -56s13.334 -37 23.001 -53s20.834 -29.167 33.501 -39.5s26.667 -15.5 42 -15.5c24 0 46.5 8.33301 67.5 25s40.167 38.667 57.5 66s33 58.333 47 93s25.833 70.334 35.5 107.001s17 72.667 22 108s7.5 67 7.5 95
c0 20 -1.5 37.5 -4.5 52.5s-7.16699 26.167 -12.5 33.5c-6 7.33301 -13.333 13.666 -22 18.999s-18.334 9.66602 -29.001 12.999s-21.5 5.66602 -32.5 6.99902s-21.833 2 -32.5 2c-4.66699 0 -9.33398 -0.166992 -14.001 -0.5s-9.33398 -0.833008 -14.001 -1.5z
M225.998 854.006l83.501 -45.501c27.667 -14.333 57.5 -28.5 89.5 -42.5l-4 -10c-29.333 12.667 -57.833 26.334 -85.5 41.001s-56.834 31 -87.501 49z" />
    <glyph glyph-name="Iacute" unicode="&#xcd;" horiz-adv-x="417" 
d="M238 640c4.66699 0.666992 9.49805 1.17285 14.498 1.50586s10.167 0.5 15.5 0.5c10.667 0 22 -0.833008 34 -2.5s23.5 -4.33398 34.5 -8.00098s21.333 -8.33398 31 -14.001s17.834 -12.5 24.501 -20.5s11.5 -20.167 14.5 -36.5s4.5 -34.833 4.5 -55.5
c0 -28.667 -2.66699 -61 -8 -97s-13 -72.667 -23 -110s-22.167 -73.833 -36.5 -109.5s-30.666 -67.334 -48.999 -95.001s-38.5 -50 -60.5 -67s-45.333 -25.5 -70 -25.5c-16.667 0 -32 5.5 -46 16.5s-26.167 25 -36.5 42s-18.666 35.667 -24.999 56
s-10.5 40.166 -12.5 59.499h10c2 -18 5.83301 -36.667 11.5 -56s13.334 -37 23.001 -53s20.834 -29.167 33.501 -39.5s26.667 -15.5 42 -15.5c24 0 46.5 8.33301 67.5 25s40.167 38.667 57.5 66s33 58.333 47 93s25.833 70.334 35.5 107.001s17 72.667 22 108s7.5 67 7.5 95
c0 20 -1.5 37.5 -4.5 52.5s-7.16699 26.167 -12.5 33.5c-6 7.33301 -13.333 13.666 -22 18.999s-18.334 9.66602 -29.001 12.999s-21.5 5.66602 -32.5 6.99902s-21.833 2 -32.5 2c-4.66699 0 -9.33398 -0.166992 -14.001 -0.5s-9.33398 -0.833008 -14.001 -1.5z
M226.998 746.006c10.667 6 23 13.5 37 22.5l43.5 29l45.5 31.5l44 31l6 -8l-86 -60c-31.333 -21.333 -60 -39.333 -86 -54z" />
    <glyph glyph-name="Icircumflex" unicode="&#xce;" horiz-adv-x="417" 
d="M238 640c4.66699 0.666992 9.49805 1.17285 14.498 1.50586s10.167 0.5 15.5 0.5c10.667 0 22 -0.833008 34 -2.5s23.5 -4.33398 34.5 -8.00098s21.333 -8.33398 31 -14.001s17.834 -12.5 24.501 -20.5s11.5 -20.167 14.5 -36.5s4.5 -34.833 4.5 -55.5
c0 -28.667 -2.66699 -61 -8 -97s-13 -72.667 -23 -110s-22.167 -73.833 -36.5 -109.5s-30.666 -67.334 -48.999 -95.001s-38.5 -50 -60.5 -67s-45.333 -25.5 -70 -25.5c-16.667 0 -32 5.5 -46 16.5s-26.167 25 -36.5 42s-18.666 35.667 -24.999 56
s-10.5 40.166 -12.5 59.499h10c2 -18 5.83301 -36.667 11.5 -56s13.334 -37 23.001 -53s20.834 -29.167 33.501 -39.5s26.667 -15.5 42 -15.5c24 0 46.5 8.33301 67.5 25s40.167 38.667 57.5 66s33 58.333 47 93s25.833 70.334 35.5 107.001s17 72.667 22 108s7.5 67 7.5 95
c0 20 -1.5 37.5 -4.5 52.5s-7.16699 26.167 -12.5 33.5c-6 7.33301 -13.333 13.666 -22 18.999s-18.334 9.66602 -29.001 12.999s-21.5 5.66602 -32.5 6.99902s-21.833 2 -32.5 2c-4.66699 0 -9.33398 -0.166992 -14.001 -0.5s-9.33398 -0.833008 -14.001 -1.5z
M254.998 758.006c13.333 4 29.3311 10.168 47.998 18.501s36.334 15.833 53.001 22.5c6 -7.33301 13.5 -16 22.5 -26s18.167 -18.667 27.5 -26l-6 -8c-9.33301 6.66699 -18.166 14.167 -26.499 22.5s-15.5 16.166 -21.5 23.499c-14.667 -6.66699 -30.667 -13.5 -48 -20.5
s-32.333 -12.5 -45 -16.5z" />
    <glyph glyph-name="Idieresis" unicode="&#xcf;" horiz-adv-x="417" 
d="M238 640c4.66699 0.666992 9.49805 1.17285 14.498 1.50586s10.167 0.5 15.5 0.5c10.667 0 22 -0.833008 34 -2.5s23.5 -4.33398 34.5 -8.00098s21.333 -8.33398 31 -14.001s17.834 -12.5 24.501 -20.5s11.5 -20.167 14.5 -36.5s4.5 -34.833 4.5 -55.5
c0 -28.667 -2.66699 -61 -8 -97s-13 -72.667 -23 -110s-22.167 -73.833 -36.5 -109.5s-30.666 -67.334 -48.999 -95.001s-38.5 -50 -60.5 -67s-45.333 -25.5 -70 -25.5c-16.667 0 -32 5.5 -46 16.5s-26.167 25 -36.5 42s-18.666 35.667 -24.999 56
s-10.5 40.166 -12.5 59.499h10c2 -18 5.83301 -36.667 11.5 -56s13.334 -37 23.001 -53s20.834 -29.167 33.501 -39.5s26.667 -15.5 42 -15.5c24 0 46.5 8.33301 67.5 25s40.167 38.667 57.5 66s33 58.333 47 93s25.833 70.334 35.5 107.001s17 72.667 22 108s7.5 67 7.5 95
c0 20 -1.5 37.5 -4.5 52.5s-7.16699 26.167 -12.5 33.5c-6 7.33301 -13.333 13.666 -22 18.999s-18.334 9.66602 -29.001 12.999s-21.5 5.66602 -32.5 6.99902s-21.833 2 -32.5 2c-4.66699 0 -9.33398 -0.166992 -14.001 -0.5s-9.33398 -0.833008 -14.001 -1.5z
M224.998 771.006c1.33301 -6 5.5 -11 12.5 -15s13.167 -6 18.5 -6v-10c-7.33301 0 -15.5 2.83301 -24.5 8.5s-14.5 12.5 -16.5 20.5zM308.998 788.006c15.333 0 28.668 -6.66699 40.001 -20l-8 -6c-8.66699 10.667 -19.334 16 -32.001 16v10z" />
    <glyph glyph-name="Eth" unicode="&#xd0;" horiz-adv-x="523" 
d="M245 612c0 -88.667 -7.32617 -171.002 -21.9932 -247.002s-36 -142 -64 -198s-62.5 -99.833 -103.5 -131.5s-87.5 -47.5 -139.5 -47.5c-20 0 -37.667 2.5 -53 7.5s-28.333 11.333 -39 19s-18.834 16.167 -24.501 25.5s-8.5 18 -8.5 26c0 14.667 7 24.834 21 30.501
s35 8.5 63 8.5c22.667 0 46.5 -3.83301 71.5 -11.5l80.5 -25.5c38 -12.667 78.167 -24.834 120.5 -36.501s86.833 -17.5 133.5 -17.5c22 0 44.667 1.66699 68 5s44.833 10 64.5 20s35.667 23.667 48 41s18.5 40 18.5 68c0 34 -7.16699 69.333 -21.5 106
s-33.666 72.5 -57.999 107.5s-52.833 68.333 -85.5 100s-67.334 59.334 -104.001 83.001s-74.334 42.5 -113.001 56.5s-76.334 21 -113.001 21c-37.333 0 -66.833 -4.16699 -88.5 -12.5s-39.167 -17.5 -52.5 -27.5l-6 8c14.667 10.667 33 20.334 55 29.001s52.667 13 92 13
c37.333 0 75.666 -7.16699 114.999 -21.5s77.833 -33.666 115.5 -57.999s73 -52.5 106 -84.5s62 -66 87 -102s44.833 -72.667 59.5 -110s22 -73.333 22 -108c0 -30 -6.5 -54.333 -19.5 -73s-29.833 -33.334 -50.5 -44.001s-43.334 -17.834 -68.001 -21.501
s-48.334 -5.5 -71.001 -5.5c-48.667 0 -94.334 5.83301 -137.001 17.5s-83 23.834 -121 36.501l-80 25.5c-24.667 7.66699 -47.334 11.5 -68.001 11.5c-49.333 0 -74 -9.66699 -74 -29c0 -7.33301 2.5 -15 7.5 -23s12.5 -15.333 22.5 -22s22.167 -12.167 36.5 -16.5
s30.5 -6.5 48.5 -6.5c50.667 0 95.834 15.667 135.501 47s73 74.5 100 129.5s47.667 119.833 62 194.5s21.5 155.667 21.5 243h10zM55.0068 230.998c12.667 1.33301 27 2.5 43 3.5l50 3c17.333 1 35 1.83301 53 2.5s35.333 1 52 1h21.5c7 0 14.167 -0.333008 21.5 -1v-10
c-7.33301 0.666992 -14.5 1 -21.5 1h-21.5c-16.667 0 -34 -0.333008 -52 -1s-35.667 -1.5 -53 -2.5l-50 -3c-16 -1 -30.333 -2.16699 -43 -3.5v10z" />
    <glyph glyph-name="Ntilde" unicode="&#xd1;" horiz-adv-x="803" 
d="M49 14c4.66699 26.667 11.668 57.168 21.001 91.501s20.666 70.666 33.999 108.999s28 77.166 44 116.499s33.167 77.333 51.5 114s37 70.667 56 102s38.167 58 57.5 80l8 -6c-18.667 -21.333 -37.667 -47.5 -57 -78.5s-37.833 -64.667 -55.5 -101
s-34.667 -74.166 -51 -113.499s-31 -78 -44 -116s-24.167 -74.167 -33.5 -108.5s-16.333 -64.833 -21 -91.5zM705.001 560.001c10 -48 18.334 -100.002 25.001 -156.002s10 -110.333 10 -163c0 -35.333 -1.83301 -68.666 -5.5 -99.999s-9.83398 -58.666 -18.501 -81.999
s-20.167 -41.833 -34.5 -55.5s-31.833 -20.5 -52.5 -20.5c-28.667 0 -56.334 9.33301 -83.001 28s-51.834 43.834 -75.501 75.501s-45.167 68.667 -64.5 111s-36.166 87.166 -50.499 134.499s-25.333 95.666 -33 144.999s-11.5 97.333 -11.5 144h10
c0 -46 3.83301 -93.333 11.5 -142s18.334 -96.167 32.001 -142.5s30 -90.333 49 -132s39.833 -78.167 62.5 -109.5s47 -56.166 73 -74.499s52.667 -27.5 80 -27.5c18.667 0 34.5 6.5 47.5 19.5s23.5 30.833 31.5 53.5s13.667 49 17 79s5 62 5 96
c0 52 -3.33301 105.833 -10 161.5s-15 107.5 -25 155.5zM412.002 697.999c6.66699 11.333 17.001 22.334 31.001 33.001s27.333 16 40 16c9.33301 0 17 -3 23 -9s11.667 -12.667 17 -20c5.33301 -6.66699 10.666 -12.834 15.999 -18.501s12 -8.5 20 -8.5
c16.667 0 30.5 4 41.5 12s21.167 18 30.5 30l8 -6c-10 -13.333 -21.167 -24.333 -33.5 -33s-27.833 -13 -46.5 -13c-10.667 0 -19.167 3.33301 -25.5 10s-12.5 13.667 -18.5 21c-4.66699 6.66699 -9.5 12.5 -14.5 17.5s-10.833 7.5 -17.5 7.5
c-11.333 0 -23.333 -4.66699 -36 -14s-21.667 -19 -27 -29z" />
    <glyph glyph-name="Ograve" unicode="&#xd2;" horiz-adv-x="858" 
d="M741 479c-20.667 11.333 -43.8311 20.1689 -69.498 26.502s-56.5 9.5 -92.5 9.5c-34 0 -69.833 -4.83301 -107.5 -14.5s-74.667 -23 -111 -40s-71 -37 -104 -60s-62.167 -47.5 -87.5 -73.5s-45.333 -52.833 -60 -80.5s-22 -55.167 -22 -82.5c0 -28 7.16699 -51 21.5 -69
s33.333 -32.333 57 -43s50.667 -18 81 -22s61.166 -6 92.499 -6c36.667 0 74.5 2.66699 113.5 8s76.833 13.166 113.5 23.499s71.167 23.166 103.5 38.499s60.666 33.166 84.999 53.499s43.666 43.166 57.999 68.499s21.5 53.333 21.5 84c0 34.667 -8.5 63 -25.5 85
s-37.833 39.333 -62.5 52s-50.834 21.334 -78.501 26.001s-52.167 7 -73.5 7v10c22.667 0 48.334 -2.5 77.001 -7.5s55.834 -14.167 81.501 -27.5s47.334 -31.666 65.001 -54.999s26.5 -53.333 26.5 -90c0 -31.333 -7.33301 -60.166 -22 -86.499s-34.334 -50 -59.001 -71
s-53.667 -39.667 -87 -56s-68.666 -29.833 -105.999 -40.5s-75.833 -18.667 -115.5 -24s-78.167 -8 -115.5 -8c-32.667 0 -64.667 2.16699 -96 6.5s-59.333 12.166 -84 23.499s-44.5 26.666 -59.5 45.999s-22.5 44 -22.5 74c0 28 7.5 56.333 22.5 85
s35.333 56.334 61 83.001s55.334 51.667 89.001 75s69.167 43.833 106.5 61.5s75.166 31.5 113.499 41.5s74.833 15 109.5 15c36.667 0 68.167 -3.33301 94.5 -10s50.166 -16 71.499 -28zM423.003 729.003l83.501 -45.501c27.667 -14.333 57.5 -28.5 89.5 -42.5l-4 -10
c-29.333 12.667 -57.833 26.334 -85.5 41.001s-56.834 31 -87.501 49z" />
    <glyph glyph-name="Oacute" unicode="&#xd3;" horiz-adv-x="858" 
d="M741 479c-20.667 11.333 -43.8311 20.1689 -69.498 26.502s-56.5 9.5 -92.5 9.5c-34 0 -69.833 -4.83301 -107.5 -14.5s-74.667 -23 -111 -40s-71 -37 -104 -60s-62.167 -47.5 -87.5 -73.5s-45.333 -52.833 -60 -80.5s-22 -55.167 -22 -82.5c0 -28 7.16699 -51 21.5 -69
s33.333 -32.333 57 -43s50.667 -18 81 -22s61.166 -6 92.499 -6c36.667 0 74.5 2.66699 113.5 8s76.833 13.166 113.5 23.499s71.167 23.166 103.5 38.499s60.666 33.166 84.999 53.499s43.666 43.166 57.999 68.499s21.5 53.333 21.5 84c0 34.667 -8.5 63 -25.5 85
s-37.833 39.333 -62.5 52s-50.834 21.334 -78.501 26.001s-52.167 7 -73.5 7v10c22.667 0 48.334 -2.5 77.001 -7.5s55.834 -14.167 81.501 -27.5s47.334 -31.666 65.001 -54.999s26.5 -53.333 26.5 -90c0 -31.333 -7.33301 -60.166 -22 -86.499s-34.334 -50 -59.001 -71
s-53.667 -39.667 -87 -56s-68.666 -29.833 -105.999 -40.5s-75.833 -18.667 -115.5 -24s-78.167 -8 -115.5 -8c-32.667 0 -64.667 2.16699 -96 6.5s-59.333 12.166 -84 23.499s-44.5 26.666 -59.5 45.999s-22.5 44 -22.5 74c0 28 7.5 56.333 22.5 85
s35.333 56.334 61 83.001s55.334 51.667 89.001 75s69.167 43.833 106.5 61.5s75.166 31.5 113.499 41.5s74.833 15 109.5 15c36.667 0 68.167 -3.33301 94.5 -10s50.166 -16 71.499 -28zM435.003 642.003c10.667 6 23 13.5 37 22.5l43.5 29l45.5 31.5l44 31l6 -8l-86 -60
c-31.333 -21.333 -60 -39.333 -86 -54z" />
    <glyph glyph-name="Ocircumflex" unicode="&#xd4;" horiz-adv-x="858" 
d="M741 479c-20.667 11.333 -43.8311 20.1689 -69.498 26.502s-56.5 9.5 -92.5 9.5c-34 0 -69.833 -4.83301 -107.5 -14.5s-74.667 -23 -111 -40s-71 -37 -104 -60s-62.167 -47.5 -87.5 -73.5s-45.333 -52.833 -60 -80.5s-22 -55.167 -22 -82.5c0 -28 7.16699 -51 21.5 -69
s33.333 -32.333 57 -43s50.667 -18 81 -22s61.166 -6 92.499 -6c36.667 0 74.5 2.66699 113.5 8s76.833 13.166 113.5 23.499s71.167 23.166 103.5 38.499s60.666 33.166 84.999 53.499s43.666 43.166 57.999 68.499s21.5 53.333 21.5 84c0 34.667 -8.5 63 -25.5 85
s-37.833 39.333 -62.5 52s-50.834 21.334 -78.501 26.001s-52.167 7 -73.5 7v10c22.667 0 48.334 -2.5 77.001 -7.5s55.834 -14.167 81.501 -27.5s47.334 -31.666 65.001 -54.999s26.5 -53.333 26.5 -90c0 -31.333 -7.33301 -60.166 -22 -86.499s-34.334 -50 -59.001 -71
s-53.667 -39.667 -87 -56s-68.666 -29.833 -105.999 -40.5s-75.833 -18.667 -115.5 -24s-78.167 -8 -115.5 -8c-32.667 0 -64.667 2.16699 -96 6.5s-59.333 12.166 -84 23.499s-44.5 26.666 -59.5 45.999s-22.5 44 -22.5 74c0 28 7.5 56.333 22.5 85
s35.333 56.334 61 83.001s55.334 51.667 89.001 75s69.167 43.833 106.5 61.5s75.166 31.5 113.499 41.5s74.833 15 109.5 15c36.667 0 68.167 -3.33301 94.5 -10s50.166 -16 71.499 -28zM479.003 667.003c13.333 4 29.3311 10.168 47.998 18.501s36.334 15.833 53.001 22.5
c6 -7.33301 13.5 -16 22.5 -26s18.167 -18.667 27.5 -26l-6 -8c-9.33301 6.66699 -18.166 14.167 -26.499 22.5s-15.5 16.166 -21.5 23.499c-14.667 -6.66699 -30.667 -13.5 -48 -20.5s-32.333 -12.5 -45 -16.5z" />
    <glyph glyph-name="Otilde" unicode="&#xd5;" horiz-adv-x="858" 
d="M741 479c-20.667 11.333 -43.8311 20.1689 -69.498 26.502s-56.5 9.5 -92.5 9.5c-34 0 -69.833 -4.83301 -107.5 -14.5s-74.667 -23 -111 -40s-71 -37 -104 -60s-62.167 -47.5 -87.5 -73.5s-45.333 -52.833 -60 -80.5s-22 -55.167 -22 -82.5c0 -28 7.16699 -51 21.5 -69
s33.333 -32.333 57 -43s50.667 -18 81 -22s61.166 -6 92.499 -6c36.667 0 74.5 2.66699 113.5 8s76.833 13.166 113.5 23.499s71.167 23.166 103.5 38.499s60.666 33.166 84.999 53.499s43.666 43.166 57.999 68.499s21.5 53.333 21.5 84c0 34.667 -8.5 63 -25.5 85
s-37.833 39.333 -62.5 52s-50.834 21.334 -78.501 26.001s-52.167 7 -73.5 7v10c22.667 0 48.334 -2.5 77.001 -7.5s55.834 -14.167 81.501 -27.5s47.334 -31.666 65.001 -54.999s26.5 -53.333 26.5 -90c0 -31.333 -7.33301 -60.166 -22 -86.499s-34.334 -50 -59.001 -71
s-53.667 -39.667 -87 -56s-68.666 -29.833 -105.999 -40.5s-75.833 -18.667 -115.5 -24s-78.167 -8 -115.5 -8c-32.667 0 -64.667 2.16699 -96 6.5s-59.333 12.166 -84 23.499s-44.5 26.666 -59.5 45.999s-22.5 44 -22.5 74c0 28 7.5 56.333 22.5 85
s35.333 56.334 61 83.001s55.334 51.667 89.001 75s69.167 43.833 106.5 61.5s75.166 31.5 113.499 41.5s74.833 15 109.5 15c36.667 0 68.167 -3.33301 94.5 -10s50.166 -16 71.499 -28zM395.003 693.003c6.66699 11.333 17.001 22.334 31.001 33.001s27.333 16 40 16
c9.33301 0 17 -3 23 -9s11.667 -12.667 17 -20c5.33301 -6.66699 10.666 -12.834 15.999 -18.501s12 -8.5 20 -8.5c16.667 0 30.5 4 41.5 12s21.167 18 30.5 30l8 -6c-10 -13.333 -21.167 -24.333 -33.5 -33s-27.833 -13 -46.5 -13c-10.667 0 -19.167 3.33301 -25.5 10
s-12.5 13.667 -18.5 21c-4.66699 6.66699 -9.5 12.5 -14.5 17.5s-10.833 7.5 -17.5 7.5c-11.333 0 -23.333 -4.66699 -36 -14s-21.667 -19 -27 -29z" />
    <glyph glyph-name="Odieresis" unicode="&#xd6;" horiz-adv-x="858" 
d="M741 479c-20.667 11.333 -43.8311 20.1689 -69.498 26.502s-56.5 9.5 -92.5 9.5c-34 0 -69.833 -4.83301 -107.5 -14.5s-74.667 -23 -111 -40s-71 -37 -104 -60s-62.167 -47.5 -87.5 -73.5s-45.333 -52.833 -60 -80.5s-22 -55.167 -22 -82.5c0 -28 7.16699 -51 21.5 -69
s33.333 -32.333 57 -43s50.667 -18 81 -22s61.166 -6 92.499 -6c36.667 0 74.5 2.66699 113.5 8s76.833 13.166 113.5 23.499s71.167 23.166 103.5 38.499s60.666 33.166 84.999 53.499s43.666 43.166 57.999 68.499s21.5 53.333 21.5 84c0 34.667 -8.5 63 -25.5 85
s-37.833 39.333 -62.5 52s-50.834 21.334 -78.501 26.001s-52.167 7 -73.5 7v10c22.667 0 48.334 -2.5 77.001 -7.5s55.834 -14.167 81.501 -27.5s47.334 -31.666 65.001 -54.999s26.5 -53.333 26.5 -90c0 -31.333 -7.33301 -60.166 -22 -86.499s-34.334 -50 -59.001 -71
s-53.667 -39.667 -87 -56s-68.666 -29.833 -105.999 -40.5s-75.833 -18.667 -115.5 -24s-78.167 -8 -115.5 -8c-32.667 0 -64.667 2.16699 -96 6.5s-59.333 12.166 -84 23.499s-44.5 26.666 -59.5 45.999s-22.5 44 -22.5 74c0 28 7.5 56.333 22.5 85
s35.333 56.334 61 83.001s55.334 51.667 89.001 75s69.167 43.833 106.5 61.5s75.166 31.5 113.499 41.5s74.833 15 109.5 15c36.667 0 68.167 -3.33301 94.5 -10s50.166 -16 71.499 -28zM435.003 724.003c1.33301 -6 5.5 -11 12.5 -15s13.167 -6 18.5 -6v-10
c-7.33301 0 -15.5 2.83301 -24.5 8.5s-14.5 12.5 -16.5 20.5zM519.003 741.003c15.333 0 28.668 -6.66699 40.001 -20l-8 -6c-8.66699 10.667 -19.334 16 -32.001 16v10z" />
    <glyph glyph-name="multiply" unicode="&#xd7;" horiz-adv-x="379" 
d="M70 113l25 22.499l36 32.5l45 40.5l47 42.5l42 39.5l31 30.5l8 -6c-8.66699 -9.33301 -19.5 -20.166 -32.5 -32.499l-42.5 -39.5l-47 -42.5l-45 -40.5l-36 -32.5l-25 -22.5zM110 283.999c8 -9.33301 17.501 -19.4961 28.501 -30.4961s23.5 -22.333 37.5 -34
s29.667 -22.834 47 -33.501s36 -20.334 56 -29.001l-4 -10c-41.333 17.333 -76.333 38.666 -105 63.999s-51.334 47.666 -68.001 66.999z" />
    <glyph glyph-name="Oslash" unicode="&#xd8;" horiz-adv-x="858" 
d="M741 479c-20.667 11.333 -43.8311 20.1689 -69.498 26.502s-56.5 9.5 -92.5 9.5c-34 0 -69.833 -4.83301 -107.5 -14.5s-74.667 -23 -111 -40s-71 -37 -104 -60s-62.167 -47.5 -87.5 -73.5s-45.333 -52.833 -60 -80.5s-22 -55.167 -22 -82.5c0 -28 7.16699 -51 21.5 -69
s33.333 -32.333 57 -43s50.667 -18 81 -22s61.166 -6 92.499 -6c36.667 0 74.5 2.66699 113.5 8s76.833 13.166 113.5 23.499s71.167 23.166 103.5 38.499s60.666 33.166 84.999 53.499s43.666 43.166 57.999 68.499s21.5 53.333 21.5 84c0 34.667 -8.5 63 -25.5 85
s-37.833 39.333 -62.5 52s-50.834 21.334 -78.501 26.001s-52.167 7 -73.5 7v10c22.667 0 48.334 -2.5 77.001 -7.5s55.834 -14.167 81.501 -27.5s47.334 -31.666 65.001 -54.999s26.5 -53.333 26.5 -90c0 -31.333 -7.33301 -60.166 -22 -86.499s-34.334 -50 -59.001 -71
s-53.667 -39.667 -87 -56s-68.666 -29.833 -105.999 -40.5s-75.833 -18.667 -115.5 -24s-78.167 -8 -115.5 -8c-32.667 0 -64.667 2.16699 -96 6.5s-59.333 12.166 -84 23.499s-44.5 26.666 -59.5 45.999s-22.5 44 -22.5 74c0 28 7.5 56.333 22.5 85
s35.333 56.334 61 83.001s55.334 51.667 89.001 75s69.167 43.833 106.5 61.5s75.166 31.5 113.499 41.5s74.833 15 109.5 15c36.667 0 68.167 -3.33301 94.5 -10s50.166 -16 71.499 -28zM639.003 684.003c-5.33301 -13.333 -14.5 -32.833 -27.5 -58.5l-46 -89l-58.5 -109.5
l-65 -121l-75.5 -140.5l-67.5 -128c-20 -39 -36.833 -73 -50.5 -102s-22.167 -49.5 -25.5 -61.5l-10 2c2.66699 11.333 11 31.5 25 60.5l51.5 102.5l68.5 129.5l76 141.5l61.5 114l57 107l46.5 91c13.333 27.333 23.333 49.333 30 66z" />
    <glyph glyph-name="Ugrave" unicode="&#xd9;" horiz-adv-x="817" 
d="M308 588c-24.667 -26.667 -50.165 -59.167 -76.498 -97.5s-50.333 -78.666 -72 -120.999s-39.5 -84.833 -53.5 -127.5s-21 -82 -21 -118c0 -23.333 3.33301 -42.166 10 -56.499s14.667 -25.333 24 -33s19 -12.834 29 -15.501s18.333 -4 25 -4
c37.333 0 75.666 9.16699 114.999 27.5s78.5 42.666 117.5 72.999s77 65.5 114 105.5s71.833 81.667 104.5 125s62.667 86.833 90 130.5s50.333 84.834 69 123.501l8 -4c-18.667 -38.667 -41.834 -80.167 -69.501 -124.5s-58.167 -88.333 -91.5 -132
s-68.833 -85.667 -106.5 -126s-76.167 -76 -115.5 -107s-79 -55.667 -119 -74s-78.667 -27.5 -116 -27.5c-8 0 -17.5 1.5 -28.5 4.5s-21.667 8.66699 -32 17s-19.166 20.333 -26.499 36s-11 36.167 -11 61.5c0 36.667 7 76.667 21 120s32 86.5 54 129.5
s46.167 83.667 72.5 122s52.166 71.166 77.499 98.499zM785.002 584c-50 -92.667 -88.6699 -175.002 -116.003 -247.002s-41 -127.333 -41 -166c0 -20.667 7 -38.834 21 -54.501s32.667 -23.5 56 -23.5c14.667 0 30.334 2.33301 47.001 7s33.334 10.5 50.001 17.5
s32.834 15 48.501 24s29.834 18.167 42.501 27.5l6 -8c-13.333 -9.33301 -28 -18.666 -44 -27.999s-32.667 -17.666 -50 -24.999s-34.666 -13.333 -51.999 -18s-33.333 -7 -48 -7c-26.667 0 -47.834 8.83301 -63.501 26.5s-23.5 38.167 -23.5 61.5
c0 38.667 13.667 94.334 41 167.001s66.666 156 117.999 250zM363.999 847.998l83.501 -45.501c27.667 -14.333 57.5 -28.5 89.5 -42.5l-4 -10c-29.333 12.667 -57.833 26.334 -85.5 41.001s-56.834 31 -87.501 49z" />
    <glyph glyph-name="Uacute" unicode="&#xda;" horiz-adv-x="817" 
d="M308 588c-24.667 -26.667 -50.165 -59.167 -76.498 -97.5s-50.333 -78.666 -72 -120.999s-39.5 -84.833 -53.5 -127.5s-21 -82 -21 -118c0 -23.333 3.33301 -42.166 10 -56.499s14.667 -25.333 24 -33s19 -12.834 29 -15.501s18.333 -4 25 -4
c37.333 0 75.666 9.16699 114.999 27.5s78.5 42.666 117.5 72.999s77 65.5 114 105.5s71.833 81.667 104.5 125s62.667 86.833 90 130.5s50.333 84.834 69 123.501l8 -4c-18.667 -38.667 -41.834 -80.167 -69.501 -124.5s-58.167 -88.333 -91.5 -132
s-68.833 -85.667 -106.5 -126s-76.167 -76 -115.5 -107s-79 -55.667 -119 -74s-78.667 -27.5 -116 -27.5c-8 0 -17.5 1.5 -28.5 4.5s-21.667 8.66699 -32 17s-19.166 20.333 -26.499 36s-11 36.167 -11 61.5c0 36.667 7 76.667 21 120s32 86.5 54 129.5
s46.167 83.667 72.5 122s52.166 71.166 77.499 98.499zM785.002 584c-50 -92.667 -88.6699 -175.002 -116.003 -247.002s-41 -127.333 -41 -166c0 -20.667 7 -38.834 21 -54.501s32.667 -23.5 56 -23.5c14.667 0 30.334 2.33301 47.001 7s33.334 10.5 50.001 17.5
s32.834 15 48.501 24s29.834 18.167 42.501 27.5l6 -8c-13.333 -9.33301 -28 -18.666 -44 -27.999s-32.667 -17.666 -50 -24.999s-34.666 -13.333 -51.999 -18s-33.333 -7 -48 -7c-26.667 0 -47.834 8.83301 -63.501 26.5s-23.5 38.167 -23.5 61.5
c0 38.667 13.667 94.334 41 167.001s66.666 156 117.999 250zM454.999 760.998c10.667 6 23 13.5 37 22.5l43.5 29l45.5 31.5l44 31l6 -8l-86 -60c-31.333 -21.333 -60 -39.333 -86 -54z" />
    <glyph glyph-name="Ucircumflex" unicode="&#xdb;" horiz-adv-x="817" 
d="M308 588c-24.667 -26.667 -50.165 -59.167 -76.498 -97.5s-50.333 -78.666 -72 -120.999s-39.5 -84.833 -53.5 -127.5s-21 -82 -21 -118c0 -23.333 3.33301 -42.166 10 -56.499s14.667 -25.333 24 -33s19 -12.834 29 -15.501s18.333 -4 25 -4
c37.333 0 75.666 9.16699 114.999 27.5s78.5 42.666 117.5 72.999s77 65.5 114 105.5s71.833 81.667 104.5 125s62.667 86.833 90 130.5s50.333 84.834 69 123.501l8 -4c-18.667 -38.667 -41.834 -80.167 -69.501 -124.5s-58.167 -88.333 -91.5 -132
s-68.833 -85.667 -106.5 -126s-76.167 -76 -115.5 -107s-79 -55.667 -119 -74s-78.667 -27.5 -116 -27.5c-8 0 -17.5 1.5 -28.5 4.5s-21.667 8.66699 -32 17s-19.166 20.333 -26.499 36s-11 36.167 -11 61.5c0 36.667 7 76.667 21 120s32 86.5 54 129.5
s46.167 83.667 72.5 122s52.166 71.166 77.499 98.499zM785.002 584c-50 -92.667 -88.6699 -175.002 -116.003 -247.002s-41 -127.333 -41 -166c0 -20.667 7 -38.834 21 -54.501s32.667 -23.5 56 -23.5c14.667 0 30.334 2.33301 47.001 7s33.334 10.5 50.001 17.5
s32.834 15 48.501 24s29.834 18.167 42.501 27.5l6 -8c-13.333 -9.33301 -28 -18.666 -44 -27.999s-32.667 -17.666 -50 -24.999s-34.666 -13.333 -51.999 -18s-33.333 -7 -48 -7c-26.667 0 -47.834 8.83301 -63.501 26.5s-23.5 38.167 -23.5 61.5
c0 38.667 13.667 94.334 41 167.001s66.666 156 117.999 250zM446.999 760.998c13.333 4 29.3311 10.168 47.998 18.501s36.334 15.833 53.001 22.5c6 -7.33301 13.5 -16 22.5 -26s18.167 -18.667 27.5 -26l-6 -8c-9.33301 6.66699 -18.166 14.167 -26.499 22.5
s-15.5 16.166 -21.5 23.499c-14.667 -6.66699 -30.667 -13.5 -48 -20.5s-32.333 -12.5 -45 -16.5z" />
    <glyph glyph-name="Udieresis" unicode="&#xdc;" horiz-adv-x="817" 
d="M308 588c-24.667 -26.667 -50.165 -59.167 -76.498 -97.5s-50.333 -78.666 -72 -120.999s-39.5 -84.833 -53.5 -127.5s-21 -82 -21 -118c0 -23.333 3.33301 -42.166 10 -56.499s14.667 -25.333 24 -33s19 -12.834 29 -15.501s18.333 -4 25 -4
c37.333 0 75.666 9.16699 114.999 27.5s78.5 42.666 117.5 72.999s77 65.5 114 105.5s71.833 81.667 104.5 125s62.667 86.833 90 130.5s50.333 84.834 69 123.501l8 -4c-18.667 -38.667 -41.834 -80.167 -69.501 -124.5s-58.167 -88.333 -91.5 -132
s-68.833 -85.667 -106.5 -126s-76.167 -76 -115.5 -107s-79 -55.667 -119 -74s-78.667 -27.5 -116 -27.5c-8 0 -17.5 1.5 -28.5 4.5s-21.667 8.66699 -32 17s-19.166 20.333 -26.499 36s-11 36.167 -11 61.5c0 36.667 7 76.667 21 120s32 86.5 54 129.5
s46.167 83.667 72.5 122s52.166 71.166 77.499 98.499zM785.002 584c-50 -92.667 -88.6699 -175.002 -116.003 -247.002s-41 -127.333 -41 -166c0 -20.667 7 -38.834 21 -54.501s32.667 -23.5 56 -23.5c14.667 0 30.334 2.33301 47.001 7s33.334 10.5 50.001 17.5
s32.834 15 48.501 24s29.834 18.167 42.501 27.5l6 -8c-13.333 -9.33301 -28 -18.666 -44 -27.999s-32.667 -17.666 -50 -24.999s-34.666 -13.333 -51.999 -18s-33.333 -7 -48 -7c-26.667 0 -47.834 8.83301 -63.501 26.5s-23.5 38.167 -23.5 61.5
c0 38.667 13.667 94.334 41 167.001s66.666 156 117.999 250zM499.999 811.998c1.33301 -6 5.5 -11 12.5 -15s13.167 -6 18.5 -6v-10c-7.33301 0 -15.5 2.83301 -24.5 8.5s-14.5 12.5 -16.5 20.5zM583.999 828.998c15.333 0 28.668 -6.66699 40.001 -20l-8 -6
c-8.66699 10.667 -19.334 16 -32.001 16v10z" />
    <glyph glyph-name="Yacute" unicode="&#xdd;" horiz-adv-x="630" 
d="M-77 718c-22 -41.333 -33.0029 -88.666 -33.0029 -141.999c0 -36.667 6.83301 -73 20.5 -109s33.5 -68.5 59.5 -97.5s58.167 -52.5 96.5 -70.5s82.5 -27 132.5 -27c46.667 0 89.334 6.16699 128.001 18.5s75 29.833 109 52.5s66.667 50.167 98 82.5s63 68.833 95 109.5
l8 -7c-39.333 -48 -76.5 -88.833 -111.5 -122.5s-69.667 -61.167 -104 -82.5s-69.666 -36.833 -105.999 -46.5s-75.166 -14.5 -116.499 -14.5c-51.333 0 -96.833 9.33301 -136.5 28s-73 43 -100 73s-47.5 63.667 -61.5 101s-21 74.666 -21 111.999
c0 26 2.83301 51.5 8.5 76.5s14.5 48.167 26.5 69.5zM636.997 527c-10 -35.333 -22.333 -74.1689 -37 -116.502s-30.334 -85.166 -47.001 -128.499s-33.834 -85.5 -51.501 -126.5s-34.5 -77.5 -50.5 -109.5l-8 4c15.333 30.667 31.5 66.334 48.5 107.001l50.5 125.5
c16.667 43 32.334 85.833 47.001 128.5s27.334 82 38.001 118zM226.997 763.997c10.667 6 23 13.5 37 22.5l43.5 29l45.5 31.5l44 31l6 -8l-86 -60c-31.333 -21.333 -60 -39.333 -86 -54z" />
    <glyph glyph-name="Thorn" unicode="&#xde;" horiz-adv-x="467" 
d="M269 711l-31 -102.5l-38.5 -126.5l-42 -138.5l-41 -138.5l-36.5 -125.5c-11.333 -39 -20.666 -72.5 -27.999 -100.5l-10 2c7.33301 28 16.666 61.5 27.999 100.5l36.5 125.5l41 138.5l42 138.5l38.5 126.5l31 102.5zM49 10c24.667 70 55.6699 132.831 93.0029 188.498
s76.166 102.667 116.499 141s80 67.833 119 88.5s72.167 31 99.5 31c50 0 75 -24.333 75 -73c0 -17.333 -5.5 -34.333 -16.5 -51s-25.333 -32.5 -43 -47.5s-37.5 -28.833 -59.5 -41.5s-43.833 -23.5 -65.5 -32.5s-42.167 -16.167 -61.5 -21.5s-35 -8 -47 -8
c-25.333 0 -38 7.66699 -38 23c0 8.66699 2.5 16.5 7.5 23.5s10.833 12.5 17.5 16.5l6 -8c-5.33301 -3.33301 -10.166 -7.66602 -14.499 -12.999s-6.5 -11.666 -6.5 -18.999c0 -8.66699 9.33301 -13 28 -13c12 0 27.333 2.5 46 7.5s38.5 11.833 59.5 20.5s42 19.167 63 31.5
s40 25.5 57 39.5s30.833 29 41.5 45s16 32 16 48c0 22 -5.5 38 -16.5 48s-27.167 15 -48.5 15c-26.667 0 -58.834 -10.167 -96.501 -30.5s-76.334 -49.5 -116.001 -87.5s-77.834 -84.5 -114.501 -139.5s-67 -116.833 -91 -185.5z" />
    <glyph glyph-name="germandbls" unicode="&#xdf;" horiz-adv-x="342" 
d="M24 -192c3.33301 73.333 10.8291 145.168 22.4961 215.501s26.167 136.166 43.5 197.499s37.333 116.333 60 165s46.667 87.667 72 117l8 -6c-25.333 -29.333 -49.166 -68 -71.499 -116s-42.166 -102.333 -59.499 -163s-31.666 -126 -42.999 -196
s-18.666 -141.333 -21.999 -214h-10zM229.996 497.002c6 -6 12.833 -14.333 20.5 -25s14.834 -22.834 21.501 -36.501s12.167 -28.5 16.5 -44.5s6.5 -32 6.5 -48c0 -15.333 -2.5 -31.333 -7.5 -48s-12.333 -33.167 -22 -49.5s-21.834 -31.833 -36.501 -46.5
s-31.334 -28 -50.001 -40l-6 8c37.333 22.667 65.333 50.334 84 83.001s28 63.667 28 93c0 16 -2.16699 31.667 -6.5 47s-9.66602 29.5 -15.999 42.5s-13 24.5 -20 34.5s-13.5 17.667 -19.5 23zM171.996 167.002c10 -2 20.833 -4.50098 32.5 -7.50098
s22.334 -6.66699 32.001 -11s17.667 -9.33301 24 -15s9.5 -12.167 9.5 -19.5s-4 -15.5 -12 -24.5s-18 -17.833 -30 -26.5s-25.167 -16.667 -39.5 -24s-27.833 -13 -40.5 -17l-2 10c11.333 4 23.666 9.33301 36.999 16s25.666 13.834 36.999 21.501s20.833 15.5 28.5 23.5
s11.5 15 11.5 21c0 5.33301 -3 10.333 -9 15s-13.5 8.66699 -22.5 12s-18.667 6.33301 -29 9s-20.166 5 -29.499 7z" />
    <glyph glyph-name="agrave" unicode="&#xe0;" horiz-adv-x="265" 
d="M256 179c-4.66699 5.33301 -9.99902 10.333 -15.999 15c-5.33301 3.33301 -11.5 6.66602 -18.5 9.99902s-15.167 5 -24.5 5c-16.667 0 -34.5 -3.83301 -53.5 -11.5s-36.667 -17.5 -53 -29.5s-29.833 -25.167 -40.5 -39.5s-16 -28.166 -16 -41.499
c0 -8 8.66699 -12 26 -12c23.333 0 47.666 5 72.999 15s47.666 25 66.999 45l8 -4c-1.33301 -8 -1.16602 -17.333 0.500977 -28s4.16699 -20.334 7.5 -29.001l-10 -4c-2 5.33301 -3.83301 12.833 -5.5 22.5s-2.83398 17.834 -3.50098 24.501
c-19.333 -18 -42.166 -31.167 -68.499 -39.5s-49.166 -12.5 -68.499 -12.5c-11.333 0 -20.166 1.66699 -26.499 5s-9.5 9 -9.5 17c0 14 5.66699 28.833 17 44.5s25.666 30 42.999 43s36 23.667 56 32s39 12.5 57 12.5c10 0 19 -1.83301 27 -5.5s15 -7.5 21 -11.5
c7.33301 -5.33301 13.666 -11 18.999 -17zM71.001 399l83.501 -45.501c27.667 -14.333 57.5 -28.5 89.5 -42.5l-4 -10c-29.333 12.667 -57.833 26.334 -85.5 41.001s-56.834 31 -87.501 49z" />
    <glyph glyph-name="aacute" unicode="&#xe1;" horiz-adv-x="265" 
d="M256 179c-4.66699 5.33301 -9.99902 10.333 -15.999 15c-5.33301 3.33301 -11.5 6.66602 -18.5 9.99902s-15.167 5 -24.5 5c-16.667 0 -34.5 -3.83301 -53.5 -11.5s-36.667 -17.5 -53 -29.5s-29.833 -25.167 -40.5 -39.5s-16 -28.166 -16 -41.499
c0 -8 8.66699 -12 26 -12c23.333 0 47.666 5 72.999 15s47.666 25 66.999 45l8 -4c-1.33301 -8 -1.16602 -17.333 0.500977 -28s4.16699 -20.334 7.5 -29.001l-10 -4c-2 5.33301 -3.83301 12.833 -5.5 22.5s-2.83398 17.834 -3.50098 24.501
c-19.333 -18 -42.166 -31.167 -68.499 -39.5s-49.166 -12.5 -68.499 -12.5c-11.333 0 -20.166 1.66699 -26.499 5s-9.5 9 -9.5 17c0 14 5.66699 28.833 17 44.5s25.666 30 42.999 43s36 23.667 56 32s39 12.5 57 12.5c10 0 19 -1.83301 27 -5.5s15 -7.5 21 -11.5
c7.33301 -5.33301 13.666 -11 18.999 -17zM140.001 312c10.667 6 23 13.5 37 22.5l43.5 29l45.5 31.5l44 31l6 -8l-86 -60c-31.333 -21.333 -60 -39.333 -86 -54z" />
    <glyph glyph-name="acircumflex" unicode="&#xe2;" horiz-adv-x="265" 
d="M256 179c-4.66699 5.33301 -9.99902 10.333 -15.999 15c-5.33301 3.33301 -11.5 6.66602 -18.5 9.99902s-15.167 5 -24.5 5c-16.667 0 -34.5 -3.83301 -53.5 -11.5s-36.667 -17.5 -53 -29.5s-29.833 -25.167 -40.5 -39.5s-16 -28.166 -16 -41.499
c0 -8 8.66699 -12 26 -12c23.333 0 47.666 5 72.999 15s47.666 25 66.999 45l8 -4c-1.33301 -8 -1.16602 -17.333 0.500977 -28s4.16699 -20.334 7.5 -29.001l-10 -4c-2 5.33301 -3.83301 12.833 -5.5 22.5s-2.83398 17.834 -3.50098 24.501
c-19.333 -18 -42.166 -31.167 -68.499 -39.5s-49.166 -12.5 -68.499 -12.5c-11.333 0 -20.166 1.66699 -26.499 5s-9.5 9 -9.5 17c0 14 5.66699 28.833 17 44.5s25.666 30 42.999 43s36 23.667 56 32s39 12.5 57 12.5c10 0 19 -1.83301 27 -5.5s15 -7.5 21 -11.5
c7.33301 -5.33301 13.666 -11 18.999 -17zM95.001 315c13.333 4 29.3311 10.168 47.998 18.501s36.334 15.833 53.001 22.5c6 -7.33301 13.5 -16 22.5 -26s18.167 -18.667 27.5 -26l-6 -8c-9.33301 6.66699 -18.166 14.167 -26.499 22.5s-15.5 16.166 -21.5 23.499
c-14.667 -6.66699 -30.667 -13.5 -48 -20.5s-32.333 -12.5 -45 -16.5z" />
    <glyph glyph-name="atilde" unicode="&#xe3;" horiz-adv-x="265" 
d="M256 179c-4.66699 5.33301 -9.99902 10.333 -15.999 15c-5.33301 3.33301 -11.5 6.66602 -18.5 9.99902s-15.167 5 -24.5 5c-16.667 0 -34.5 -3.83301 -53.5 -11.5s-36.667 -17.5 -53 -29.5s-29.833 -25.167 -40.5 -39.5s-16 -28.166 -16 -41.499
c0 -8 8.66699 -12 26 -12c23.333 0 47.666 5 72.999 15s47.666 25 66.999 45l8 -4c-1.33301 -8 -1.16602 -17.333 0.500977 -28s4.16699 -20.334 7.5 -29.001l-10 -4c-2 5.33301 -3.83301 12.833 -5.5 22.5s-2.83398 17.834 -3.50098 24.501
c-19.333 -18 -42.166 -31.167 -68.499 -39.5s-49.166 -12.5 -68.499 -12.5c-11.333 0 -20.166 1.66699 -26.499 5s-9.5 9 -9.5 17c0 14 5.66699 28.833 17 44.5s25.666 30 42.999 43s36 23.667 56 32s39 12.5 57 12.5c10 0 19 -1.83301 27 -5.5s15 -7.5 21 -11.5
c7.33301 -5.33301 13.666 -11 18.999 -17zM77.001 319c6.66699 11.333 17.001 22.334 31.001 33.001s27.333 16 40 16c9.33301 0 17 -3 23 -9s11.667 -12.667 17 -20c5.33301 -6.66699 10.666 -12.834 15.999 -18.501s12 -8.5 20 -8.5c16.667 0 30.5 4 41.5 12
s21.167 18 30.5 30l8 -6c-10 -13.333 -21.167 -24.333 -33.5 -33s-27.833 -13 -46.5 -13c-10.667 0 -19.167 3.33301 -25.5 10s-12.5 13.667 -18.5 21c-4.66699 6.66699 -9.5 12.5 -14.5 17.5s-10.833 7.5 -17.5 7.5c-11.333 0 -23.333 -4.66699 -36 -14
s-21.667 -19 -27 -29z" />
    <glyph glyph-name="adieresis" unicode="&#xe4;" horiz-adv-x="265" 
d="M256 179c-4.66699 5.33301 -9.99902 10.333 -15.999 15c-5.33301 3.33301 -11.5 6.66602 -18.5 9.99902s-15.167 5 -24.5 5c-16.667 0 -34.5 -3.83301 -53.5 -11.5s-36.667 -17.5 -53 -29.5s-29.833 -25.167 -40.5 -39.5s-16 -28.166 -16 -41.499
c0 -8 8.66699 -12 26 -12c23.333 0 47.666 5 72.999 15s47.666 25 66.999 45l8 -4c-1.33301 -8 -1.16602 -17.333 0.500977 -28s4.16699 -20.334 7.5 -29.001l-10 -4c-2 5.33301 -3.83301 12.833 -5.5 22.5s-2.83398 17.834 -3.50098 24.501
c-19.333 -18 -42.166 -31.167 -68.499 -39.5s-49.166 -12.5 -68.499 -12.5c-11.333 0 -20.166 1.66699 -26.499 5s-9.5 9 -9.5 17c0 14 5.66699 28.833 17 44.5s25.666 30 42.999 43s36 23.667 56 32s39 12.5 57 12.5c10 0 19 -1.83301 27 -5.5s15 -7.5 21 -11.5
c7.33301 -5.33301 13.666 -11 18.999 -17zM77.001 371c1.33301 -6 5.5 -11 12.5 -15s13.167 -6 18.5 -6v-10c-7.33301 0 -15.5 2.83301 -24.5 8.5s-14.5 12.5 -16.5 20.5zM161.001 388c15.333 0 28.668 -6.66699 40.001 -20l-8 -6c-8.66699 10.667 -19.334 16 -32.001 16v10
z" />
    <glyph glyph-name="aring" unicode="&#xe5;" horiz-adv-x="265" 
d="M256 179c-4.66699 5.33301 -9.99902 10.333 -15.999 15c-5.33301 3.33301 -11.5 6.66602 -18.5 9.99902s-15.167 5 -24.5 5c-16.667 0 -34.5 -3.83301 -53.5 -11.5s-36.667 -17.5 -53 -29.5s-29.833 -25.167 -40.5 -39.5s-16 -28.166 -16 -41.499
c0 -8 8.66699 -12 26 -12c23.333 0 47.666 5 72.999 15s47.666 25 66.999 45l8 -4c-1.33301 -8 -1.16602 -17.333 0.500977 -28s4.16699 -20.334 7.5 -29.001l-10 -4c-2 5.33301 -3.83301 12.833 -5.5 22.5s-2.83398 17.834 -3.50098 24.501
c-19.333 -18 -42.166 -31.167 -68.499 -39.5s-49.166 -12.5 -68.499 -12.5c-11.333 0 -20.166 1.66699 -26.499 5s-9.5 9 -9.5 17c0 14 5.66699 28.833 17 44.5s25.666 30 42.999 43s36 23.667 56 32s39 12.5 57 12.5c10 0 19 -1.83301 27 -5.5s15 -7.5 21 -11.5
c7.33301 -5.33301 13.666 -11 18.999 -17zM238.001 362c0 8.66699 -2.66797 16.334 -8.00098 23.001s-12 10 -20 10c-11.333 0 -22.833 -4.16699 -34.5 -12.5s-17.5 -21.5 -17.5 -39.5c0 -10.667 3.83301 -17.834 11.5 -21.501s14.834 -5.16699 21.501 -4.5
c11.333 0.666992 22 4.66699 32 12s15 18.333 15 33zM248 362c0 -17.333 -6.16797 -30.668 -18.501 -40.001s-25.166 -14.333 -38.499 -15c-8.66699 -0.666992 -18 1.5 -28 6.5s-15 14.833 -15 29.5c0 10.667 2 19.834 6 27.501s9 14 15 19s12.667 8.83301 20 11.5
s14.333 4 21 4c11.333 0 20.5 -4.33301 27.5 -13s10.5 -18.667 10.5 -30z" />
    <glyph glyph-name="ae" unicode="&#xe6;" horiz-adv-x="616" 
d="M290 160c-14 14 -26.001 24.166 -36.001 30.499s-19.667 11 -29 14s-18.666 4.5 -27.999 4.5c-16.667 0 -34.5 -3.83301 -53.5 -11.5s-36.667 -17.5 -53 -29.5s-29.833 -25.167 -40.5 -39.5s-16 -28.166 -16 -41.499c0 -8 8.66699 -12 26 -12
c23.333 0 47.666 5 72.999 15s47.666 25 66.999 45l8 -4c-1.33301 -8 -1.16602 -17.333 0.500977 -28s4.16699 -20.334 7.5 -29.001l-10 -4c-2 5.33301 -3.83301 12.833 -5.5 22.5s-2.83398 17.834 -3.50098 24.501c-19.333 -18 -42.166 -31.167 -68.499 -39.5
s-49.166 -12.5 -68.499 -12.5c-11.333 0 -20.166 1.66699 -26.499 5s-9.5 9 -9.5 17c0 14 5.66699 28.833 17 44.5s25.666 30 42.999 43s36 23.667 56 32s39 12.5 57 12.5c10 0 20.667 -1.83301 32 -5.5s22.5 -9.5 33.5 -17.5s22.167 -18.333 33.5 -31zM292.999 167.999
c2 -2 6.33398 -4.33301 13.001 -7s17.334 -4 32.001 -4c10 0 18.667 3.33301 26 10s11 13 11 19c0 6.66699 -2.66699 11.334 -8 14.001s-12.333 4 -21 4c-3.33301 0 -9 -1.66699 -17 -5s-16 -9 -24 -17s-15 -18.833 -21 -32.5s-8.66699 -27.834 -8 -42.501
c-0.666992 -46.667 29.666 -71.667 90.999 -75c94 0.666992 201.333 46 322 136l6 -8c-120.667 -92 -230 -138 -328 -138c-68 1.33301 -102 29.666 -102 84.999c0 16.667 3.5 32.5 10.5 47.5s15 26.833 24 35.5s18 14.834 27 18.501s15.5 5.5 19.5 5.5
c11.333 0 20.666 -2 27.999 -6s11 -11.333 11 -22c0 -8 -4.5 -16.5 -13.5 -25.5s-20.167 -13.5 -33.5 -13.5c-15.333 -0.666992 -27.333 1 -36 5s-13.667 8.66699 -15 14z" />
    <glyph glyph-name="ccedilla" unicode="&#xe7;" horiz-adv-x="332" 
d="M410 162c-12.667 7.33301 -28 13.999 -46 19.999c-15.333 5.33301 -34.333 10.166 -57 14.499s-49 6.5 -79 6.5c-27.333 0 -53 -3.66699 -77 -11s-45 -16.833 -63 -28.5s-32.167 -25.167 -42.5 -40.5s-15.5 -31 -15.5 -47c0 -14.667 9.33301 -25.834 28 -33.501
s41.667 -11.5 69 -11.5c23.333 0 48 3 74 9s50.333 15.333 73 28l4 -8c-23.333 -13.333 -48.5 -23.166 -75.5 -29.499s-52.167 -9.5 -75.5 -9.5c-30 0 -55.333 4.83301 -76 14.5s-31 23.167 -31 40.5s5.33301 34.333 16 51s25.5 31.334 44.5 44.001s41 22.834 66 30.501
s52.167 11.5 81.5 11.5c30 0 56.667 -2.33301 80 -7s43 -9.66699 59 -15c18.667 -6.66699 35 -13.667 49 -21zM115 -27.001l9.49902 14l11.5 16c4 5.33301 7.66699 10.5 11 15.5s6 9.16699 8 12.5l8 -6c-3.33301 -5.33301 -8.5 -13 -15.5 -23l-18.5 -27
c6 1.33301 13 2.16602 21 2.49902s16 0.5 24 0.5c11.333 0 21.5 -1 30.5 -3s14.5 -5.33301 16.5 -10s-0.166992 -10 -6.5 -16s-15.166 -12 -26.499 -18s-24.333 -11.333 -39 -16s-29.334 -8 -44.001 -10l-2 10c14.667 2 28.667 5.16699 42 9.5s24.833 8.83301 34.5 13.5
s17.334 9.16699 23.001 13.5s8.5 7.5 8.5 9.5c0 2.66699 -3.83301 4.5 -11.5 5.5s-16.167 1.5 -25.5 1.5c-10.667 0 -21.5 -0.666992 -32.5 -2s-19.167 -2.66602 -24.5 -3.99902z" />
    <glyph glyph-name="egrave" unicode="&#xe8;" horiz-adv-x="402" 
d="M83 169c2 -2 5.00391 -4.00098 9.00391 -6.00098c3.33301 -1.33301 7.83301 -2.5 13.5 -3.5s13.167 -1.5 22.5 -1.5c10 0 18.667 3.33301 26 10s11 13 11 19c0 6.66699 -2.66699 11.334 -8 14.001s-12.333 4 -21 4c-3.33301 0 -9 -1.66699 -17 -5s-16 -9 -24 -17
s-15 -18.833 -21 -32.5s-8.66699 -27.834 -8 -42.501c-0.666992 -46.667 29.666 -71.667 90.999 -75c94 0.666992 201.333 46 322 136l6 -8c-120.667 -92 -230 -138 -328 -138c-68 1.33301 -102 29.666 -102 84.999c0 16.667 3.5 32.5 10.5 47.5s15 26.833 24 35.5
s18 14.834 27 18.501s15.5 5.5 19.5 5.5c11.333 0 20.666 -2 27.999 -6s11 -11.333 11 -22c0 -8 -4.5 -16.5 -13.5 -25.5s-20.167 -13.5 -33.5 -13.5c-10.667 0 -19.334 0.666992 -26.001 2s-12 3 -16 5c-4.66699 2.66699 -8.33398 5.33398 -11.001 8.00098z
M116.004 400.999l83.501 -45.501c27.667 -14.333 57.5 -28.5 89.5 -42.5l-4 -10c-29.333 12.667 -57.833 26.334 -85.5 41.001s-56.834 31 -87.501 49z" />
    <glyph glyph-name="eacute" unicode="&#xe9;" horiz-adv-x="402" 
d="M83 169c2 -2 5.00391 -4.00098 9.00391 -6.00098c3.33301 -1.33301 7.83301 -2.5 13.5 -3.5s13.167 -1.5 22.5 -1.5c10 0 18.667 3.33301 26 10s11 13 11 19c0 6.66699 -2.66699 11.334 -8 14.001s-12.333 4 -21 4c-3.33301 0 -9 -1.66699 -17 -5s-16 -9 -24 -17
s-15 -18.833 -21 -32.5s-8.66699 -27.834 -8 -42.501c-0.666992 -46.667 29.666 -71.667 90.999 -75c94 0.666992 201.333 46 322 136l6 -8c-120.667 -92 -230 -138 -328 -138c-68 1.33301 -102 29.666 -102 84.999c0 16.667 3.5 32.5 10.5 47.5s15 26.833 24 35.5
s18 14.834 27 18.501s15.5 5.5 19.5 5.5c11.333 0 20.666 -2 27.999 -6s11 -11.333 11 -22c0 -8 -4.5 -16.5 -13.5 -25.5s-20.167 -13.5 -33.5 -13.5c-10.667 0 -19.334 0.666992 -26.001 2s-12 3 -16 5c-4.66699 2.66699 -8.33398 5.33398 -11.001 8.00098z
M114.004 310.999c10.667 6 23 13.5 37 22.5l43.5 29l45.5 31.5l44 31l6 -8l-86 -60c-31.333 -21.333 -60 -39.333 -86 -54z" />
    <glyph glyph-name="ecircumflex" unicode="&#xea;" horiz-adv-x="402" 
d="M83 169c2 -2 5.00391 -4.00098 9.00391 -6.00098c3.33301 -1.33301 7.83301 -2.5 13.5 -3.5s13.167 -1.5 22.5 -1.5c10 0 18.667 3.33301 26 10s11 13 11 19c0 6.66699 -2.66699 11.334 -8 14.001s-12.333 4 -21 4c-3.33301 0 -9 -1.66699 -17 -5s-16 -9 -24 -17
s-15 -18.833 -21 -32.5s-8.66699 -27.834 -8 -42.501c-0.666992 -46.667 29.666 -71.667 90.999 -75c94 0.666992 201.333 46 322 136l6 -8c-120.667 -92 -230 -138 -328 -138c-68 1.33301 -102 29.666 -102 84.999c0 16.667 3.5 32.5 10.5 47.5s15 26.833 24 35.5
s18 14.834 27 18.501s15.5 5.5 19.5 5.5c11.333 0 20.666 -2 27.999 -6s11 -11.333 11 -22c0 -8 -4.5 -16.5 -13.5 -25.5s-20.167 -13.5 -33.5 -13.5c-10.667 0 -19.334 0.666992 -26.001 2s-12 3 -16 5c-4.66699 2.66699 -8.33398 5.33398 -11.001 8.00098z
M125.004 301.999c13.333 4 29.3311 10.168 47.998 18.501s36.334 15.833 53.001 22.5c6 -7.33301 13.5 -16 22.5 -26s18.167 -18.667 27.5 -26l-6 -8c-9.33301 6.66699 -18.166 14.167 -26.499 22.5s-15.5 16.166 -21.5 23.499c-14.667 -6.66699 -30.667 -13.5 -48 -20.5
s-32.333 -12.5 -45 -16.5z" />
    <glyph glyph-name="edieresis" unicode="&#xeb;" horiz-adv-x="402" 
d="M83 169c2 -2 5.00391 -4.00098 9.00391 -6.00098c3.33301 -1.33301 7.83301 -2.5 13.5 -3.5s13.167 -1.5 22.5 -1.5c10 0 18.667 3.33301 26 10s11 13 11 19c0 6.66699 -2.66699 11.334 -8 14.001s-12.333 4 -21 4c-3.33301 0 -9 -1.66699 -17 -5s-16 -9 -24 -17
s-15 -18.833 -21 -32.5s-8.66699 -27.834 -8 -42.501c-0.666992 -46.667 29.666 -71.667 90.999 -75c94 0.666992 201.333 46 322 136l6 -8c-120.667 -92 -230 -138 -328 -138c-68 1.33301 -102 29.666 -102 84.999c0 16.667 3.5 32.5 10.5 47.5s15 26.833 24 35.5
s18 14.834 27 18.501s15.5 5.5 19.5 5.5c11.333 0 20.666 -2 27.999 -6s11 -11.333 11 -22c0 -8 -4.5 -16.5 -13.5 -25.5s-20.167 -13.5 -33.5 -13.5c-10.667 0 -19.334 0.666992 -26.001 2s-12 3 -16 5c-4.66699 2.66699 -8.33398 5.33398 -11.001 8.00098z
M144.004 370.999c1.33301 -6 5.5 -11 12.5 -15s13.167 -6 18.5 -6v-10c-7.33301 0 -15.5 2.83301 -24.5 8.5s-14.5 12.5 -16.5 20.5zM228.004 387.999c15.333 0 28.668 -6.66699 40.001 -20l-8 -6c-8.66699 10.667 -19.334 16 -32.001 16v10z" />
    <glyph glyph-name="igrave" unicode="&#xec;" horiz-adv-x="287" 
d="M80 170c16.667 -62 51.998 -93 105.998 -93c56.667 -0.666992 115.334 30 176.001 92l7 -5c-62.667 -66 -123.667 -98.333 -183 -97c-59.333 -0.666992 -97.666 32.333 -114.999 99zM58.998 401l83.501 -45.501c27.667 -14.333 57.5 -28.5 89.5 -42.5l-4 -10
c-29.333 12.667 -57.833 26.334 -85.5 41.001s-56.834 31 -87.501 49z" />
    <glyph glyph-name="iacute" unicode="&#xed;" horiz-adv-x="287" 
d="M80 170c16.667 -62 51.998 -93 105.998 -93c56.667 -0.666992 115.334 30 176.001 92l7 -5c-62.667 -66 -123.667 -98.333 -183 -97c-59.333 -0.666992 -97.666 32.333 -114.999 99zM55.998 311c10.667 6 23 13.5 37 22.5l43.5 29l45.5 31.5l44 31l6 -8l-86 -60
c-31.333 -21.333 -60 -39.333 -86 -54z" />
    <glyph glyph-name="icircumflex" unicode="&#xee;" horiz-adv-x="287" 
d="M80 170c16.667 -62 51.998 -93 105.998 -93c56.667 -0.666992 115.334 30 176.001 92l7 -5c-62.667 -66 -123.667 -98.333 -183 -97c-59.333 -0.666992 -97.666 32.333 -114.999 99zM67.998 302c13.333 4 29.3311 10.168 47.998 18.501s36.334 15.833 53.001 22.5
c6 -7.33301 13.5 -16 22.5 -26s18.167 -18.667 27.5 -26l-6 -8c-9.33301 6.66699 -18.166 14.167 -26.499 22.5s-15.5 16.166 -21.5 23.499c-14.667 -6.66699 -30.667 -13.5 -48 -20.5s-32.333 -12.5 -45 -16.5z" />
    <glyph glyph-name="idieresis" unicode="&#xef;" horiz-adv-x="287" 
d="M80 170c16.667 -62 51.998 -93 105.998 -93c56.667 -0.666992 115.334 30 176.001 92l7 -5c-62.667 -66 -123.667 -98.333 -183 -97c-59.333 -0.666992 -97.666 32.333 -114.999 99zM85.998 371c1.33301 -6 5.5 -11 12.5 -15s13.167 -6 18.5 -6v-10
c-7.33301 0 -15.5 2.83301 -24.5 8.5s-14.5 12.5 -16.5 20.5zM169.998 388c15.333 0 28.668 -6.66699 40.001 -20l-8 -6c-8.66699 10.667 -19.334 16 -32.001 16v10z" />
    <glyph glyph-name="eth" unicode="&#xf0;" horiz-adv-x="289" 
d="M77 322c6 1.33301 12 2.49805 18 3.49805s12.667 1.5 20 1.5c16 0 31.833 -2.66699 47.5 -8s29.834 -13.166 42.501 -23.499s22.834 -23.5 30.501 -39.5s11.5 -35 11.5 -57c0 -22.667 -4.83301 -44 -14.5 -64s-22 -37.667 -37 -53s-31.167 -27.5 -48.5 -36.5
s-33.333 -13.5 -48 -13.5c-40 0 -60 17.333 -60 52c0 14 3.83301 28.333 11.5 43s17.667 28 30 40s26.166 21.833 41.499 29.5s30.666 11.5 45.999 11.5s28.333 -3.83301 39 -11.5s18.334 -15.834 23.001 -24.501l-8 -4c-3.33301 7.33301 -9.66602 14.166 -18.999 20.499
s-21 9.5 -35 9.5c-14.667 0 -29 -3.5 -43 -10.5s-26.667 -16 -38 -27s-20.5 -23.167 -27.5 -36.5s-10.5 -26.666 -10.5 -39.999c0 -28 16.667 -42 50 -42c14 0 29 4.16699 45 12.5s31 19.833 45 34.5s25.5 31.334 34.5 50.001s13.5 38.667 13.5 60
c0 20 -3.5 37.5 -10.5 52.5s-16.333 27.333 -28 37s-24.834 16.834 -39.501 21.501s-29.334 7 -44.001 7c-10.667 0 -22.667 -1.66699 -36 -5zM78 234.998c47.333 14 94.667 29.668 142 47.001s95 36.333 143 57l3 -8c-46 -20 -93 -38.833 -141 -56.5
s-96.333 -33.834 -145 -48.501z" />
    <glyph glyph-name="ntilde" unicode="&#xf1;" horiz-adv-x="370" 
d="M324 68c-6 3.33301 -10.8311 9.33789 -14.498 18.0049s-6.66699 18.667 -9 30s-4.33301 23.166 -6 35.499s-3.33398 23.833 -5.00098 34.5s-4 19.667 -7 27s-6.83301 11.666 -11.5 12.999c-6.66699 1.33301 -14.834 -0.5 -24.501 -5.5s-20 -12.167 -31 -21.5
s-22.333 -20 -34 -32l-34.5 -37c-26.667 -30 -54.667 -64.667 -84 -104l-10 2l20 142l10 -2l-17 -121l24.5 32c10.333 13.333 21.833 27.333 34.5 42l40 44.5c14 15 27.667 28 41 39s25.833 19.667 37.5 26s21.5 8.16602 29.5 5.49902c10.667 -2.66699 18 -11.167 22 -25.5
s7.16699 -30.333 9.5 -48s5 -34.834 8 -51.501s8.83301 -28.334 17.5 -35.001zM91.002 380.005c6.66699 11.333 17.001 22.334 31.001 33.001s27.333 16 40 16c9.33301 0 17 -3 23 -9s11.667 -12.667 17 -20c5.33301 -6.66699 10.666 -12.834 15.999 -18.501
s12 -8.5 20 -8.5c16.667 0 30.5 4 41.5 12s21.167 18 30.5 30l8 -6c-10 -13.333 -21.167 -24.333 -33.5 -33s-27.833 -13 -46.5 -13c-10.667 0 -19.167 3.33301 -25.5 10s-12.5 13.667 -18.5 21c-4.66699 6.66699 -9.5 12.5 -14.5 17.5s-10.833 7.5 -17.5 7.5
c-11.333 0 -23.333 -4.66699 -36 -14s-21.667 -19 -27 -29z" />
    <glyph glyph-name="ograve" unicode="&#xf2;" horiz-adv-x="356" 
d="M84 167c-4 -16.667 -3.99805 -37.332 0.00195312 -61.999c5.33301 -22.667 16.333 -40.5 33 -53.5s34.667 -19.5 54 -19.5c10.667 0 13.667 6.66699 9 20c-2 7.33301 -6 15.833 -12 25.5s-12.833 19 -20.5 28s-15.334 17.167 -23.001 24.5s-14.5 12.666 -20.5 15.999l4 8
c6.66699 -3.33301 14.5 -9.16602 23.5 -17.499s17.833 -17.833 26.5 -28.5s16.167 -21.5 22.5 -32.5s10.166 -20.833 11.499 -29.5c1.33301 -7.33301 0.5 -13.166 -2.5 -17.499s-9.16699 -6.5 -18.5 -6.5c-21.333 0 -41.333 7.16699 -60 21.5s-31 34.166 -37 59.499
c-4 25.333 -4 47.666 0 66.999zM439.002 162.002c-28.667 -9.33301 -61 -16.333 -97 -21s-72.333 -7 -109 -7c-21.333 0 -43.5 1 -66.5 3s-43.833 5 -62.5 9l4 8c18.667 -4 39 -6.66699 61 -8s43.333 -2 64 -2c36 0 71.5 2.33301 106.5 7s66.833 11.667 95.5 21z
M93.002 401.002l83.501 -45.501c27.667 -14.333 57.5 -28.5 89.5 -42.5l-4 -10c-29.333 12.667 -57.833 26.334 -85.5 41.001s-56.834 31 -87.501 49z" />
    <glyph glyph-name="oacute" unicode="&#xf3;" horiz-adv-x="356" 
d="M84 167c-4 -16.667 -3.99805 -37.332 0.00195312 -61.999c5.33301 -22.667 16.333 -40.5 33 -53.5s34.667 -19.5 54 -19.5c10.667 0 13.667 6.66699 9 20c-2 7.33301 -6 15.833 -12 25.5s-12.833 19 -20.5 28s-15.334 17.167 -23.001 24.5s-14.5 12.666 -20.5 15.999l4 8
c6.66699 -3.33301 14.5 -9.16602 23.5 -17.499s17.833 -17.833 26.5 -28.5s16.167 -21.5 22.5 -32.5s10.166 -20.833 11.499 -29.5c1.33301 -7.33301 0.5 -13.166 -2.5 -17.499s-9.16699 -6.5 -18.5 -6.5c-21.333 0 -41.333 7.16699 -60 21.5s-31 34.166 -37 59.499
c-4 25.333 -4 47.666 0 66.999zM439.002 162.002c-28.667 -9.33301 -61 -16.333 -97 -21s-72.333 -7 -109 -7c-21.333 0 -43.5 1 -66.5 3s-43.833 5 -62.5 9l4 8c18.667 -4 39 -6.66699 61 -8s43.333 -2 64 -2c36 0 71.5 2.33301 106.5 7s66.833 11.667 95.5 21z
M91.002 311.002c10.667 6 23 13.5 37 22.5l43.5 29l45.5 31.5l44 31l6 -8l-86 -60c-31.333 -21.333 -60 -39.333 -86 -54z" />
    <glyph glyph-name="ocircumflex" unicode="&#xf4;" horiz-adv-x="356" 
d="M84 167c-4 -16.667 -3.99805 -37.332 0.00195312 -61.999c5.33301 -22.667 16.333 -40.5 33 -53.5s34.667 -19.5 54 -19.5c10.667 0 13.667 6.66699 9 20c-2 7.33301 -6 15.833 -12 25.5s-12.833 19 -20.5 28s-15.334 17.167 -23.001 24.5s-14.5 12.666 -20.5 15.999l4 8
c6.66699 -3.33301 14.5 -9.16602 23.5 -17.499s17.833 -17.833 26.5 -28.5s16.167 -21.5 22.5 -32.5s10.166 -20.833 11.499 -29.5c1.33301 -7.33301 0.5 -13.166 -2.5 -17.499s-9.16699 -6.5 -18.5 -6.5c-21.333 0 -41.333 7.16699 -60 21.5s-31 34.166 -37 59.499
c-4 25.333 -4 47.666 0 66.999zM439.002 162.002c-28.667 -9.33301 -61 -16.333 -97 -21s-72.333 -7 -109 -7c-21.333 0 -43.5 1 -66.5 3s-43.833 5 -62.5 9l4 8c18.667 -4 39 -6.66699 61 -8s43.333 -2 64 -2c36 0 71.5 2.33301 106.5 7s66.833 11.667 95.5 21z
M104.002 302.002c13.333 4 29.3311 10.168 47.998 18.501s36.334 15.833 53.001 22.5c6 -7.33301 13.5 -16 22.5 -26s18.167 -18.667 27.5 -26l-6 -8c-9.33301 6.66699 -18.166 14.167 -26.499 22.5s-15.5 16.166 -21.5 23.499c-14.667 -6.66699 -30.667 -13.5 -48 -20.5
s-32.333 -12.5 -45 -16.5z" />
    <glyph glyph-name="otilde" unicode="&#xf5;" horiz-adv-x="356" 
d="M84 167c-4 -16.667 -3.99805 -37.332 0.00195312 -61.999c5.33301 -22.667 16.333 -40.5 33 -53.5s34.667 -19.5 54 -19.5c10.667 0 13.667 6.66699 9 20c-2 7.33301 -6 15.833 -12 25.5s-12.833 19 -20.5 28s-15.334 17.167 -23.001 24.5s-14.5 12.666 -20.5 15.999l4 8
c6.66699 -3.33301 14.5 -9.16602 23.5 -17.499s17.833 -17.833 26.5 -28.5s16.167 -21.5 22.5 -32.5s10.166 -20.833 11.499 -29.5c1.33301 -7.33301 0.5 -13.166 -2.5 -17.499s-9.16699 -6.5 -18.5 -6.5c-21.333 0 -41.333 7.16699 -60 21.5s-31 34.166 -37 59.499
c-4 25.333 -4 47.666 0 66.999zM439.002 162.002c-28.667 -9.33301 -61 -16.333 -97 -21s-72.333 -7 -109 -7c-21.333 0 -43.5 1 -66.5 3s-43.833 5 -62.5 9l4 8c18.667 -4 39 -6.66699 61 -8s43.333 -2 64 -2c36 0 71.5 2.33301 106.5 7s66.833 11.667 95.5 21z
M36.002 336.002c6.66699 11.333 17.001 22.334 31.001 33.001s27.333 16 40 16c9.33301 0 17 -3 23 -9s11.667 -12.667 17 -20c5.33301 -6.66699 10.666 -12.834 15.999 -18.501s12 -8.5 20 -8.5c16.667 0 30.5 4 41.5 12s21.167 18 30.5 30l8 -6
c-10 -13.333 -21.167 -24.333 -33.5 -33s-27.833 -13 -46.5 -13c-10.667 0 -19.167 3.33301 -25.5 10s-12.5 13.667 -18.5 21c-4.66699 6.66699 -9.5 12.5 -14.5 17.5s-10.833 7.5 -17.5 7.5c-11.333 0 -23.333 -4.66699 -36 -14s-21.667 -19 -27 -29z" />
    <glyph glyph-name="odieresis" unicode="&#xf6;" horiz-adv-x="356" 
d="M84 167c-4 -16.667 -3.99805 -37.332 0.00195312 -61.999c5.33301 -22.667 16.333 -40.5 33 -53.5s34.667 -19.5 54 -19.5c10.667 0 13.667 6.66699 9 20c-2 7.33301 -6 15.833 -12 25.5s-12.833 19 -20.5 28s-15.334 17.167 -23.001 24.5s-14.5 12.666 -20.5 15.999l4 8
c6.66699 -3.33301 14.5 -9.16602 23.5 -17.499s17.833 -17.833 26.5 -28.5s16.167 -21.5 22.5 -32.5s10.166 -20.833 11.499 -29.5c1.33301 -7.33301 0.5 -13.166 -2.5 -17.499s-9.16699 -6.5 -18.5 -6.5c-21.333 0 -41.333 7.16699 -60 21.5s-31 34.166 -37 59.499
c-4 25.333 -4 47.666 0 66.999zM439.002 162.002c-28.667 -9.33301 -61 -16.333 -97 -21s-72.333 -7 -109 -7c-21.333 0 -43.5 1 -66.5 3s-43.833 5 -62.5 9l4 8c18.667 -4 39 -6.66699 61 -8s43.333 -2 64 -2c36 0 71.5 2.33301 106.5 7s66.833 11.667 95.5 21z
M121.002 371.002c1.33301 -6 5.5 -11 12.5 -15s13.167 -6 18.5 -6v-10c-7.33301 0 -15.5 2.83301 -24.5 8.5s-14.5 12.5 -16.5 20.5zM205.002 388.002c15.333 0 28.668 -6.66699 40.001 -20l-8 -6c-8.66699 10.667 -19.334 16 -32.001 16v10z" />
    <glyph glyph-name="divide" unicode="&#xf7;" horiz-adv-x="346" 
d="M163 329c1.33301 -5.33301 5.50098 -8.33301 12.501 -9s13.167 1 18.5 5l6 -8c-7.33301 -6.66699 -16.333 -9 -27 -7s-17.334 7.66699 -20.001 17zM148.001 53c-1.33301 -6.66699 -0.166992 -13 3.5 -19s10.167 -9.66699 19.5 -11l-2 -10
c-12 1.33301 -20.5 6.33301 -25.5 15s-6.83301 17.667 -5.5 27zM74 188c12.667 1.33301 27 2.5 43 3.5l50 3c17.333 1 35 1.83301 53 2.5s35.333 1 52 1h21.5c7 0 14.167 -0.333008 21.5 -1v-10c-7.33301 0.666992 -14.5 1 -21.5 1h-21.5c-16.667 0 -34 -0.333008 -52 -1
s-35.667 -1.5 -53 -2.5l-50 -3c-16 -1 -30.333 -2.16699 -43 -3.5v10z" />
    <glyph glyph-name="oslash" unicode="&#xf8;" horiz-adv-x="356" 
d="M191 331l-12 -49l-17.5 -74.5l-19.5 -87.5l-19 -88c-6 -28 -11.167 -53.333 -15.5 -76s-7.16602 -39.667 -8.49902 -51l-10 2c1.33301 11.333 4.16602 28.333 8.49902 51s9.5 48 15.5 76l19 88l19.5 87.5l17.5 74.5l12 49zM84 167
c-4 -16.667 -3.99805 -37.332 0.00195312 -61.999c5.33301 -22.667 16.333 -40.5 33 -53.5s34.667 -19.5 54 -19.5c10.667 0 13.667 6.66699 9 20c-2 7.33301 -6 15.833 -12 25.5s-12.833 19 -20.5 28s-15.334 17.167 -23.001 24.5s-14.5 12.666 -20.5 15.999l4 8
c6.66699 -3.33301 14.5 -9.16602 23.5 -17.499s17.833 -17.833 26.5 -28.5s16.167 -21.5 22.5 -32.5s10.166 -20.833 11.499 -29.5c1.33301 -7.33301 0.5 -13.166 -2.5 -17.499s-9.16699 -6.5 -18.5 -6.5c-21.333 0 -41.333 7.16699 -60 21.5s-31 34.166 -37 59.499
c-4 25.333 -4 47.666 0 66.999zM439.002 162.002c-28.667 -9.33301 -61 -16.333 -97 -21s-72.333 -7 -109 -7c-21.333 0 -43.5 1 -66.5 3s-43.833 5 -62.5 9l4 8c18.667 -4 39 -6.66699 61 -8s43.333 -2 64 -2c36 0 71.5 2.33301 106.5 7s66.833 11.667 95.5 21z" />
    <glyph glyph-name="ugrave" unicode="&#xf9;" horiz-adv-x="398" 
d="M84 168c-4.66699 -10.667 -8.83398 -22.333 -12.501 -35s-5.5 -25.667 -5.5 -39c0 -19.333 5.5 -33.666 16.5 -42.999s26.167 -14 45.5 -14c14 0 30 4.5 48 13.5s36.333 20.333 55 34s37 28.667 55 45s34 32.166 48 47.499l8 -6c-14.667 -16 -31.167 -32.5 -49.5 -49.5
s-37.166 -32.5 -56.499 -46.5s-38.333 -25.5 -57 -34.5s-35.667 -13.5 -51 -13.5c-22 0 -39.5 5.5 -52.5 16.5s-19.5 27.833 -19.5 50.5c0 14 2.16699 27.833 6.5 41.5s8.5 25.167 12.5 34.5zM342 171.001c-4 -10 -6.66504 -20.167 -7.99805 -30.5
s-1.5 -24.666 -0.5 -42.999s4.83301 -38.166 11.5 -59.499l-10 -3c-7.33301 24 -11.333 44.667 -12 62s-0.333984 31.666 0.999023 42.999s4.66602 23.666 9.99902 36.999zM114.002 401.001l83.501 -45.501c27.667 -14.333 57.5 -28.5 89.5 -42.5l-4 -10
c-29.333 12.667 -57.833 26.334 -85.5 41.001s-56.834 31 -87.501 49z" />
    <glyph glyph-name="uacute" unicode="&#xfa;" horiz-adv-x="398" 
d="M84 168c-4.66699 -10.667 -8.83398 -22.333 -12.501 -35s-5.5 -25.667 -5.5 -39c0 -19.333 5.5 -33.666 16.5 -42.999s26.167 -14 45.5 -14c14 0 30 4.5 48 13.5s36.333 20.333 55 34s37 28.667 55 45s34 32.166 48 47.499l8 -6c-14.667 -16 -31.167 -32.5 -49.5 -49.5
s-37.166 -32.5 -56.499 -46.5s-38.333 -25.5 -57 -34.5s-35.667 -13.5 -51 -13.5c-22 0 -39.5 5.5 -52.5 16.5s-19.5 27.833 -19.5 50.5c0 14 2.16699 27.833 6.5 41.5s8.5 25.167 12.5 34.5zM342 171.001c-4 -10 -6.66504 -20.167 -7.99805 -30.5
s-1.5 -24.666 -0.5 -42.999s4.83301 -38.166 11.5 -59.499l-10 -3c-7.33301 24 -11.333 44.667 -12 62s-0.333984 31.666 0.999023 42.999s4.66602 23.666 9.99902 36.999zM172.002 303.001c10.667 6 23 13.5 37 22.5l43.5 29l45.5 31.5l44 31l6 -8l-86 -60
c-31.333 -21.333 -60 -39.333 -86 -54z" />
    <glyph glyph-name="ucircumflex" unicode="&#xfb;" horiz-adv-x="398" 
d="M84 168c-4.66699 -10.667 -8.83398 -22.333 -12.501 -35s-5.5 -25.667 -5.5 -39c0 -19.333 5.5 -33.666 16.5 -42.999s26.167 -14 45.5 -14c14 0 30 4.5 48 13.5s36.333 20.333 55 34s37 28.667 55 45s34 32.166 48 47.499l8 -6c-14.667 -16 -31.167 -32.5 -49.5 -49.5
s-37.166 -32.5 -56.499 -46.5s-38.333 -25.5 -57 -34.5s-35.667 -13.5 -51 -13.5c-22 0 -39.5 5.5 -52.5 16.5s-19.5 27.833 -19.5 50.5c0 14 2.16699 27.833 6.5 41.5s8.5 25.167 12.5 34.5zM342 171.001c-4 -10 -6.66504 -20.167 -7.99805 -30.5
s-1.5 -24.666 -0.5 -42.999s4.83301 -38.166 11.5 -59.499l-10 -3c-7.33301 24 -11.333 44.667 -12 62s-0.333984 31.666 0.999023 42.999s4.66602 23.666 9.99902 36.999zM123.002 302.001c13.333 4 29.3311 10.168 47.998 18.501s36.334 15.833 53.001 22.5
c6 -7.33301 13.5 -16 22.5 -26s18.167 -18.667 27.5 -26l-6 -8c-9.33301 6.66699 -18.166 14.167 -26.499 22.5s-15.5 16.166 -21.5 23.499c-14.667 -6.66699 -30.667 -13.5 -48 -20.5s-32.333 -12.5 -45 -16.5z" />
    <glyph glyph-name="udieresis" unicode="&#xfc;" horiz-adv-x="398" 
d="M84 168c-4.66699 -10.667 -8.83398 -22.333 -12.501 -35s-5.5 -25.667 -5.5 -39c0 -19.333 5.5 -33.666 16.5 -42.999s26.167 -14 45.5 -14c14 0 30 4.5 48 13.5s36.333 20.333 55 34s37 28.667 55 45s34 32.166 48 47.499l8 -6c-14.667 -16 -31.167 -32.5 -49.5 -49.5
s-37.166 -32.5 -56.499 -46.5s-38.333 -25.5 -57 -34.5s-35.667 -13.5 -51 -13.5c-22 0 -39.5 5.5 -52.5 16.5s-19.5 27.833 -19.5 50.5c0 14 2.16699 27.833 6.5 41.5s8.5 25.167 12.5 34.5zM342 171.001c-4 -10 -6.66504 -20.167 -7.99805 -30.5
s-1.5 -24.666 -0.5 -42.999s4.83301 -38.166 11.5 -59.499l-10 -3c-7.33301 24 -11.333 44.667 -12 62s-0.333984 31.666 0.999023 42.999s4.66602 23.666 9.99902 36.999zM154.002 357.001c1.33301 -6 5.5 -11 12.5 -15s13.167 -6 18.5 -6v-10
c-7.33301 0 -15.5 2.83301 -24.5 8.5s-14.5 12.5 -16.5 20.5zM238.002 374.001c15.333 0 28.668 -6.66699 40.001 -20l-8 -6c-8.66699 10.667 -19.334 16 -32.001 16v10z" />
    <glyph glyph-name="yacute" unicode="&#xfd;" horiz-adv-x="552" 
d="M84 168c-7.33301 -18 -12.8271 -33 -16.4941 -45s-6.33398 -23.667 -8.00098 -35s-1.5 -21 0.5 -29c2 -10 9.66699 -12.667 23 -8c11.333 4.66699 23.5 12.167 36.5 22.5l41.5 34.5c21.333 18.667 42.833 36 64.5 52s43.5 24 65.5 24c20.667 0 38 -6.66699 52 -20
s25 -29.333 33 -48s13.667 -38.167 17 -58.5s5 -37.5 5 -51.5c0 -9.33301 -0.833008 -22.166 -2.5 -38.499s-5.33398 -33.833 -11.001 -52.5s-13.667 -37.834 -24 -57.501s-24 -37.334 -41 -53.001s-38 -28.5 -63 -38.5s-54.5 -15 -88.5 -15s-58.5 9 -73.5 27
s-22.5 41 -22.5 69c0 30.667 14.333 62.834 43 96.501s68.167 65.834 118.5 96.501s109.666 58.167 177.999 82.5s142.5 40.166 222.5 47.499l2 -10c-78.667 -7.33301 -151.834 -22.833 -219.501 -46.5s-126.167 -50.334 -175.5 -80.001s-88.166 -60.834 -116.499 -93.501
s-42.5 -63.667 -42.5 -93c0 -23.333 6.83301 -43.5 20.5 -60.5s35.5 -25.5 65.5 -25.5c32.667 0 61 4.83301 85 14.5s44 22 60 37s29 31.833 39 50.5s17.667 37.167 23 55.5s8.83301 35.166 10.5 50.499s2.5 27.666 2.5 36.999c0 13.333 -1.5 29.5 -4.5 48.5
s-8.16699 37.333 -15.5 55s-17.333 32.834 -30 45.501s-28.334 19 -47.001 19c-20 0 -40.667 -7.83301 -62 -23.5s-42 -32.5 -62 -50.5c-14.667 -13.333 -28.834 -25.5 -42.501 -36.5s-27.167 -18.833 -40.5 -23.5c-7.33301 -2.66699 -14.333 -3 -21 -1s-11 7.66699 -13 17
c-2 8.66699 -2.33301 18.334 -1 29.001s3.66602 21.834 6.99902 33.501s9.33301 28.834 18 51.501zM188.006 311c10.667 6 23 13.5 37 22.5l43.5 29l45.5 31.5l44 31l6 -8l-86 -60c-31.333 -21.333 -60 -39.333 -86 -54z" />
    <glyph glyph-name="thorn" unicode="&#xfe;" horiz-adv-x="343" 
d="M161 474c-6 -22.667 -13.167 -51.834 -21.5 -87.501l-26.5 -116l-28.5 -128.5l-27.5 -125.5l-23 -107.5c-6.66699 -32 -11.667 -56.667 -15 -74l-10 2c3.33301 17.333 8.33301 42 15 74l23 107.5l27.5 125.5l28.5 128.5l26.5 116c8.33301 35.667 15.5 64.834 21.5 87.501
zM10 -152c8 25.333 17.832 52.498 29.499 81.498s24.667 57.5 39 85.5s29.833 54.833 46.5 80.5s33.667 48.167 51 67.5s35 34.833 53 46.5s35.667 17.5 53 17.5c24 0 36 -15.667 36 -47c0 -8 -3 -16.667 -9 -26s-14.167 -18 -24.5 -26s-22.166 -14.5 -35.499 -19.5
s-27 -6.83301 -41 -5.5v10c12.667 -1.33301 25 0.166992 37 4.5s22.667 10 32 17s16.833 14.667 22.5 23s8.5 15.833 8.5 22.5c0 24.667 -8.66699 37 -26 37c-16.667 0 -33.5 -5.66699 -50.5 -17s-33.833 -26.666 -50.5 -45.999s-33 -41.5 -49 -66.5s-31 -51.333 -45 -79
s-26.667 -55.667 -38 -84s-21 -55.166 -29 -80.499z" />
    <glyph glyph-name="ydieresis" unicode="&#xff;" horiz-adv-x="552" 
d="M84 168c-7.33301 -18 -12.8271 -33 -16.4941 -45s-6.33398 -23.667 -8.00098 -35s-1.5 -21 0.5 -29c2 -10 9.66699 -12.667 23 -8c11.333 4.66699 23.5 12.167 36.5 22.5l41.5 34.5c21.333 18.667 42.833 36 64.5 52s43.5 24 65.5 24c20.667 0 38 -6.66699 52 -20
s25 -29.333 33 -48s13.667 -38.167 17 -58.5s5 -37.5 5 -51.5c0 -9.33301 -0.833008 -22.166 -2.5 -38.499s-5.33398 -33.833 -11.001 -52.5s-13.667 -37.834 -24 -57.501s-24 -37.334 -41 -53.001s-38 -28.5 -63 -38.5s-54.5 -15 -88.5 -15s-58.5 9 -73.5 27
s-22.5 41 -22.5 69c0 30.667 14.333 62.834 43 96.501s68.167 65.834 118.5 96.501s109.666 58.167 177.999 82.5s142.5 40.166 222.5 47.499l2 -10c-78.667 -7.33301 -151.834 -22.833 -219.501 -46.5s-126.167 -50.334 -175.5 -80.001s-88.166 -60.834 -116.499 -93.501
s-42.5 -63.667 -42.5 -93c0 -23.333 6.83301 -43.5 20.5 -60.5s35.5 -25.5 65.5 -25.5c32.667 0 61 4.83301 85 14.5s44 22 60 37s29 31.833 39 50.5s17.667 37.167 23 55.5s8.83301 35.166 10.5 50.499s2.5 27.666 2.5 36.999c0 13.333 -1.5 29.5 -4.5 48.5
s-8.16699 37.333 -15.5 55s-17.333 32.834 -30 45.501s-28.334 19 -47.001 19c-20 0 -40.667 -7.83301 -62 -23.5s-42 -32.5 -62 -50.5c-14.667 -13.333 -28.834 -25.5 -42.501 -36.5s-27.167 -18.833 -40.5 -23.5c-7.33301 -2.66699 -14.333 -3 -21 -1s-11 7.66699 -13 17
c-2 8.66699 -2.33301 18.334 -1 29.001s3.66602 21.834 6.99902 33.501s9.33301 28.834 18 51.501zM150.006 337c1.33301 -6 5.5 -11 12.5 -15s13.167 -6 18.5 -6v-10c-7.33301 0 -15.5 2.83301 -24.5 8.5s-14.5 12.5 -16.5 20.5zM234.006 354
c15.333 0 28.668 -6.66699 40.001 -20l-8 -6c-8.66699 10.667 -19.334 16 -32.001 16v10z" />
    <glyph glyph-name="Ohungarumlaut" unicode="&#x150;" horiz-adv-x="833" 
d="M717 479c-20.667 11.333 -43.8311 20.1689 -69.498 26.502s-56.5 9.5 -92.5 9.5c-34 0 -69.833 -4.83301 -107.5 -14.5s-74.667 -23 -111 -40s-71 -37 -104 -60s-62.167 -47.5 -87.5 -73.5s-45.333 -52.833 -60 -80.5s-22 -55.167 -22 -82.5c0 -28 7.16699 -51 21.5 -69
s33.333 -32.333 57 -43s50.667 -18 81 -22s61.166 -6 92.499 -6c36.667 0 74.5 2.66699 113.5 8s76.833 13.166 113.5 23.499s71.167 23.166 103.5 38.499s60.666 33.166 84.999 53.499s43.666 43.166 57.999 68.499s21.5 53.333 21.5 84c0 34.667 -8.5 63 -25.5 85
s-37.833 39.333 -62.5 52s-50.834 21.334 -78.501 26.001s-52.167 7 -73.5 7v10c22.667 0 48.334 -2.5 77.001 -7.5s55.834 -14.167 81.501 -27.5s47.334 -31.666 65.001 -54.999s26.5 -53.333 26.5 -90c0 -31.333 -7.33301 -60.166 -22 -86.499s-34.334 -50 -59.001 -71
s-53.667 -39.667 -87 -56s-68.666 -29.833 -105.999 -40.5s-75.833 -18.667 -115.5 -24s-78.167 -8 -115.5 -8c-32.667 0 -64.667 2.16699 -96 6.5s-59.333 12.166 -84 23.499s-44.5 26.666 -59.5 45.999s-22.5 44 -22.5 74c0 28 7.5 56.333 22.5 85
s35.333 56.334 61 83.001s55.334 51.667 89.001 75s69.167 43.833 106.5 61.5s75.166 31.5 113.499 41.5s74.833 15 109.5 15c36.667 0 68.167 -3.33301 94.5 -10s50.166 -16 71.499 -28zM404.003 564.003c4 6 10.333 14 19 24l27 30.5l27.5 29.5l20.5 21l6 -8l-20 -20.5
l-27 -29l-26.5 -30c-8.33301 -9.66699 -14.5 -17.5 -18.5 -23.5zM454.003 563.003l29.001 30.5l40 40l40 38.5l29 27l6 -8l-28.5 -27l-39 -38l-39.5 -39c-12.667 -12.667 -22.334 -22.667 -29.001 -30z" />
    <glyph glyph-name="ohungarumlaut" unicode="&#x151;" horiz-adv-x="352" 
d="M84 167c-4 -16.667 -3.99805 -37.332 0.00195312 -61.999c5.33301 -22.667 16.333 -40.5 33 -53.5s34.667 -19.5 54 -19.5c10.667 0 13.667 6.66699 9 20c-2 7.33301 -6 15.833 -12 25.5s-12.833 19 -20.5 28s-15.334 17.167 -23.001 24.5s-14.5 12.666 -20.5 15.999l4 8
c6.66699 -3.33301 14.5 -9.16602 23.5 -17.499s17.833 -17.833 26.5 -28.5s16.167 -21.5 22.5 -32.5s10.166 -20.833 11.499 -29.5c1.33301 -7.33301 0.5 -13.166 -2.5 -17.499s-9.16699 -6.5 -18.5 -6.5c-21.333 0 -41.333 7.16699 -60 21.5s-31 34.166 -37 59.499
c-4 25.333 -4 47.666 0 66.999zM439.002 162.002c-28.667 -9.33301 -61 -16.333 -97 -21s-72.333 -7 -109 -7c-21.333 0 -43.5 1 -66.5 3s-43.833 5 -62.5 9l4 8c18.667 -4 39 -6.66699 61 -8s43.333 -2 64 -2c36 0 71.5 2.33301 106.5 7s66.833 11.667 95.5 21z
M79.002 262.002c4 6 10.333 14 19 24l27 30.5l27.5 29.5l20.5 21l6 -8l-20 -20.5l-27 -29l-26.5 -30c-8.33301 -9.66699 -14.5 -17.5 -18.5 -23.5zM129.002 261.002l29.001 30.5l40 40l40 38.5l29 27l6 -8l-28.5 -27l-39 -38l-39.5 -39
c-12.667 -12.667 -22.334 -22.667 -29.001 -30z" />
    <glyph glyph-name="OE" unicode="&#x152;" horiz-adv-x="1030" 
d="M738 453c34 5.33301 70.668 9.5 110.001 12.5s79 4.5 119 4.5c31.333 0 61.666 -0.833008 90.999 -2.5s57 -4.16699 83 -7.5l-2 -10c-26 3.33301 -53.667 5.83301 -83 7.5s-59 2.5 -89 2.5c-39.333 0 -78.5 -1.5 -117.5 -4.5s-75.5 -7.16699 -109.5 -12.5zM747.001 235
c17.333 0 35.833 0.333008 55.5 1s39.167 1.5 58.5 2.5l56 3c18 1 34 2.16699 48 3.5v-10c-14 -1.33301 -30 -2.5 -48 -3.5l-56 -3c-19.333 -1 -38.833 -1.83301 -58.5 -2.5s-38.167 -1 -55.5 -1v10zM479.001 34c28 0.666992 62.833 1.83398 104.5 3.50098s85.167 4 130.5 7
s90 6.83301 134 11.5s82 10 114 16l2 -10c-32 -6 -70 -11.333 -114 -16s-88.833 -8.5 -134.5 -11.5s-89.5 -5.33301 -131.5 -7s-77 -2.83398 -105 -3.50098v10zM741.001 479c-20.667 11.333 -43.8311 20.1689 -69.498 26.502s-56.5 9.5 -92.5 9.5
c-34 0 -69.833 -4.83301 -107.5 -14.5s-74.667 -23 -111 -40s-71 -37 -104 -60s-62.167 -47.5 -87.5 -73.5s-45.333 -52.833 -60 -80.5s-22 -55.167 -22 -82.5c0 -28 7.16699 -51 21.5 -69s33.333 -32.333 57 -43s50.667 -18 81 -22s61.166 -6 92.499 -6
c36.667 0 74.5 2.66699 113.5 8s76.833 13.166 113.5 23.499s71.167 23.166 103.5 38.499s60.666 33.166 84.999 53.499s43.666 43.166 57.999 68.499s21.5 53.333 21.5 84c0 34.667 -8.5 63 -25.5 85s-37.833 39.333 -62.5 52s-50.834 21.334 -78.501 26.001
s-52.167 7 -73.5 7v10c22.667 0 48.334 -2.5 77.001 -7.5s55.834 -14.167 81.501 -27.5s47.334 -31.666 65.001 -54.999s26.5 -53.333 26.5 -90c0 -31.333 -7.33301 -60.166 -22 -86.499s-34.334 -50 -59.001 -71s-53.667 -39.667 -87 -56s-68.666 -29.833 -105.999 -40.5
s-75.833 -18.667 -115.5 -24s-78.167 -8 -115.5 -8c-32.667 0 -64.667 2.16699 -96 6.5s-59.333 12.166 -84 23.499s-44.5 26.666 -59.5 45.999s-22.5 44 -22.5 74c0 28 7.5 56.333 22.5 85s35.333 56.334 61 83.001s55.334 51.667 89.001 75s69.167 43.833 106.5 61.5
s75.166 31.5 113.499 41.5s74.833 15 109.5 15c36.667 0 68.167 -3.33301 94.5 -10s50.166 -16 71.499 -28z" />
    <glyph glyph-name="oe" unicode="&#x153;" horiz-adv-x="580" 
d="M248 134c-2 -8.66699 -2.66211 -17.3311 -1.99512 -25.998c-0.666992 -46.667 29.666 -71.667 90.999 -75c94 0.666992 201.333 46 322 136l6 -8c-120.667 -92 -230 -138 -328 -138c-68 1.33301 -102 29.666 -102 84.999c0 8.66699 1 17.334 3 26.001h-5
c-21.333 0 -43.666 1 -66.999 3c-14.667 1.33301 -28.334 3 -41.001 5l6 -6c9.33301 -8 18.333 -17.333 27 -28s16.167 -21.5 22.5 -32.5s10.166 -20.833 11.499 -29.5c1.33301 -7.33301 0.5 -13.166 -2.5 -17.499s-9.16699 -6.5 -18.5 -6.5
c-21.333 0 -41.333 7.16699 -60 21.5s-31 34.166 -37 59.499c-4 25.333 -4 47.666 0 66.999l10 -3c-4 -16.667 -4 -37.334 0 -62.001c5.33301 -22.667 16.333 -40.5 33 -53.5s34.667 -19.5 54 -19.5c10.667 0 13.667 6.66699 9 20c-2 7.33301 -6 15.833 -12 25.5
s-12.833 19 -20.5 28s-15.334 17.167 -23.001 24.5s-14.5 12.666 -20.5 15.999l4 8c18.667 -4 39 -6.66699 61 -8s43.333 -2 64 -2h8c1.33301 4 2.66602 7.66699 3.99902 11c7.33301 15.333 15.5 27.333 24.5 36s18 14.834 27 18.501s15.5 5.5 19.5 5.5
c11.333 0 20.666 -2 27.999 -6s11 -10.833 11 -20.5s-7.33301 -21 -22 -34s-43 -19.833 -85 -20.5zM345.005 187.003c-0.666992 8 -3.5 13 -8.5 15s-11.833 3 -20.5 3c-3.33301 0 -9 -1.66699 -17 -5s-16 -9 -24 -17s-15 -19 -21 -33c-1.33301 -2 -2.33301 -4 -3 -6
c54 -2 85.333 12.333 94 43z" />
    <glyph glyph-name="Scaron" unicode="&#x160;" horiz-adv-x="691" 
d="M420 157l47 4.99902c-11.333 12 -26.166 22.667 -44.499 32s-38 17.5 -59 24.5s-41.833 12.333 -62.5 16s-39 5.5 -55 5.5c-19.333 0 -38.5 -1.66699 -57.5 -5s-36 -8.66602 -51 -15.999s-27.333 -16.833 -37 -28.5s-14.5 -25.5 -14.5 -41.5c0 -29.333 10.333 -55 31 -77
s46.5 -40.667 77.5 -56s64.833 -26.833 101.5 -34.5s71 -11.5 103 -11.5c24.667 0 51.167 3.16699 79.5 9.5s54.5 15.833 78.5 28.5s44 28 60 46s24 38.667 24 62c0 26.667 -6.16699 53.667 -18.5 81s-28 54.5 -47 81.5s-40 53 -63 78l-65.5 69.5
c-24.667 25.333 -45.334 48 -62.001 68s-25 35.667 -25 47c0 21.333 14 32 42 32c24.667 0 48.834 -5.5 72.501 -16.5s46.167 -24.833 67.5 -41.5s40.833 -34.334 58.5 -53.001s32.5 -36 44.5 -52l-8 -6c-12 15.333 -26.5 32.166 -43.5 50.499s-35.833 35.5 -56.5 51.5
s-42.5 29.5 -65.5 40.5s-46.167 16.5 -69.5 16.5c-21.333 0 -32 -7.33301 -32 -22c0 -9.33301 8.16699 -23.5 24.5 -42.5s36.5 -41.167 60.5 -66.5l66 -71c23.333 -25.333 44.5 -51.5 63.5 -78.5s34.833 -54.667 47.5 -83s19 -56.166 19 -83.499
c0 -24.667 -8.33301 -46.667 -25 -66s-37.5 -35.666 -62.5 -48.999s-52.167 -23.5 -81.5 -30.5s-57 -10.5 -83 -10.5c-33.333 0 -68.833 4.16699 -106.5 12.5s-72.5 20.5 -104.5 36.5s-58.667 35.667 -80 59s-32 50.333 -32 81c0 18 5.16699 33.333 15.5 46
s23.666 23 39.999 31s34.5 13.667 54.5 17s40 5 60 5c19.333 0 40.5 -2 63.5 -6s45.5 -10 67.5 -18s42.5 -17.667 61.5 -29s34.167 -24.333 45.5 -39l-62 -8zM378 731.999l18.0029 -17.9971c7.33301 -7.33301 15.166 -14.5 23.499 -21.5l24.5 -20
c8 -6.33301 15 -10.833 21 -13.5l-4 -8c-6 3.33301 -13.333 8.16602 -22 14.499s-17.334 13.166 -26.001 20.499s-16.834 14.666 -24.501 21.999l-18.5 18zM589.003 761.002c-5.33301 -6 -13.667 -14.167 -25 -24.5l-36.5 -32l-38 -31.5l-28.5 -23l-6 8l28.5 23l37.5 31
l35.5 31c11 10 19.167 18 24.5 24z" />
    <glyph glyph-name="scaron" unicode="&#x161;" horiz-adv-x="207" 
d="M119 232c-8 0 -14.999 -1.33594 -20.999 -4.00293c-5.33301 -2 -10.166 -5.5 -14.499 -10.5s-6.5 -11.833 -6.5 -20.5c0 -17.333 13.833 -47 41.5 -89s41.5 -73.667 41.5 -95c0 -7.33301 -2.83301 -13 -8.5 -17s-15.5 -5.33301 -29.5 -4
c-8 0.666992 -16.667 2.33398 -26 5.00098s-18.333 5.83398 -27 9.50098s-16.167 7.16699 -22.5 10.5s-13.833 8 -22.5 14l6 8c13.333 -8.66699 28.166 -16.667 44.499 -24s32.166 -11.666 47.499 -12.999c18.667 -0.666992 28 3 28 11c0 18 -13.833 48.333 -41.5 91
s-41.5 73.667 -41.5 93c0 11.333 2.66699 19.833 8 25.5s11.333 10.167 18 13.5c7.33301 3.33301 16 5.33301 26 6v-10zM3.00098 377.997l18.0029 -17.9971c7.33301 -7.33301 15.166 -14.5 23.499 -21.5l24.5 -20c8 -6.33301 15 -10.833 21 -13.5l-4 -8
c-6 3.33301 -13.333 8.16602 -22 14.499s-17.334 13.166 -26.001 20.499s-16.834 14.666 -24.501 21.999l-18.5 18zM214.004 407c-5.33301 -6 -13.667 -14.167 -25 -24.5l-36.5 -32l-38 -31.5l-28.5 -23l-6 8l28.5 23l37.5 31l35.5 31c11 10 19.167 18 24.5 24z" />
    <glyph glyph-name="Uhungarumlaut" unicode="&#x170;" horiz-adv-x="808" 
d="M402 600c4 6 10.333 14 19 24l27 30.5l27.5 29.5l20.5 21l6 -8l-20 -20.5l-27 -29l-26.5 -30c-8.33301 -9.66699 -14.5 -17.5 -18.5 -23.5zM452 599l29.001 30.5l40 40l40 38.5l29 27l6 -8l-28.5 -27l-39 -38l-39.5 -39c-12.667 -12.667 -22.334 -22.667 -29.001 -30z
M299.001 588c-24.667 -26.667 -50.165 -59.167 -76.498 -97.5s-50.333 -78.666 -72 -120.999s-39.5 -84.833 -53.5 -127.5s-21 -82 -21 -118c0 -23.333 3.33301 -42.166 10 -56.499s14.667 -25.333 24 -33s19 -12.834 29 -15.501s18.333 -4 25 -4
c37.333 0 75.666 9.16699 114.999 27.5s78.5 42.666 117.5 72.999s77 65.5 114 105.5s71.833 81.667 104.5 125s62.667 86.833 90 130.5s50.333 84.834 69 123.501l8 -4c-18.667 -38.667 -41.834 -80.167 -69.501 -124.5s-58.167 -88.333 -91.5 -132
s-68.833 -85.667 -106.5 -126s-76.167 -76 -115.5 -107s-79 -55.667 -119 -74s-78.667 -27.5 -116 -27.5c-8 0 -17.5 1.5 -28.5 4.5s-21.667 8.66699 -32 17s-19.166 20.333 -26.499 36s-11 36.167 -11 61.5c0 36.667 7 76.667 21 120s32 86.5 54 129.5
s46.167 83.667 72.5 122s52.166 71.166 77.499 98.499zM776.003 584c-50 -92.667 -88.6699 -175.002 -116.003 -247.002s-41 -127.333 -41 -166c0 -20.667 7 -38.834 21 -54.501s32.667 -23.5 56 -23.5c14.667 0 30.334 2.33301 47.001 7s33.334 10.5 50.001 17.5
s32.834 15 48.501 24s29.834 18.167 42.501 27.5l6 -8c-13.333 -9.33301 -28 -18.666 -44 -27.999s-32.667 -17.666 -50 -24.999s-34.666 -13.333 -51.999 -18s-33.333 -7 -48 -7c-26.667 0 -47.834 8.83301 -63.501 26.5s-23.5 38.167 -23.5 61.5
c0 38.667 13.667 94.334 41 167.001s66.666 156 117.999 250z" />
    <glyph glyph-name="uhungarumlaut" unicode="&#x171;" horiz-adv-x="371" 
d="M165 283c4 6 10.333 14 19 24l27 30.5l27.5 29.5l20.5 21l6 -8l-20 -20.5l-27 -29l-26.5 -30c-8.33301 -9.66699 -14.5 -17.5 -18.5 -23.5zM215 282l29.001 30.5l40 40l40 38.5l29 27l6 -8l-28.5 -27l-39 -38l-39.5 -39c-12.667 -12.667 -22.334 -22.667 -29.001 -30z
M90.001 168c-4.66699 -10.667 -8.83398 -22.333 -12.501 -35s-5.5 -25.667 -5.5 -39c0 -19.333 5.5 -33.666 16.5 -42.999s26.167 -14 45.5 -14c14 0 30 4.5 48 13.5s36.333 20.333 55 34s37 28.667 55 45s34 32.166 48 47.499l8 -6c-14.667 -16 -31.167 -32.5 -49.5 -49.5
s-37.166 -32.5 -56.499 -46.5s-38.333 -25.5 -57 -34.5s-35.667 -13.5 -51 -13.5c-22 0 -39.5 5.5 -52.5 16.5s-19.5 27.833 -19.5 50.5c0 14 2.16699 27.833 6.5 41.5s8.5 25.167 12.5 34.5zM348.001 171.001c-4 -10 -6.66504 -20.167 -7.99805 -30.5
s-1.5 -24.666 -0.5 -42.999s4.83301 -38.166 11.5 -59.499l-10 -3c-7.33301 24 -11.333 44.667 -12 62s-0.333984 31.666 0.999023 42.999s4.66602 23.666 9.99902 36.999z" />
    <glyph glyph-name="Ydieresis" unicode="&#x178;" horiz-adv-x="630" 
d="M-77 718c-22 -41.333 -33.0029 -88.666 -33.0029 -141.999c0 -36.667 6.83301 -73 20.5 -109s33.5 -68.5 59.5 -97.5s58.167 -52.5 96.5 -70.5s82.5 -27 132.5 -27c46.667 0 89.334 6.16699 128.001 18.5s75 29.833 109 52.5s66.667 50.167 98 82.5s63 68.833 95 109.5
l8 -7c-39.333 -48 -76.5 -88.833 -111.5 -122.5s-69.667 -61.167 -104 -82.5s-69.666 -36.833 -105.999 -46.5s-75.166 -14.5 -116.499 -14.5c-51.333 0 -96.833 9.33301 -136.5 28s-73 43 -100 73s-47.5 63.667 -61.5 101s-21 74.666 -21 111.999
c0 26 2.83301 51.5 8.5 76.5s14.5 48.167 26.5 69.5zM636.997 527c-10 -35.333 -22.333 -74.1689 -37 -116.502s-30.334 -85.166 -47.001 -128.499s-33.834 -85.5 -51.501 -126.5s-34.5 -77.5 -50.5 -109.5l-8 4c15.333 30.667 31.5 66.334 48.5 107.001l50.5 125.5
c16.667 43 32.334 85.833 47.001 128.5s27.334 82 38.001 118zM257.997 823.997c1.33301 -6 5.5 -11 12.5 -15s13.167 -6 18.5 -6v-10c-7.33301 0 -15.5 2.83301 -24.5 8.5s-14.5 12.5 -16.5 20.5zM341.997 840.997c15.333 0 28.668 -6.66699 40.001 -20l-8 -6
c-8.66699 10.667 -19.334 16 -32.001 16v10z" />
    <glyph glyph-name="Zcaron" unicode="&#x17d;" horiz-adv-x="1000" 
d="M189 558c4 0 7.99902 0.166992 11.999 0.5s8 0.5 12 0.5c28 0.666992 58.833 1.33398 92.5 2.00098s68.167 1 103.5 1c44 0 86.833 -0.833008 128.5 -2.5s77.5 -4.83398 107.5 -9.50098l-2 -10c-30 4.66699 -65.667 7.83398 -107 9.50098s-83.666 2.5 -126.999 2.5
c-35.333 0 -69.833 -0.333008 -103.5 -1s-64.5 -1.33398 -92.5 -2.00098c-4 0 -8 -0.166992 -12 -0.5s-8 -0.5 -12 -0.5v10zM642.999 540c-20.667 -8.66699 -49.1689 -21.501 -85.502 -38.501s-75.666 -37 -117.999 -60s-85.5 -48.5 -129.5 -76.5
s-83.667 -57.167 -119 -87.5s-64.333 -61.5 -87 -93.5s-34 -63.333 -34 -94c0 -21.333 4.5 -39.666 13.5 -54.999s21.167 -28 36.5 -38s33.333 -17.333 54 -22s43 -7 67 -7c21.333 0 48.5 0.666992 81.5 2s70.667 4.33301 113 9s88.5 11.5 138.5 20.5
s102.5 20.833 157.5 35.5s111.833 32.834 170.5 54.501s117.667 47.834 177 78.501l4 -8c-90 -46 -178.667 -82.5 -266 -109.5s-168.333 -47.333 -243 -61s-140.834 -22.334 -198.501 -26.001s-102.5 -5.5 -134.5 -5.5c-25.333 0 -49 2.5 -71 7.5s-41.167 12.833 -57.5 23.5
s-29.166 24.334 -38.499 41.001s-14 36.667 -14 60c0 32 11.333 64.333 34 97s52 64.5 88 95.5s76.167 60.667 120.5 89s87.833 54.166 130.5 77.499s82.334 43.666 119.001 60.999s65.667 30.333 87 39zM369.997 755.999l18.0029 -17.9971
c7.33301 -7.33301 15.166 -14.5 23.499 -21.5l24.5 -20c8 -6.33301 15 -10.833 21 -13.5l-4 -8c-6 3.33301 -13.333 8.16602 -22 14.499s-17.334 13.166 -26.001 20.499s-16.834 14.666 -24.501 21.999l-18.5 18zM581 785.002c-5.33301 -6 -13.667 -14.167 -25 -24.5
l-36.5 -32l-38 -31.5l-28.5 -23l-6 8l28.5 23l37.5 31l35.5 31c11 10 19.167 18 24.5 24z" />
    <glyph glyph-name="zcaron" unicode="&#x17e;" horiz-adv-x="380" 
d="M142 219c11.333 2 23.665 3.1709 36.998 3.50391s25.833 -0.333984 37.5 -2.00098s21.334 -4.33398 29.001 -8.00098s11.5 -8.83398 11.5 -15.501c0 -6 -4.33301 -13 -13 -21s-24 -19 -46 -33l-57 -36l-56 -36c-21.333 -14 -32 -23 -32 -27
c0 -3.33301 3.66699 -5.33301 11 -6s16 -1 26 -1c15.333 0 34.666 1.83301 57.999 5.5s50.333 10.5 81 20.5s65 23.667 103 41s80 39.666 126 66.999l6 -8c-46.667 -27.333 -89.5 -49.833 -128.5 -67.5s-74.167 -31.5 -105.5 -41.5s-58.666 -17 -81.999 -21
s-42.666 -6 -57.999 -6c-13.333 0 -24.833 1 -34.5 3s-14.5 6.66699 -14.5 14c0 4.66699 10.833 14.667 32.5 30s40.667 28 57 38l57.5 36c22 14 37.333 24.667 46 32s13 13.333 13 18c0 4 -3.83301 7.16699 -11.5 9.5s-17 3.83301 -28 4.5s-21 1 -30 1s-20.5 -1 -34.5 -3z
M89.999 378.004l18.0029 -17.9971c7.33301 -7.33301 15.166 -14.5 23.499 -21.5l24.5 -20c8 -6.33301 15 -10.833 21 -13.5l-4 -8c-6 3.33301 -13.333 8.16602 -22 14.499s-17.334 13.166 -26.001 20.499s-16.834 14.666 -24.501 21.999l-18.5 18zM301.002 407.007
c-5.33301 -6 -13.667 -14.167 -25 -24.5l-36.5 -32l-38 -31.5l-28.5 -23l-6 8l28.5 23l37.5 31l35.5 31c11 10 19.167 18 24.5 24z" />
    <glyph glyph-name="circumflex" unicode="&#x2c6;" horiz-adv-x="268" 
d="M119 302c13.333 4 29.3311 10.168 47.998 18.501s36.334 15.833 53.001 22.5c6 -7.33301 13.5 -16 22.5 -26s18.167 -18.667 27.5 -26l-6 -8c-9.33301 6.66699 -18.166 14.167 -26.499 22.5s-15.5 16.166 -21.5 23.499c-14.667 -6.66699 -30.667 -13.5 -48 -20.5
s-32.333 -12.5 -45 -16.5z" />
    <glyph glyph-name="caron" unicode="&#x2c7;" horiz-adv-x="389" 
d="M97 378l18.0029 -17.9971c7.33301 -7.33301 15.166 -14.5 23.499 -21.5l24.5 -20c8 -6.33301 15 -10.833 21 -13.5l-4 -8c-6 3.33301 -13.333 8.16602 -22 14.499s-17.334 13.166 -26.001 20.499s-16.834 14.666 -24.501 21.999l-18.5 18zM308.003 407.003
c-5.33301 -6 -13.667 -14.167 -25 -24.5l-36.5 -32l-38 -31.5l-28.5 -23l-6 8l28.5 23l37.5 31l35.5 31c11 10 19.167 18 24.5 24z" />
    <glyph glyph-name="breve" unicode="&#x2d8;" horiz-adv-x="346" 
d="M126 408c-2 -6.66699 -3 -14.334 -3 -23.001s1.5 -17.167 4.5 -25.5s7.66699 -16 14 -23s14.5 -11.833 24.5 -14.5s19.833 -2.66699 29.5 0s18.5 6.83398 26.5 12.501s14.5 12.5 19.5 20.5s8.16699 15.667 9.5 23l10 -2c-1.33301 -8 -5 -16.333 -11 -25
s-13.5 -16.334 -22.5 -23.001s-19 -11.667 -30 -15s-22.167 -3.66602 -33.5 -0.999023c-11.333 3.33301 -20.833 9 -28.5 17s-13.334 17 -17.001 27s-5.66699 20 -6 30s0.833984 18.667 3.50098 26z" />
    <glyph glyph-name="dotaccent" unicode="&#x2d9;" horiz-adv-x="270" 
d="M182 403c0 -4.66699 1.83301 -9.33301 5.5 -14s10.167 -7 19.5 -7v-10c-12.667 0 -21.667 3.5 -27 10.5s-8 13.833 -8 20.5h10z" />
    <glyph glyph-name="ring" unicode="&#x2da;" horiz-adv-x="308" 
d="M209 426c0 8.66699 -2.66797 16.334 -8.00098 23.001s-12 10 -20 10c-11.333 0 -22.833 -4.16699 -34.5 -12.5s-17.5 -21.5 -17.5 -39.5c0 -10.667 3.83301 -17.834 11.5 -21.501s14.834 -5.16699 21.501 -4.5c11.333 0.666992 22 4.66699 32 12s15 18.333 15 33z
M218.999 426c0 -17.333 -6.16797 -30.668 -18.501 -40.001s-25.166 -14.333 -38.499 -15c-8.66699 -0.666992 -18 1.5 -28 6.5s-15 14.833 -15 29.5c0 10.667 2 19.834 6 27.501s9 14 15 19s12.667 8.83301 20 11.5s14.333 4 21 4c11.333 0 20.5 -4.33301 27.5 -13
s10.5 -18.667 10.5 -30z" />
    <glyph glyph-name="tilde" unicode="&#x2dc;" horiz-adv-x="377" 
d="M69 272c6.66699 11.333 17.001 22.334 31.001 33.001s27.333 16 40 16c9.33301 0 17 -3 23 -9s11.667 -12.667 17 -20c5.33301 -6.66699 10.666 -12.834 15.999 -18.501s12 -8.5 20 -8.5c16.667 0 30.5 4 41.5 12s21.167 18 30.5 30l8 -6
c-10 -13.333 -21.167 -24.333 -33.5 -33s-27.833 -13 -46.5 -13c-10.667 0 -19.167 3.33301 -25.5 10s-12.5 13.667 -18.5 21c-4.66699 6.66699 -9.5 12.5 -14.5 17.5s-10.833 7.5 -17.5 7.5c-11.333 0 -23.333 -4.66699 -36 -14s-21.667 -19 -27 -29z" />
    <glyph glyph-name="hungarumlaut" unicode="&#x2dd;" horiz-adv-x="366" 
d="M83 262c4 6 10.333 14 19 24l27 30.5l27.5 29.5l20.5 21l6 -8l-20 -20.5l-27 -29l-26.5 -30c-8.33301 -9.66699 -14.5 -17.5 -18.5 -23.5zM133 261l29.001 30.5l40 40l40 38.5l29 27l6 -8l-28.5 -27l-39 -38l-39.5 -39c-12.667 -12.667 -22.334 -22.667 -29.001 -30z" />
    <glyph glyph-name="endash" unicode="&#x2013;" horiz-adv-x="576" 
d="M110 258c7.33301 0 15.833 0.166992 25.5 0.5s20.167 0.833008 31.5 1.5c30 1.33301 63 2.66602 99 3.99902s68.333 2 97 2h22.5c7 0 13.5 -0.333008 19.5 -1v-10c-6 0.666992 -12.5 1 -19.5 1h-22.5c-28.667 0 -61 -0.666992 -97 -2s-69 -2.66602 -99 -3.99902
c-11.333 -0.666992 -21.833 -1.16699 -31.5 -1.5s-18.167 -0.5 -25.5 -0.5v10z" />
    <glyph glyph-name="quoteleft" unicode="&#x2018;" horiz-adv-x="305" 
d="M187 531c-6.66699 1.33301 -15.498 2.66406 -26.498 3.99707s-21.5 2 -31.5 2l2 10c2.66699 10.667 6.5 22.834 11.5 36.501s10.667 27.667 17 42s13 28.5 20 42.5s14.5 27 22.5 39l8 -6c-7.33301 -11.333 -14.333 -23.666 -21 -36.999s-13 -26.833 -19 -40.5
s-11.5 -27 -16.5 -40s-8.83301 -24.833 -11.5 -35.5c7.33301 -0.666992 16.166 -1.66699 26.499 -3s17.166 -2.66602 20.499 -3.99902z" />
    <glyph glyph-name="quoteright" unicode="&#x2019;" horiz-adv-x="305" 
d="M152 707c6.66699 -1.33301 15.498 -2.66699 26.498 -4s21.5 -2 31.5 -2l-2 -10c-3.33301 -10.667 -7.33301 -22.834 -12 -36.501s-10.167 -27.667 -16.5 -42s-13 -28.5 -20 -42.5s-14.5 -27 -22.5 -39l-8 6c7.33301 10.667 14.333 22.834 21 36.501s13 27.334 19 41.001
s11.333 27 16 40s8.66699 24.833 12 35.5c-7.33301 0.666992 -16.166 1.66699 -26.499 3s-17.166 2.66602 -20.499 3.99902z" />
    <glyph glyph-name="quotesinglbase" unicode="&#x201a;" horiz-adv-x="305" 
d="M122 79c6.66699 -1.33301 15.498 -2.66699 26.498 -4s21.5 -2 31.5 -2l-2 -10c-3.33301 -10.667 -7.33301 -22.834 -12 -36.501s-10.167 -27.667 -16.5 -42s-13 -28.5 -20 -42.5s-14.5 -27 -22.5 -39l-8 6c7.33301 10.667 14.333 22.834 21 36.501s13 27.334 19 41.001
s11.333 27 16 40s8.66699 24.833 12 35.5c-7.33301 0.666992 -16.166 1.66699 -26.499 3s-17.166 2.66602 -20.499 3.99902z" />
    <glyph glyph-name="quotedblleft" unicode="&#x201c;" horiz-adv-x="329" 
d="M258 515c-6.66699 1.33301 -15.498 2.66406 -26.498 3.99707s-21.5 2 -31.5 2l2 10c2.66699 10.667 6.5 22.834 11.5 36.501s10.667 27.667 17 42s13 28.5 20 42.5s14.5 27 22.5 39l8 -6c-7.33301 -11.333 -14.333 -23.666 -21 -36.999s-13 -26.833 -19 -40.5
s-11.5 -27 -16.5 -40s-8.83301 -24.833 -11.5 -35.5c7.33301 -0.666992 16.166 -1.66699 26.499 -3s17.166 -2.66602 20.499 -3.99902zM163.002 520.998l-43 -0.000976562l1 11c6 21.333 14.5 47 25.5 77s24.5 58.333 40.5 85l8 -6c-15.333 -28 -28 -55.667 -38 -83
s-18 -51.666 -24 -72.999h15.5c7 0 12.5 -0.333008 16.5 -1z" />
    <glyph glyph-name="quotedblright" unicode="&#x201d;" horiz-adv-x="329" 
d="M143 694c6.66699 -1.33301 15.498 -2.66699 26.498 -4s21.5 -2 31.5 -2l-2 -10c-3.33301 -10.667 -7.33301 -22.834 -12 -36.501s-10.167 -27.667 -16.5 -42s-13 -28.5 -20 -42.5s-14.5 -27 -22.5 -39l-8 6c7.33301 10.667 14.333 22.834 21 36.501s13 27.334 19 41.001
s11.333 27 16 40s8.66699 24.833 12 35.5c-7.33301 0.666992 -16.166 1.66699 -26.499 3s-17.166 2.66602 -20.499 3.99902zM237.998 687.999l43 0.000976562l-1 -11c-6 -21.333 -14.5 -47 -25.5 -77s-24.5 -58.333 -40.5 -85l-8 6c15.333 28 28 55.667 38 83
s18 51.666 24 72.999h-15.5c-7 0 -12.5 0.333008 -16.5 1z" />
    <glyph glyph-name="quotedblbase" unicode="&#x201e;" horiz-adv-x="329" 
d="M122 79c6.66699 -1.33301 15.498 -2.66699 26.498 -4s21.5 -2 31.5 -2l-2 -10c-3.33301 -10.667 -7.33301 -22.834 -12 -36.501s-10.167 -27.667 -16.5 -42s-13 -28.5 -20 -42.5s-14.5 -27 -22.5 -39l-8 6c7.33301 10.667 14.333 22.834 21 36.501s13 27.334 19 41.001
s11.333 27 16 40s8.66699 24.833 12 35.5c-7.33301 0.666992 -16.166 1.66699 -26.499 3s-17.166 2.66602 -20.499 3.99902zM216.998 72.999l43 0.000976562l-1 -11c-6 -21.333 -14.5 -47 -25.5 -77s-24.5 -58.333 -40.5 -85l-8 6c15.333 28 28 55.667 38 83
s18 51.666 24 72.999h-15.5c-7 0 -12.5 0.333008 -16.5 1z" />
    <glyph glyph-name="ellipsis" unicode="&#x2026;" horiz-adv-x="902" 
d="M148 53c-1.33301 -6.66699 -0.166992 -13 3.5 -19s10.167 -9.66699 19.5 -11l-2 -10c-12 1.33301 -20.5 6.33301 -25.5 15s-6.83301 17.667 -5.5 27zM393.999 53c-1.33301 -6.66699 -0.166992 -13 3.5 -19s10.167 -9.66699 19.5 -11l-2 -10
c-12 1.33301 -20.5 6.33301 -25.5 15s-6.83301 17.667 -5.5 27zM639.998 53c-1.33301 -6.66699 -0.166992 -13 3.5 -19s10.167 -9.66699 19.5 -11l-2 -10c-12 1.33301 -20.5 6.33301 -25.5 15s-6.83301 17.667 -5.5 27z" />
    <glyph glyph-name="Euro" unicode="&#x20ac;" horiz-adv-x="389" 
d="M423 393c-12.667 10 -24.833 18.1611 -36.5 24.4941s-28.834 9.5 -51.501 9.5c-18.667 0 -37.5 -5.33301 -56.5 -16s-37.667 -24.667 -56 -42s-35.5 -37.166 -51.5 -59.499s-30 -45.166 -42 -68.499s-21.5 -46.166 -28.5 -68.499s-10.5 -42.166 -10.5 -59.499
c0 -25.333 7.5 -45 22.5 -59s37.833 -21 68.5 -21c32 0 65.5 7.83301 100.5 23.5s73.167 42.5 114.5 80.5l6 -8c-42 -39.333 -81.167 -66.833 -117.5 -82.5s-70.833 -23.5 -103.5 -23.5c-34 0 -59.333 7.83301 -76 23.5s-25 37.834 -25 66.501c0 18 3.66699 38.5 11 61.5
s17.333 46.5 30 70.5s27.334 47.5 44.001 70.5s34.5 43.5 53.5 61.5s38.333 32.5 58 43.5s39.167 16.5 58.5 16.5c24 0 42.333 -3.16699 55 -9.5s25.667 -15.166 39 -26.499zM7.00098 280.994c9.33301 -0.666992 18.833 -1.16699 28.5 -1.5s19.167 -0.5 28.5 -0.5
c28 0 56.5 1.16699 85.5 3.5s59.5 5.5 91.5 9.5l2 -10c-32 -4 -62.5 -7.16699 -91.5 -9.5s-58.167 -3.5 -87.5 -3.5c-9.33301 0 -18.833 0.166992 -28.5 0.5s-19.167 0.833008 -28.5 1.5v10zM11.001 210.994c16 -2 33.334 -3 52.001 -3c21.333 0 45.333 1.33301 72 4
s58 7.33398 94 14.001l2 -10c-36 -6.66699 -67.333 -11.334 -94 -14.001s-51.334 -4 -74.001 -4c-20 0 -38 1 -54 3z" />
    <glyph glyph-name="trademark" unicode="&#x2122;" horiz-adv-x="587" 
d="M515 486c-0.666992 9.33301 -1.16211 20.667 -1.49512 34s-0.833008 26.833 -1.5 40.5s-1.16699 27 -1.5 40s-0.5 23.833 -0.5 32.5c-4 -7.33301 -8.83301 -15.166 -14.5 -23.499s-11.667 -16.333 -18 -24s-13 -14.334 -20 -20.001s-14.167 -9.5 -21.5 -11.5
c-8 -1.33301 -16.333 -0.833008 -25 1.5s-17.334 5.66602 -26.001 9.99902s-16.834 9.33301 -24.501 15s-14.167 10.834 -19.5 15.501c0 -50 4 -102.333 12 -157l-10 -2c-4.66699 26.667 -8 54 -10 82s-3.33301 58.667 -4 92c-18 -2 -39.833 -4.83301 -65.5 -8.5
s-51.834 -8 -78.501 -13l-77 -15c-24.667 -5 -45.334 -9.5 -62.001 -13.5l-2 10c16.667 4 37.667 8.66699 63 14s51.5 10.5 78.5 15.5s53.5 9.5 79.5 13.5s48.333 6.66699 67 8c4 -4.66699 9.83301 -10.667 17.5 -18s16.334 -14.166 26.001 -20.499
s19.667 -11.666 30 -15.999s19.833 -5.5 28.5 -3.5c6.66699 2 13.5 6.16699 20.5 12.5s13.667 13.333 20 21s12.166 15.667 17.499 24s9.66602 15.5 12.999 21.5c1.33301 2.66699 2.5 5.16699 3.5 7.5s2.16699 4.16602 3.5 5.49902l8 -6
c0 -4.66699 0.166992 -13.667 0.5 -27s0.666016 -28.333 0.999023 -45s0.833008 -33.334 1.5 -50.001s1.33398 -30.667 2.00098 -42h-10zM235.005 583.001c4 -13.333 7.83301 -31.166 11.5 -53.499s5.5 -47.5 5.5 -75.5c0 -18.667 -1 -37.334 -3 -56.001l-10 2
c2 18.667 3 36.667 3 54c0 27.333 -1.83301 52 -5.5 74s-7.5 39.667 -11.5 53z" />
    <glyph glyph-name=".null" horiz-adv-x="0" 
 />
    <glyph glyph-name="nonmarkingreturn" horiz-adv-x="301" 
 />
  </font>
</defs>
</svg>
