<?xml version="1.0" encoding="utf-8"?>
<!-- Generator: Adobe Illustrator 21.1.0, SVG Export Plug-In . SVG Version: 6.00 Build 0)  -->
<svg version="1.1" id="Capa_1" xmlns="http://www.w3.org/2000/svg" xmlns:xlink="http://www.w3.org/1999/xlink" x="0px" y="0px"
	 viewBox="0 0 247 117" style="enable-background:new 0 0 247 117;" xml:space="preserve">
<style type="text/css">
	.st0{fill:none;}
	.st1{fill:url(#SVGID_1_);}
	.st2{fill:url(#SVGID_2_);}
	.st3{fill:url(#SVGID_3_);}
	.st4{fill:url(#SVGID_4_);}
	.st5{fill:url(#SVGID_5_);}
	.st6{fill:url(#SVGID_6_);}
	.st7{fill:url(#SVGID_7_);}
	.st8{fill:url(#SVGID_8_);}
	.st9{fill:url(#SVGID_9_);}
	.st10{fill:url(#SVGID_10_);}
	.st11{fill:url(#SVGID_11_);}
	.st12{fill:url(#SVGID_12_);}
	.st13{fill:url(#SVGID_13_);}
	.st14{fill:url(#SVGID_14_);}
	.st15{fill:url(#SVGID_15_);}
	.st16{fill:url(#SVGID_16_);}
	.st17{fill:url(#SVGID_17_);}
	.st18{fill:url(#SVGID_18_);}
	.st19{fill:url(#SVGID_19_);}
	.st20{fill:url(#SVGID_20_);}
	.st21{fill:url(#SVGID_21_);}
	.st22{fill:url(#SVGID_22_);}
	.st23{fill:url(#SVGID_23_);}
	.st24{fill:url(#SVGID_24_);}
	.st25{fill:url(#SVGID_25_);}
	.st26{fill:url(#SVGID_26_);}
	.st27{fill:url(#SVGID_27_);}
	.st28{fill:url(#SVGID_28_);}
	.st29{fill:url(#SVGID_29_);}
	.st30{fill:url(#SVGID_30_);}
	.st31{fill:url(#SVGID_31_);}
	.st32{fill:url(#SVGID_32_);}
	.st33{fill:url(#SVGID_33_);}
	.st34{fill:url(#SVGID_34_);}
	.st35{fill:url(#SVGID_35_);}
	.st36{fill:url(#SVGID_36_);}
	.st37{fill:url(#SVGID_37_);}
	.st38{fill:url(#SVGID_38_);}
	.st39{fill:url(#SVGID_39_);}
	.st40{fill:url(#SVGID_40_);}
	.st41{fill:url(#SVGID_41_);}
	.st42{fill:url(#SVGID_42_);}
	.st43{fill:url(#SVGID_43_);}
	.st44{fill:url(#SVGID_44_);}
	.st45{fill:url(#SVGID_45_);}
	.st46{fill:url(#SVGID_46_);}
	.st47{fill:url(#SVGID_47_);}
	.st48{fill:url(#SVGID_48_);}
	.st49{fill:url(#SVGID_49_);}
	.st50{fill:url(#SVGID_50_);}
	.st51{fill:url(#SVGID_51_);}
	.st52{fill:url(#SVGID_52_);}
	.st53{fill:url(#SVGID_53_);}
	.st54{fill:url(#SVGID_54_);}
	.st55{fill:url(#SVGID_55_);}
	.st56{fill:url(#SVGID_56_);}
	.st57{fill:url(#SVGID_57_);}
	.st58{fill:url(#SVGID_58_);}
	.st59{fill:url(#SVGID_59_);}
	.st60{fill:url(#SVGID_60_);}
	.st61{fill:url(#SVGID_61_);}
	.st62{fill:url(#SVGID_62_);}
	.st63{fill:url(#SVGID_63_);}
	.st64{fill:url(#SVGID_64_);}
	.st65{fill:url(#SVGID_65_);}
	.st66{fill:url(#SVGID_66_);}
	.st67{fill:url(#SVGID_67_);}
	.st68{fill:url(#SVGID_68_);}
	.st69{fill:url(#SVGID_69_);}
	.st70{fill:url(#SVGID_70_);}
	.st71{fill:url(#SVGID_71_);}
	.st72{fill:#FFFFFF;}
</style>
<g>
	<path class="st0" d="M150.9,14.8C150.9,14.8,150.9,14.8,150.9,14.8C151,14.8,150.9,14.8,150.9,14.8
		C150.9,14.8,150.9,14.8,150.9,14.8z"/>
	<path class="st0" d="M151.5,20.4C151.5,20.4,151.5,20.4,151.5,20.4C151.5,20.4,151.5,20.4,151.5,20.4z"/>
	<path class="st0" d="M151.5,20.4C151.5,20.4,151.5,20.4,151.5,20.4C151.5,20.4,151.5,20.4,151.5,20.4
		C151.5,20.4,151.5,20.4,151.5,20.4z"/>
	<path class="st0" d="M151.6,20.2L151.6,20.2C151.6,20.2,151.6,20.2,151.6,20.2C151.6,20.2,151.6,20.2,151.6,20.2z"/>
	<path class="st0" d="M183.8,49.5c0-0.1,0-0.1-0.1-0.2c0,0,0,0,0,0.1C183.7,49.4,183.7,49.5,183.8,49.5z"/>
	<path class="st0" d="M145.9,27.5c0.6,0.2,1.3-0.1,1.5-0.7c0.2-0.6,0-1.4-0.6-1.6c-0.6-0.2-1.3,0.3-1.5,0.9
		C145.1,26.7,145.4,27.2,145.9,27.5z"/>
	<path class="st0" d="M94.8,40.1C94.8,40.1,94.8,40.1,94.8,40.1C94.8,40.1,94.8,40.1,94.8,40.1z"/>
	<path class="st0" d="M164.1,45.7c0.3,0.5,0.9,0.8,1.5,0.6c0.6-0.2,1-0.9,0.8-1.5c-0.2-0.7-1.1-0.9-1.7-0.6
		C164.2,44.5,164,45.2,164.1,45.7z"/>
	<path class="st0" d="M94.8,40.1C94.8,40.1,94.8,40.1,94.8,40.1C94.8,40.1,94.8,40.1,94.8,40.1L94.8,40.1z"/>
	<path class="st0" d="M100.5,46.4c0.6,0.2,1.1-0.1,1.4-0.6c0.2-0.6-0.1-1.3-0.7-1.5c-0.6-0.2-1.4,0-1.6,0.6
		C99.4,45.5,99.9,46.2,100.5,46.4z"/>
	<path class="st0" d="M115.1,14.8C115.1,14.8,115.1,14.8,115.1,14.8C115.1,14.8,115.1,14.8,115.1,14.8
		C115.1,14.8,115.1,14.8,115.1,14.8z"/>
	<path class="st0" d="M114.7,14.9C114.7,14.9,114.7,15,114.7,14.9C114.7,14.9,114.7,14.9,114.7,14.9z"/>
	<path class="st0" d="M94.6,40.1C94.6,40.1,94.6,40.1,94.6,40.1L94.6,40.1C94.6,40.1,94.6,40.1,94.6,40.1z"/>
	<path class="st0" d="M120.1,27.5c0.5-0.3,0.8-0.9,0.6-1.5c-0.2-0.6-0.9-1-1.5-0.8c-0.7,0.2-0.9,1.1-0.6,1.7
		C118.9,27.5,119.6,27.7,120.1,27.5z"/>
	<path class="st0" d="M155.3,37.2c0.7-0.8,1.3-1.8,1.9-2.8c-1,0.5-1.9,1.1-2.8,1.9c-1,0.9-1.9,2-2.6,3c-0.4,0.6-0.8,1.2-1.3,1.8
		c0.6-0.4,1.2-0.8,1.8-1.3C153.4,39.1,154.4,38.2,155.3,37.2z"/>
	<path class="st0" d="M133,24.5c-0.6,2.3-0.8,4.6-0.4,7c0.1,0.8,0.3,1.6,0.4,2.4c0.1-0.8,0.3-1.6,0.4-2.4
		C133.8,29.1,133.6,26.8,133,24.5z"/>
	<path class="st0" d="M151.3,15C151.3,15,151.3,14.9,151.3,15C151.3,14.9,151.3,14.9,151.3,15z"/>
	<path class="st0" d="M111.6,36.3c-0.8-0.7-1.8-1.3-2.8-1.9c0.5,1,1.1,1.9,1.9,2.8c0.9,1,2,1.9,3,2.6c0.6,0.4,1.2,0.8,1.8,1.3
		c-0.4-0.6-0.8-1.2-1.3-1.8C113.5,38.3,112.6,37.2,111.6,36.3z"/>
	<path class="st0" d="M89.2,40.7C89.2,40.7,89.2,40.7,89.2,40.7C89.2,40.7,89.2,40.7,89.2,40.7C89.2,40.7,89.2,40.7,89.2,40.7z"/>
	<path class="st0" d="M89.3,40.3C89.3,40.3,89.3,40.3,89.3,40.3C89.4,40.3,89.3,40.3,89.3,40.3z"/>
	<path class="st0" d="M103.7,16.2C103.7,16.2,103.7,16.2,103.7,16.2c0,0-0.1,0-0.1,0C103.6,16.3,103.6,16.3,103.7,16.2z"/>
	<path class="st0" d="M123.8,7.9c0,0,0.1,0,0.1-0.1C123.8,7.9,123.8,7.9,123.8,7.9C123.8,7.9,123.8,7.9,123.8,7.9z"/>
	<path class="st0" d="M175.4,29.3c0,0,0-0.1,0-0.1C175.4,29.2,175.4,29.2,175.4,29.3C175.4,29.3,175.4,29.3,175.4,29.3z"/>
	<path class="st0" d="M176.7,40.3C176.7,40.3,176.7,40.3,176.7,40.3C176.7,40.3,176.7,40.3,176.7,40.3z"/>
	<path class="st0" d="M176.9,40.7C176.9,40.7,176.9,40.7,176.9,40.7C176.9,40.7,176.9,40.7,176.9,40.7
		C176.9,40.7,176.9,40.7,176.9,40.7z"/>
	<linearGradient id="SVGID_1_" gradientUnits="userSpaceOnUse" x1="90.0437" y1="30.4688" x2="185.1078" y2="71.3464">
		<stop  offset="0" style="stop-color:#B0925F"/>
		<stop  offset="0.2784" style="stop-color:#8A6F44"/>
		<stop  offset="0.4226" style="stop-color:#BA9A63"/>
		<stop  offset="0.5573" style="stop-color:#E1BC7C"/>
		<stop  offset="0.6275" style="stop-color:#F0C986"/>
		<stop  offset="0.7099" style="stop-color:#DFBA7B"/>
		<stop  offset="0.8734" style="stop-color:#B1925D"/>
		<stop  offset="1" style="stop-color:#8A6F44"/>
	</linearGradient>
	<path class="st1" d="M119.4,42.5c-0.5-1.6-0.4-3.5,1-4.5c0.3-0.2,0.3-0.9-0.2-0.8c-2.6,0.2-2.7,3.5-2.1,5.4
		c0.1,0.2,0.1,0.4,0.2,0.5c-1.5-1.5-2.6-3.4-3.8-5.1c-1.7-2.2-3.8-3.8-6.3-5c-0.4-0.2-0.8,0.2-0.6,0.6c1.2,2.5,2.8,4.6,5,6.3
		c1.7,1.3,3.5,2.4,5.1,3.8c-0.2-0.1-0.4-0.1-0.5-0.2c-1.9-0.6-5.3-0.5-5.4,2.1c0,0.5,0.6,0.6,0.8,0.2c1.1-1.4,3-1.5,4.5-1
		C117.6,44.1,118.5,43.2,119.4,42.5z M113.7,39.9c-1.1-0.8-2.2-1.6-3-2.6c-0.7-0.8-1.3-1.8-1.9-2.8c1,0.5,1.9,1.1,2.8,1.9
		c1,0.9,1.9,2,2.6,3c0.4,0.6,0.8,1.2,1.3,1.8C114.9,40.7,114.3,40.3,113.7,39.9z"/>
	<linearGradient id="SVGID_2_" gradientUnits="userSpaceOnUse" x1="91.1986" y1="27.783" x2="186.2627" y2="68.6605">
		<stop  offset="0" style="stop-color:#B0925F"/>
		<stop  offset="0.2784" style="stop-color:#8A6F44"/>
		<stop  offset="0.4226" style="stop-color:#BA9A63"/>
		<stop  offset="0.5573" style="stop-color:#E1BC7C"/>
		<stop  offset="0.6275" style="stop-color:#F0C986"/>
		<stop  offset="0.7099" style="stop-color:#DFBA7B"/>
		<stop  offset="0.8734" style="stop-color:#B1925D"/>
		<stop  offset="1" style="stop-color:#8A6F44"/>
	</linearGradient>
	<path class="st2" d="M168.8,59.1c0.4-0.2,0.4-0.7,0-0.9c-2.6-0.9-5.1-1.3-7.8-1c-2.2,0.3-4.3,0.8-6.5,0.9c0.2-0.1,0.4-0.2,0.6-0.3
		c1.7-1,3.9-3.4,2.2-5.3c-0.2-0.3-0.8-0.1-0.8,0.3c0.3,2.1-0.9,3.3-2.5,4c0,0.6,0.1,1.2,0.1,1.8L168.8,59.1z"/>
	<linearGradient id="SVGID_3_" gradientUnits="userSpaceOnUse" x1="83.7937" y1="47.3634" x2="173.7651" y2="86.0511">
		<stop  offset="0" style="stop-color:#B0925F"/>
		<stop  offset="0.2784" style="stop-color:#8A6F44"/>
		<stop  offset="0.4226" style="stop-color:#BA9A63"/>
		<stop  offset="0.5573" style="stop-color:#E1BC7C"/>
		<stop  offset="0.6275" style="stop-color:#F0C986"/>
		<stop  offset="0.7099" style="stop-color:#DFBA7B"/>
		<stop  offset="0.8734" style="stop-color:#B1925D"/>
		<stop  offset="1" style="stop-color:#8A6F44"/>
	</linearGradient>
	<path class="st3" d="M111.9,58.6c0-0.6,0-1.2,0.1-1.8c-1.6-0.8-2.7-2-2.5-4c0.1-0.4-0.5-0.6-0.8-0.3c-1.7,1.9,0.5,4.3,2.2,5.3
		c0.2,0.1,0.4,0.2,0.6,0.3c-2.2-0.1-4.3-0.6-6.5-0.9c-2.7-0.3-5.2,0.1-7.8,1c-0.4,0.2-0.4,0.7,0,0.9L111.9,58.6z"/>
	<linearGradient id="SVGID_4_" gradientUnits="userSpaceOnUse" x1="96.7693" y1="14.8279" x2="191.8334" y2="55.7054">
		<stop  offset="0" style="stop-color:#B0925F"/>
		<stop  offset="0.2784" style="stop-color:#8A6F44"/>
		<stop  offset="0.4226" style="stop-color:#BA9A63"/>
		<stop  offset="0.5573" style="stop-color:#E1BC7C"/>
		<stop  offset="0.6275" style="stop-color:#F0C986"/>
		<stop  offset="0.7099" style="stop-color:#DFBA7B"/>
		<stop  offset="0.8734" style="stop-color:#B1925D"/>
		<stop  offset="1" style="stop-color:#8A6F44"/>
	</linearGradient>
	<path class="st4" d="M134.8,37.6c0.8-1.6,2-2.7,4-2.5c0.4,0.1,0.6-0.5,0.3-0.8c-1.9-1.7-4.3,0.5-5.3,2.2c-0.1,0.2-0.2,0.4-0.3,0.6
		c0.1-2.2,0.6-4.3,0.9-6.5c0.3-2.7-0.1-5.2-1-7.8c-0.2-0.4-0.7-0.4-0.9,0c-0.9,2.6-1.3,5.1-1,7.8c0.3,2.2,0.8,4.3,0.9,6.5
		c-0.1-0.2-0.2-0.4-0.3-0.6c-1-1.7-3.4-3.9-5.3-2.2c-0.3,0.2-0.1,0.8,0.3,0.8c2.1-0.3,3.3,0.9,4,2.5c0.6,0,1.2-0.1,1.8-0.1
		C133.6,37.5,134.2,37.5,134.8,37.6z M132.6,31.5c-0.4-2.5-0.2-4.7,0.4-7c0.6,2.3,0.8,4.6,0.4,7c-0.1,0.8-0.3,1.6-0.4,2.4
		C132.9,33.1,132.7,32.3,132.6,31.5z"/>
	<linearGradient id="SVGID_5_" gradientUnits="userSpaceOnUse" x1="96.8956" y1="14.5343" x2="191.9596" y2="55.4118">
		<stop  offset="0" style="stop-color:#B0925F"/>
		<stop  offset="0.2784" style="stop-color:#8A6F44"/>
		<stop  offset="0.4226" style="stop-color:#BA9A63"/>
		<stop  offset="0.5573" style="stop-color:#E1BC7C"/>
		<stop  offset="0.6275" style="stop-color:#F0C986"/>
		<stop  offset="0.7099" style="stop-color:#DFBA7B"/>
		<stop  offset="0.8734" style="stop-color:#B1925D"/>
		<stop  offset="1" style="stop-color:#8A6F44"/>
	</linearGradient>
	<path class="st5" d="M149.1,45c1.6-0.5,3.5-0.4,4.5,1c0.2,0.3,0.9,0.3,0.8-0.2c-0.2-2.6-3.5-2.7-5.4-2.1c-0.2,0.1-0.4,0.1-0.5,0.2
		c1.5-1.5,3.4-2.6,5.1-3.8c2.2-1.7,3.8-3.8,5-6.3c0.2-0.4-0.2-0.8-0.6-0.6c-2.5,1.2-4.6,2.8-6.3,5c-1.3,1.7-2.4,3.5-3.8,5.1
		c0.1-0.2,0.1-0.4,0.2-0.5c0.6-1.9,0.5-5.3-2.1-5.4c-0.5,0-0.6,0.6-0.2,0.8c1.4,1.1,1.5,3,1,4.5C147.6,43.2,148.4,44.1,149.1,45z
		 M151.8,39.3c0.8-1.1,1.6-2.2,2.6-3c0.8-0.7,1.8-1.3,2.8-1.9c-0.5,1-1.1,1.9-1.9,2.8c-0.9,1-2,1.9-3,2.6c-0.6,0.4-1.2,0.8-1.8,1.3
		C150.9,40.5,151.4,39.9,151.8,39.3z"/>
	<linearGradient id="SVGID_6_" gradientUnits="userSpaceOnUse" x1="99.9195" y1="7.5018" x2="194.9837" y2="48.3795">
		<stop  offset="0" style="stop-color:#B0925F"/>
		<stop  offset="0.2784" style="stop-color:#8A6F44"/>
		<stop  offset="0.4226" style="stop-color:#BA9A63"/>
		<stop  offset="0.5573" style="stop-color:#E1BC7C"/>
		<stop  offset="0.6275" style="stop-color:#F0C986"/>
		<stop  offset="0.7099" style="stop-color:#DFBA7B"/>
		<stop  offset="0.8734" style="stop-color:#B1925D"/>
		<stop  offset="1" style="stop-color:#8A6F44"/>
	</linearGradient>
	<path class="st6" d="M123.7,32.9c0.1,0.2,0.1,0.5,0.2,0.7c0.1,0.2,0.2,0.3,0.3,0.3c0.3,0.2,0.9-0.2,0.6-0.6
		c-0.1-0.2-0.2-0.4-0.3-0.6c-2.4-8.2,4.7-15.3,8.4-22.1c3.7,6.7,10.8,13.9,8.4,22.1c-0.1,0.2-0.2,0.4-0.3,0.6
		c-0.2,0.4,0.3,0.8,0.6,0.6c0.1,0,0.2-0.1,0.3-0.3c0.1-0.2,0.2-0.5,0.2-0.7c1.7-4.2,0.2-8.7-1.9-12.6c-1.2-2.3-2.7-4.4-3.9-6.7
		c-1.3-2.4-2.3-4.9-3.1-7.5c-0.1-0.4-0.7-0.4-0.9,0c-0.8,2.6-1.9,5.1-3.1,7.5c-1.2,2.3-2.6,4.4-3.9,6.7
		C123.5,24.1,122.1,28.7,123.7,32.9z"/>
	<linearGradient id="SVGID_7_" gradientUnits="userSpaceOnUse" x1="100.1186" y1="7.0388" x2="195.1829" y2="47.9164">
		<stop  offset="0" style="stop-color:#B0925F"/>
		<stop  offset="0.2784" style="stop-color:#8A6F44"/>
		<stop  offset="0.4226" style="stop-color:#BA9A63"/>
		<stop  offset="0.5573" style="stop-color:#E1BC7C"/>
		<stop  offset="0.6275" style="stop-color:#F0C986"/>
		<stop  offset="0.7099" style="stop-color:#DFBA7B"/>
		<stop  offset="0.8734" style="stop-color:#B1925D"/>
		<stop  offset="1" style="stop-color:#8A6F44"/>
	</linearGradient>
	<path class="st7" d="M154,26.5c-3.8,1.2-7.7,3.5-9.3,7.3c-0.1,0.2-0.2,0.4-0.3,0.7c-0.1,0.2-0.1,0.3,0,0.4c0.1,0.4,0.7,0.5,0.9,0
		c0.1-0.2,0.2-0.4,0.2-0.7c4.1-7.5,14.2-7.5,21.6-9.6c-2.1,7.4-2.2,17.4-9.6,21.6c-0.2,0.1-0.4,0.2-0.7,0.2c-0.5,0.2-0.4,0.8,0,0.9
		c0.1,0.1,0.3,0.1,0.4,0c0.2-0.1,0.4-0.2,0.7-0.3c3.8-1.6,6-5.5,7.3-9.3c0.8-2.6,1.3-5.2,2.1-7.8c0.8-2.7,1.9-5.4,3.2-8
		c0.2-0.4-0.2-0.8-0.6-0.6c-2.5,1.3-5.1,2.3-7.8,3.1C159.3,25.2,156.6,25.7,154,26.5z"/>
	<linearGradient id="SVGID_8_" gradientUnits="userSpaceOnUse" x1="94.3213" y1="20.5211" x2="189.3857" y2="61.3988">
		<stop  offset="0" style="stop-color:#B0925F"/>
		<stop  offset="0.2784" style="stop-color:#8A6F44"/>
		<stop  offset="0.4226" style="stop-color:#BA9A63"/>
		<stop  offset="0.5573" style="stop-color:#E1BC7C"/>
		<stop  offset="0.6275" style="stop-color:#F0C986"/>
		<stop  offset="0.7099" style="stop-color:#DFBA7B"/>
		<stop  offset="0.8734" style="stop-color:#B1925D"/>
		<stop  offset="1" style="stop-color:#8A6F44"/>
	</linearGradient>
	<path class="st8" d="M185.4,59.1c0.4-0.1,0.4-0.7,0-0.9c-2.6-0.8-5.1-1.9-7.5-3.1c-2.3-1.2-4.4-2.6-6.7-3.9
		c-3.8-2.1-8.4-3.5-12.6-1.9c-0.2,0.1-0.5,0.1-0.7,0.2c-0.2,0.1-0.3,0.2-0.3,0.3c-0.2,0.3,0.2,0.9,0.6,0.6c0.2-0.1,0.4-0.2,0.6-0.3
		c8.2-2.4,15.3,4.7,22.1,8.4L185.4,59.1z"/>
	<linearGradient id="SVGID_9_" gradientUnits="userSpaceOnUse" x1="82.5022" y1="49.237" x2="155.5439" y2="80.645">
		<stop  offset="0" style="stop-color:#B0925F"/>
		<stop  offset="0.2784" style="stop-color:#8A6F44"/>
		<stop  offset="0.4226" style="stop-color:#BA9A63"/>
		<stop  offset="0.5573" style="stop-color:#E1BC7C"/>
		<stop  offset="0.6275" style="stop-color:#F0C986"/>
		<stop  offset="0.7099" style="stop-color:#DFBA7B"/>
		<stop  offset="0.8734" style="stop-color:#B1925D"/>
		<stop  offset="1" style="stop-color:#8A6F44"/>
	</linearGradient>
	<path class="st9" d="M80.6,59.1c-0.4-0.1-0.4-0.7,0-0.9c2.6-0.8,5.1-1.9,7.5-3.1c2.3-1.2,4.4-2.6,6.7-3.9c3.8-2.1,8.4-3.5,12.6-1.9
		c0.2,0.1,0.5,0.1,0.7,0.2c0.2,0.1,0.3,0.2,0.3,0.3c0.2,0.3-0.2,0.8-0.6,0.6c-0.2-0.1-0.4-0.2-0.6-0.3c-8.2-2.4-15.3,4.7-22.1,8.4
		L80.6,59.1z"/>
	<linearGradient id="SVGID_10_" gradientUnits="userSpaceOnUse" x1="90.9074" y1="28.4604" x2="185.9716" y2="69.3379">
		<stop  offset="0" style="stop-color:#B0925F"/>
		<stop  offset="0.2784" style="stop-color:#8A6F44"/>
		<stop  offset="0.4226" style="stop-color:#BA9A63"/>
		<stop  offset="0.5573" style="stop-color:#E1BC7C"/>
		<stop  offset="0.6275" style="stop-color:#F0C986"/>
		<stop  offset="0.7099" style="stop-color:#DFBA7B"/>
		<stop  offset="0.8734" style="stop-color:#B1925D"/>
		<stop  offset="1" style="stop-color:#8A6F44"/>
	</linearGradient>
	<path class="st10" d="M98.8,29.7c0.8,2.6,1.3,5.4,2.2,8c1.2,3.8,3.5,7.7,7.3,9.3c0.2,0.1,0.4,0.2,0.7,0.3c0.2,0.1,0.3,0.1,0.4,0
		c0.4-0.1,0.5-0.7,0-0.9c-0.2-0.1-0.4-0.2-0.7-0.2c-7.5-4.1-7.5-14.2-9.6-21.6c7.4,2.1,17.4,2.2,21.6,9.6c0.1,0.2,0.2,0.4,0.2,0.7
		c0.2,0.5,0.8,0.4,0.9,0c0.1-0.1,0.1-0.3,0-0.4c-0.1-0.2-0.2-0.4-0.3-0.7c-1.6-3.8-5.5-6-9.3-7.3c-2.6-0.8-5.2-1.3-7.8-2.1
		c-2.7-0.8-5.4-1.9-8-3.2c-0.4-0.2-0.8,0.2-0.6,0.6C96.9,24.4,98,27,98.8,29.7z"/>
	<linearGradient id="SVGID_11_" gradientUnits="userSpaceOnUse" x1="98.0108" y1="11.9407" x2="193.0751" y2="52.8184">
		<stop  offset="0" style="stop-color:#B0925F"/>
		<stop  offset="0.2784" style="stop-color:#8A6F44"/>
		<stop  offset="0.4226" style="stop-color:#BA9A63"/>
		<stop  offset="0.5573" style="stop-color:#E1BC7C"/>
		<stop  offset="0.6275" style="stop-color:#F0C986"/>
		<stop  offset="0.7099" style="stop-color:#DFBA7B"/>
		<stop  offset="0.8734" style="stop-color:#B1925D"/>
		<stop  offset="1" style="stop-color:#8A6F44"/>
	</linearGradient>
	<path class="st11" d="M131.1,19c-3.3,3.4-4.6,8.3-3.4,12.9c0.2,0.6,1,0.3,0.9-0.2c-1.1-4.2,0.1-8.9,3.2-12
		C132.2,19.3,131.5,18.6,131.1,19z"/>
	<linearGradient id="SVGID_12_" gradientUnits="userSpaceOnUse" x1="90.1743" y1="30.1654" x2="185.2385" y2="71.043">
		<stop  offset="0" style="stop-color:#B0925F"/>
		<stop  offset="0.2784" style="stop-color:#8A6F44"/>
		<stop  offset="0.4226" style="stop-color:#BA9A63"/>
		<stop  offset="0.5573" style="stop-color:#E1BC7C"/>
		<stop  offset="0.6275" style="stop-color:#F0C986"/>
		<stop  offset="0.7099" style="stop-color:#DFBA7B"/>
		<stop  offset="0.8734" style="stop-color:#B1925D"/>
		<stop  offset="1" style="stop-color:#8A6F44"/>
	</linearGradient>
	<path class="st12" d="M110.4,43.5c0.5,0.3,1-0.5,0.5-0.8c-3.8-2.2-6.2-6.3-6.2-10.8c0-0.6-0.9-0.6-0.9,0
		C103.7,36.7,106.3,41.2,110.4,43.5z"/>
	<linearGradient id="SVGID_13_" gradientUnits="userSpaceOnUse" x1="93.0365" y1="23.5089" x2="188.1008" y2="64.3866">
		<stop  offset="0" style="stop-color:#B0925F"/>
		<stop  offset="0.2784" style="stop-color:#8A6F44"/>
		<stop  offset="0.4226" style="stop-color:#BA9A63"/>
		<stop  offset="0.5573" style="stop-color:#E1BC7C"/>
		<stop  offset="0.6275" style="stop-color:#F0C986"/>
		<stop  offset="0.7099" style="stop-color:#DFBA7B"/>
		<stop  offset="0.8734" style="stop-color:#B1925D"/>
		<stop  offset="1" style="stop-color:#8A6F44"/>
	</linearGradient>
	<path class="st13" d="M172.6,56.7c-3.4-3.3-8.3-4.6-12.9-3.4c-0.6,0.2-0.3,1,0.2,0.9c4.2-1.1,8.9,0.1,12,3.2
		C172.4,57.8,173,57.1,172.6,56.7z"/>
	<linearGradient id="SVGID_14_" gradientUnits="userSpaceOnUse" x1="99.1284" y1="9.3417" x2="194.1927" y2="50.2194">
		<stop  offset="0" style="stop-color:#B0925F"/>
		<stop  offset="0.2784" style="stop-color:#8A6F44"/>
		<stop  offset="0.4226" style="stop-color:#BA9A63"/>
		<stop  offset="0.5573" style="stop-color:#E1BC7C"/>
		<stop  offset="0.6275" style="stop-color:#F0C986"/>
		<stop  offset="0.7099" style="stop-color:#DFBA7B"/>
		<stop  offset="0.8734" style="stop-color:#B1925D"/>
		<stop  offset="1" style="stop-color:#8A6F44"/>
	</linearGradient>
	<path class="st14" d="M159.6,29.3c-4.7,0-9.2,2.6-11.5,6.7c-0.3,0.5,0.5,1,0.8,0.5c2.2-3.8,6.3-6.2,10.8-6.2
		C160.2,30.2,160.2,29.3,159.6,29.3z"/>
	<linearGradient id="SVGID_15_" gradientUnits="userSpaceOnUse" x1="99.0264" y1="9.5789" x2="194.0909" y2="50.4566">
		<stop  offset="0" style="stop-color:#B0925F"/>
		<stop  offset="0.2784" style="stop-color:#8A6F44"/>
		<stop  offset="0.4226" style="stop-color:#BA9A63"/>
		<stop  offset="0.5573" style="stop-color:#E1BC7C"/>
		<stop  offset="0.6275" style="stop-color:#F0C986"/>
		<stop  offset="0.7099" style="stop-color:#DFBA7B"/>
		<stop  offset="0.8734" style="stop-color:#B1925D"/>
		<stop  offset="1" style="stop-color:#8A6F44"/>
	</linearGradient>
	<path class="st15" d="M138.3,31.9c1.2-4.6-0.1-9.5-3.4-12.9c-0.4-0.4-1.1,0.2-0.6,0.6c3.1,3.1,4.3,7.8,3.2,12
		C137.3,32.3,138.2,32.5,138.3,31.9z"/>
	<linearGradient id="SVGID_16_" gradientUnits="userSpaceOnUse" x1="92.7519" y1="24.1706" x2="187.8162" y2="65.0482">
		<stop  offset="0" style="stop-color:#B0925F"/>
		<stop  offset="0.2784" style="stop-color:#8A6F44"/>
		<stop  offset="0.4226" style="stop-color:#BA9A63"/>
		<stop  offset="0.5573" style="stop-color:#E1BC7C"/>
		<stop  offset="0.6275" style="stop-color:#F0C986"/>
		<stop  offset="0.7099" style="stop-color:#DFBA7B"/>
		<stop  offset="0.8734" style="stop-color:#B1925D"/>
		<stop  offset="1" style="stop-color:#8A6F44"/>
	</linearGradient>
	<path class="st16" d="M117.1,36.4c0.3,0.5,1.1,0,0.8-0.5c-2.4-4.1-6.8-6.7-11.5-6.7c-0.6,0-0.6,0.9,0,0.9
		C110.8,30.2,114.9,32.6,117.1,36.4z"/>
	<linearGradient id="SVGID_17_" gradientUnits="userSpaceOnUse" x1="82.558" y1="47.8773" x2="177.6224" y2="88.755">
		<stop  offset="0" style="stop-color:#B0925F"/>
		<stop  offset="0.2784" style="stop-color:#8A6F44"/>
		<stop  offset="0.4226" style="stop-color:#BA9A63"/>
		<stop  offset="0.5573" style="stop-color:#E1BC7C"/>
		<stop  offset="0.6275" style="stop-color:#F0C986"/>
		<stop  offset="0.7099" style="stop-color:#DFBA7B"/>
		<stop  offset="0.8734" style="stop-color:#B1925D"/>
		<stop  offset="1" style="stop-color:#8A6F44"/>
	</linearGradient>
	<path class="st17" d="M106.1,54.2c0.6,0.2,0.8-0.7,0.2-0.9c-4.6-1.2-9.5,0.1-12.9,3.4c-0.4,0.4,0.2,1.1,0.6,0.6
		C97.2,54.3,101.8,53,106.1,54.2z"/>
	<linearGradient id="SVGID_18_" gradientUnits="userSpaceOnUse" x1="98.1769" y1="11.5545" x2="193.2412" y2="52.4321">
		<stop  offset="0" style="stop-color:#B0925F"/>
		<stop  offset="0.2784" style="stop-color:#8A6F44"/>
		<stop  offset="0.4226" style="stop-color:#BA9A63"/>
		<stop  offset="0.5573" style="stop-color:#E1BC7C"/>
		<stop  offset="0.6275" style="stop-color:#F0C986"/>
		<stop  offset="0.7099" style="stop-color:#DFBA7B"/>
		<stop  offset="0.8734" style="stop-color:#B1925D"/>
		<stop  offset="1" style="stop-color:#8A6F44"/>
	</linearGradient>
	<path class="st18" d="M155.2,42.7c-0.5,0.3,0,1.1,0.5,0.8c4.1-2.4,6.7-6.8,6.7-11.5c0-0.6-0.9-0.6-0.9,0
		C161.4,36.4,159,40.5,155.2,42.7z"/>
	<linearGradient id="SVGID_19_" gradientUnits="userSpaceOnUse" x1="101.6437" y1="3.4925" x2="196.708" y2="44.3702">
		<stop  offset="0" style="stop-color:#B0925F"/>
		<stop  offset="0.2784" style="stop-color:#8A6F44"/>
		<stop  offset="0.4226" style="stop-color:#BA9A63"/>
		<stop  offset="0.5573" style="stop-color:#E1BC7C"/>
		<stop  offset="0.6275" style="stop-color:#F0C986"/>
		<stop  offset="0.7099" style="stop-color:#DFBA7B"/>
		<stop  offset="0.8734" style="stop-color:#B1925D"/>
		<stop  offset="1" style="stop-color:#8A6F44"/>
	</linearGradient>
	<path class="st19" d="M133.5,15.6c-0.1-0.2-0.2-0.3-0.4-0.3c-0.2,0-0.4,0.1-0.4,0.3c-0.2,0.7-1,3,0.4,3
		C134.5,18.6,133.6,16.3,133.5,15.6z"/>
	<linearGradient id="SVGID_20_" gradientUnits="userSpaceOnUse" x1="101.8173" y1="3.0883" x2="196.8817" y2="43.966">
		<stop  offset="0" style="stop-color:#B0925F"/>
		<stop  offset="0.2784" style="stop-color:#8A6F44"/>
		<stop  offset="0.4226" style="stop-color:#BA9A63"/>
		<stop  offset="0.5573" style="stop-color:#E1BC7C"/>
		<stop  offset="0.6275" style="stop-color:#F0C986"/>
		<stop  offset="0.7099" style="stop-color:#DFBA7B"/>
		<stop  offset="0.8734" style="stop-color:#B1925D"/>
		<stop  offset="1" style="stop-color:#8A6F44"/>
	</linearGradient>
	<path class="st20" d="M162.7,30.2c0.4-0.5,0.7-1.1,1.1-1.7c0.1-0.2,0.1-0.4-0.1-0.5c-0.1-0.1-0.3-0.2-0.5-0.1
		c-0.5,0.3-1.2,0.6-1.7,1.1c-0.4,0.3-0.5,1-0.1,1.4C161.7,30.7,162.3,30.6,162.7,30.2z"/>
	<linearGradient id="SVGID_21_" gradientUnits="userSpaceOnUse" x1="93.0906" y1="23.3836" x2="188.1549" y2="64.2612">
		<stop  offset="0" style="stop-color:#B0925F"/>
		<stop  offset="0.2784" style="stop-color:#8A6F44"/>
		<stop  offset="0.4226" style="stop-color:#BA9A63"/>
		<stop  offset="0.5573" style="stop-color:#E1BC7C"/>
		<stop  offset="0.6275" style="stop-color:#F0C986"/>
		<stop  offset="0.7099" style="stop-color:#DFBA7B"/>
		<stop  offset="0.8734" style="stop-color:#B1925D"/>
		<stop  offset="1" style="stop-color:#8A6F44"/>
	</linearGradient>
	<path class="st21" d="M176,59.1c0.2-0.1,0.3-0.2,0.3-0.4c0-0.2-0.1-0.4-0.3-0.4c-0.7-0.2-3-1-3,0.4L176,59.1z"/>
	<linearGradient id="SVGID_22_" gradientUnits="userSpaceOnUse" x1="80.3539" y1="53.7583" x2="172.7784" y2="93.5008">
		<stop  offset="0" style="stop-color:#B0925F"/>
		<stop  offset="0.2784" style="stop-color:#8A6F44"/>
		<stop  offset="0.4226" style="stop-color:#BA9A63"/>
		<stop  offset="0.5573" style="stop-color:#E1BC7C"/>
		<stop  offset="0.6275" style="stop-color:#F0C986"/>
		<stop  offset="0.7099" style="stop-color:#DFBA7B"/>
		<stop  offset="0.8734" style="stop-color:#B1925D"/>
		<stop  offset="1" style="stop-color:#8A6F44"/>
	</linearGradient>
	<path class="st22" d="M90,59.1c-0.2-0.1-0.3-0.3-0.3-0.4c0-0.2,0.1-0.4,0.3-0.4c0.7-0.2,3-1,3,0.4L90,59.1z"/>
	<linearGradient id="SVGID_23_" gradientUnits="userSpaceOnUse" x1="92.584" y1="24.5611" x2="187.6486" y2="65.4389">
		<stop  offset="0" style="stop-color:#B0925F"/>
		<stop  offset="0.2784" style="stop-color:#8A6F44"/>
		<stop  offset="0.4226" style="stop-color:#BA9A63"/>
		<stop  offset="0.5573" style="stop-color:#E1BC7C"/>
		<stop  offset="0.6275" style="stop-color:#F0C986"/>
		<stop  offset="0.7099" style="stop-color:#DFBA7B"/>
		<stop  offset="0.8734" style="stop-color:#B1925D"/>
		<stop  offset="1" style="stop-color:#8A6F44"/>
	</linearGradient>
	<path class="st23" d="M104.7,30.3c0.4-0.4,0.2-1-0.1-1.4c-0.5-0.4-1.1-0.7-1.7-1.1c-0.2-0.1-0.4-0.1-0.5,0.1
		c-0.1,0.1-0.2,0.3-0.1,0.5c0.3,0.5,0.6,1.2,1.1,1.7C103.7,30.6,104.3,30.7,104.7,30.3z"/>
	<linearGradient id="SVGID_24_" gradientUnits="userSpaceOnUse" x1="86.3115" y1="39.1484" x2="181.3757" y2="80.026">
		<stop  offset="0" style="stop-color:#B0925F"/>
		<stop  offset="0.2784" style="stop-color:#8A6F44"/>
		<stop  offset="0.4226" style="stop-color:#BA9A63"/>
		<stop  offset="0.5573" style="stop-color:#E1BC7C"/>
		<stop  offset="0.6275" style="stop-color:#F0C986"/>
		<stop  offset="0.7099" style="stop-color:#DFBA7B"/>
		<stop  offset="0.8734" style="stop-color:#B1925D"/>
		<stop  offset="1" style="stop-color:#8A6F44"/>
	</linearGradient>
	<path class="st24" d="M90.7,49.8c0,0.1,0.1,0.2,0.1,0.2c0.2,0.3,0.6,0.3,0.8,0c0.1-0.1,0.2-0.3,0-0.5c-0.1-0.1-0.1-0.1-0.2-0.2
		c-1.8-3.2-3.5-6.5-4.9-10c3.4-1.4,6.9-2.6,10.5-3.6c0.1,0,0.2,0,0.3,0c0.2,0,0.3-0.2,0.3-0.4c0-0.3-0.2-0.6-0.6-0.5
		c-0.1,0-0.2,0-0.3,0.1c-4.3,0.7-8.5,1.7-12.7,3.1c-0.3,0.1-0.4,0.4-0.3,0.7C85.9,42.6,88.2,46.3,90.7,49.8z"/>
	<linearGradient id="SVGID_25_" gradientUnits="userSpaceOnUse" x1="98.4634" y1="10.8882" x2="193.5276" y2="51.7658">
		<stop  offset="0" style="stop-color:#B0925F"/>
		<stop  offset="0.2784" style="stop-color:#8A6F44"/>
		<stop  offset="0.4226" style="stop-color:#BA9A63"/>
		<stop  offset="0.5573" style="stop-color:#E1BC7C"/>
		<stop  offset="0.6275" style="stop-color:#F0C986"/>
		<stop  offset="0.7099" style="stop-color:#DFBA7B"/>
		<stop  offset="0.8734" style="stop-color:#B1925D"/>
		<stop  offset="1" style="stop-color:#8A6F44"/>
	</linearGradient>
	<path class="st25" d="M109.8,23.3c0.2,0,0.4-0.1,0.4-0.3c0-0.1,0-0.2,0-0.3c1-3.6,2.2-7.1,3.6-10.5c3.4,1.4,6.7,3,10,4.9
		c0.1,0.1,0.1,0.1,0.2,0.2c0.2,0.1,0.4,0.1,0.5-0.1c0.2-0.2,0.3-0.6,0-0.8c-0.1,0-0.2-0.1-0.2-0.1c-3.5-2.5-7.3-4.8-11.2-6.8
		c-0.3-0.1-0.6,0-0.7,0.3c-1.3,4.2-2.4,8.4-3.1,12.7c0,0.1-0.1,0.2-0.1,0.3C109.2,23.1,109.5,23.4,109.8,23.3z"/>
	<linearGradient id="SVGID_26_" gradientUnits="userSpaceOnUse" x1="105.201" y1="-4.7805" x2="200.2654" y2="36.0971">
		<stop  offset="0" style="stop-color:#B0925F"/>
		<stop  offset="0.2784" style="stop-color:#8A6F44"/>
		<stop  offset="0.4226" style="stop-color:#BA9A63"/>
		<stop  offset="0.5573" style="stop-color:#E1BC7C"/>
		<stop  offset="0.6275" style="stop-color:#F0C986"/>
		<stop  offset="0.7099" style="stop-color:#DFBA7B"/>
		<stop  offset="0.8734" style="stop-color:#B1925D"/>
		<stop  offset="1" style="stop-color:#8A6F44"/>
	</linearGradient>
	<path class="st26" d="M141.6,16.5c-0.3,0.2-0.3,0.6,0,0.8c0.1,0.1,0.3,0.2,0.5,0c0.1-0.1,0.1-0.1,0.2-0.2c3.2-1.8,6.5-3.5,10-4.9
		c1.4,3.4,2.6,6.9,3.6,10.5c0,0.1,0,0.2,0,0.3c0,0.2,0.2,0.3,0.4,0.3c0.3,0,0.6-0.2,0.5-0.6c0-0.1,0-0.2-0.1-0.3
		c-0.7-4.3-1.7-8.5-3.1-12.7c-0.1-0.3-0.4-0.4-0.7-0.3c-3.9,2-7.6,4.3-11.2,6.8C141.7,16.4,141.6,16.4,141.6,16.5z"/>
	<linearGradient id="SVGID_27_" gradientUnits="userSpaceOnUse" x1="98.8468" y1="9.9962" x2="193.9111" y2="50.8738">
		<stop  offset="0" style="stop-color:#B0925F"/>
		<stop  offset="0.2784" style="stop-color:#8A6F44"/>
		<stop  offset="0.4226" style="stop-color:#BA9A63"/>
		<stop  offset="0.5573" style="stop-color:#E1BC7C"/>
		<stop  offset="0.6275" style="stop-color:#F0C986"/>
		<stop  offset="0.7099" style="stop-color:#DFBA7B"/>
		<stop  offset="0.8734" style="stop-color:#B1925D"/>
		<stop  offset="1" style="stop-color:#8A6F44"/>
	</linearGradient>
	<path class="st27" d="M168.9,34.9c-0.4-0.1-0.6,0.2-0.6,0.5c0,0.2,0.1,0.4,0.3,0.4c0.1,0,0.2,0,0.3,0c3.6,1,7.1,2.2,10.5,3.6
		c-1.4,3.4-3,6.7-4.9,10c-0.1,0.1-0.1,0.1-0.2,0.2c-0.1,0.2-0.1,0.4,0.1,0.5c0.2,0.2,0.6,0.3,0.8,0c0-0.1,0.1-0.2,0.1-0.2
		c2.5-3.5,4.8-7.3,6.8-11.2c0.1-0.3,0-0.6-0.3-0.7c-4.2-1.3-8.4-2.4-12.7-3.1C169,34.9,169,34.9,168.9,34.9z"/>
	<linearGradient id="SVGID_28_" gradientUnits="userSpaceOnUse" x1="96.1559" y1="16.2546" x2="191.22" y2="57.1322">
		<stop  offset="0" style="stop-color:#B0925F"/>
		<stop  offset="0.2784" style="stop-color:#8A6F44"/>
		<stop  offset="0.4226" style="stop-color:#BA9A63"/>
		<stop  offset="0.5573" style="stop-color:#E1BC7C"/>
		<stop  offset="0.6275" style="stop-color:#F0C986"/>
		<stop  offset="0.7099" style="stop-color:#DFBA7B"/>
		<stop  offset="0.8734" style="stop-color:#B1925D"/>
		<stop  offset="1" style="stop-color:#8A6F44"/>
	</linearGradient>
	<path class="st28" d="M120.4,28.4C120.5,28.4,120.5,28.3,120.4,28.4c0.1,0,0.1,0,0.1,0c1-0.5,1.5-1.7,1-2.8
		c-0.4-0.9-1.7-1.7-2.7-1.3c-1,0.4-1.4,1.8-1.1,2.8C118.1,28.2,119.3,28.7,120.4,28.4z M119.2,25.2c0.6-0.2,1.2,0.2,1.5,0.8
		c0.3,0.6,0,1.2-0.6,1.5c-0.6,0.2-1.2,0-1.5-0.6C118.4,26.3,118.6,25.4,119.2,25.2z"/>
	<linearGradient id="SVGID_29_" gradientUnits="userSpaceOnUse" x1="100.3402" y1="6.523" x2="195.4046" y2="47.4007">
		<stop  offset="0" style="stop-color:#B0925F"/>
		<stop  offset="0.2784" style="stop-color:#8A6F44"/>
		<stop  offset="0.4226" style="stop-color:#BA9A63"/>
		<stop  offset="0.5573" style="stop-color:#E1BC7C"/>
		<stop  offset="0.6275" style="stop-color:#F0C986"/>
		<stop  offset="0.7099" style="stop-color:#DFBA7B"/>
		<stop  offset="0.8734" style="stop-color:#B1925D"/>
		<stop  offset="1" style="stop-color:#8A6F44"/>
	</linearGradient>
	<path class="st29" d="M144.5,25.6c-0.5,1,0,2.2,1,2.8c0,0,0,0,0,0c0,0,0.1,0,0.1,0c1.1,0.3,2.3-0.2,2.7-1.3c0.3-1,0-2.4-1.1-2.8
		C146.2,23.9,144.9,24.6,144.5,25.6z M145.3,26.1c0.2-0.6,0.9-1.1,1.5-0.9c0.6,0.2,0.8,1,0.6,1.6c-0.2,0.6-0.9,0.9-1.5,0.7
		C145.4,27.2,145.1,26.7,145.3,26.1z"/>
	<linearGradient id="SVGID_30_" gradientUnits="userSpaceOnUse" x1="96.4184" y1="15.6444" x2="191.4829" y2="56.5221">
		<stop  offset="0" style="stop-color:#B0925F"/>
		<stop  offset="0.2784" style="stop-color:#8A6F44"/>
		<stop  offset="0.4226" style="stop-color:#BA9A63"/>
		<stop  offset="0.5573" style="stop-color:#E1BC7C"/>
		<stop  offset="0.6275" style="stop-color:#F0C986"/>
		<stop  offset="0.7099" style="stop-color:#DFBA7B"/>
		<stop  offset="0.8734" style="stop-color:#B1925D"/>
		<stop  offset="1" style="stop-color:#8A6F44"/>
	</linearGradient>
	<path class="st30" d="M164.5,43.3c-1.1,0.4-1.6,1.6-1.3,2.7c0,0,0,0.1,0,0.1c0,0,0,0,0,0c0.5,1,1.7,1.5,2.8,1
		c0.9-0.4,1.7-1.7,1.3-2.7C166.9,43.4,165.5,43,164.5,43.3z M166.5,44.8c0.2,0.6-0.2,1.2-0.8,1.5c-0.6,0.3-1.2,0-1.5-0.6
		c-0.2-0.6,0-1.2,0.6-1.5C165.3,44,166.2,44.2,166.5,44.8z"/>
	<linearGradient id="SVGID_31_" gradientUnits="userSpaceOnUse" x1="86.3498" y1="39.0592" x2="181.4139" y2="79.9368">
		<stop  offset="0" style="stop-color:#B0925F"/>
		<stop  offset="0.2784" style="stop-color:#8A6F44"/>
		<stop  offset="0.4226" style="stop-color:#BA9A63"/>
		<stop  offset="0.5573" style="stop-color:#E1BC7C"/>
		<stop  offset="0.6275" style="stop-color:#F0C986"/>
		<stop  offset="0.7099" style="stop-color:#DFBA7B"/>
		<stop  offset="0.8734" style="stop-color:#B1925D"/>
		<stop  offset="1" style="stop-color:#8A6F44"/>
	</linearGradient>
	<path class="st31" d="M98.7,44.4c-0.4,1,0.3,2.3,1.3,2.7c1,0.5,2.2,0,2.8-1c0,0,0,0,0,0c0,0,0-0.1,0-0.1c0.3-1.1-0.2-2.3-1.3-2.7
		C100.5,43,99.1,43.4,98.7,44.4z M99.6,44.8c0.2-0.6,1-0.8,1.6-0.6c0.6,0.2,0.9,0.9,0.7,1.5c-0.3,0.5-0.9,0.8-1.4,0.6
		C99.9,46.2,99.4,45.5,99.6,44.8z"/>
	<linearGradient id="SVGID_32_" gradientUnits="userSpaceOnUse" x1="98.2447" y1="11.3968" x2="193.3092" y2="52.2746">
		<stop  offset="0" style="stop-color:#B0925F"/>
		<stop  offset="0.2784" style="stop-color:#8A6F44"/>
		<stop  offset="0.4226" style="stop-color:#BA9A63"/>
		<stop  offset="0.5573" style="stop-color:#E1BC7C"/>
		<stop  offset="0.6275" style="stop-color:#F0C986"/>
		<stop  offset="0.7099" style="stop-color:#DFBA7B"/>
		<stop  offset="0.8734" style="stop-color:#B1925D"/>
		<stop  offset="1" style="stop-color:#8A6F44"/>
	</linearGradient>
	<path class="st32" d="M118.5,23.7c0.2,0,0.3-0.2,0.3-0.4c-0.2-2.2-1.8-4-1.9-6.1c0-0.6,0.2-1.5-0.6-1.6c-0.5-0.1-0.8,0.3-0.8,0.8
		c-0.4-0.3-0.8-0.4-1.2,0c-0.5,0.7,0.5,1.3,0.8,1.8c1.4,1.6,1.5,3.9,2.9,5.6C118.2,23.8,118.4,23.8,118.5,23.7z"/>
	<linearGradient id="SVGID_33_" gradientUnits="userSpaceOnUse" x1="103.1718" y1="-6.196649e-02" x2="198.2361" y2="40.8157">
		<stop  offset="0" style="stop-color:#B0925F"/>
		<stop  offset="0.2784" style="stop-color:#8A6F44"/>
		<stop  offset="0.4226" style="stop-color:#BA9A63"/>
		<stop  offset="0.5573" style="stop-color:#E1BC7C"/>
		<stop  offset="0.6275" style="stop-color:#F0C986"/>
		<stop  offset="0.7099" style="stop-color:#DFBA7B"/>
		<stop  offset="0.8734" style="stop-color:#B1925D"/>
		<stop  offset="1" style="stop-color:#8A6F44"/>
	</linearGradient>
	<path class="st33" d="M147.2,23.2c0,0.3,0.1,0.4,0.3,0.4c0.2,0.1,0.4,0.1,0.5-0.1c1.3-1.7,1.5-3.9,2.9-5.6c0.4-0.4,1.3-1,0.9-1.7
		c-0.3-0.5-0.8-0.3-1.2,0c-0.1-0.4-0.3-0.8-0.7-0.8c-0.9,0-0.7,1-0.7,1.6C149,19.2,147.4,21.1,147.2,23.2z"/>
	<linearGradient id="SVGID_34_" gradientUnits="userSpaceOnUse" x1="98.5596" y1="10.6647" x2="193.6237" y2="51.5423">
		<stop  offset="0" style="stop-color:#B0925F"/>
		<stop  offset="0.2784" style="stop-color:#8A6F44"/>
		<stop  offset="0.4226" style="stop-color:#BA9A63"/>
		<stop  offset="0.5573" style="stop-color:#E1BC7C"/>
		<stop  offset="0.6275" style="stop-color:#F0C986"/>
		<stop  offset="0.7099" style="stop-color:#DFBA7B"/>
		<stop  offset="0.8734" style="stop-color:#B1925D"/>
		<stop  offset="1" style="stop-color:#8A6F44"/>
	</linearGradient>
	<path class="st34" d="M168,44.1c0,0.2,0.2,0.3,0.4,0.3c2.2-0.2,4-1.8,6.1-1.9c0.6,0,1.5,0.2,1.6-0.6c0.1-0.5-0.3-0.8-0.8-0.8
		c0.3-0.4,0.4-0.8,0-1.2c-0.7-0.5-1.3,0.5-1.8,0.8c-1.6,1.4-3.9,1.5-5.6,2.9C167.9,43.8,167.9,44,168,44.1z"/>
	<linearGradient id="SVGID_35_" gradientUnits="userSpaceOnUse" x1="86.2949" y1="39.187" x2="181.3592" y2="80.0647">
		<stop  offset="0" style="stop-color:#B0925F"/>
		<stop  offset="0.2784" style="stop-color:#8A6F44"/>
		<stop  offset="0.4226" style="stop-color:#BA9A63"/>
		<stop  offset="0.5573" style="stop-color:#E1BC7C"/>
		<stop  offset="0.6275" style="stop-color:#F0C986"/>
		<stop  offset="0.7099" style="stop-color:#DFBA7B"/>
		<stop  offset="0.8734" style="stop-color:#B1925D"/>
		<stop  offset="1" style="stop-color:#8A6F44"/>
	</linearGradient>
	<path class="st35" d="M89.8,41.8c0,0.9,1,0.7,1.6,0.7c2.2,0.1,4,1.7,6.1,1.9c0.3,0,0.4-0.1,0.4-0.3c0.1-0.2,0.1-0.4-0.1-0.5
		c-1.7-1.3-3.9-1.5-5.6-2.9c-0.4-0.4-1-1.3-1.7-0.9c-0.5,0.3-0.3,0.8,0,1.2C90.2,41.1,89.8,41.3,89.8,41.8z"/>
	<linearGradient id="SVGID_36_" gradientUnits="userSpaceOnUse" x1="98.3992" y1="11.0377" x2="193.4636" y2="51.9154">
		<stop  offset="0" style="stop-color:#B0925F"/>
		<stop  offset="0.2784" style="stop-color:#8A6F44"/>
		<stop  offset="0.4226" style="stop-color:#BA9A63"/>
		<stop  offset="0.5573" style="stop-color:#E1BC7C"/>
		<stop  offset="0.6275" style="stop-color:#F0C986"/>
		<stop  offset="0.7099" style="stop-color:#DFBA7B"/>
		<stop  offset="0.8734" style="stop-color:#B1925D"/>
		<stop  offset="1" style="stop-color:#8A6F44"/>
	</linearGradient>
	<path class="st36" d="M122.1,18.5c-0.5-0.5-1.2-0.4-1.5,0.3c-0.2,0.5-0.2,1.2-0.3,1.7c-0.1,0.7-0.2,1.4-0.3,2.1
		c0,0.2,0,0.3,0.1,0.4c0.1,0.3,0.5,0.4,0.7,0.1C121.6,22.2,123.5,19.7,122.1,18.5z"/>
	<linearGradient id="SVGID_37_" gradientUnits="userSpaceOnUse" x1="87.7218" y1="35.8687" x2="182.7861" y2="76.7463">
		<stop  offset="0" style="stop-color:#B0925F"/>
		<stop  offset="0.2784" style="stop-color:#8A6F44"/>
		<stop  offset="0.4226" style="stop-color:#BA9A63"/>
		<stop  offset="0.5573" style="stop-color:#E1BC7C"/>
		<stop  offset="0.6275" style="stop-color:#F0C986"/>
		<stop  offset="0.7099" style="stop-color:#DFBA7B"/>
		<stop  offset="0.8734" style="stop-color:#B1925D"/>
		<stop  offset="1" style="stop-color:#8A6F44"/>
	</linearGradient>
	<path class="st37" d="M96.9,38c-0.7,0.1-1,0.7-0.7,1.3c0.2,0.5,0.7,1,1,1.4c0.4,0.6,0.8,1.1,1.2,1.7c0.1,0.2,0.3,0.2,0.4,0.2
		c0.3,0.1,0.6,0,0.6-0.4C99.2,41,98.7,37.7,96.9,38z"/>
	<linearGradient id="SVGID_38_" gradientUnits="userSpaceOnUse" x1="96.7859" y1="14.7897" x2="191.8502" y2="55.6673">
		<stop  offset="0" style="stop-color:#B0925F"/>
		<stop  offset="0.2784" style="stop-color:#8A6F44"/>
		<stop  offset="0.4226" style="stop-color:#BA9A63"/>
		<stop  offset="0.5573" style="stop-color:#E1BC7C"/>
		<stop  offset="0.6275" style="stop-color:#F0C986"/>
		<stop  offset="0.7099" style="stop-color:#DFBA7B"/>
		<stop  offset="0.8734" style="stop-color:#B1925D"/>
		<stop  offset="1" style="stop-color:#8A6F44"/>
	</linearGradient>
	<path class="st38" d="M172.8,46.2c-0.5-0.2-1.2-0.2-1.7-0.3c-0.7-0.1-1.4-0.2-2.1-0.3c-0.2,0-0.3,0-0.4,0.1
		c-0.3,0.1-0.4,0.5-0.1,0.7c0.9,0.8,3.4,2.7,4.6,1.3C173.6,47.2,173.5,46.5,172.8,46.2z"/>
	<linearGradient id="SVGID_39_" gradientUnits="userSpaceOnUse" x1="102.1921" y1="2.2168" x2="197.2561" y2="43.0943">
		<stop  offset="0" style="stop-color:#B0925F"/>
		<stop  offset="0.2784" style="stop-color:#8A6F44"/>
		<stop  offset="0.4226" style="stop-color:#BA9A63"/>
		<stop  offset="0.5573" style="stop-color:#E1BC7C"/>
		<stop  offset="0.6275" style="stop-color:#F0C986"/>
		<stop  offset="0.7099" style="stop-color:#DFBA7B"/>
		<stop  offset="0.8734" style="stop-color:#B1925D"/>
		<stop  offset="1" style="stop-color:#8A6F44"/>
	</linearGradient>
	<path class="st39" d="M152.3,21.7c-0.5,0.2-1,0.7-1.4,1c-0.6,0.4-1.1,0.8-1.7,1.2c-0.2,0.1-0.2,0.3-0.2,0.4c-0.1,0.3,0,0.6,0.4,0.6
		c1.2-0.1,4.4-0.6,4.2-2.4C153.6,21.8,152.9,21.4,152.3,21.7z"/>
	<linearGradient id="SVGID_40_" gradientUnits="userSpaceOnUse" x1="102.1574" y1="2.2973" x2="197.2218" y2="43.175">
		<stop  offset="0" style="stop-color:#B0925F"/>
		<stop  offset="0.2784" style="stop-color:#8A6F44"/>
		<stop  offset="0.4226" style="stop-color:#BA9A63"/>
		<stop  offset="0.5573" style="stop-color:#E1BC7C"/>
		<stop  offset="0.6275" style="stop-color:#F0C986"/>
		<stop  offset="0.7099" style="stop-color:#DFBA7B"/>
		<stop  offset="0.8734" style="stop-color:#B1925D"/>
		<stop  offset="1" style="stop-color:#8A6F44"/>
	</linearGradient>
	<path class="st40" d="M145.8,20.7c-0.1-0.6-0.1-1.3-0.3-1.8c-0.3-0.7-1-0.8-1.5-0.3c-1.3,1.2,0.6,3.7,1.3,4.6
		c0.2,0.3,0.6,0.1,0.7-0.1c0.1-0.1,0.2-0.2,0.1-0.4C146,21.9,145.9,21.3,145.8,20.7z"/>
	<linearGradient id="SVGID_41_" gradientUnits="userSpaceOnUse" x1="96.4539" y1="15.5613" x2="191.5182" y2="56.439">
		<stop  offset="0" style="stop-color:#B0925F"/>
		<stop  offset="0.2784" style="stop-color:#8A6F44"/>
		<stop  offset="0.4226" style="stop-color:#BA9A63"/>
		<stop  offset="0.5573" style="stop-color:#E1BC7C"/>
		<stop  offset="0.6275" style="stop-color:#F0C986"/>
		<stop  offset="0.7099" style="stop-color:#DFBA7B"/>
		<stop  offset="0.8734" style="stop-color:#B1925D"/>
		<stop  offset="1" style="stop-color:#8A6F44"/>
	</linearGradient>
	<path class="st41" d="M116.6,24.9c0.4,0,0.5-0.3,0.4-0.6c0-0.1,0-0.3-0.2-0.4c-0.6-0.4-1.1-0.8-1.7-1.2c-0.4-0.3-0.9-0.7-1.4-1
		c-0.6-0.3-1.2,0.1-1.3,0.7C112.1,24.3,115.4,24.8,116.6,24.9z"/>
	<linearGradient id="SVGID_42_" gradientUnits="userSpaceOnUse" x1="84.9297" y1="42.3619" x2="179.9938" y2="83.2395">
		<stop  offset="0" style="stop-color:#B0925F"/>
		<stop  offset="0.2784" style="stop-color:#8A6F44"/>
		<stop  offset="0.4226" style="stop-color:#BA9A63"/>
		<stop  offset="0.5573" style="stop-color:#E1BC7C"/>
		<stop  offset="0.6275" style="stop-color:#F0C986"/>
		<stop  offset="0.7099" style="stop-color:#DFBA7B"/>
		<stop  offset="0.8734" style="stop-color:#B1925D"/>
		<stop  offset="1" style="stop-color:#8A6F44"/>
	</linearGradient>
	<path class="st42" d="M97.4,45.7c-0.1-0.1-0.2-0.2-0.4-0.1c-0.6,0.1-1.3,0.2-1.9,0.3c-0.6,0.1-1.3,0.1-1.8,0.3
		c-0.7,0.3-0.8,1-0.3,1.5c1.2,1.3,3.7-0.6,4.6-1.3C97.8,46.2,97.7,45.8,97.4,45.7z"/>
	<linearGradient id="SVGID_43_" gradientUnits="userSpaceOnUse" x1="98.6696" y1="10.4095" x2="193.7334" y2="51.2869">
		<stop  offset="0" style="stop-color:#B0925F"/>
		<stop  offset="0.2784" style="stop-color:#8A6F44"/>
		<stop  offset="0.4226" style="stop-color:#BA9A63"/>
		<stop  offset="0.5573" style="stop-color:#E1BC7C"/>
		<stop  offset="0.6275" style="stop-color:#F0C986"/>
		<stop  offset="0.7099" style="stop-color:#DFBA7B"/>
		<stop  offset="0.8734" style="stop-color:#B1925D"/>
		<stop  offset="1" style="stop-color:#8A6F44"/>
	</linearGradient>
	<path class="st43" d="M169.2,38c-1.8-0.3-2.3,3-2.4,4.2c0,0.4,0.3,0.5,0.6,0.4c0.1,0,0.3,0,0.4-0.2c0.4-0.6,0.8-1.1,1.2-1.7
		c0.3-0.4,0.7-0.9,1-1.4C170.2,38.7,169.8,38.1,169.2,38z"/>
	<linearGradient id="SVGID_44_" gradientUnits="userSpaceOnUse" x1="98.9409" y1="9.7777" x2="194.0053" y2="50.6554">
		<stop  offset="0" style="stop-color:#B0925F"/>
		<stop  offset="0.2784" style="stop-color:#8A6F44"/>
		<stop  offset="0.4226" style="stop-color:#BA9A63"/>
		<stop  offset="0.5573" style="stop-color:#E1BC7C"/>
		<stop  offset="0.6275" style="stop-color:#F0C986"/>
		<stop  offset="0.7099" style="stop-color:#DFBA7B"/>
		<stop  offset="0.8734" style="stop-color:#B1925D"/>
		<stop  offset="1" style="stop-color:#8A6F44"/>
	</linearGradient>
	<path class="st44" d="M118.7,19.1c0.6,0.3,1.3-0.3,1.1-0.9c-0.1-0.4-0.4-0.6-0.8-0.6c-0.4,0-0.7,0.3-0.8,0.6
		c-0.1,0.2,0,0.4,0.2,0.5C118.4,18.9,118.5,19,118.7,19.1z"/>
	<linearGradient id="SVGID_45_" gradientUnits="userSpaceOnUse" x1="87.2762" y1="36.905" x2="182.3407" y2="77.7827">
		<stop  offset="0" style="stop-color:#B0925F"/>
		<stop  offset="0.2784" style="stop-color:#8A6F44"/>
		<stop  offset="0.4226" style="stop-color:#BA9A63"/>
		<stop  offset="0.5573" style="stop-color:#E1BC7C"/>
		<stop  offset="0.6275" style="stop-color:#F0C986"/>
		<stop  offset="0.7099" style="stop-color:#DFBA7B"/>
		<stop  offset="0.8734" style="stop-color:#B1925D"/>
		<stop  offset="1" style="stop-color:#8A6F44"/>
	</linearGradient>
	<path class="st45" d="M94.4,40.8c0.2,0.1,0.3,0.1,0.5,0c0.3-0.1,0.5-0.4,0.5-0.8c0-0.3-0.2-0.6-0.6-0.7c-0.3-0.1-0.7,0-0.9,0.3
		c-0.2,0.3-0.2,0.6,0,0.9C94.1,40.7,94.3,40.8,94.4,40.8z M94.8,40.1C94.8,40.1,94.8,40.1,94.8,40.1C94.8,40.1,94.8,40.1,94.8,40.1z
		 M94.8,40.1L94.8,40.1C94.8,40.1,94.8,40.1,94.8,40.1C94.8,40.1,94.8,40.1,94.8,40.1z M94.6,40.1C94.6,40.1,94.6,40.1,94.6,40.1
		L94.6,40.1C94.6,40.1,94.6,40.1,94.6,40.1z"/>
	<linearGradient id="SVGID_46_" gradientUnits="userSpaceOnUse" x1="97.8906" y1="12.2207" x2="192.9547" y2="53.0982">
		<stop  offset="0" style="stop-color:#B0925F"/>
		<stop  offset="0.2784" style="stop-color:#8A6F44"/>
		<stop  offset="0.4226" style="stop-color:#BA9A63"/>
		<stop  offset="0.5573" style="stop-color:#E1BC7C"/>
		<stop  offset="0.6275" style="stop-color:#F0C986"/>
		<stop  offset="0.7099" style="stop-color:#DFBA7B"/>
		<stop  offset="0.8734" style="stop-color:#B1925D"/>
		<stop  offset="1" style="stop-color:#8A6F44"/>
	</linearGradient>
	<path class="st46" d="M174,44.6c0-0.4-0.3-0.7-0.6-0.8c-0.2-0.1-0.4,0-0.5,0.2c-0.2,0.1-0.3,0.2-0.4,0.3c-0.3,0.6,0.3,1.3,0.9,1.1
		C173.8,45.3,174,45,174,44.6z"/>
	<linearGradient id="SVGID_47_" gradientUnits="userSpaceOnUse" x1="103.3307" y1="-0.4316" x2="198.3953" y2="40.4461">
		<stop  offset="0" style="stop-color:#B0925F"/>
		<stop  offset="0.2784" style="stop-color:#8A6F44"/>
		<stop  offset="0.4226" style="stop-color:#BA9A63"/>
		<stop  offset="0.5573" style="stop-color:#E1BC7C"/>
		<stop  offset="0.6275" style="stop-color:#F0C986"/>
		<stop  offset="0.7099" style="stop-color:#DFBA7B"/>
		<stop  offset="0.8734" style="stop-color:#B1925D"/>
		<stop  offset="1" style="stop-color:#8A6F44"/>
	</linearGradient>
	<path class="st47" d="M152,19.6c-0.3-0.2-0.6-0.2-0.9,0c-0.2,0.1-0.2,0.3-0.2,0.5c-0.1,0.2-0.1,0.3,0,0.5c0.1,0.3,0.4,0.5,0.8,0.5
		c0.3,0,0.6-0.2,0.7-0.6C152.4,20.2,152.3,19.8,152,19.6z M151.5,20.4C151.5,20.4,151.5,20.4,151.5,20.4
		C151.5,20.4,151.5,20.4,151.5,20.4z M151.5,20.4C151.5,20.4,151.5,20.4,151.5,20.4C151.5,20.4,151.5,20.4,151.5,20.4
		C151.5,20.4,151.5,20.4,151.5,20.4z M151.6,20.2L151.6,20.2C151.6,20.2,151.6,20.2,151.6,20.2C151.6,20.2,151.6,20.2,151.6,20.2z"
		/>
	<linearGradient id="SVGID_48_" gradientUnits="userSpaceOnUse" x1="103.3055" y1="-0.3728" x2="198.3699" y2="40.5049">
		<stop  offset="0" style="stop-color:#B0925F"/>
		<stop  offset="0.2784" style="stop-color:#8A6F44"/>
		<stop  offset="0.4226" style="stop-color:#BA9A63"/>
		<stop  offset="0.5573" style="stop-color:#E1BC7C"/>
		<stop  offset="0.6275" style="stop-color:#F0C986"/>
		<stop  offset="0.7099" style="stop-color:#DFBA7B"/>
		<stop  offset="0.8734" style="stop-color:#B1925D"/>
		<stop  offset="1" style="stop-color:#8A6F44"/>
	</linearGradient>
	<path class="st48" d="M147.2,17.6c-0.3-0.1-0.7,0.1-0.9,0.4c-0.2,0.3-0.2,0.6,0,0.9c0.2,0.3,0.5,0.4,0.8,0.4c0.3,0,0.4-0.2,0.5-0.5
		c0.2-0.1,0.3-0.3,0.2-0.5C147.8,18,147.5,17.7,147.2,17.6z"/>
	<linearGradient id="SVGID_49_" gradientUnits="userSpaceOnUse" x1="97.5537" y1="13.0039" x2="192.6176" y2="53.8813">
		<stop  offset="0" style="stop-color:#B0925F"/>
		<stop  offset="0.2784" style="stop-color:#8A6F44"/>
		<stop  offset="0.4226" style="stop-color:#BA9A63"/>
		<stop  offset="0.5573" style="stop-color:#E1BC7C"/>
		<stop  offset="0.6275" style="stop-color:#F0C986"/>
		<stop  offset="0.7099" style="stop-color:#DFBA7B"/>
		<stop  offset="0.8734" style="stop-color:#B1925D"/>
		<stop  offset="1" style="stop-color:#8A6F44"/>
	</linearGradient>
	<path class="st49" d="M115,19.6c-0.3-0.1-0.6-0.2-0.9,0c-0.3,0.2-0.4,0.4-0.4,0.7c0,0.3,0.2,0.6,0.5,0.7c0.3,0.1,0.7,0,0.9-0.2
		c0.2-0.2,0.2-0.5,0.1-0.8C115.2,19.9,115.2,19.7,115,19.6z"/>
	<linearGradient id="SVGID_50_" gradientUnits="userSpaceOnUse" x1="85.3408" y1="41.406" x2="180.405" y2="82.2836">
		<stop  offset="0" style="stop-color:#B0925F"/>
		<stop  offset="0.2784" style="stop-color:#8A6F44"/>
		<stop  offset="0.4226" style="stop-color:#BA9A63"/>
		<stop  offset="0.5573" style="stop-color:#E1BC7C"/>
		<stop  offset="0.6275" style="stop-color:#F0C986"/>
		<stop  offset="0.7099" style="stop-color:#DFBA7B"/>
		<stop  offset="0.8734" style="stop-color:#B1925D"/>
		<stop  offset="1" style="stop-color:#8A6F44"/>
	</linearGradient>
	<path class="st50" d="M92.4,45.3c0.3,0.2,0.6,0.2,0.9,0c0.3-0.2,0.4-0.5,0.4-0.8c0-0.3-0.2-0.4-0.5-0.5c-0.1-0.2-0.3-0.3-0.5-0.2
		c-0.3,0.1-0.6,0.3-0.6,0.7C92,44.8,92.1,45.1,92.4,45.3z"/>
	<linearGradient id="SVGID_51_" gradientUnits="userSpaceOnUse" x1="99.2416" y1="9.0777" x2="194.3064" y2="49.9556">
		<stop  offset="0" style="stop-color:#B0925F"/>
		<stop  offset="0.2784" style="stop-color:#8A6F44"/>
		<stop  offset="0.4226" style="stop-color:#BA9A63"/>
		<stop  offset="0.5573" style="stop-color:#E1BC7C"/>
		<stop  offset="0.6275" style="stop-color:#F0C986"/>
		<stop  offset="0.7099" style="stop-color:#DFBA7B"/>
		<stop  offset="0.8734" style="stop-color:#B1925D"/>
		<stop  offset="1" style="stop-color:#8A6F44"/>
	</linearGradient>
	<path class="st51" d="M171.6,40.8c0.2,0,0.4,0,0.5-0.2c0.1-0.3,0.2-0.6,0-0.9c-0.2-0.3-0.4-0.4-0.7-0.4c-0.3,0-0.6,0.2-0.7,0.5
		c-0.1,0.3,0,0.7,0.2,0.9C171,40.9,171.3,40.9,171.6,40.8z"/>
	<linearGradient id="SVGID_52_" gradientUnits="userSpaceOnUse" x1="99.1396" y1="9.3154" x2="194.204" y2="50.1931">
		<stop  offset="0" style="stop-color:#B0925F"/>
		<stop  offset="0.2784" style="stop-color:#8A6F44"/>
		<stop  offset="0.4226" style="stop-color:#BA9A63"/>
		<stop  offset="0.5573" style="stop-color:#E1BC7C"/>
		<stop  offset="0.6275" style="stop-color:#F0C986"/>
		<stop  offset="0.7099" style="stop-color:#DFBA7B"/>
		<stop  offset="0.8734" style="stop-color:#B1925D"/>
		<stop  offset="1" style="stop-color:#8A6F44"/>
	</linearGradient>
	<path class="st52" d="M123.9,20.4c0.2,0,0.5-0.2,0.5-0.5c0-0.2-0.2-0.5-0.5-0.5c0,0,0,0-0.1,0c-0.2,0-0.5,0.2-0.5,0.5
		C123.4,20.2,123.6,20.4,123.9,20.4C123.9,20.4,123.9,20.4,123.9,20.4z"/>
	<linearGradient id="SVGID_53_" gradientUnits="userSpaceOnUse" x1="88.8324" y1="33.2859" x2="183.897" y2="74.1637">
		<stop  offset="0" style="stop-color:#B0925F"/>
		<stop  offset="0.2784" style="stop-color:#8A6F44"/>
		<stop  offset="0.4226" style="stop-color:#BA9A63"/>
		<stop  offset="0.5573" style="stop-color:#E1BC7C"/>
		<stop  offset="0.6275" style="stop-color:#F0C986"/>
		<stop  offset="0.7099" style="stop-color:#DFBA7B"/>
		<stop  offset="0.8734" style="stop-color:#B1925D"/>
		<stop  offset="1" style="stop-color:#8A6F44"/>
	</linearGradient>
	<path class="st53" d="M98.9,37.4C98.9,37.4,98.9,37.4,98.9,37.4c-0.2,0.2-0.2,0.5,0,0.7c0.2,0.2,0.5,0.2,0.6,0c0,0,0,0,0,0
		c0.2-0.2,0.2-0.5,0-0.6C99.4,37.2,99.1,37.2,98.9,37.4z"/>
	<linearGradient id="SVGID_54_" gradientUnits="userSpaceOnUse" x1="95.8891" y1="16.8743" x2="190.9536" y2="57.752">
		<stop  offset="0" style="stop-color:#B0925F"/>
		<stop  offset="0.2784" style="stop-color:#8A6F44"/>
		<stop  offset="0.4226" style="stop-color:#BA9A63"/>
		<stop  offset="0.5573" style="stop-color:#E1BC7C"/>
		<stop  offset="0.6275" style="stop-color:#F0C986"/>
		<stop  offset="0.7099" style="stop-color:#DFBA7B"/>
		<stop  offset="0.8734" style="stop-color:#B1925D"/>
		<stop  offset="1" style="stop-color:#8A6F44"/>
	</linearGradient>
	<path class="st54" d="M171.7,49c-0.2,0-0.5,0.2-0.5,0.5c0,0,0,0,0,0.1c0,0.2,0.2,0.5,0.5,0.5c0.2,0,0.5-0.2,0.5-0.5c0,0,0,0,0-0.1
		C172.1,49.2,171.9,49,171.7,49z"/>
	<linearGradient id="SVGID_55_" gradientUnits="userSpaceOnUse" x1="102.0627" y1="2.5175" x2="197.1271" y2="43.3952">
		<stop  offset="0" style="stop-color:#B0925F"/>
		<stop  offset="0.2784" style="stop-color:#8A6F44"/>
		<stop  offset="0.4226" style="stop-color:#BA9A63"/>
		<stop  offset="0.5573" style="stop-color:#E1BC7C"/>
		<stop  offset="0.6275" style="stop-color:#F0C986"/>
		<stop  offset="0.7099" style="stop-color:#DFBA7B"/>
		<stop  offset="0.8734" style="stop-color:#B1925D"/>
		<stop  offset="1" style="stop-color:#8A6F44"/>
	</linearGradient>
	<path class="st55" d="M153.5,25.1C153.6,25.1,153.6,25.1,153.5,25.1c0.2,0.2,0.5,0.2,0.7,0c0.2-0.2,0.2-0.5,0-0.6c0,0,0,0,0,0
		c-0.2-0.2-0.5-0.2-0.6,0C153.4,24.6,153.4,24.9,153.5,25.1z"/>
	<linearGradient id="SVGID_56_" gradientUnits="userSpaceOnUse" x1="101.9958" y1="2.6738" x2="197.0596" y2="43.5512">
		<stop  offset="0" style="stop-color:#B0925F"/>
		<stop  offset="0.2784" style="stop-color:#8A6F44"/>
		<stop  offset="0.4226" style="stop-color:#BA9A63"/>
		<stop  offset="0.5573" style="stop-color:#E1BC7C"/>
		<stop  offset="0.6275" style="stop-color:#F0C986"/>
		<stop  offset="0.7099" style="stop-color:#DFBA7B"/>
		<stop  offset="0.8734" style="stop-color:#B1925D"/>
		<stop  offset="1" style="stop-color:#8A6F44"/>
	</linearGradient>
	<path class="st56" d="M142.1,19.5c-0.2,0-0.5,0.2-0.5,0.5c0,0.2,0.2,0.5,0.5,0.5c0,0,0,0,0.1,0c0.2,0,0.5-0.2,0.5-0.5
		C142.6,19.7,142.5,19.5,142.1,19.5C142.2,19.5,142.2,19.5,142.1,19.5z"/>
	<linearGradient id="SVGID_57_" gradientUnits="userSpaceOnUse" x1="95.5482" y1="17.6677" x2="190.6126" y2="58.5454">
		<stop  offset="0" style="stop-color:#B0925F"/>
		<stop  offset="0.2784" style="stop-color:#8A6F44"/>
		<stop  offset="0.4226" style="stop-color:#BA9A63"/>
		<stop  offset="0.5573" style="stop-color:#E1BC7C"/>
		<stop  offset="0.6275" style="stop-color:#F0C986"/>
		<stop  offset="0.7099" style="stop-color:#DFBA7B"/>
		<stop  offset="0.8734" style="stop-color:#B1925D"/>
		<stop  offset="1" style="stop-color:#8A6F44"/>
	</linearGradient>
	<path class="st57" d="M111.8,24.5C111.8,24.5,111.8,24.5,111.8,24.5c-0.2,0.2-0.2,0.5,0,0.7c0.2,0.2,0.5,0.2,0.6,0c0,0,0,0,0,0
		c0.2-0.2,0.2-0.5,0-0.6C112.3,24.3,112,24.3,111.8,24.5z"/>
	<linearGradient id="SVGID_58_" gradientUnits="userSpaceOnUse" x1="83.8204" y1="44.9416" x2="178.8845" y2="85.8192">
		<stop  offset="0" style="stop-color:#B0925F"/>
		<stop  offset="0.2784" style="stop-color:#8A6F44"/>
		<stop  offset="0.4226" style="stop-color:#BA9A63"/>
		<stop  offset="0.5573" style="stop-color:#E1BC7C"/>
		<stop  offset="0.6275" style="stop-color:#F0C986"/>
		<stop  offset="0.7099" style="stop-color:#DFBA7B"/>
		<stop  offset="0.8734" style="stop-color:#B1925D"/>
		<stop  offset="1" style="stop-color:#8A6F44"/>
	</linearGradient>
	<path class="st58" d="M93.9,49.4C93.9,49.5,93.9,49.5,93.9,49.4c0,0.3,0.2,0.5,0.5,0.5c0.2,0,0.5-0.2,0.5-0.5c0,0,0,0,0-0.1
		c0-0.2-0.2-0.5-0.5-0.5C94.1,49,93.9,49.2,93.9,49.4z"/>
	<linearGradient id="SVGID_59_" gradientUnits="userSpaceOnUse" x1="99.3859" y1="8.7431" x2="194.4501" y2="49.6206">
		<stop  offset="0" style="stop-color:#B0925F"/>
		<stop  offset="0.2784" style="stop-color:#8A6F44"/>
		<stop  offset="0.4226" style="stop-color:#BA9A63"/>
		<stop  offset="0.5573" style="stop-color:#E1BC7C"/>
		<stop  offset="0.6275" style="stop-color:#F0C986"/>
		<stop  offset="0.7099" style="stop-color:#DFBA7B"/>
		<stop  offset="0.8734" style="stop-color:#B1925D"/>
		<stop  offset="1" style="stop-color:#8A6F44"/>
	</linearGradient>
	<path class="st59" d="M167.1,37.4c-0.2-0.2-0.5-0.2-0.6,0c-0.2,0.2-0.2,0.5,0,0.6c0,0,0,0,0,0c0.2,0.2,0.5,0.2,0.6,0
		C167.3,37.9,167.4,37.6,167.1,37.4C167.2,37.4,167.1,37.4,167.1,37.4z"/>
	<linearGradient id="SVGID_60_" gradientUnits="userSpaceOnUse" x1="99.6274" y1="8.181" x2="194.692" y2="49.0588">
		<stop  offset="0" style="stop-color:#B0925F"/>
		<stop  offset="0.2784" style="stop-color:#8A6F44"/>
		<stop  offset="0.4226" style="stop-color:#BA9A63"/>
		<stop  offset="0.5573" style="stop-color:#E1BC7C"/>
		<stop  offset="0.6275" style="stop-color:#F0C986"/>
		<stop  offset="0.7099" style="stop-color:#DFBA7B"/>
		<stop  offset="0.8734" style="stop-color:#B1925D"/>
		<stop  offset="1" style="stop-color:#8A6F44"/>
	</linearGradient>
	<path class="st60" d="M115,15.4c0.4,0,0.6-0.5,0.4-0.8c0-0.1-0.1-0.2-0.2-0.3c-0.1-0.1-0.2-0.1-0.4-0.2c0,0,0,0,0,0c0,0,0,0-0.1,0
		c0,0-0.1,0-0.1,0c-0.1,0-0.2,0.1-0.2,0.1c0,0-0.1,0.1-0.1,0.1c-0.1,0.2-0.1,0.4-0.1,0.6C114.3,15.2,114.7,15.4,115,15.4z
		 M115.1,14.8C115.1,14.8,115.1,14.8,115.1,14.8C115.1,14.8,115.1,14.8,115.1,14.8C115.1,14.8,115.1,14.8,115.1,14.8z M114.7,15
		C114.7,15,114.7,14.9,114.7,15C114.7,14.9,114.7,14.9,114.7,15z"/>
	<linearGradient id="SVGID_61_" gradientUnits="userSpaceOnUse" x1="105.309" y1="-5.0321" x2="200.3737" y2="35.8457">
		<stop  offset="0" style="stop-color:#B0925F"/>
		<stop  offset="0.2784" style="stop-color:#8A6F44"/>
		<stop  offset="0.4226" style="stop-color:#BA9A63"/>
		<stop  offset="0.5573" style="stop-color:#E1BC7C"/>
		<stop  offset="0.6275" style="stop-color:#F0C986"/>
		<stop  offset="0.7099" style="stop-color:#DFBA7B"/>
		<stop  offset="0.8734" style="stop-color:#B1925D"/>
		<stop  offset="1" style="stop-color:#8A6F44"/>
	</linearGradient>
	<path class="st61" d="M151.8,14.9c0.1-0.3,0-0.5-0.2-0.7c0,0,0,0-0.1-0.1c-0.1-0.1-0.2-0.1-0.3-0.1c0,0-0.1,0-0.1,0
		c-0.1,0-0.2,0.1-0.3,0.1c-0.1,0.1-0.2,0.2-0.3,0.4c-0.1,0.3,0.1,0.8,0.4,0.8C151.4,15.4,151.7,15.2,151.8,14.9z M151.4,14.9
		C151.3,14.9,151.3,15,151.4,14.9C151.3,14.9,151.3,14.9,151.4,14.9z M150.9,14.8C150.9,14.8,150.9,14.8,150.9,14.8
		C150.9,14.8,151,14.8,150.9,14.8C150.9,14.8,150.9,14.8,150.9,14.8z"/>
	<linearGradient id="SVGID_62_" gradientUnits="userSpaceOnUse" x1="99.9827" y1="7.3545" x2="195.0474" y2="48.2323">
		<stop  offset="0" style="stop-color:#B0925F"/>
		<stop  offset="0.2784" style="stop-color:#8A6F44"/>
		<stop  offset="0.4226" style="stop-color:#BA9A63"/>
		<stop  offset="0.5573" style="stop-color:#E1BC7C"/>
		<stop  offset="0.6275" style="stop-color:#F0C986"/>
		<stop  offset="0.7099" style="stop-color:#DFBA7B"/>
		<stop  offset="0.8734" style="stop-color:#B1925D"/>
		<stop  offset="1" style="stop-color:#8A6F44"/>
	</linearGradient>
	<path class="st62" d="M177.1,41c0.1,0,0.2-0.1,0.3-0.2c0.1-0.1,0.1-0.2,0.2-0.4c0,0,0,0,0,0c0,0,0,0,0-0.1c0,0,0-0.1,0-0.1
		c0-0.1-0.1-0.2-0.1-0.2c0,0-0.1-0.1-0.1-0.1c-0.2-0.1-0.4-0.1-0.6-0.1c-0.3,0.1-0.5,0.4-0.5,0.7C176.3,40.9,176.8,41.1,177.1,41z
		 M176.9,40.7C176.9,40.7,176.9,40.7,176.9,40.7C176.9,40.7,176.9,40.7,176.9,40.7C176.9,40.7,176.9,40.7,176.9,40.7z M176.7,40.3
		C176.7,40.3,176.7,40.3,176.7,40.3C176.7,40.3,176.7,40.3,176.7,40.3z"/>
	<linearGradient id="SVGID_63_" gradientUnits="userSpaceOnUse" x1="86.2828" y1="39.2153" x2="181.3465" y2="80.0927">
		<stop  offset="0" style="stop-color:#B0925F"/>
		<stop  offset="0.2784" style="stop-color:#8A6F44"/>
		<stop  offset="0.4226" style="stop-color:#BA9A63"/>
		<stop  offset="0.5573" style="stop-color:#E1BC7C"/>
		<stop  offset="0.6275" style="stop-color:#F0C986"/>
		<stop  offset="0.7099" style="stop-color:#DFBA7B"/>
		<stop  offset="0.8734" style="stop-color:#B1925D"/>
		<stop  offset="1" style="stop-color:#8A6F44"/>
	</linearGradient>
	<path class="st63" d="M88.6,40C88.6,40,88.5,40.1,88.6,40c-0.1,0.1-0.1,0.2-0.1,0.3c0,0,0,0.1,0,0.1c0,0.1,0.1,0.2,0.1,0.3
		c0.1,0.1,0.2,0.2,0.4,0.3c0.3,0.1,0.8-0.1,0.8-0.4c0-0.3-0.2-0.6-0.5-0.7C89,39.8,88.8,39.9,88.6,40z M89.2,40.7
		C89.2,40.7,89.2,40.7,89.2,40.7C89.2,40.7,89.2,40.7,89.2,40.7C89.2,40.7,89.2,40.7,89.2,40.7z M89.4,40.3
		C89.3,40.3,89.3,40.3,89.4,40.3C89.3,40.3,89.4,40.3,89.4,40.3z"/>
	<linearGradient id="SVGID_64_" gradientUnits="userSpaceOnUse" x1="90.5306" y1="29.3366" x2="185.595" y2="70.2142">
		<stop  offset="0" style="stop-color:#B0925F"/>
		<stop  offset="0.2784" style="stop-color:#8A6F44"/>
		<stop  offset="0.4226" style="stop-color:#BA9A63"/>
		<stop  offset="0.5573" style="stop-color:#E1BC7C"/>
		<stop  offset="0.6275" style="stop-color:#F0C986"/>
		<stop  offset="0.7099" style="stop-color:#DFBA7B"/>
		<stop  offset="0.8734" style="stop-color:#B1925D"/>
		<stop  offset="1" style="stop-color:#8A6F44"/>
	</linearGradient>
	<path class="st64" d="M89.6,33.7c0,0,0.1,0,0.1,0c0.1,0,0.2,0,0.3,0c0.1,0,0.2,0,0.4,0c2-0.1,4.1-0.6,6-1.2
		c0.6-0.2,0.3-1.1-0.2-0.9c-1.2,0.4-2.3,0.7-3.5,0.9c-0.9,0.2-1.9,0.3-2.8,0.3c-2.5-0.7-3.5-3.4-2.3-5.7c0,0,0,0,0-0.1
		c0.5-0.5,1.1-0.9,1.8-1.1c1.1-0.1,2.3,0.3,3.1,1.1c0.4,0.5,0.8,1,0.7,1.7c0,0.6-0.5,1.2-1.1,1.2c0.2-0.3,0.3-0.7,0.1-1.1
		c-0.4-0.8-1.4-1-2-0.4c-0.7,0.6-0.5,1.6,0.2,2.2c0.1,0.1,0.2,0.1,0.3,0.2c0.8,0.6,1.9,0.6,2.7,0.1c1.1-0.6,1.5-1.9,1.3-3
		c-0.5-2.4-3.1-3.3-5.3-2.8c0,0,0,0,0,0c-0.1,0-0.2,0-0.2,0.1c-0.4,0.1-0.7,0.2-1,0.4c-2.3,1.3-3.2,4.3-1.6,6.5
		C87.2,33,88.3,33.5,89.6,33.7z"/>
	<linearGradient id="SVGID_65_" gradientUnits="userSpaceOnUse" x1="106.1329" y1="-6.9477" x2="201.1972" y2="33.9299">
		<stop  offset="0" style="stop-color:#B0925F"/>
		<stop  offset="0.2784" style="stop-color:#8A6F44"/>
		<stop  offset="0.4226" style="stop-color:#BA9A63"/>
		<stop  offset="0.5573" style="stop-color:#E1BC7C"/>
		<stop  offset="0.6275" style="stop-color:#F0C986"/>
		<stop  offset="0.7099" style="stop-color:#DFBA7B"/>
		<stop  offset="0.8734" style="stop-color:#B1925D"/>
		<stop  offset="1" style="stop-color:#8A6F44"/>
	</linearGradient>
	<path class="st65" d="M158,16c0.1,2,0.6,4.1,1.2,6c0.2,0.6,1.1,0.3,0.9-0.2c-0.4-1.2-0.7-2.3-0.9-3.5c-0.2-0.9-0.3-1.9-0.3-2.8
		c0.7-2.5,3.4-3.5,5.7-2.3c0,0,0,0,0.1,0c0.5,0.5,0.9,1.1,1.1,1.8c0.1,1.1-0.3,2.3-1.1,3.1c-0.5,0.4-1,0.8-1.7,0.7
		c-0.6,0-1.2-0.5-1.2-1.1c0.3,0.2,0.7,0.3,1.1,0.1c0.8-0.4,1-1.4,0.4-2c-0.6-0.7-1.6-0.5-2.2,0.2c-0.1,0.1-0.1,0.2-0.2,0.3
		c-0.6,0.8-0.6,1.9-0.1,2.7c0.6,1.1,1.9,1.5,3,1.3c2.4-0.5,3.3-3.1,2.8-5.3c0,0,0,0,0,0c0-0.1,0-0.2-0.1-0.2c-0.1-0.4-0.2-0.7-0.4-1
		c-1.3-2.3-4.3-3.2-6.5-1.6c-1.1,0.8-1.6,1.9-1.7,3.2c0,0,0,0.1,0,0.1c0,0.1,0,0.2,0,0.3C158,15.7,158,15.9,158,16z"/>
	<linearGradient id="SVGID_66_" gradientUnits="userSpaceOnUse" x1="106.0235" y1="-6.6934" x2="201.0876" y2="34.1841">
		<stop  offset="0" style="stop-color:#B0925F"/>
		<stop  offset="0.2784" style="stop-color:#8A6F44"/>
		<stop  offset="0.4226" style="stop-color:#BA9A63"/>
		<stop  offset="0.5573" style="stop-color:#E1BC7C"/>
		<stop  offset="0.6275" style="stop-color:#F0C986"/>
		<stop  offset="0.7099" style="stop-color:#DFBA7B"/>
		<stop  offset="0.8734" style="stop-color:#B1925D"/>
		<stop  offset="1" style="stop-color:#8A6F44"/>
	</linearGradient>
	<path class="st66" d="M140.4,10.9c1.1,0.1,2.4-0.6,2.8-1.7c0-0.1,0.1-0.2,0.1-0.4c0.1-0.1,0.1-0.3,0.1-0.4c0.1-0.8-0.6-1.6-1.5-1.6
		c-0.9,0.1-1.4,1-1.1,1.8c0.1,0.3,0.5,0.5,0.8,0.6c-0.3,0.4-1,0.4-1.4,0.1c-0.6-0.4-0.8-1.1-0.8-1.8c0-1.2,0.5-2.2,1.4-3
		c0.6-0.3,1.4-0.5,2.1-0.5c0,0,0,0,0.1,0c2.5,0.8,3.6,3.4,2.4,5.7c-0.6,0.7-1.4,1.3-2.2,1.8c-1,0.7-2,1.3-3.1,1.9
		c-0.5,0.3-0.1,1.1,0.5,0.8c1.6-0.8,3.1-1.8,4.5-2.9c0.3-0.2,0.6-0.5,0.8-0.7c0.1,0,0.2-0.1,0.2-0.2c0,0,0-0.1,0.1-0.1
		c0.6-0.7,1-1.5,1.1-2.4c0.2-2.7-2.1-4.9-4.8-4.7c-0.7,0-1.3,0.2-2,0.6c-0.1,0-0.2,0-0.3,0.1c0,0-0.1,0-0.1,0.1
		c-1.6,1-2.8,2.8-2.2,4.7C138.2,9.8,139.2,10.8,140.4,10.9z"/>
	<linearGradient id="SVGID_67_" gradientUnits="userSpaceOnUse" x1="97.4363" y1="13.2769" x2="192.5009" y2="54.1547">
		<stop  offset="0" style="stop-color:#B0925F"/>
		<stop  offset="0.2784" style="stop-color:#8A6F44"/>
		<stop  offset="0.4226" style="stop-color:#BA9A63"/>
		<stop  offset="0.5573" style="stop-color:#E1BC7C"/>
		<stop  offset="0.6275" style="stop-color:#F0C986"/>
		<stop  offset="0.7099" style="stop-color:#DFBA7B"/>
		<stop  offset="0.8734" style="stop-color:#B1925D"/>
		<stop  offset="1" style="stop-color:#8A6F44"/>
	</linearGradient>
	<path class="st67" d="M101.2,19.9c2.2,1.1,5.2-0.8,4-3.4c-0.1-0.1-0.1-0.2-0.2-0.3c0-0.1-0.1-0.2-0.2-0.3c-0.5-0.7-1.6-0.8-2.2-0.2
		c-0.6,0.6-0.4,1.6,0.4,2c0.4,0.2,0.8,0.1,1.1-0.1c0,0.5-0.4,1-0.9,1.1c-0.7,0.1-1.4-0.2-1.9-0.7c-0.8-0.8-1.2-1.9-1.1-3.1
		c0.2-0.7,0.6-1.3,1.1-1.8c0,0,0,0,0.1,0c2.3-1.2,5-0.1,5.7,2.3c0.1,0.9-0.1,1.9-0.3,2.8c-0.2,1.2-0.5,2.4-0.9,3.5
		c-0.2,0.6,0.7,0.8,0.9,0.2c0.6-1.7,1-3.5,1.1-5.3c0-0.4,0.1-0.7,0.1-1.1c0-0.1,0-0.2,0-0.3c0,0,0-0.1,0-0.1c-0.1-0.9-0.3-1.8-1-2.5
		c-1.8-2.1-5-1.8-6.7,0.2c-0.4,0.5-0.7,1.1-0.9,1.7c0,0.1-0.1,0.1-0.1,0.2c0,0,0,0.1,0,0.1C98.9,16.8,99.4,19,101.2,19.9z
		 M103.7,16.2c0,0-0.1,0-0.1,0C103.6,16.3,103.7,16.2,103.7,16.2C103.7,16.2,103.7,16.2,103.7,16.2z"/>
	<linearGradient id="SVGID_68_" gradientUnits="userSpaceOnUse" x1="103.6675" y1="-1.2145" x2="198.7316" y2="39.6631">
		<stop  offset="0" style="stop-color:#B0925F"/>
		<stop  offset="0.2784" style="stop-color:#8A6F44"/>
		<stop  offset="0.4226" style="stop-color:#BA9A63"/>
		<stop  offset="0.5573" style="stop-color:#E1BC7C"/>
		<stop  offset="0.6275" style="stop-color:#F0C986"/>
		<stop  offset="0.7099" style="stop-color:#DFBA7B"/>
		<stop  offset="0.8734" style="stop-color:#B1925D"/>
		<stop  offset="1" style="stop-color:#8A6F44"/>
	</linearGradient>
	<path class="st68" d="M175.1,30.9c0.1-0.1,0.2-0.1,0.3-0.2c0.1,0,0.2-0.1,0.3-0.2c0.7-0.5,0.8-1.6,0.2-2.2c-0.6-0.6-1.6-0.4-2,0.4
		c-0.2,0.4-0.1,0.8,0.1,1.1c-0.5,0-1-0.4-1.1-0.9c-0.1-0.7,0.2-1.4,0.7-1.9c0.8-0.8,1.9-1.2,3.1-1.1c0.7,0.2,1.3,0.6,1.8,1.1
		c0,0,0,0,0,0.1c1.2,2.3,0.1,5-2.3,5.7c-0.9,0.1-1.9-0.1-2.8-0.3c-1.2-0.2-2.4-0.5-3.5-0.9c-0.6-0.2-0.8,0.7-0.2,0.9
		c1.7,0.6,3.5,1,5.3,1.1c0.4,0,0.7,0.1,1.1,0.1c0.1,0,0.2,0,0.3,0c0,0,0.1,0,0.1,0c0.9-0.1,1.8-0.3,2.5-1c2.1-1.8,1.8-5-0.2-6.7
		c-0.5-0.4-1.1-0.7-1.7-0.9c-0.1,0-0.1-0.1-0.2-0.1c0,0-0.1,0-0.1,0c-1.9-0.5-4,0-5,1.9C170.7,29,172.6,32,175.1,30.9z M175.4,29.3
		C175.4,29.3,175.4,29.3,175.4,29.3c0-0.1,0-0.1,0-0.1C175.4,29.2,175.4,29.3,175.4,29.3z"/>
	<linearGradient id="SVGID_69_" gradientUnits="userSpaceOnUse" x1="81.9965" y1="49.1834" x2="177.0608" y2="90.0611">
		<stop  offset="0" style="stop-color:#B0925F"/>
		<stop  offset="0.2784" style="stop-color:#8A6F44"/>
		<stop  offset="0.4226" style="stop-color:#BA9A63"/>
		<stop  offset="0.5573" style="stop-color:#E1BC7C"/>
		<stop  offset="0.6275" style="stop-color:#F0C986"/>
		<stop  offset="0.7099" style="stop-color:#DFBA7B"/>
		<stop  offset="0.8734" style="stop-color:#B1925D"/>
		<stop  offset="1" style="stop-color:#8A6F44"/>
	</linearGradient>
	<path class="st69" d="M78.3,51.5C78.3,51.5,78.3,51.5,78.3,51.5c1,1.7,2.8,2.9,4.8,2.3c1.1-0.3,2.1-1.3,2.2-2.5
		c0.1-1.1-0.6-2.4-1.7-2.8c-0.1,0-0.2-0.1-0.4-0.1c-0.1-0.1-0.3-0.1-0.4-0.1c-0.8-0.1-1.6,0.6-1.6,1.5c0.1,0.9,1,1.4,1.8,1.1
		c0.3-0.1,0.5-0.5,0.6-0.8c0.4,0.3,0.4,1,0.1,1.4c-0.4,0.6-1.1,0.8-1.8,0.8c-1.2,0-2.2-0.5-3-1.4c-0.3-0.6-0.5-1.4-0.5-2.1
		c0,0,0,0,0-0.1c0.8-2.5,3.4-3.6,5.7-2.4c0.7,0.6,1.3,1.4,1.8,2.2c0.7,1,1.3,2,1.9,3.1c0.3,0.5,1.1,0.1,0.8-0.5
		c-0.8-1.6-1.8-3.1-2.9-4.5c-0.2-0.3-0.5-0.6-0.7-0.8c0-0.1-0.1-0.2-0.2-0.2c0,0-0.1,0-0.1-0.1c-0.7-0.6-1.5-1-2.4-1.1
		c-2.7-0.2-4.9,2.1-4.7,4.8c0,0.7,0.2,1.3,0.6,2C78.2,51.3,78.2,51.4,78.3,51.5z"/>
	<linearGradient id="SVGID_70_" gradientUnits="userSpaceOnUse" x1="103.3951" y1="-0.5808" x2="198.4597" y2="40.2969">
		<stop  offset="0" style="stop-color:#B0925F"/>
		<stop  offset="0.2784" style="stop-color:#8A6F44"/>
		<stop  offset="0.4226" style="stop-color:#BA9A63"/>
		<stop  offset="0.5573" style="stop-color:#E1BC7C"/>
		<stop  offset="0.6275" style="stop-color:#F0C986"/>
		<stop  offset="0.7099" style="stop-color:#DFBA7B"/>
		<stop  offset="0.8734" style="stop-color:#B1925D"/>
		<stop  offset="1" style="stop-color:#8A6F44"/>
	</linearGradient>
	<path class="st70" d="M120,10.4c0.1,0.1,0.1,0.2,0.2,0.2c0.1,0.1,0.2,0.2,0.4,0.3c1.5,1.3,3.2,2.4,5,3.3c0.5,0.3,1-0.5,0.5-0.8
		c-1-0.5-2-1.1-3-1.8c-0.8-0.5-1.6-1.1-2.3-1.9c-1.2-2.3-0.1-4.9,2.4-5.7c0,0,0,0,0.1,0c0.7,0,1.4,0.2,2.1,0.5
		c0.8,0.8,1.4,1.8,1.4,3c0,0.6-0.2,1.3-0.7,1.7c-0.5,0.4-1.2,0.5-1.6,0c0.3-0.1,0.7-0.3,0.8-0.6c0.4-0.8-0.2-1.7-1.1-1.8
		c-0.9-0.1-1.6,0.7-1.5,1.6c0,0.1,0.1,0.3,0.1,0.4c0.2,1,1,1.8,1.9,2c1.2,0.3,2.4-0.3,3-1.3c1.4-2.1,0.1-4.5-1.8-5.7c0,0,0,0,0,0
		c-0.1-0.1-0.1-0.1-0.2-0.1c-0.3-0.2-0.6-0.3-1-0.4c-2.6-0.7-5.4,0.8-5.8,3.6c-0.2,1.3,0.3,2.4,1.1,3.3C120,10.3,120,10.3,120,10.4z
		 M123.8,7.9C123.8,7.9,123.8,7.9,123.8,7.9c0,0,0,0,0.1-0.1C123.9,7.9,123.8,7.9,123.8,7.9z"/>
	<linearGradient id="SVGID_71_" gradientUnits="userSpaceOnUse" x1="97.8694" y1="12.2697" x2="192.9334" y2="53.1472">
		<stop  offset="0" style="stop-color:#B0925F"/>
		<stop  offset="0.2784" style="stop-color:#8A6F44"/>
		<stop  offset="0.4226" style="stop-color:#BA9A63"/>
		<stop  offset="0.5573" style="stop-color:#E1BC7C"/>
		<stop  offset="0.6275" style="stop-color:#F0C986"/>
		<stop  offset="0.7099" style="stop-color:#DFBA7B"/>
		<stop  offset="0.8734" style="stop-color:#B1925D"/>
		<stop  offset="1" style="stop-color:#8A6F44"/>
	</linearGradient>
	<path class="st71" d="M181.2,45.6c-0.1,0.1-0.2,0.1-0.2,0.2c-0.1,0.1-0.2,0.2-0.3,0.4c-1.3,1.5-2.4,3.2-3.3,5
		c-0.3,0.5,0.5,1,0.8,0.5c0.5-1,1.1-2,1.8-3c0.5-0.8,1.1-1.6,1.9-2.3c2.3-1.2,4.9-0.1,5.7,2.4c0,0,0,0,0,0.1c0,0.7-0.2,1.4-0.5,2.1
		c-0.8,0.8-1.8,1.4-3,1.4c-0.6,0-1.3-0.2-1.7-0.7c-0.4-0.5-0.5-1.2,0-1.6c0.1,0.3,0.3,0.7,0.6,0.8c0.8,0.4,1.7-0.2,1.8-1.1
		c0.1-0.9-0.7-1.6-1.6-1.5c-0.1,0-0.3,0.1-0.4,0.1c-1,0.2-1.8,1-2,1.9c-0.3,1.2,0.3,2.4,1.3,3c2.1,1.4,4.5,0.1,5.7-1.8c0,0,0,0,0,0
		c0.1-0.1,0.1-0.1,0.1-0.2c0.2-0.3,0.3-0.6,0.4-1c0.7-2.6-0.8-5.4-3.6-5.8c-1.3-0.2-2.4,0.3-3.3,1.1
		C181.3,45.6,181.3,45.6,181.2,45.6z M183.8,49.5c0,0,0-0.1-0.1-0.1c0,0,0,0,0-0.1C183.7,49.4,183.8,49.4,183.8,49.5z"/>
</g>
<g>
	<g>
		<g>
			<path class="st72" d="M102.4,70.5c0.1-0.1,0.1-0.3,0-0.5c-0.1-0.2-0.3-0.4-0.5-0.5c-0.2-0.1-0.5-0.1-0.9,0
				c-0.4,0.1-0.7,0.3-1,0.7c-3.5,4.7-6.8,9.6-9.9,14.7c-3.1,5-6.3,10.7-9.8,16.8c-0.2-3.8-0.5-7.7-0.8-11.6c-0.3-4-0.7-7.9-1.2-11.7
				c-0.5-3.9-1.2-7.7-1.9-11.3c-0.8-3.7-1.8-7.1-3.1-10.3c-0.5-1.4-1.2-2.9-2-4.5c-0.8-1.5-1.7-3-2.7-4.4c-1-1.4-2.2-2.6-3.5-3.7
				c-1.3-1.1-2.7-2-4.1-2.6c-1.3-0.5-2.6-0.7-3.8-0.5c-1.2,0.2-2.3,0.7-3.4,1.4c-1,0.7-2,1.7-2.8,2.8c-0.8,1.1-1.5,2.4-2.1,3.7
				c-0.2,0.5,0,0.9,0.5,0.9c0.5,0.1,0.8-0.1,1.1-0.6c0.8-1.3,1.7-2.5,2.5-3.5c0.8-1,1.7-1.7,2.7-2.1c1.6-0.5,3-0.6,4.2-0.2
				c1.2,0.4,2.4,1.2,3.6,2.3c2.2,2,4,4.6,5.6,7.9C70.7,57,72,60.7,73,64.7c0.9,3.5,1.6,6.8,2.2,9.8c0.6,3.1,1.1,6.2,1.5,9.3
				c0.4,3.1,0.8,6.3,1.1,9.7c0.3,3.3,0.6,7,1,10.9c0.3,0.5,0.6,0.8,1,0.9c0.4,0.1,0.7-0.1,1-0.4c1.9-3.2,3.7-6.3,5.4-9
				c1.6-2.8,3.3-5.5,5-8.2c1.7-2.7,3.4-5.4,5.2-8.1C98.2,76.8,100.2,73.8,102.4,70.5z"/>
			<path class="st72" d="M113.4,85.1c-1.4-0.4-3.1-0.3-5.2,0.1c-1.8,0.4-3.5,1-5.1,1.9c-1.6,0.9-3,2-4.2,3.2
				c-1.2,1.2-2.2,2.5-2.9,3.8c-0.8,1.3-1.2,2.5-1.2,3.6c-0.1,0.7,0.2,1.2,0.8,1.6c0.6,0.4,1.3,0.6,2.2,0.8c1,0.1,2.1,0.1,3.3-0.1
				c1.3-0.2,2.5-0.5,3.7-0.8c1.2-0.3,2.3-0.7,3.2-1.2c0.9-0.5,1.6-0.9,1.9-1.2c0,0.3,0.1,0.7,0.2,1.2c0.1,0.5,0.3,0.9,0.6,1.2
				c0.5,0.5,1,0.6,1.4,0.3c0.5-0.4,0.7-0.7,0.7-1c0-0.7,0-1.4-0.1-2.2c-0.1-0.8-0.2-1.6-0.3-2.5c-0.1-0.4-0.5-0.5-1.1-0.5
				c-0.6,0-1.3,0.4-2,1.3c-0.4,0.4-1,0.9-1.8,1.4c-0.9,0.5-1.9,0.9-3,1.3c-1.1,0.4-2.2,0.7-3.4,0.8c-1.1,0.2-2.1,0.1-3-0.2
				c-0.6-0.2-0.7-0.7-0.4-1.6c0.3-0.9,1-1.8,1.9-2.9c1-1,2.1-2,3.5-3c1.4-0.9,2.8-1.6,4.4-1.9c1.6-0.4,3-0.4,4.2-0.1
				c1.2,0.3,2.2,0.7,3,1.4c0.2,0.2,0.4,0.2,0.8,0.1c0.3-0.1,0.6-0.2,0.9-0.4c0.3-0.2,0.5-0.4,0.6-0.7c0.1-0.3,0.1-0.5,0-0.8
				C116,86.4,114.8,85.5,113.4,85.1z"/>
			<path class="st72" d="M189.2,89.9c-0.1-0.3-0.3-0.5-0.5-0.5c-0.2,0-0.5,0.3-0.8,0.8c-1.7,2.8-3.7,4.8-5.8,5.9
				c-2.1,1.1-4.2,1.5-6.3,1.4c-2-0.2-3.9-0.9-5.7-2.3c-1.8-1.3-3.2-3-4.3-5.1c-0.3-0.5-0.6-0.7-0.9-0.7c-0.1,0-0.1,0-0.2,0
				c-0.2,0-0.5,0-0.8,0.1c-0.3,0.1-0.5,0.2-0.7,0.4c-1.7,1.3-3.6,2.5-5.6,3.6c-2.1,1.1-4.3,2.1-6.6,3c-2.3,0.8-4.8,1.5-7.3,2
				c-2.6,0.5-5.2,0.7-7.9,0.6c-1.2,0-2.6-0.1-4.1-0.3c-1.5-0.2-2.9-0.6-4.3-1.3c-1.4-0.7-2.5-1.6-3.5-2.9c-1-1.3-1.5-3-1.5-5.1
				c0.1-3.2,0.8-6.3,2-9.1c1.2-2.8,3.3-5.9,6.1-9.1c0.7-0.8,1.6-1.6,2.8-2.5c1.1-0.9,2.3-1.7,3.5-2.4c1.2-0.7,2.4-1.2,3.5-1.5
				c1.1-0.3,2-0.3,2.7,0c0.4,0.2,0.4,1-0.1,2.3c-0.5,1.3-1.4,2.9-2.6,4.8c-1.3,1.9-2.9,3.9-4.8,6.2c-4.9,5.7-10,8.7-12.4,10.8
				c-0.5,0.5-0.5,0.8,0.3,0.9c0.7,0.1,8.7-5.1,13.8-9.9c1.7-1.6,3.2-3.3,4.5-4.9c1.3-1.6,2.3-3.1,3.2-4.5c0.8-1.4,1.3-2.5,1.6-3.4
				c0.3-1.2,0.2-2.3-0.3-3.2c-0.5-1-1.5-1.5-2.9-1.6c-1.5-0.1-2.9,0.1-4.3,0.6c-1.4,0.5-2.7,1-3.9,1.7c-1.2,0.7-2.3,1.5-3.2,2.3
				c-1,0.8-1.7,1.6-2.3,2.2c-1.8,1.7-3.4,3.8-4.8,6.1c-1.4,2.3-2.5,4.6-3.3,7c-0.4,1-0.6,2.1-0.9,3.3c-0.2,1.2-0.3,2.4-0.3,3.6
				c0,1.2,0.2,2.5,0.5,3.8c0.3,1.3,0.9,2.5,1.7,3.6c1.4,2,3.3,3.4,5.8,4.1c2.5,0.8,5.1,1.2,7.7,1.3c1.4,0,2.9-0.1,4.4-0.2
				c1.5-0.1,3-0.4,4.6-0.8c1.6-0.4,3.4-0.9,5.2-1.6c1.9-0.7,3.9-1.5,6.2-2.5c1.8-0.8,3.5-1.8,5.1-3c1-0.7,1.9-1.4,2.6-2.1
				c0.1,0.5,0.4,1.1,0.7,1.7c1,1.9,2.5,3.6,4.3,4.9c1.9,1.4,3.9,2.1,6.2,2.3c2.3,0.2,4.7-0.4,7.1-1.6c2.5-1.3,4.8-3.5,6.9-6.8
				c0.2-0.2,0.3-0.6,0.3-1C189.4,90.6,189.4,90.2,189.2,89.9z"/>
		</g>
		<circle class="st72" cx="167.7" cy="73.3" r="1.6"/>
	</g>
</g>
<path class="st72" d="M160.1,111.4c-1.2,0-2.2-0.1-3-0.4c-1.2-0.4-1.8-1.2-1.8-2.2v-0.3h0.7v0.2c0,1.4,1.4,2.1,4.1,2.1
	c0.9,0,1.6-0.1,2.2-0.3c0.9-0.3,1.4-0.7,1.4-1.3c0-0.4-0.2-0.7-0.5-0.9c-0.2-0.2-0.6-0.3-1.2-0.4c-0.3-0.1-1-0.2-2.2-0.4
	c-1.3-0.2-2.2-0.4-2.7-0.6c-0.9-0.4-1.4-0.9-1.4-1.6c0-1.3,1.4-2,4.1-2c2.9,0,4.3,0.8,4.4,2.5h-0.7c-0.1-0.8-0.5-1.4-1.3-1.7
	c-0.5-0.2-1.3-0.3-2.4-0.3c-2.3,0-3.5,0.5-3.5,1.5c0,0.5,0.3,0.8,0.9,1.1c0.4,0.2,1.2,0.3,2.2,0.5c1.9,0.2,3.1,0.5,3.8,0.8
	c0.8,0.3,1.1,0.9,1.1,1.6c0,0.8-0.6,1.4-1.7,1.7C162,111.3,161.1,111.4,160.1,111.4z"/>
<path class="st72" d="M172.8,107.9h-4v3.4h-0.7v-7.9h4.9c2.5,0,3.8,0.7,3.8,2.2c0,0.8-0.5,1.4-1.5,1.8
	C174.6,107.8,173.7,107.9,172.8,107.9z M173,104h-4.3v3.3h4.3c0.8,0,1.4-0.1,2-0.3c0.7-0.3,1-0.7,1-1.3C176,104.6,175,104,173,104z"
	/>
<path class="st72" d="M188.8,111.4l-1.5-2.5h-5.8l-1.6,2.5h-0.8l5-7.9h0.6l4.8,7.9H188.8z M184.4,104.3l-2.6,4.1h5.1L184.4,104.3z"
	/>
</svg>
